<?xml version="1.0" standalone="no"?>
<!DOCTYPE svg PUBLIC "-//W3C//DTD SVG 1.1//EN" "http://www.w3.org/Graphics/SVG/1.1/DTD/svg11.dtd" >
<svg xmlns="http://www.w3.org/2000/svg" xmlns:xlink="http://www.w3.org/1999/xlink" version="1.1">
<metadata>
Created by FontForge 20170924 at Wed Apr 16 03:45:29 2014
 By www-data
</metadata>
<defs>
<font id="MFLiHei_Noncommercial-Regular" horiz-adv-x="1000" >
  <font-face 
    font-family="MF LiHei (Noncommercial) Regular"
    font-weight="400"
    font-stretch="normal"
    units-per-em="1000"
    panose-1="0 0 0 0 0 0 0 0 0 0"
    ascent="880"
    descent="-120"
    x-height="474"
    cap-height="798"
    bbox="-282 -402 2747 930"
    underline-thickness="50"
    underline-position="-150"
    unicode-range="U+000D-FFE5"
  />
<missing-glyph 
d="M263 12l215 368l-215 368v-736zM714 -25l-214 368l-215 -368h429zM736 12v736l-214 -368zM714 785h-429l215 -368zM230 830h540v-900h-540v900z" />
    <glyph glyph-name=".notdef" 
d="M263 12l215 368l-215 368v-736zM714 -25l-214 368l-215 -368h429zM736 12v736l-214 -368zM714 785h-429l215 -368zM230 830h540v-900h-540v900z" />
    <glyph glyph-name=".null" horiz-adv-x="0" 
 />
    <glyph glyph-name="nonmarkingreturn" unicode="&#xd;" horiz-adv-x="225" 
 />
    <glyph glyph-name="NULL" horiz-adv-x="0" 
 />
    <glyph glyph-name="NULL" horiz-adv-x="0" 
 />
    <glyph glyph-name="cid1" unicode=" " horiz-adv-x="225" 
 />
    <glyph glyph-name="cid2" unicode="!" horiz-adv-x="354" 
d="M293 121v-223h-233v223h233zM292 189h-231l-18 607h267z" />
    <glyph glyph-name="cid3" unicode="&#x22;" horiz-adv-x="550" 
d="M499 742v-260h-198v260h198zM247 742v-260h-198v260h198z" />
    <glyph glyph-name="cid4" unicode="#" horiz-adv-x="884" 
d="M359 351h123l46 170h-123zM58 39l54 195h-81v117h112l46 170h-122v116h153l44 159h216l-44 -159h124l43 159h215l-43 -159h79v-116h-111l-46 -170h121v-117h-152l-53 -195h-215l53 195h-123l-54 -195h-216z" />
    <glyph glyph-name="cid5" unicode="$" horiz-adv-x="805" 
d="M243 375h55v259h-55v-259zM523 53q18 0 31 13t13 32v206h-59v-251h15zM508 791v-86h264v-71h-264v-259h264v-304q0 -37 -25.5 -63t-63.5 -26h-175v-86h-210v86h-265v71h265v251h-265v401h265v86h210z" />
    <glyph glyph-name="cid6" unicode="%" horiz-adv-x="958" 
d="M513 178q0 38 26 64t63 26h225q38 0 64 -26t26 -64v-189q0 -37 -26 -63.5t-64 -26.5h-225q-37 0 -63 26.5t-26 63.5v189zM764 177q0 15 -10.5 25.5t-25.5 10.5h-27q-15 0 -25.5 -10.5t-10.5 -25.5v-182q0 -15 10.5 -25.5t25.5 -10.5h27q15 0 25.5 10.5t10.5 25.5v182z
M86 -105l582 901h211l-581 -901h-212zM38 681q0 38 26 64t64 26h224q37 0 63.5 -26t26.5 -64v-189q0 -37 -26.5 -63.5t-63.5 -26.5h-224q-38 0 -64 26.5t-26 63.5v189zM290 680q0 15 -10.5 25.5t-25.5 10.5h-28q-15 0 -25.5 -10.5t-10.5 -25.5v-182q0 -15 10.5 -25.5
t25.5 -10.5h28q15 0 25.5 10.5t10.5 25.5v182z" />
    <glyph glyph-name="cid7" unicode="&#x26;" horiz-adv-x="932" 
d="M454 492v185q0 15 -11 25.5t-25 10.5h-87q-15 0 -25.5 -10.5t-10.5 -25.5v-185l72 -45zM352 272l-92 -50v-210q0 -15 10.5 -25.5t25.5 -10.5h181l63 178zM832 357l-51 -171l123 -77v-184l-170 106l-41 -136h-559q-37 0 -63 26t-26 64v291l163 87l-129 80v261
q0 37 26.5 63.5t63.5 26.5h411q37 0 63.5 -26.5t26.5 -63.5v-261l-160 -86l83 -52l19 52h220z" />
    <glyph glyph-name="cid8" unicode="'" horiz-adv-x="294" 
d="M247 709v-235h-203v235h203z" />
    <glyph glyph-name="cid9" unicode="(" horiz-adv-x="354" 
d="M94 -107q-27 103 -41.5 209t-14.5 217q0 242 69 472h212q-37 -112 -56.5 -229.5t-19.5 -242.5q0 -217 62 -426h-211z" />
    <glyph glyph-name="cid10" unicode=")" horiz-adv-x="355" 
d="M49 -107q62 209 62 426q0 125 -19.5 242.5t-57.5 229.5h213q34 -115 51.5 -233t17.5 -239q0 -111 -14.5 -217t-42.5 -209h-210z" />
    <glyph glyph-name="cid11" unicode="*" horiz-adv-x="557" 
d="M212 632v159h131v-159l152 48l40 -124l-151 -48l93 -130l-105 -77l-95 129l-93 -129l-105 77l93 130l-150 48l39 124z" />
    <glyph glyph-name="cid12" unicode="+" horiz-adv-x="652" 
d="M438 616v-257h202v-72h-202v-256h-225v256h-201v72h201v257h225z" />
    <glyph glyph-name="cid13" unicode="," horiz-adv-x="325" 
d="M296 189l-54 -275h-213l55 275h212z" />
    <glyph glyph-name="cid14" unicode="-" horiz-adv-x="451" 
d="M49 365h351v-72h-351v72z" />
    <glyph glyph-name="cid15" unicode="." horiz-adv-x="316" 
d="M85 -80l-58 278h204l59 -278h-205z" />
    <glyph glyph-name="cid16" unicode="/" horiz-adv-x="458" 
d="M441 794l-198 -895h-225l198 895h225z" />
    <glyph glyph-name="cid17" unicode="0" horiz-adv-x="880" 
d="M278 721v-759h235q38 0 64.5 26.5t26.5 64.5v668h-326zM831 794v-722q0 -38 -14.5 -71.5t-39 -58t-58 -39t-70.5 -14.5h-599v905h781z" />
    <glyph glyph-name="cid18" unicode="1" horiz-adv-x="511" 
d="M488 -115h-457v73h114v764h-96v73h323v-837h116v-73z" />
    <glyph glyph-name="cid19" unicode="2" horiz-adv-x="781" 
d="M34 797h715v-306q0 -40 -13.5 -73.5t-37.5 -57.5t-57.5 -37.5t-74.5 -13.5h-303v-350h486v-73h-715v496h386q18 0 36 7.5t32 22t23 34.5t9 45v232h-486v74z" />
    <glyph glyph-name="cid20" unicode="3" horiz-adv-x="799" 
d="M749 393v-327q0 -38 -14.5 -71t-39 -58t-58 -39.5t-71.5 -14.5h-551v73h416q38 0 64.5 26.5t26.5 64.5v272h-508v74h381q31 0 55 12t40 31t24 41.5t8 42.5v202h-508v73h735v-256q0 -45 -15.5 -81.5t-41.5 -64.5h57z" />
    <glyph glyph-name="cid21" unicode="4" horiz-adv-x="887" 
d="M863 106h-157v-223h-229v223h-451l102 688h229l-91 -616h211v617h229v-617h157v-72z" />
    <glyph glyph-name="cid22" unicode="5" horiz-adv-x="816" 
d="M785 722h-522v-341h522v-313q0 -38 -14.5 -71t-39 -58t-58 -39.5t-70.5 -14.5h-569v73h431q38 0 65 26.5t27 64.5v259h-523v488h751v-74z" />
    <glyph glyph-name="cid23" unicode="6" horiz-adv-x="834" 
d="M481 -40q19 0 35.5 7t29 19.5t19.5 29t7 35.5v307h-294v-398h203zM801 722h-523v-291h523v-361q0 -38 -14.5 -71.5t-39 -58t-58 -39t-71.5 -14.5h-568v909h751v-74z" />
    <glyph glyph-name="cid24" unicode="7" horiz-adv-x="734" 
d="M467 722h-455v74h701l-291 -908h-228z" />
    <glyph glyph-name="cid25" unicode="8" horiz-adv-x="866" 
d="M285 722v-327h216q38 0 60 21.5t22 59.5v246h-298zM358 321q-38 0 -64.5 -21.5t-26.5 -59.5v-280h252q38 0 60.5 22t22.5 60v279h-244zM67 796h735v-256q0 -54 -27.5 -99t-72.5 -70h118v-301q0 -38 -14.5 -71.5t-39 -58t-58 -39t-70.5 -14.5h-590v307q0 51 25.5 91.5
t67.5 63.5h-74v447z" />
    <glyph glyph-name="cid26" unicode="9" horiz-adv-x="839" 
d="M35 -113v73h435q38 0 65 26.5t27 64.5v234h-527v510h754v-725q0 -38 -14 -71.5t-39 -58t-58 -39t-71 -14.5h-572zM264 722v-364h298v364h-298z" />
    <glyph glyph-name="cid27" unicode=":" horiz-adv-x="282" 
d="M231 219v-208h-196v208h196zM231 623v-208h-196v208h196z" />
    <glyph glyph-name="cid28" unicode=";" horiz-adv-x="404" 
d="M280 217l-44 -281h-196l44 281h196zM280 621v-208h-196v208h196z" />
    <glyph glyph-name="cid29" unicode="&#x3c;" horiz-adv-x="586" 
d="M13 342l284 400h252l-283 -400l283 -400h-252z" />
    <glyph glyph-name="cid30" unicode="=" horiz-adv-x="693" 
d="M49 265h631v-99h-631v99zM49 481h631v-99h-631v99z" />
    <glyph glyph-name="cid31" unicode="&#x3e;" horiz-adv-x="585" 
d="M289 -58h-253l283 400l-283 400h253l282 -400z" />
    <glyph glyph-name="cid32" unicode="?" horiz-adv-x="745" 
d="M233 -102v188h243v-188h-243zM362 722q-26 0 -46.5 -10.5t-34 -28.5t-20.5 -41.5t-7 -48.5v-132h-225v198q0 61 34 98t95 37h558v-361l-239 -291h-252l266 330v250h-129z" />
    <glyph glyph-name="cid33" unicode="@" horiz-adv-x="963" 
d="M521 162v323q0 11 -8 19t-19 8h-18q-11 0 -19 -8t-8 -19v-296q0 -11 8 -19t19 -8h45zM247 36q0 -26 18 -44.5t45 -18.5h612v-72h-738q-28 0 -52.5 10.5t-43 29t-29 43t-10.5 52.5v607q0 28 10.5 52.5t29 43t43 29t52.5 10.5h603q28 0 52.5 -10.5t43 -29t29 -43
t10.5 -52.5v-418q0 -28 -10.5 -52.5t-29 -43t-43 -29t-52.5 -10.5h-410q-37 0 -63.5 26t-26.5 64v314q0 38 26.5 64t63.5 26h216q38 0 64 -26t26 -64v-331h14q27 0 27 26v454q0 26 -18 44.5t-45 18.5h-351q-27 0 -45 -18.5t-18 -44.5v-607z" />
    <glyph glyph-name="cid34" unicode="A" horiz-adv-x="957" 
d="M370 256h218l-110 342zM615 797l318 -910h-227l-95 296h-265l-93 -296h-229l319 910h272z" />
    <glyph glyph-name="cid35" unicode="B" horiz-adv-x="894" 
d="M498 392q30 1 52.5 14t37.5 31.5t22.5 40t7.5 41.5v204h-340v-331h220zM527 -44q19 0 35.5 7t29 19.5t19.5 29t7 35.5v271h-340v-362h249zM845 797v-259q0 -45 -15.5 -82t-41.5 -64h57v-326q0 -38 -14.5 -71t-39 -58t-58 -39.5t-70.5 -14.5h-613v914h795z" />
    <glyph glyph-name="cid36" unicode="C" horiz-adv-x="814" 
d="M278 -40h526v-73h-754v907h754v-73h-526v-761z" />
    <glyph glyph-name="cid37" unicode="D" horiz-adv-x="906" 
d="M675 794q37 0 70.5 -14.5t58 -39.5t39 -58t14.5 -70v-538q0 -37 -14.5 -70t-39 -58t-58 -39.5t-70.5 -14.5h-625v902h625zM278 -34h261q38 0 64.5 26.5t26.5 64.5v573q0 38 -26.5 64.5t-64.5 26.5h-261v-755z" />
    <glyph glyph-name="cid38" unicode="E" horiz-adv-x="792" 
d="M779 725h-501v-334h483v-73h-483v-362h501v-72h-501v-1h-228v915h729v-73z" />
    <glyph glyph-name="cid39" unicode="F" horiz-adv-x="780" 
d="M779 725h-501v-334h447v-73h-447v-435h-228v915h729v-73z" />
    <glyph glyph-name="cid40" unicode="G" horiz-adv-x="940" 
d="M907 70q0 -38 -14 -71.5t-39 -58t-58 -39t-71 -14.5h-679v911h861v-73h-633v-765h316q38 0 64 26.5t26 64.5v267h-289v73h516v-321z" />
    <glyph glyph-name="cid41" unicode="H" horiz-adv-x="927" 
d="M877 798v-911h-228v431h-371v-431h-228v911h228v-407h371v407h228z" />
    <glyph glyph-name="cid42" unicode="I" horiz-adv-x="501" 
d="M465 724h-101v-764h101v-73h-432v73h103v764h-103v74h432v-74z" />
    <glyph glyph-name="cid43" unicode="J" horiz-adv-x="432" 
d="M381 798v-818q0 -19 -7 -35.5t-19.5 -29t-29 -19.5t-35.5 -7h-276v73h104q14 0 25 10.5t11 25.5v800h227z" />
    <glyph glyph-name="cid44" unicode="K" horiz-adv-x="812" 
d="M777 773l-291 -452l291 -432h-241l-258 382v-387h-228v910h228v-421l258 400h241z" />
    <glyph glyph-name="cid45" unicode="L" horiz-adv-x="626" 
d="M278 795v-835h345v-73h-573v908h228z" />
    <glyph glyph-name="cid46" unicode="M" horiz-adv-x="1134" 
d="M470 795l96 -500l98 500h283l148 -907h-210l-97 593l-124 -577h-194l-125 579l-96 -595h-210l148 907h283z" />
    <glyph glyph-name="cid47" unicode="N" horiz-adv-x="877" 
d="M324 793l280 -591v591h223v-909h-266l-288 597v-597h-223v910h223v-1h51z" />
    <glyph glyph-name="cid48" unicode="O" horiz-adv-x="907" 
d="M858 72q0 -38 -14.5 -71.5t-39 -58t-58 -39t-70.5 -14.5h-626v729q0 37 14.5 70.5t39 58.5t57.5 39.5t71 14.5h626v-729zM540 -38q38 0 64.5 26.5t26.5 64.5v674h-262q-19 0 -35.5 -7t-29 -19.5t-19.5 -29t-7 -35.5v-674h262z" />
    <glyph glyph-name="cid49" unicode="P" horiz-adv-x="873" 
d="M278 -114h-228v912h807v-365q0 -38 -14.5 -71t-39 -58t-58 -39t-70.5 -14h-397v-365zM278 323h261q38 0 64.5 27t26.5 65v309h-352v-401z" />
    <glyph glyph-name="cid50" unicode="Q" horiz-adv-x="896" 
d="M270 711v-749h262q38 0 64.5 26.5t26.5 64.5v658h-353zM43 785h809v-713q0 -38 -14.5 -71.5t-39.5 -58t-58.5 -39t-70.5 -14.5h-12l72 -112h-260l-72 112h-354v896z" />
    <glyph glyph-name="cid51" unicode="R" horiz-adv-x="916" 
d="M278 397h261q19 0 35.5 7t29 19.5t19.5 29t7 35.5v236h-352v-327zM278 -114h-228v912h807v-292q0 -34 -11.5 -64t-31.5 -54t-47.5 -40t-59.5 -22l162 -440h-246l-161 437h-184v-437z" />
    <glyph glyph-name="cid52" unicode="S" horiz-adv-x="870" 
d="M838 724h-487q-38 0 -64.5 -26.5t-26.5 -64.5v-241h578v-324q0 -38 -14.5 -71t-39 -58t-58 -39.5t-70.5 -14.5h-624v73h486q38 0 65 26.5t27 64.5v269h-578v297q0 37 14.5 70.5t39 58.5t58 39.5t71.5 14.5h623v-74z" />
    <glyph glyph-name="cid53" unicode="T" horiz-adv-x="774" 
d="M759 724h-258v-839h-229v839h-257v74h744v-74z" />
    <glyph glyph-name="cid54" unicode="U" horiz-adv-x="906" 
d="M278 -43h261q38 0 64.5 26.5t26.5 64.5v748h227v-729q0 -38 -14.5 -71.5t-39 -58t-58 -39t-70.5 -14.5h-625v912h228v-839z" />
    <glyph glyph-name="cid55" unicode="V" horiz-adv-x="905" 
d="M255 795l197 -705l198 705h228l-256 -911h-340l-255 911h228z" />
    <glyph glyph-name="cid56" unicode="W" horiz-adv-x="1111" 
d="M176 -116l-137 910h210l96 -632l113 616h194l113 -622l97 638h210l-138 -910h-291l-89 480l-88 -480h-290z" />
    <glyph glyph-name="cid57" unicode="X" horiz-adv-x="911" 
d="M287 795l169 -264l168 264h246l-291 -456l291 -455h-246l-168 264l-169 -264h-246l291 455l-291 456h246z" />
    <glyph glyph-name="cid58" unicode="Y" horiz-adv-x="853" 
d="M235 794l189 -283l198 283h213l-297 -451v-459h-228v459l-297 451h222z" />
    <glyph glyph-name="cid59" unicode="Z" horiz-adv-x="881" 
d="M36 796h819l-521 -839h519v-73h-828l520 838h-509v74z" />
    <glyph glyph-name="cid60" unicode="[" horiz-adv-x="450" 
d="M274 722v-751h152v-72h-377v895h377v-72h-152z" />
    <glyph glyph-name="cid61" unicode="\" horiz-adv-x="458" 
d="M242 794l198 -895h-225l-198 895h225z" />
    <glyph glyph-name="cid62" unicode="]" horiz-adv-x="450" 
d="M23 722v72h377v-895h-377v72h152v751h-152z" />
    <glyph glyph-name="cid63" unicode="^" horiz-adv-x="751" 
d="M504 794l221 -428h-202l-148 284l-146 -284h-203l221 428h257z" />
    <glyph glyph-name="cid64" unicode="_" horiz-adv-x="556" 
d="M49 39h457v-72h-457v72z" />
    <glyph glyph-name="cid65" unicode="`" horiz-adv-x="466" 
d="M198 471l-178 321h247l178 -321h-247z" />
    <glyph glyph-name="cid66" unicode="a" horiz-adv-x="793" 
d="M272 -44h155q38 0 64.5 26.5t26.5 64.5v127h-246v-218zM745 66q0 -38 -14.5 -71t-39.5 -58t-58 -39.5t-70 -14.5h-518v364h471v152h-471v73h700v-406z" />
    <glyph glyph-name="cid67" unicode="b" horiz-adv-x="804" 
d="M278 477h497v-411q0 -38 -14 -71t-39 -58t-58 -39.5t-71 -14.5h-543v916h228v-322zM278 -44h179q38 0 64.5 26.5t26.5 64.5v358h-270v-449z" />
    <glyph glyph-name="cid68" unicode="c" horiz-adv-x="703" 
d="M278 -44h404v-73h-632v592h632v-72h-404v-447z" />
    <glyph glyph-name="cid69" unicode="d" horiz-adv-x="820" 
d="M543 795h228v-729q0 -38 -14.5 -71t-39 -58t-58 -39.5t-70.5 -14.5h-570v597h524v315zM452 -44q38 0 64.5 26.5t26.5 64.5v361h-297v-452h206z" />
    <glyph glyph-name="cid70" unicode="e" horiz-adv-x="853" 
d="M278 179h212q38 0 64.5 26.5t26.5 64.5v133h-303v-224zM278 107v-151h531v-73h-759v592h759v-232q0 -28 -10.5 -53t-29.5 -43.5t-44 -29t-53 -10.5h-394z" />
    <glyph glyph-name="cid71" unicode="f" horiz-adv-x="577" 
d="M404 721v-239h152v-72h-152v-527h-229v527h-162v72h162v312h372v-73h-143z" />
    <glyph glyph-name="cid72" unicode="g" horiz-adv-x="840" 
d="M36 -399v73h435q38 0 65 26.5t27 64.5v142h-527v568h754v-692q0 -38 -14 -71t-39 -58t-58 -39t-71 -14h-572zM265 403v-423h298v423h-298z" />
    <glyph glyph-name="cid73" unicode="h" horiz-adv-x="784" 
d="M50 -117v906h228v-356h486v-550h-227v477h-259v-477h-228z" />
    <glyph glyph-name="cid74" unicode="i" horiz-adv-x="329" 
d="M277 742v-199h-228v199h228zM278 474v-591h-228v591h228z" />
    <glyph glyph-name="cid75" unicode="j" horiz-adv-x="431" 
d="M380 469v-778q0 -19 -7 -35.5t-19.5 -29t-29 -19.5t-35.5 -7h-277v73h104q15 0 25.5 10.5t10.5 25.5v760h228zM380 742v-199h-228v199h228z" />
    <glyph glyph-name="cid76" unicode="k" horiz-adv-x="763" 
d="M736 475l-243 -290l262 -300h-236l-241 278v-278h-228v906h228v-582l223 266h235z" />
    <glyph glyph-name="cid77" unicode="l" horiz-adv-x="330" 
d="M278 791v-906h-228v906h228z" />
    <glyph glyph-name="cid78" unicode="m" horiz-adv-x="987" 
d="M608 410v-525h-228v525h-102v-525h-228v597h887v-597h-227v525h-102z" />
    <glyph glyph-name="cid79" unicode="n" horiz-adv-x="825" 
d="M278 410v-525h-228v597h724v-597h-228v525h-268z" />
    <glyph glyph-name="cid80" unicode="o" horiz-adv-x="831" 
d="M48 482h735v-410q0 -38 -14.5 -71.5t-39 -58t-58 -39t-70.5 -14.5h-553v593zM276 410v-448h188q38 0 64.5 26.5t26.5 64.5v357h-279z" />
    <glyph glyph-name="cid81" unicode="p" horiz-adv-x="873" 
d="M278 -402h-228v880h807v-387q0 -38 -14.5 -71t-39 -58t-58 -39t-70.5 -14h-397v-311zM278 -19h261q19 0 35.5 7t29 19.5t19.5 29.5t7 36v333h-352v-425z" />
    <glyph glyph-name="cid82" unicode="q" horiz-adv-x="831" 
d="M554 -101h-518v578h745v-878h-227v300zM554 405h-289v-433h289v433z" />
    <glyph glyph-name="cid83" unicode="r" horiz-adv-x="536" 
d="M50 -115v590h228v-130l242 139v-110l-242 -139v-350h-228z" />
    <glyph glyph-name="cid84" unicode="s" horiz-adv-x="798" 
d="M756 406h-396q-20 0 -36.5 -8t-28.5 -21t-19 -30.5t-7 -35.5v-92h487v-197q0 -29 -11 -53.5t-29.5 -43.5t-44 -29.5t-53.5 -10.5h-577v73h395q19 0 35.5 7t29 19.5t19.5 29t7 35.5v97h-486v157q0 37 10 69t31 55.5t53.5 37t77.5 13.5h543v-72z" />
    <glyph glyph-name="cid85" unicode="t" horiz-adv-x="587" 
d="M394 690v-209h170v-72h-170v-451h170v-73h-398v524h-151v72h151v209h228z" />
    <glyph glyph-name="cid86" unicode="u" horiz-adv-x="833" 
d="M784 474v-589h-228v30q-17 -14 -40.5 -22t-55.5 -8h-411v589h228v-516h143q46 0 78.5 16t57.5 50v450h228z" />
    <glyph glyph-name="cid87" unicode="v" horiz-adv-x="808" 
d="M784 474l-256 -589h-248l-256 589h229l151 -351l152 351h228z" />
    <glyph glyph-name="cid88" unicode="w" horiz-adv-x="943" 
d="M143 -115l-100 596h182l57 -417l113 385h159l113 -390l58 422h182l-81 -596h-263l-89 304l-89 -304h-242z" />
    <glyph glyph-name="cid89" unicode="x" horiz-adv-x="826" 
d="M539 -115l-126 149l-126 -149h-246l249 295l-249 296h246l126 -149l126 149h246l-249 -296l249 -295h-246z" />
    <glyph glyph-name="cid90" unicode="y" horiz-adv-x="861" 
d="M279 476l172 -276l153 276h246l-481 -874h-246l195 356l-286 518h247z" />
    <glyph glyph-name="cid91" unicode="z" horiz-adv-x="801" 
d="M41 475h716l-399 -517h404v-73h-725l399 517h-395v73z" />
    <glyph glyph-name="cid92" unicode="{" horiz-adv-x="333" 
d="M241 5q-3 -13 9 -28q10 -11 26 -11h21v-72h-174q-31 0 -54 23q-21 24 -18 56l30 294q3 35 -44 37v72q47 2 44 37l-30 294q-3 30 18 56q24 24 54 24h174v-72h-21q-16 0 -26 -12q-12 -13 -9 -28l28 -263q3 -33 -13 -51.5t-45 -20.5q29 -2 45 -21t13 -51z" />
    <glyph glyph-name="cid93" unicode="|" horiz-adv-x="324" 
d="M274 790v-894h-225v894h225z" />
    <glyph glyph-name="cid94" unicode="}" horiz-adv-x="332" 
d="M63 268q-4 32 12.5 51t45.5 21q-29 2 -45.5 20.5t-12.5 51.5l28 263q3 15 -9 28q-11 12 -26 12h-21v72h174q30 0 54 -24q21 -26 18 -56l-30 -294q-3 -35 44 -37v-72q-47 -2 -44 -37l30 -294q3 -32 -18 -56q-23 -23 -54 -23h-174v72h21q16 0 26 11q12 15 9 28z" />
    <glyph glyph-name="cid95" unicode="~" horiz-adv-x="764" 
d="M764 264q-41 -62 -81 -88t-80.5 -26.5t-80 18.5t-79 47.5t-78.5 61.5t-77 59t-75 40t-73 6t-71 -44t-69 -111v234q41 62 81.5 87.5t80.5 26t80 -19t79.5 -48.5t78 -62t76.5 -59.5t75.5 -41t73.5 -6.5t70.5 44t68.5 111v-229z" />
    <glyph glyph-name="cid22354" unicode="&#xa5;" horiz-adv-x="810" 
d="M111 216h181v167h-203v72h169l-194 373h234l107 -224l107 224h234l-195 -373h170v-72h-204v-167h182v-72h-182v-204h-225v204h-181v72z" />
    <glyph glyph-name="cid7713" unicode="&#xa9;" horiz-adv-x="1069" 
d="M551 172h156v-72h-238q-15 0 -31 6t-28.5 16t-20.5 23t-8 27v401q0 19 7.5 35.5t20 28.5t28 19t32.5 7h238v-72h-156v-419zM100 649q0 37 14 70t38.5 57.5t57.5 38.5t70 14h509q37 0 70 -14t57.5 -38.5t38.5 -57.5t14 -70v-535q0 -37 -14 -69.5t-38.5 -57t-57.5 -38.5
t-70 -14h-509q-37 0 -70 14t-57.5 38.5t-38.5 57t-14 69.5v535zM406 757q-37 0 -63.5 -26t-26.5 -64v-571q0 -38 26.5 -64t63.5 -26h258q37 0 63 26t26 64v571q0 38 -26 64t-63 26h-258z" />
    <glyph glyph-name="cid162" unicode="&#xb0;" horiz-adv-x="476" 
d="M62 778q0 38 26 64t64 26h175q38 0 64 -26t26 -64v-117q0 -37 -26 -63.5t-64 -26.5h-175q-38 0 -64 26.5t-26 63.5v117zM292 778q0 14 -10.5 25t-25.5 11h-32q-15 0 -25.5 -11t-10.5 -25v-111q0 -15 10.5 -25.5t25.5 -10.5h32q15 0 25.5 10.5t10.5 25.5v111z" />
    <glyph glyph-name="cid99" unicode="&#xb7;" 
d="M111 278l-38 233h229l38 -233h-229z" />
    <glyph glyph-name="cid99" unicode="&#x30fb;" 
d="M111 278l-38 233h229l38 -233h-229z" />
    <glyph glyph-name="cid99" unicode="&#x2022;" 
d="M111 278l-38 233h229l38 -233h-229z" />
    <glyph glyph-name="cid9910" unicode="&#x2013;" 
d="M14 178h479v-76h-479v76z" />
    <glyph glyph-name="cid105" unicode="&#x2014;" 
d="M307 364h369v-76h-369v76z" />
    <glyph glyph-name="cid109" unicode="&#x2018;" 
d="M929 930l-90 -260h-207l90 260h207z" />
    <glyph glyph-name="cid110" unicode="&#x2019;" 
d="M368 930l-90 -260h-207l90 260h207z" />
    <glyph glyph-name="cid111" unicode="&#x201c;" 
d="M913 930l-90 -260h-207l90 260h207zM643 930l-90 -260h-207l90 260h207z" />
    <glyph glyph-name="cid112" unicode="&#x201d;" 
d="M653 930l-90 -260h-207l90 260h207zM383 930l-90 -260h-207l90 260h207z" />
    <glyph glyph-name="cid108" unicode="&#x2026;" 
d="M851 401l32 -194h-213l-31 194h212zM299 401l31 -194h-212l-32 194h213zM575 401l32 -194h-213l-32 194h213z" />
    <glyph glyph-name="cid108" unicode="&#x22ef;" 
d="M851 401l32 -194h-213l-31 194h212zM299 401l31 -194h-212l-32 194h213zM575 401l32 -194h-213l-32 194h213z" />
    <glyph glyph-name="cid599" unicode="&#x205d;" 
d="M521 29l-194 -32v213l194 31v-212zM521 581l-194 -31v212l194 32v-213zM521 305l-194 -32v213l194 32v-213z" />
    <glyph glyph-name="cid599" unicode="&#xfe19;" 
d="M521 29l-194 -32v213l194 31v-212zM521 581l-194 -31v212l194 32v-213zM521 305l-194 -32v213l194 32v-213z" />
    <glyph glyph-name="cid599" unicode="&#xe796;" 
d="M521 29l-194 -32v213l194 31v-212zM521 581l-194 -31v212l194 32v-213zM521 305l-194 -32v213l194 32v-213z" />
    <glyph glyph-name="cid22353" unicode="&#x20ac;" horiz-adv-x="625" 
d="M57 551h89v281h421v-72h-196v-209h155v-72h-155v-203h155v-71h-155v-200h196v-72h-421v272h-89v71h89v203h-89v72z" />
    <glyph glyph-name="cid22353" unicode="&#xe76c;" horiz-adv-x="625" 
d="M57 551h89v281h421v-72h-196v-209h155v-72h-155v-203h155v-71h-155v-200h196v-72h-421v272h-89v71h89v203h-89v72z" />
    <glyph glyph-name="cid7714" unicode="&#x2122;" horiz-adv-x="974" 
d="M414 786h-88v-361h-151v361h-87v72h326v-72zM849 860l30 -435h-126l-11 190l-25 -117h-141l-33 147l-11 -220h-126l38 435h165l37 -197l37 197h166z" />
    <glyph glyph-name="cid4162" unicode="&#x2f00;" 
d="M27 399h946v-76h-946v76z" />
    <glyph glyph-name="cid4162" unicode="&#x4e00;" 
d="M27 399h946v-76h-946v76z" />
    <glyph glyph-name="cid4707" unicode="&#x2f01;" 
d="M619 825v-948h-238v948h238z" />
    <glyph glyph-name="cid4707" unicode="&#x4e28;" 
d="M619 825v-948h-238v948h238z" />
    <glyph glyph-name="cid4722" unicode="&#x2f02;" 
d="M582 549l74 -354h-238l-74 354h238z" />
    <glyph glyph-name="cid4722" unicode="&#x4e36;" 
d="M582 549l74 -354h-238l-74 354h238z" />
    <glyph glyph-name="cid4709" unicode="&#x2f03;" 
d="M673 824l-109 -947h-238l109 947h238z" />
    <glyph glyph-name="cid4709" unicode="&#x4e3f;" 
d="M673 824l-109 -947h-238l109 947h238z" />
    <glyph glyph-name="cid4185" unicode="&#x2f04;" 
d="M39 790h892l-555 -837h590v-76h-932l562 837h-557v76z" />
    <glyph glyph-name="cid4185" unicode="&#x4e59;" 
d="M39 790h892l-555 -837h590v-76h-932l562 837h-557v76z" />
    <glyph glyph-name="cid1597" unicode="&#x2f06;" 
d="M91 742h817v-76h-817v76zM25 27h949v-75h-949v75z" />
    <glyph glyph-name="cid1597" unicode="&#x4e8c;" 
d="M91 742h817v-76h-817v76zM25 27h949v-75h-949v75z" />
    <glyph glyph-name="cid4867" unicode="&#x2f07;" 
d="M618 841v-171h355v-76h-947v76h354v171h238z" />
    <glyph glyph-name="cid4867" unicode="&#x4ea0;" 
d="M618 841v-171h355v-76h-947v76h354v171h238z" />
    <glyph glyph-name="cid3238" unicode="&#x2f08;" 
d="M701 819l-126 -279l388 -664h-237l-257 432l-195 -432h-238l428 943h237z" />
    <glyph glyph-name="cid3238" unicode="&#x4eba;" 
d="M701 819l-126 -279l388 -664h-237l-257 432l-195 -432h-238l428 943h237z" />
    <glyph glyph-name="cid1592" unicode="&#x2f09;" 
d="M398 824v-585l-105 -363h-237l105 363v585h237zM779 824v-867h165v-76h-402v943h237z" />
    <glyph glyph-name="cid1592" unicode="&#x513f;" 
d="M398 824v-585l-105 -363h-237l105 363v585h237zM779 824v-867h165v-76h-402v943h237z" />
    <glyph glyph-name="cid3270" unicode="&#x2f0a;" 
d="M514 823l438 -947h-247l-199 430l-212 -430h-246l337 690l-118 257h247z" />
    <glyph glyph-name="cid3270" unicode="&#x5165;" 
d="M514 823l438 -947h-247l-199 430l-212 -430h-246l337 690l-118 257h247z" />
    <glyph glyph-name="cid982" unicode="&#x2f0b;" 
d="M462 817l-185 -940h-237l184 940h238zM780 817l180 -940h-237l-180 940h237z" />
    <glyph glyph-name="cid982" unicode="&#x516b;" 
d="M462 817l-185 -940h-237l184 940h238zM780 817l180 -940h-237l-180 940h237z" />
    <glyph glyph-name="cid4765" unicode="&#x2f0c;" 
d="M292 718v-838h-237v914h890v-819q0 -20 -7.5 -37t-20.5 -30t-30.5 -20.5t-36.5 -7.5h-257v76h86q12 0 20 8t8 21v733h-415z" />
    <glyph glyph-name="cid4765" unicode="&#x5182;" 
d="M292 718v-838h-237v914h890v-819q0 -20 -7.5 -37t-20.5 -30t-30.5 -20.5t-36.5 -7.5h-257v76h86q12 0 20 8t8 21v733h-415z" />
    <glyph glyph-name="cid4884" unicode="&#x2f0d;" 
d="M265 691v-158h-236v234h941v-234h-237v158h-468z" />
    <glyph glyph-name="cid4884" unicode="&#x5196;" 
d="M265 691v-158h-236v234h941v-234h-237v158h-468z" />
    <glyph glyph-name="cid4879" unicode="&#x2f0e;" 
d="M590 800l42 -357h-212l-43 357h213zM367 -122l53 516h212l-53 -516h-212z" />
    <glyph glyph-name="cid4879" unicode="&#x51ab;" 
d="M590 800l42 -357h-212l-43 357h213zM367 -122l53 516h212l-53 -516h-212z" />
    <glyph glyph-name="cid2091" unicode="&#x2f0f;" 
d="M63 809h769v-851h105v-76h-342v851h-295v-851h-237v927z" />
    <glyph glyph-name="cid2091" unicode="&#x51e0;" 
d="M63 809h769v-851h105v-76h-342v851h-295v-851h-237v927z" />
    <glyph glyph-name="cid5017" unicode="&#x2f10;" 
d="M47 805h236v-834h395q16 0 27 11t11 27v796h236v-815q0 -20 -7.5 -37t-20 -30t-30 -20.5t-37.5 -7.5h-810v910z" />
    <glyph glyph-name="cid5017" unicode="&#x51f5;" 
d="M47 805h236v-834h395q16 0 27 11t11 27v796h236v-815q0 -20 -7.5 -37t-20 -30t-30 -20.5t-37.5 -7.5h-810v910z" />
    <glyph glyph-name="cid1431" unicode="&#x2f11;" 
d="M40 796h919v-802q0 -24 -9 -44.5t-24.5 -36t-36 -24.5t-43.5 -9h-257v76h105q11 0 19.5 8t8.5 21v735h-300l-131 -840h-237l131 840h-145v76z" />
    <glyph glyph-name="cid1431" unicode="&#x5200;" 
d="M40 796h919v-802q0 -24 -9 -44.5t-24.5 -36t-36 -24.5t-43.5 -9h-257v76h105q11 0 19.5 8t8.5 21v735h-300l-131 -840h-237l131 840h-145v76z" />
    <glyph glyph-name="cid2543" unicode="&#x2f12;" 
d="M45 633h206l48 189h237l-48 -189h466v-639q0 -24 -9 -44.5t-24 -36t-35.5 -24.5t-44.5 -9h-309v76h157q11 0 20 8t9 20v574h-248l-170 -678h-236l169 678h-188v75z" />
    <glyph glyph-name="cid2543" unicode="&#x529b;" 
d="M45 633h206l48 189h237l-48 -189h466v-639q0 -24 -9 -44.5t-24 -36t-35.5 -24.5t-44.5 -9h-309v76h157q11 0 20 8t9 20v574h-248l-170 -678h-236l169 678h-188v75z" />
    <glyph glyph-name="cid4860" unicode="&#x2f13;" 
d="M36 412l128 410h209l-37 -117h628v-711q0 -24 -9 -44.5t-24.5 -36t-36 -24.5t-43.5 -9h-338v76h186q11 0 19.5 8t8.5 20v645h-415l-68 -217h-208z" />
    <glyph glyph-name="cid4860" unicode="&#x52f9;" 
d="M36 412l128 410h209l-37 -117h628v-711q0 -24 -9 -44.5t-24.5 -36t-36 -24.5t-43.5 -9h-338v76h186q11 0 19.5 8t8.5 20v645h-415l-68 -217h-208z" />
    <glyph glyph-name="cid4710" unicode="&#x2f14;" 
d="M287 823v-367l647 226v-95l-647 -226v-390h662v-76h-899v928h237z" />
    <glyph glyph-name="cid4710" unicode="&#x5315;" 
d="M287 823v-367l647 226v-95l-647 -226v-390h662v-76h-899v928h237z" />
    <glyph glyph-name="cid4740" unicode="&#x2f15;" 
d="M311 -32h615v-76h-853v911h853v-76h-615v-759z" />
    <glyph glyph-name="cid4740" unicode="&#x531a;" 
d="M311 -32h615v-76h-853v911h853v-76h-615v-759z" />
    <glyph glyph-name="cid3397" unicode="&#x2f17;" 
d="M26 440h355v384h238v-384h355v-75h-355v-487h-238v487h-355v75z" />
    <glyph glyph-name="cid3397" unicode="&#x5341;" 
d="M26 440h355v384h238v-384h355v-75h-355v-487h-238v487h-355v75z" />
    <glyph glyph-name="cid1150" unicode="&#x2f18;" 
d="M201 823h236v-946h-236v946zM509 619h204l86 -607h-204z" />
    <glyph glyph-name="cid1150" unicode="&#x535c;" 
d="M201 823h236v-946h-236v946zM509 619h204l86 -607h-204z" />
    <glyph glyph-name="cid4946" unicode="&#x2f19;" 
d="M712 827v-703q0 -20 -7.5 -38t-20.5 -31.5t-30.5 -21.5t-36.5 -8h-123v79h15q8 0 13.5 6t5.5 14v624h-55v-871h-185v950h424z" />
    <glyph glyph-name="cid4946" unicode="&#x5369;" 
d="M712 827v-703q0 -20 -7.5 -38t-20.5 -31.5t-30.5 -21.5t-36.5 -8h-123v79h15q8 0 13.5 6t5.5 14v624h-55v-871h-185v950h424z" />
    <glyph glyph-name="cid1228" unicode="&#x2f1a;" 
d="M44 792h911v-76h-674v-841h-237v917z" />
    <glyph glyph-name="cid1228" unicode="&#x5382;" 
d="M44 792h911v-76h-674v-841h-237v917z" />
    <glyph glyph-name="cid5020" unicode="&#x2f1b;" 
d="M247 818h252l-180 -857h361q11 0 15 6q6 7 4 16l-95 507h246l97 -514q3 -18 -1 -34.5t-14 -29t-25.5 -20t-33.5 -7.5h-822z" />
    <glyph glyph-name="cid5020" unicode="&#x53b6;" 
d="M247 818h252l-180 -857h361q11 0 15 6q6 7 4 16l-95 507h246l97 -514q3 -18 -1 -34.5t-14 -29t-25.5 -20t-33.5 -7.5h-822z" />
    <glyph glyph-name="cid4283" unicode="&#x2f1c;" 
d="M921 432l-253 -239l261 -241h44v-76h-303l-170 159l-169 -159h-304v76h45l261 241l-254 239v232h238v-146l183 -170l184 170v197h-605v76h842v-359z" />
    <glyph glyph-name="cid4283" unicode="&#x53c8;" 
d="M921 432l-253 -239l261 -241h44v-76h-303l-170 159l-169 -159h-304v76h45l261 241l-254 239v232h238v-146l183 -170l184 170v197h-605v76h842v-359z" />
    <glyph glyph-name="cid2407" unicode="&#x2f1d;" 
d="M694 713h-389v-741h360q12 0 20.5 8.5t8.5 19.5v713zM68 789h863v-779q0 -24 -9 -44.5t-24.5 -36t-36 -24.5t-44.5 -9h-749v893z" />
    <glyph glyph-name="cid2407" unicode="&#x53e3;" 
d="M694 713h-389v-741h360q12 0 20.5 8.5t8.5 19.5v713zM68 789h863v-779q0 -24 -9 -44.5t-24.5 -36t-36 -24.5t-44.5 -9h-749v893z" />
    <glyph glyph-name="cid5523" unicode="&#x2f1e;" 
d="M287 720v-738h396q12 0 20.5 8.5t8.5 20.5v709h-425zM50 796h899v-795q0 -20 -7.5 -37t-20 -30t-30 -20.5t-37.5 -7.5h-804v890z" />
    <glyph glyph-name="cid5523" unicode="&#x56d7;" 
d="M287 720v-738h396q12 0 20.5 8.5t8.5 20.5v709h-425zM50 796h899v-795q0 -20 -7.5 -37t-20 -30t-30 -20.5t-37.5 -7.5h-804v890z" />
    <glyph glyph-name="cid3698" unicode="&#x2f1f;" 
d="M622 824v-273h312v-76h-312v-487h350v-76h-944v76h351v487h-307v76h307v273h243z" />
    <glyph glyph-name="cid3698" unicode="&#x571f;" 
d="M622 824v-273h312v-76h-312v-487h350v-76h-944v76h351v487h-307v76h307v273h243z" />
    <glyph glyph-name="cid3414" unicode="&#x2f20;" 
d="M618 821v-322h351v-76h-351v-454h287v-76h-811v76h286v454h-350v76h350v322h238z" />
    <glyph glyph-name="cid3414" unicode="&#x58eb;" 
d="M618 821v-322h351v-76h-351v-454h287v-76h-811v76h286v454h-350v76h350v322h238z" />
    <glyph glyph-name="cid5660" unicode="&#x2f21;" 
d="M352 660l-26 -90l150 -160l206 250h-330zM493 55l-145 -175h-309l289 350l-139 147h-161l128 446h243l-25 -87h534v-183l-267 -320l330 -353h-312z" />
    <glyph glyph-name="cid5660" unicode="&#x5902;" 
d="M352 660l-26 -90l150 -160l206 250h-330zM493 55l-145 -175h-309l289 350l-139 147h-161l128 446h243l-25 -87h534v-183l-267 -320l330 -353h-312z" />
    <glyph glyph-name="cid3859" unicode="&#x2f23;" 
d="M54 417l156 401h237l-44 -117h564l-205 -684q-9 -31 -27 -56t-41.5 -43t-52.5 -27.5t-60 -9.5h-511v76h320q48 0 85 27.5t51 72.5l173 568h-325l-84 -208h-236zM389 376l79 -274h-237l-73 274h231z" />
    <glyph glyph-name="cid3859" unicode="&#x5915;" 
d="M54 417l156 401h237l-44 -117h564l-205 -684q-9 -31 -27 -56t-41.5 -43t-52.5 -27.5t-60 -9.5h-511v76h320q48 0 85 27.5t51 72.5l173 568h-325l-84 -208h-236zM389 376l79 -274h-237l-73 274h231z" />
    <glyph glyph-name="cid1398" unicode="&#x2f24;" 
d="M618 820v-266h354v-75h-326l290 -520h36v-76h-246l-227 407l-226 -407h-246v76h36l289 520h-325v75h353v266h238z" />
    <glyph glyph-name="cid1398" unicode="&#x5927;" 
d="M618 820v-266h354v-75h-326l290 -520h36v-76h-246l-227 407l-226 -407h-246v76h36l289 520h-325v75h353v266h238z" />
    <glyph glyph-name="cid2927" unicode="&#x2f25;" 
d="M614 372v227h-227v-227l113 -92zM500 0l-144 -119h-328v71h69l231 188l-179 148v311h-120v76h120v147h238v-147h585v-76h-121v-311l-179 -148l232 -188h68v-71h-328z" />
    <glyph glyph-name="cid2927" unicode="&#x5973;" 
d="M614 372v227h-227v-227l113 -92zM500 0l-144 -119h-328v71h69l231 188l-179 148v311h-120v76h120v147h238v-147h585v-76h-121v-311l-179 -148l232 -188h68v-71h-328z" />
    <glyph glyph-name="cid4656" unicode="&#x2f26;" 
d="M27 398h348v92l202 239h-504v76h855l-315 -371v-36h360v-76h-360v-350q0 -20 -7.5 -37t-20.5 -30t-30 -20.5t-36 -7.5h-288v76h115q11 0 20 9t9 20v340h-348v76z" />
    <glyph glyph-name="cid4656" unicode="&#x5b50;" 
d="M27 398h348v92l202 239h-504v76h855l-315 -371v-36h360v-76h-360v-350q0 -20 -7.5 -37t-20.5 -30t-30 -20.5t-36 -7.5h-288v76h115q11 0 20 9t9 20v340h-348v76z" />
    <glyph glyph-name="cid5934" unicode="&#x2f27;" 
d="M31 727h350v112h238v-112h349v-217h-231v141h-474v-141h-232v217z" />
    <glyph glyph-name="cid5934" unicode="&#x5b80;" 
d="M31 727h350v112h238v-112h349v-217h-231v141h-474v-141h-232v217z" />
    <glyph glyph-name="cid1386" unicode="&#x2f28;" 
d="M196 86l-69 402h218l69 -402h-218zM28 660h572v164h237v-164h134v-76h-134v-610q0 -20 -7.5 -37t-20.5 -30t-30.5 -20.5t-36.5 -7.5h-304v76h124q16 0 27 11t11 27v591h-572v76z" />
    <glyph glyph-name="cid1386" unicode="&#x5bf8;" 
d="M196 86l-69 402h218l69 -402h-218zM28 660h572v164h237v-164h134v-76h-134v-610q0 -20 -7.5 -37t-20.5 -30t-30.5 -20.5t-36.5 -7.5h-304v76h124q16 0 27 11t11 27v591h-572v76z" />
    <glyph glyph-name="cid3948" unicode="&#x2f29;" 
d="M382 822h238v-850q0 -20 -7.5 -37t-20.5 -30t-30.5 -20.5t-36.5 -7.5h-304v76h123q16 0 27 11t11 27v831zM29 31l57 669h201l-57 -669h-201zM913 700l57 -669h-201l-57 669h201z" />
    <glyph glyph-name="cid3948" unicode="&#x5c0f;" 
d="M382 822h238v-850q0 -20 -7.5 -37t-20.5 -30t-30.5 -20.5t-36.5 -7.5h-304v76h123q16 0 27 11t11 27v831zM29 31l57 669h201l-57 -669h-201zM913 700l57 -669h-201l-57 669h201z" />
    <glyph glyph-name="cid5302" unicode="&#x2f2a;" 
d="M27 607h224l56 214h233l-56 -214h488v-76h-209v-577h209v-76h-431v653h-77l-171 -653h-233l171 653h-204v76z" />
    <glyph glyph-name="cid5302" unicode="&#x5c22;" 
d="M27 607h224l56 214h233l-56 -214h488v-76h-209v-577h209v-76h-431v653h-77l-171 -653h-233l171 653h-204v76z" />
    <glyph glyph-name="cid3395" unicode="&#x2f2b;" 
d="M707 724h-415v-239h387q12 0 20 9t8 20v210zM292 409v-532h-238v924h891v-297q0 -20 -7.5 -37t-20.5 -30t-30.5 -20.5t-36.5 -7.5h-558z" />
    <glyph glyph-name="cid3395" unicode="&#x5c38;" 
d="M707 724h-415v-239h387q12 0 20 9t8 20v210zM292 409v-532h-238v924h891v-297q0 -20 -7.5 -37t-20.5 -30t-30.5 -20.5t-36.5 -7.5h-558z" />
    <glyph glyph-name="cid6004" unicode="&#x2f2c;" 
d="M53 695h232v-437h98v564h233v-564h61q16 0 27 11t11 27v399h232v-418q0 -20 -7.5 -37t-20 -29.5t-30 -20t-37.5 -7.5h-236v-301h-233v301h-330v512z" />
    <glyph glyph-name="cid6004" unicode="&#x5c6e;" 
d="M53 695h232v-437h98v564h233v-564h61q16 0 27 11t11 27v399h232v-418q0 -20 -7.5 -37t-20 -29.5t-30 -20t-37.5 -7.5h-236v-301h-233v301h-330v512z" />
    <glyph glyph-name="cid3318" unicode="&#x2f2d;" 
d="M50 681h232v-698h101v840h233v-840h63q15 0 26.5 11t11.5 27v660h232v-679q0 -20 -7.5 -37t-20 -30t-30 -20.5t-37.5 -7.5h-804v774z" />
    <glyph glyph-name="cid3318" unicode="&#x5c71;" 
d="M50 681h232v-698h101v840h233v-840h63q15 0 26.5 11t11.5 27v660h232v-679q0 -20 -7.5 -37t-20 -30t-30 -20.5t-37.5 -7.5h-804v774z" />
    <glyph glyph-name="cid6165" unicode="&#x2f2e;" 
d="M650 350l86 473h223l-86 -473l86 -473h-223zM40 350l86 473h223l-86 -473l86 -473h-223zM345 350l86 473h223l-86 -473l86 -473h-223z" />
    <glyph glyph-name="cid6165" unicode="&#x5ddb;" 
d="M650 350l86 473h223l-86 -473l86 -473h-223zM40 350l86 473h223l-86 -473l86 -473h-223zM345 350l86 473h223l-86 -473l86 -473h-223z" />
    <glyph glyph-name="cid1789" unicode="&#x2f2f;" 
d="M79 748h842v-76h-302v-708h354v-76h-946v76h354v708h-302v76z" />
    <glyph glyph-name="cid1789" unicode="&#x5de5;" 
d="M79 748h842v-76h-302v-708h354v-76h-946v76h354v708h-302v76z" />
    <glyph glyph-name="cid2093" unicode="&#x2f30;" 
d="M58 772h839v-356q0 -20 -7.5 -37t-20.5 -30t-30.5 -20.5t-36.5 -7.5h-506v-356h645v-76h-883v508h564q15 0 26.5 11.5t11.5 26.5v262h-602v75z" />
    <glyph glyph-name="cid2093" unicode="&#x5df1;" 
d="M58 772h839v-356q0 -20 -7.5 -37t-20.5 -30t-30.5 -20.5t-36.5 -7.5h-506v-356h645v-76h-883v508h564q15 0 26.5 11.5t11.5 26.5v262h-602v75z" />
    <glyph glyph-name="cid2238" unicode="&#x2f31;" 
d="M619 593v-715h-238v715h-96v-602h-237v678h333v151h238v-151h332v-583q0 -20 -7.5 -37t-20.5 -30t-30.5 -20.5t-36.5 -7.5h-203v76h27q34 0 34 34v492h-95z" />
    <glyph glyph-name="cid2238" unicode="&#x5dfe;" 
d="M619 593v-715h-238v715h-96v-602h-237v678h333v151h238v-151h332v-583q0 -20 -7.5 -37t-20.5 -30t-30.5 -20.5t-36.5 -7.5h-203v76h27q34 0 34 34v492h-95z" />
    <glyph glyph-name="cid1732" unicode="&#x2f32;" 
d="M50 810h900v-76h-331v-350h354v-76h-354v-432h-238v432h-354v76h354v350h-331v76z" />
    <glyph glyph-name="cid1732" unicode="&#x5e72;" 
d="M50 810h900v-76h-331v-350h354v-76h-354v-432h-238v432h-354v76h354v350h-331v76z" />
    <glyph glyph-name="cid6163" unicode="&#x2f33;" 
d="M664 819l-318 -480h77l132 198h264l-381 -582h247q19 0 31 15q5 7 6.5 15.5t-1.5 17.5l-65 242h236l72 -245q6 -22 2 -43.5t-18 -39.5q-27 -38 -76 -38h-756l256 384h-340l369 556h263z" />
    <glyph glyph-name="cid6163" unicode="&#x5e7a;" 
d="M664 819l-318 -480h77l132 198h264l-381 -582h247q19 0 31 15q5 7 6.5 15.5t-1.5 17.5l-65 242h236l72 -245q6 -22 2 -43.5t-18 -39.5q-27 -38 -76 -38h-756l256 384h-340l369 556h263z" />
    <glyph glyph-name="cid1852" unicode="&#x2f34;" 
d="M675 823v-89h293v-75h-700v-780h-237v855h407v89h237z" />
    <glyph glyph-name="cid1852" unicode="&#x5e7f;" 
d="M675 823v-89h293v-75h-700v-780h-237v855h407v89h237z" />
    <glyph glyph-name="cid5016" unicode="&#x2f35;" 
d="M26 799h388l-110 -394h110l-91 -325l178 -121h473v-76h-608l-83 55l-16 -59h-236l53 191l-54 36v174l95 -65l30 109h-108l109 399h-130v76z" />
    <glyph glyph-name="cid5016" unicode="&#x5ef4;" 
d="M26 799h388l-110 -394h110l-91 -325l178 -121h473v-76h-608l-83 55l-16 -59h-236l53 191l-54 36v174l95 -65l30 109h-108l109 399h-130v76z" />
    <glyph glyph-name="cid5293" unicode="&#x2f36;" 
d="M642 -120v480h-242l-72 -480h-237l68 480h-134v76h140v388h237v-388h240v388h238v-388h94v-76h-94v-480h-238z" />
    <glyph glyph-name="cid5293" unicode="&#x5efe;" 
d="M642 -120v480h-242l-72 -480h-237l68 480h-134v76h140v388h237v-388h240v388h238v-388h94v-76h-94v-480h-238z" />
    <glyph glyph-name="cid5366" unicode="&#x2f37;" 
d="M689 594l-87 204h230l88 -204h-231zM25 471l355 31l-137 323h238l130 -302l363 32v-76l-331 -30l215 -497h116v-76h-327l-236 553l-386 -34v76z" />
    <glyph glyph-name="cid5366" unicode="&#x5f0b;" 
d="M689 594l-87 204h230l88 -204h-231zM25 471l355 31l-137 323h238l130 -302l363 32v-76l-331 -30l215 -497h116v-76h-327l-236 553l-386 -34v76z" />
    <glyph glyph-name="cid1798" unicode="&#x2f38;" 
d="M34 790h902v-252q0 -20 -7.5 -37t-20 -30t-30 -20.5t-36.5 -7.5h-565v-205h688v-264q0 -20 -7.5 -37t-20 -30t-30 -20.5t-37.5 -7.5h-414v76h244q12 0 20.5 8t8.5 20v179h-690v357h632q11 0 19.5 8.5t8.5 20.5v167h-665v75z" />
    <glyph glyph-name="cid1798" unicode="&#x5f13;" 
d="M34 790h902v-252q0 -20 -7.5 -37t-20 -30t-30 -20.5t-36.5 -7.5h-565v-205h688v-264q0 -20 -7.5 -37t-20 -30t-30 -20.5t-37.5 -7.5h-414v76h244q12 0 20.5 8t8.5 20v179h-690v357h632q11 0 19.5 8.5t8.5 20.5v167h-665v75z" />
    <glyph glyph-name="cid5986" unicode="&#x2f39;" 
d="M76 378h636v339h-661v76h898v-812q0 -20 -7.5 -37t-20 -30t-30 -20.5t-37.5 -7.5h-803v76h632q12 0 20.5 8.5t8.5 19.5v312h-636v76z" />
    <glyph glyph-name="cid5986" unicode="&#x5f50;" 
d="M76 378h636v339h-661v76h898v-812q0 -20 -7.5 -37t-20 -30t-30 -20.5t-37.5 -7.5h-803v76h632q12 0 20.5 8.5t8.5 19.5v312h-636v76z" />
    <glyph glyph-name="cid5614" unicode="&#x2f3a;" 
d="M471 502h210l-113 -234q-12 -25 -34.5 -39t-50.5 -14h-165v76h34q19 0 25 16zM471 822h210l-113 -234q-12 -26 -34.5 -40t-50.5 -14h-165v76h34q18 0 25 16zM471 167h210l-113 -235q-12 -25 -34.5 -39t-50.5 -14h-165v76h34q19 0 25 16z" />
    <glyph glyph-name="cid5614" unicode="&#x5f61;" 
d="M471 502h210l-113 -234q-12 -25 -34.5 -39t-50.5 -14h-165v76h34q19 0 25 16zM471 822h210l-113 -234q-12 -26 -34.5 -40t-50.5 -14h-165v76h34q18 0 25 16zM471 167h210l-113 -235q-12 -25 -34.5 -39t-50.5 -14h-165v76h34q19 0 25 16z" />
    <glyph glyph-name="cid5600" unicode="&#x2f3b;" 
d="M411 -123v429h-60l61 246h-61l75 272h222l-58 -218h58l-53 -218h34v-511h-218z" />
    <glyph glyph-name="cid5600" unicode="&#x5f73;" 
d="M411 -123v429h-60l61 246h-61l75 272h222l-58 -218h58l-53 -218h34v-511h-218z" />
    <glyph glyph-name="cid3983" unicode="&#x2f3c;" 
d="M241 648l-31 -734h-180l30 734h181zM706 825l32 -706h-189l-33 706h190zM931 672l38 -749h-186l-39 749h187zM493 -44h263v-75h-493v852h230v-777z" />
    <glyph glyph-name="cid3983" unicode="&#x5fc3;" 
d="M241 648l-31 -734h-180l30 734h181zM706 825l32 -706h-189l-33 706h190zM931 672l38 -749h-186l-39 749h187zM493 -44h263v-75h-493v852h230v-777z" />
    <glyph glyph-name="cid1765" unicode="&#x2f3d;" 
d="M835 802l82 -180h-242l-84 180h244zM457 822l115 -251h400v-76h-365l67 -146l71 53h228v-76h-52l-176 -131l111 -240h116v-76h-343l-78 170l-228 -170h-281l438 326l-132 290h-322v76h287l-114 251h258z" />
    <glyph glyph-name="cid1765" unicode="&#x6208;" 
d="M835 802l82 -180h-242l-84 180h244zM457 822l115 -251h400v-76h-365l67 -146l71 53h228v-76h-52l-176 -131l111 -240h116v-76h-343l-78 170l-228 -170h-281l438 326l-132 290h-322v76h287l-114 251h258z" />
    <glyph glyph-name="cid3437" unicode="&#x2f3f;" 
d="M53 791h893v-76h-323v-204h323v-76h-323v-205h351v-76h-351v-184q0 -20 -7.5 -37t-20.5 -30t-30.5 -20.5t-36.5 -7.5h-260v76h89q12 0 20 8t8 21v174h-359v76h359v205h-332v76h332v204h-332v76z" />
    <glyph glyph-name="cid3437" unicode="&#x624b;" 
d="M53 791h893v-76h-323v-204h323v-76h-323v-205h351v-76h-351v-184q0 -20 -7.5 -37t-20.5 -30t-30.5 -20.5t-36.5 -7.5h-260v76h89q12 0 20 8t8 21v174h-359v76h359v205h-332v76h332v204h-332v76z" />
    <glyph glyph-name="cid4518" unicode="&#x2f40;" 
d="M619 824v-119h355v-76h-355v-135h328v-114l-292 -244l319 -253h-323l-154 121l-144 -121h-325l304 251l-277 220h327l110 -88l183 152h-618v76h324v135h-355v76h355v119h238z" />
    <glyph glyph-name="cid4518" unicode="&#x652f;" 
d="M619 824v-119h355v-76h-355v-135h328v-114l-292 -244l319 -253h-323l-154 121l-144 -121h-325l304 251l-277 220h327l110 -88l183 152h-618v76h324v135h-355v76h355v119h238z" />
    <glyph glyph-name="cid6409" unicode="&#x2f41;" 
d="M618 824v-119h354v-76h-354v-135h328v-114l-291 -244l317 -253h-322l-153 121l-144 -121h-325l304 251l-277 220h327l109 -88l183 152h-617v76h323v330h238z" />
    <glyph glyph-name="cid6409" unicode="&#x6534;" 
d="M618 824v-119h354v-76h-354v-135h328v-114l-291 -244l317 -253h-322l-153 121l-144 -121h-325l304 251l-277 220h327l109 -88l183 152h-617v76h323v330h238z" />
    <glyph glyph-name="cid3795" unicode="&#x2f42;" 
d="M619 820v-132h354v-76h-82l-284 -350l344 -384h-245l-216 241l-196 -241h-245l313 384l-265 296h245l137 -153l168 207h-621v76h355v132h238z" />
    <glyph glyph-name="cid3795" unicode="&#x6587;" 
d="M619 820v-132h354v-76h-82l-284 -350l344 -384h-245l-216 241l-196 -241h-245l313 384l-265 296h245l137 -153l168 207h-621v76h355v132h238z" />
    <glyph glyph-name="cid1526" unicode="&#x2f43;" 
d="M334 781l178 -260h-249l-178 260h249zM331 473l181 -263h-249l-181 263h249zM26 166h541v658h237v-658h170v-76h-170v-214h-237v214h-541v76z" />
    <glyph glyph-name="cid1526" unicode="&#x6597;" 
d="M334 781l178 -260h-249l-178 260h249zM331 473l181 -263h-249l-181 263h249zM26 166h541v658h237v-658h170v-76h-170v-214h-237v214h-541v76z" />
    <glyph glyph-name="cid2240" unicode="&#x2f44;" 
d="M36 804h866v-76h-628v-230h690v-76h-135v-544h-238v544h-317v-544h-238v926z" />
    <glyph glyph-name="cid2240" unicode="&#x65a4;" 
d="M36 804h866v-76h-628v-230h690v-76h-135v-544h-238v544h-317v-544h-238v926z" />
    <glyph glyph-name="cid1626" unicode="&#x2f45;" 
d="M619 820v-144h355v-76h-544l-33 -174h532v-453q0 -40 -27 -67.5t-67 -27.5h-327v76h156q12 0 20.5 8t8.5 20v368h-311l-89 -474h-240l136 724h-163v76h355v144h238z" />
    <glyph glyph-name="cid1626" unicode="&#x65b9;" 
d="M619 820v-144h355v-76h-544l-33 -174h532v-453q0 -40 -27 -67.5t-67 -27.5h-327v76h156q12 0 20.5 8t8.5 20v368h-311l-89 -474h-240l136 724h-163v76h355v144h238z" />
    <glyph glyph-name="cid3821" unicode="&#x2f46;" 
d="M45 803h909v-75h-341v-297h360v-76h-280v-403h280v-76h-499v343l-200 -343h-248l282 479h-282v76h360v297h-341v75z" />
    <glyph glyph-name="cid3821" unicode="&#x65e0;" 
d="M45 803h909v-75h-341v-297h360v-76h-280v-403h280v-76h-499v343l-200 -343h-248l282 479h-282v76h360v297h-341v75z" />
    <glyph glyph-name="cid3248" unicode="&#x2f47;" 
d="M304 380h391v351h-391v-351zM695 304h-391v-352h362q12 0 20.5 9t8.5 20v323zM932 -29q0 -20 -7.5 -37t-20.5 -30t-30.5 -20.5t-36.5 -7.5h-769v931h864v-836z" />
    <glyph glyph-name="cid3248" unicode="&#x65e5;" 
d="M304 380h391v351h-391v-351zM695 304h-391v-352h362q12 0 20.5 9t8.5 20v323zM932 -29q0 -20 -7.5 -37t-20.5 -30t-30.5 -20.5t-36.5 -7.5h-769v931h864v-836z" />
    <glyph glyph-name="cid4350" unicode="&#x2f48;" 
d="M308 371h304v-76h-304v-329h352q12 0 20 8.5t8 20.5v705h-380v-329zM72 -110v886h855v-791q0 -20 -7.5 -37t-20 -30t-30 -20.5t-36.5 -7.5h-761z" />
    <glyph glyph-name="cid4350" unicode="&#x66f0;" 
d="M308 371h304v-76h-304v-329h352q12 0 20 8.5t8 20.5v705h-380v-329zM72 -110v886h855v-791q0 -20 -7.5 -37t-20 -30t-30 -20.5t-36.5 -7.5h-761z" />
    <glyph glyph-name="cid4357" unicode="&#x2f49;" 
d="M309 223h379v194h-379v-194zM309 493h379v200h-379v-200zM71 -118v887h858v-792q0 -20 -7 -37t-20 -30t-30 -20.5t-36 -7.5h-247v76h71q12 0 20 9t8 20v160h-379v-265h-238z" />
    <glyph glyph-name="cid4357" unicode="&#x6708;" 
d="M309 223h379v194h-379v-194zM309 493h379v200h-379v-200zM71 -118v887h858v-792q0 -20 -7 -37t-20 -30t-30 -20.5t-36 -7.5h-247v76h71q12 0 20 9t8 20v160h-379v-265h-238z" />
    <glyph glyph-name="cid2849" unicode="&#x2f4a;" 
d="M618 821v-216h355v-76h-103l103 -649h-217l-103 649h-35v-651h-238v651h-32l-104 -649h-216l103 649h-105v76h354v216h238z" />
    <glyph glyph-name="cid2849" unicode="&#x6728;" 
d="M618 821v-216h355v-76h-103l103 -649h-217l-103 649h-35v-651h-238v651h-32l-104 -649h-216l103 649h-105v76h354v216h238z" />
    <glyph glyph-name="cid3124" unicode="&#x2f4b;" 
d="M132 822h243l-28 -109h626l-79 -311h-242l60 235h-384l-60 -235h-242zM357 508h233v-196l335 -433h-261l-189 249l-188 -249h-261l331 433v196z" />
    <glyph glyph-name="cid3124" unicode="&#x6b20;" 
d="M132 822h243l-28 -109h626l-79 -311h-242l60 235h-384l-60 -235h-242zM357 508h233v-196l335 -433h-261l-189 249l-188 -249h-261l331 433v196z" />
    <glyph glyph-name="cid4536" unicode="&#x2f4c;" 
d="M26 -29h86v680h219v-680h137v854h237v-326h218v-76h-218v-452h268v-75h-947v75z" />
    <glyph glyph-name="cid4536" unicode="&#x6b62;" 
d="M26 -29h86v680h219v-680h137v854h237v-326h218v-76h-218v-452h268v-75h-947v75z" />
    <glyph glyph-name="cid1400" unicode="&#x2f4d;" 
d="M395 261l77 -227h-222l-78 227h223zM26 766h947v-76h-531l-60 -143h570l-221 -540q-23 -54 -69.5 -86t-106.5 -32h-529v76h371q29 0 53 16t35 43l185 447h-320l-77 -185h-247l169 404h-169v76z" />
    <glyph glyph-name="cid1400" unicode="&#x6b79;" 
d="M395 261l77 -227h-222l-78 227h223zM26 766h947v-76h-531l-60 -143h570l-221 -540q-23 -54 -69.5 -86t-106.5 -32h-529v76h371q29 0 53 16t35 43l185 447h-320l-77 -185h-247l169 404h-169v76z" />
    <glyph glyph-name="cid6589" unicode="&#x2f4e;" 
d="M92 801h783v-283h48v-76h-285v283h-309v-283h-237v359zM684 52l188 -118h50v-57h-352l-77 51l-79 -51h-337v57h50l182 117l-197 131v118h178l205 -129l155 99v60h-558v76h794v-224z" />
    <glyph glyph-name="cid6589" unicode="&#x6bb3;" 
d="M92 801h783v-283h48v-76h-285v283h-309v-283h-237v359zM684 52l188 -118h50v-57h-352l-77 51l-79 -51h-337v57h50l182 117l-197 131v118h178l205 -129l155 99v60h-558v76h794v-224z" />
    <glyph glyph-name="cid3826" unicode="&#x2f4f;" 
d="M399 145v230h-83v-230h83zM690 145v230h-86v-230h86zM316 451h83v253h-83v-253zM604 704v-253h86v253h-86zM26 451h80v329h794v-329h73v-76h-73v-230h73v-76h-73v-97q0 -39 -21.5 -67t-52.5 -28h-237v76h79q9 0 15.5 8.5t6.5 19.5v88h-97l-262 -192h-288v76h94l170 116
h-201v306h-80v76z" />
    <glyph glyph-name="cid3826" unicode="&#x6bcb;" 
d="M399 145v230h-83v-230h83zM690 145v230h-86v-230h86zM316 451h83v253h-83v-253zM604 704v-253h86v253h-86zM26 451h80v329h794v-329h73v-76h-73v-230h73v-76h-73v-97q0 -39 -21.5 -67t-52.5 -28h-237v76h79q9 0 15.5 8.5t6.5 19.5v88h-97l-262 -192h-288v76h94l170 116
h-201v306h-80v76z" />
    <glyph glyph-name="cid1073" unicode="&#x2f50;" 
d="M281 818v-277h184v-76h-184v-505h184v-76h-421v934h237zM771 818v-287l185 61v-82l-185 -61v-489h185v-76h-422v934h237z" />
    <glyph glyph-name="cid1073" unicode="&#x6bd4;" 
d="M281 818v-277h184v-76h-184v-505h184v-76h-421v934h237zM771 818v-287l185 61v-82l-185 -61v-489h185v-76h-422v934h237z" />
    <glyph glyph-name="cid2736" unicode="&#x2f51;" 
d="M76 786h847v-76h-298v-199h298v-76h-298v-200h348v-76h-348v-202h348v-76h-585v278h-362v76h362v200h-312v76h312v199h-312v76z" />
    <glyph glyph-name="cid2736" unicode="&#x6bdb;" 
d="M76 786h847v-76h-298v-199h298v-76h-298v-200h348v-76h-348v-202h348v-76h-585v278h-362v76h362v200h-312v76h312v199h-312v76z" />
    <glyph glyph-name="cid3430" unicode="&#x2f52;" 
d="M284 404h290l-77 319h-213v-319zM47 799h836v-76h-130l75 -319h125v-76h-107l107 -449h-253l-108 449h-308v-371h154v-76h-390z" />
    <glyph glyph-name="cid3430" unicode="&#x6c0f;" 
d="M284 404h290l-77 319h-213v-319zM47 799h836v-76h-130l75 -319h125v-76h-107l107 -449h-253l-108 449h-308v-371h154v-76h-390z" />
    <glyph glyph-name="cid3095" unicode="&#x2f53;" 
d="M280 585h615v-75h-615v75zM28 502l72 320h205l-14 -61h649v-75h-666l-41 -184h-205zM971 -121h-291v454h-588v76h821v-454h58v-76z" />
    <glyph glyph-name="cid3095" unicode="&#x6c14;" 
d="M280 585h615v-75h-615v75zM28 502l72 320h205l-14 -61h649v-75h-666l-41 -184h-205zM971 -121h-291v454h-588v76h821v-454h58v-76z" />
    <glyph glyph-name="cid3491" unicode="&#x2f54;" 
d="M955 682l-79 -209l97 -573h-218l-98 573l80 209h218zM26 671h331l-103 -771h-220l91 695h-99v76zM623 822v-827q0 -24 -9 -44.5t-24.5 -36t-36.5 -24.5t-44 -9h-190v76h38q12 0 20 8t8 20v837h238z" />
    <glyph glyph-name="cid3491" unicode="&#x6c34;" 
d="M955 682l-79 -209l97 -573h-218l-98 573l80 209h218zM26 671h331l-103 -771h-220l91 695h-99v76zM623 822v-827q0 -24 -9 -44.5t-24.5 -36t-36.5 -24.5t-44 -9h-190v76h38q12 0 20 8t8 20v837h238z" />
    <glyph glyph-name="cid2053" unicode="&#x2f55;" 
d="M501 181l-202 -305h-255l348 517v435h219v-435l347 -517h-244zM246 797l52 -471h-198l-50 471h196zM956 797l-51 -471h-197l51 471h197z" />
    <glyph glyph-name="cid2053" unicode="&#x706b;" 
d="M501 181l-202 -305h-255l348 517v435h219v-435l347 -517h-244zM246 797l52 -471h-198l-50 471h196zM956 797l-51 -471h-197l51 471h197z" />
    <glyph glyph-name="cid4611" unicode="&#x2f56;" 
d="M957 786v-76h-53l32 -832h-226l-31 832h-86v-832h-222v832h-106v-832h-223v908h915z" />
    <glyph glyph-name="cid4611" unicode="&#x722a;" 
d="M957 786v-76h-53l32 -832h-226l-31 832h-86v-832h-222v832h-106v-832h-223v908h915z" />
    <glyph glyph-name="cid1715" unicode="&#x2f57;" 
d="M428 824l-181 -298h-221l177 298h225zM796 824l177 -298h-221l-182 298h226zM389 474l110 -113l111 113h260l-242 -245l345 -352h-255l-219 221l-218 -221h-255l344 352l-241 245h260z" />
    <glyph glyph-name="cid1715" unicode="&#x7236;" 
d="M428 824l-181 -298h-221l177 298h225zM796 824l177 -298h-221l-182 298h226zM389 474l110 -113l111 113h260l-242 -245l345 -352h-255l-219 221l-218 -221h-255l344 352l-241 245h260z" />
    <glyph glyph-name="cid4713" unicode="&#x2f58;" 
d="M107 391l264 216l-264 217h256l136 -112l137 112h256l-265 -217l265 -216h-256l-137 111l-136 -111h-256zM29 -124l341 270l-247 198h256l120 -96l121 96h256l-247 -198l341 -270h-262l-209 166l-208 -166h-262z" />
    <glyph glyph-name="cid4713" unicode="&#x723b;" 
d="M107 391l264 216l-264 217h256l136 -112l137 112h256l-265 -217l265 -216h-256l-137 111l-136 -111h-256zM29 -124l341 270l-247 198h256l120 -96l121 96h256l-247 -198l341 -270h-262l-209 166l-208 -166h-262z" />
    <glyph glyph-name="cid5789" unicode="&#x2f59;" 
d="M653 -121v370h-251l-45 -370h-226l46 370h-68v76h544v125h-489v356h237v-280h252v296h237v-943h-237z" />
    <glyph glyph-name="cid5789" unicode="&#x723f;" 
d="M653 -121v370h-251l-45 -370h-226l46 370h-68v76h544v125h-489v356h237v-280h252v296h237v-943h-237z" />
    <glyph glyph-name="cid3019" unicode="&#x2f5a;" 
d="M52 -121v924h237v-275h209v294h238v-294h211v-75h-658v-131h619v-443h-237v367h-382v-367h-237z" />
    <glyph glyph-name="cid3019" unicode="&#x7247;" 
d="M52 -121v924h237v-275h209v294h238v-294h211v-75h-658v-131h619v-443h-237v367h-382v-367h-237z" />
    <glyph glyph-name="cid4073" unicode="&#x2f5b;" 
d="M54 795h877v-76h-98v-308h125v-76h-125v-363q0 -20 -7.5 -37t-20 -29.5t-30 -20t-37.5 -7.5h-234v75h63q12 0 20.5 8.5t8.5 20.5v353h-143l-173 -457h-238l174 457h-162v325h238v-249h304v308h-542v76z" />
    <glyph glyph-name="cid4073" unicode="&#x7259;" 
d="M54 795h877v-76h-98v-308h125v-76h-125v-363q0 -20 -7.5 -37t-20 -29.5t-30 -20t-37.5 -7.5h-234v75h63q12 0 20.5 8.5t8.5 20.5v353h-143l-173 -457h-238l174 457h-162v325h238v-249h304v308h-542v76z" />
    <glyph glyph-name="cid2916" unicode="&#x2f5c;" 
d="M645 823v-196h299v-76h-299v-273h329v-76h-329v-323h-236v323h-382v76h382v273h-133l-22 -184h-228l50 417h228l-19 -157h124v196h236z" />
    <glyph glyph-name="cid2916" unicode="&#x725b;" 
d="M645 823v-196h299v-76h-299v-273h329v-76h-329v-323h-236v323h-382v76h382v273h-133l-22 -184h-228l50 417h228l-19 -157h124v196h236z" />
    <glyph glyph-name="cid3209" unicode="&#x2f5d;" 
d="M854 786l75 -225h-236l-76 225h237zM584 823l-103 -309h492v-76h-188l188 -560h-242l-187 560h-89l-187 -560h-242l186 560h-186v76h212l103 309h243z" />
    <glyph glyph-name="cid3209" unicode="&#x72ac;" 
d="M854 786l75 -225h-236l-76 225h237zM584 823l-103 -309h492v-76h-188l188 -560h-242l-187 560h-89l-187 -560h-242l186 560h-186v76h212l103 309h243z" />
    <glyph glyph-name="cid4041" unicode="&#x2f5e;" 
d="M26 684h354v139h238v-139h355v-76h-408l-227 -270h125l141 153h266l-480 -526h284q14 0 22.5 9t-3.5 32l-70 128h230l80 -148q19 -32 -1 -65q-9 -16 -24 -24t-33 -8h-825l343 373h-367l289 346h-289v76z" />
    <glyph glyph-name="cid4041" unicode="&#x7384;" 
d="M26 684h354v139h238v-139h355v-76h-408l-227 -270h125l141 153h266l-480 -526h284q14 0 22.5 9t-3.5 32l-70 128h230l80 -148q19 -32 -1 -65q-9 -16 -24 -24t-33 -8h-825l343 373h-367l289 346h-289v76z" />
    <glyph glyph-name="cid4310" unicode="&#x2f5f;" 
d="M749 27l-36 245h201l36 -245h-201zM57 773h885v-76h-323v-290h293v-76h-293v-343h354v-76h-946v76h354v343h-293v76h293v290h-324v76z" />
    <glyph glyph-name="cid4310" unicode="&#x7389;" 
d="M749 27l-36 245h201l36 -245h-201zM57 773h885v-76h-323v-290h293v-76h-293v-343h354v-76h-946v76h354v343h-293v76h293v290h-324v76z" />
    <glyph glyph-name="cid1832" unicode="&#x2f60;" 
d="M520 -47q11 0 19.5 8t7.5 21l-13 300h148l13 -310q1 -20 -6 -37t-19 -30t-28.5 -20.5t-34.5 -7.5h-314l75 841h-68l-46 -841h-190l46 917h817v-76h-63l63 -841h-193l-61 841h-111l-75 -765h33z" />
    <glyph glyph-name="cid1832" unicode="&#x74dc;" 
d="M520 -47q11 0 19.5 8t7.5 21l-13 300h148l13 -310q1 -20 -6 -37t-19 -30t-28.5 -20.5t-34.5 -7.5h-314l75 841h-68l-46 -841h-190l46 917h817v-76h-63l63 -841h-193l-61 841h-111l-75 -765h33z" />
    <glyph glyph-name="cid3728" unicode="&#x2f61;" 
d="M580 366l42 -316h-187l-42 316h187zM26 774h947v-76h-626v-141h553v-604h73v-76h-311v604h-315v-528h141v-76h-378v821h-84v76z" />
    <glyph glyph-name="cid3728" unicode="&#x74e6;" 
d="M580 366l42 -316h-187l-42 316h187zM26 774h947v-76h-626v-141h553v-604h73v-76h-311v604h-315v-528h141v-76h-378v821h-84v76z" />
    <glyph glyph-name="cid1733" unicode="&#x2f62;" 
d="M366 825v-198h267v198h236v-198h104v-76h-104v-569q0 -20 -7.5 -37.5t-20.5 -30t-30.5 -20t-36.5 -7.5h-645v664h-103v76h103v198h237zM604 -37q12 0 20.5 8.5t8.5 19.5v244h-267v-272h238zM366 311h267v240h-267v-240z" />
    <glyph glyph-name="cid1733" unicode="&#x7518;" 
d="M366 825v-198h267v198h236v-198h104v-76h-104v-569q0 -20 -7.5 -37.5t-20.5 -30t-30.5 -20t-36.5 -7.5h-645v664h-103v76h103v198h237zM604 -37q12 0 20.5 8.5t8.5 19.5v244h-267v-272h238zM366 311h267v240h-267v-240z" />
    <glyph glyph-name="cid3379" unicode="&#x2f63;" 
d="M644 823v-216h291v-76h-291v-253h268v-76h-268v-236h329v-76h-947v76h381v236h-291v76h291v253h-138l-23 -170h-219l56 404h219l-22 -158h127v216h237z" />
    <glyph glyph-name="cid3379" unicode="&#x751f;" 
d="M644 823v-216h291v-76h-291v-253h268v-76h-268v-236h329v-76h-947v76h381v236h-291v76h291v253h-138l-23 -170h-219l56 404h219l-22 -158h127v216h237z" />
    <glyph glyph-name="cid4264" unicode="&#x2f64;" 
d="M614 209h92v206h-92v-206zM294 209h92v206h-92v-206zM614 706v-215h92v215h-92zM294 491h92v215h-92v-215zM386 -122v255h-92v-255h-229v904h869v-809q0 -20 -7.5 -37.5t-20.5 -30t-30.5 -20t-36.5 -7.5h-179v76h18q11 0 19.5 8t8.5 19v152h-92v-255h-228z" />
    <glyph glyph-name="cid4264" unicode="&#x7528;" 
d="M614 209h92v206h-92v-206zM294 209h92v206h-92v-206zM614 706v-215h92v215h-92zM294 491h92v215h-92v-215zM386 -122v255h-92v-255h-229v904h869v-809q0 -20 -7.5 -37.5t-20.5 -30t-30.5 -20t-36.5 -7.5h-179v76h18q11 0 19.5 8t8.5 19v152h-92v-255h-228z" />
    <glyph glyph-name="cid3650" unicode="&#x2f65;" 
d="M699 289h-83v-323h55q12 0 20 8.5t8 19.5v295zM616 687v-322h83v322h-83zM300 365h84v322h-84v-322zM300 -34h84v323h-84v-323zM72 763h855v-778q0 -20 -7.5 -37t-20 -30t-30 -20.5t-37.5 -7.5h-760v873z" />
    <glyph glyph-name="cid3650" unicode="&#x7530;" 
d="M699 289h-83v-323h55q12 0 20 8.5t8 19.5v295zM616 687v-322h83v322h-83zM300 365h84v322h-84v-322zM300 -34h84v323h-84v-323zM72 763h855v-778q0 -20 -7.5 -37t-20 -30t-30 -20.5t-37.5 -7.5h-760v873z" />
    <glyph glyph-name="cid7110" unicode="&#x2f66;" 
d="M732 491v214h-101v-371h268v-76h-268v-304h342v-76h-601l-124 132l-9 -131h-212l45 645h211l-19 -279l130 -143v603h-367v76h934v-290h-229z" />
    <glyph glyph-name="cid7110" unicode="&#x758b;" 
d="M732 491v214h-101v-371h268v-76h-268v-304h342v-76h-601l-124 132l-9 -131h-212l45 645h211l-19 -279l130 -143v603h-367v76h934v-290h-229z" />
    <glyph glyph-name="cid7008" unicode="&#x2f67;" 
d="M162 677l33 -317h-133l-33 317h133zM29 -85l33 395h133l-33 -395h-133zM534 726v96h237v-96h200v-76h-519v-772h-237v848h319z" />
    <glyph glyph-name="cid7008" unicode="&#x7592;" 
d="M162 677l33 -317h-133l-33 317h133zM29 -85l33 395h133l-33 -395h-133zM534 726v96h237v-96h200v-76h-519v-772h-237v848h319z" />
    <glyph glyph-name="cid994" unicode="&#x2f69;" 
d="M705 252h-411v-286h383q12 0 20 8t8 20v258zM294 328h411v287h-411v-287zM56 691h267l53 133h236l-52 -133h383v-687q0 -24 -9 -45t-24.5 -36t-36.5 -24t-44 -9h-773v801z" />
    <glyph glyph-name="cid994" unicode="&#x767d;" 
d="M705 252h-411v-286h383q12 0 20 8t8 20v258zM294 328h411v287h-411v-287zM56 691h267l53 133h236l-52 -133h383v-687q0 -24 -9 -45t-24.5 -36t-36.5 -24t-44 -9h-773v801z" />
    <glyph glyph-name="cid3011" unicode="&#x2f6a;" 
d="M509 298l66 -65l111 115h-421v-50h244zM265 245v-334l166 173zM265 424h127v224h-127v-224zM40 724h352v100h237v-100h330v-229h-215v153h-115v-224h302v-126l-203 -215l208 -203h-294l-56 54l-51 -54h-270v-2h-225v846z" />
    <glyph glyph-name="cid3011" unicode="&#x76ae;" 
d="M509 298l66 -65l111 115h-421v-50h244zM265 245v-334l166 173zM265 424h127v224h-127v-224zM40 724h352v100h237v-100h330v-229h-215v153h-115v-224h302v-126l-203 -215l208 -203h-294l-56 54l-51 -54h-270v-2h-225v846z" />
    <glyph glyph-name="cid2808" unicode="&#x2f6b;" 
d="M473 -44h55v750h-55v-750zM685 706v-750h55v750h-55zM260 -44h56v750h-56v-750zM26 -44h40v826h869v-826h39v-76h-948v76z" />
    <glyph glyph-name="cid2808" unicode="&#x76bf;" 
d="M473 -44h55v750h-55v-750zM685 706v-750h55v750h-55zM260 -44h56v750h-56v-750zM26 -44h40v826h869v-826h39v-76h-948v76z" />
    <glyph glyph-name="cid2850" unicode="&#x2f6c;" 
d="M319 251h361v198h-361v-198zM680 175h-361v-209h332q12 0 20.5 8.5t8.5 20.5v180zM319 525h361v210h-361v-210zM82 810h835v-806q0 -24 -9 -44.5t-24.5 -36t-36 -24.5t-44.5 -9h-721v920z" />
    <glyph glyph-name="cid2850" unicode="&#x76ee;" 
d="M319 251h361v198h-361v-198zM680 175h-361v-209h332q12 0 20.5 8.5t8.5 20.5v180zM319 525h361v210h-361v-210zM82 810h835v-806q0 -24 -9 -44.5t-24.5 -36t-36 -24.5t-44.5 -9h-721v920z" />
    <glyph glyph-name="cid2737" unicode="&#x2f6d;" 
d="M57 802h907l-189 -333h193v-282h-219v207h-87v-399q0 -23 -9 -44t-24.5 -36.5t-36 -24.5t-44.5 -9h-227v76h72q12 0 20 9t8 20v408h-64l-102 -513h-221l103 513h-106v75h209l-97 172h247l97 -172h27l147 257h-604v76z" />
    <glyph glyph-name="cid2737" unicode="&#x77db;" 
d="M57 802h907l-189 -333h193v-282h-219v207h-87v-399q0 -23 -9 -44t-24.5 -36.5t-36 -24.5t-44.5 -9h-227v76h72q12 0 20 9t8 20v408h-64l-102 -513h-221l103 513h-106v75h209l-97 172h247l97 -172h27l147 257h-604v76z" />
    <glyph glyph-name="cid3407" unicode="&#x2f6e;" 
d="M94 821h219l-22 -138h600v-75h-273v-259h356v-76h-277l268 -392h-265l-199 291l-204 -291h-261l277 392h-287v76h355v259h-102l-29 -184h-217z" />
    <glyph glyph-name="cid3407" unicode="&#x77e2;" 
d="M94 821h219l-22 -138h600v-75h-273v-259h356v-76h-277l268 -392h-265l-199 291l-204 -291h-261l277 392h-287v76h355v259h-102l-29 -184h-217z" />
    <glyph glyph-name="cid3398" unicode="&#x2f6f;" 
d="M700 385h-273v-422h245q12 0 20 8.5t8 20.5v393zM26 805h947v-76h-423l-133 -269h521v-459q0 -24 -9 -44.5t-24.5 -36t-36 -24.5t-44.5 -9h-635v288h-160l274 554h-277v76z" />
    <glyph glyph-name="cid3398" unicode="&#x77f3;" 
d="M700 385h-273v-422h245q12 0 20 8.5t8 20.5v393zM26 805h947v-76h-423l-133 -269h521v-459q0 -24 -9 -44.5t-24.5 -36t-36 -24.5t-44.5 -9h-635v288h-160l274 554h-277v76z" />
    <glyph glyph-name="cid3413" unicode="&#x2f70;" 
d="M96 799h808v-76h-808v76zM288 396l-49 -484h-209l49 484h209zM917 396l49 -484h-209l-49 484h209zM26 545h948v-76h-355v-470q0 -24 -9 -44.5t-24.5 -36t-36.5 -24.5t-44 -9h-209v76h57q12 0 20 8t8 21v479h-355v76z" />
    <glyph glyph-name="cid3413" unicode="&#x793a;" 
d="M96 799h808v-76h-808v76zM288 396l-49 -484h-209l49 484h209zM917 396l49 -484h-209l-49 484h209zM26 545h948v-76h-355v-470q0 -24 -9 -44.5t-24.5 -36t-36.5 -24.5t-44 -9h-209v76h57q12 0 20 8t8 21v479h-355v76z" />
    <glyph glyph-name="cid1923" unicode="&#x2f72;" 
d="M61 809h885v-76h-323v-188h355v-76h-75l75 -589h-238l-73 589h-44v-589h-238v589h-50l-74 -589h-238l75 589h-68v76h355v188h-324v76z" />
    <glyph glyph-name="cid1923" unicode="&#x79be;" 
d="M61 809h885v-76h-323v-188h355v-76h-75l75 -589h-238l-73 589h-44v-589h-238v589h-50l-74 -589h-238l75 589h-68v76h355v188h-324v76z" />
    <glyph glyph-name="cid4049" unicode="&#x2f73;" 
d="M29 -124l171 515h237l-172 -515h-236zM734 -124l-172 515h237l172 -515h-237zM31 455v259h351v111h238v-111h351v-259h-237v183h-466v-183h-237z" />
    <glyph glyph-name="cid4049" unicode="&#x7a74;" 
d="M29 -124l171 515h237l-172 -515h-236zM734 -124l-172 515h237l172 -515h-237zM31 455v259h351v111h238v-111h351v-259h-237v183h-466v-183h-237z" />
    <glyph glyph-name="cid2539" unicode="&#x2f74;" 
d="M27 -43h946v-76h-946v76zM45 692h336v132h238v-132h336v-75h-910v75zM198 -1l-89 561h237l89 -561h-237zM565 -1l89 561h237l-89 -561h-237z" />
    <glyph glyph-name="cid2539" unicode="&#x7acb;" 
d="M27 -43h946v-76h-946v76zM45 692h336v132h238v-132h336v-75h-910v75zM198 -1l-89 561h237l89 -561h-237zM565 -1l89 561h237l-89 -561h-237z" />
    <glyph glyph-name="cid4592" unicode="&#x2f75;" 
d="M186 -124v494h-159l64 454h199l-25 -169h211v-76h-90v-703h-200zM470 370l63 454h200l-24 -169h263v-76h-52v-609q0 -20 -7.5 -37t-20.5 -29.5t-30.5 -20t-36.5 -7.5h-215v75h82q11 0 19.5 8.5t8.5 19.5v600h-22l-30 -209h-198z" />
    <glyph glyph-name="cid4592" unicode="&#x7af9;" 
d="M186 -124v494h-159l64 454h199l-25 -169h211v-76h-90v-703h-200zM470 370l63 454h200l-24 -169h263v-76h-52v-609q0 -20 -7.5 -37t-20.5 -29.5t-30.5 -20t-36.5 -7.5h-215v75h82q11 0 19.5 8.5t8.5 19.5v600h-22l-30 -209h-198z" />
    <glyph glyph-name="cid2780" unicode="&#x2f76;" 
d="M43 799h237l54 -321h-238zM903 478h-238l54 321h238zM26 434h355v388h237v-388h356v-76h-70l70 -482h-237l-69 482h-50v-482h-237v482h-49l-70 -482h-236l69 482h-69v76z" />
    <glyph glyph-name="cid2780" unicode="&#x7c73;" 
d="M43 799h237l54 -321h-238zM903 478h-238l54 321h238zM26 434h355v388h237v-388h356v-76h-70l70 -482h-237l-69 482h-50v-482h-237v482h-49l-70 -482h-236l69 482h-69v76z" />
    <glyph glyph-name="cid7399" unicode="&#x2f77;" 
d="M82 192h237l-49 -295h-236zM969 -103h-237l-49 295h237zM814 640l-304 -312h184q8 0 16 3.5t13 11.5q13 16 7 34l-31 96h227l28 -103q7 -22 2 -42.5t-19 -39.5q-14 -18 -33 -27t-41 -9h-240v-258q0 -24 -9 -44.5t-24.5 -35.5t-36 -24t-44.5 -9h-187v57h35q11 0 19.5 8
t8.5 19v287h-308l287 257h-333l299 310h293l-219 -234h45l62 55h303z" />
    <glyph glyph-name="cid7399" unicode="&#x7cf8;" 
d="M82 192h237l-49 -295h-236zM969 -103h-237l-49 295h237zM814 640l-304 -312h184q8 0 16 3.5t13 11.5q13 16 7 34l-31 96h227l28 -103q7 -22 2 -42.5t-19 -39.5q-14 -18 -33 -27t-41 -9h-240v-258q0 -24 -9 -44.5t-24.5 -35.5t-36 -24t-44.5 -9h-187v57h35q11 0 19.5 8
t8.5 19v287h-308l287 257h-333l299 310h293l-219 -234h45l62 55h303z" />
    <glyph glyph-name="cid7262" unicode="&#x2f78;" 
d="M109 823h237l-27 -119h631v-76h-332v-238h355v-76h-355v-354h68q11 0 20 8t9 20v222h237v-212q0 -24 -9 -44.5t-24.5 -36t-36 -24.5t-44.5 -9h-791v326h237v-250h97v354h-355v76h355v238h-79l-35 -155h-237z" />
    <glyph glyph-name="cid7262" unicode="&#x7f36;" 
d="M109 823h237l-27 -119h631v-76h-332v-238h355v-76h-355v-354h68q11 0 20 8t9 20v222h237v-212q0 -24 -9 -44.5t-24.5 -36t-36 -24.5t-44.5 -9h-791v326h237v-250h97v354h-355v76h355v238h-79l-35 -155h-237z" />
    <glyph glyph-name="cid3753" unicode="&#x2f79;" 
d="M763 81v527l-68 -263zM237 612v-534l68 267zM636 573l27 105h100v54h-526v-54h101l26 -103l27 103h218zM500 47l77 298l-77 298l-77 -298zM42 808h916v-812q0 -23 -9 -44t-24.5 -36.5t-36 -24.5t-44.5 -9h-176v76h67q12 0 20 8.5t8 20.5v25h-100l-27 104l-27 -104h-218
l-27 103l-26 -103h-101v-130h-195v926z" />
    <glyph glyph-name="cid3753" unicode="&#x7f51;" 
d="M763 81v527l-68 -263zM237 612v-534l68 267zM636 573l27 105h100v54h-526v-54h101l26 -103l27 103h218zM500 47l77 298l-77 298l-77 -298zM42 808h916v-812q0 -23 -9 -44t-24.5 -36.5t-36 -24.5t-44.5 -9h-176v76h67q12 0 20 8.5t8 20.5v25h-100l-27 104l-27 -104h-218
l-27 103l-26 -103h-101v-130h-195v926z" />
    <glyph glyph-name="cid4123" unicode="&#x2f7a;" 
d="M890 821l-44 -138h115v-76h-342v-175h320v-76h-320v-177h354v-76h-354v-227h-238v227h-354v76h354v177h-320v76h320v175h-342v76h120l-45 138h238l45 -138h212l45 138h236z" />
    <glyph glyph-name="cid4123" unicode="&#x7f8a;" 
d="M890 821l-44 -138h115v-76h-342v-175h320v-76h-320v-177h354v-76h-354v-227h-238v227h-354v76h354v177h-320v76h320v175h-342v76h120l-45 138h238l45 -138h212l45 138h236z" />
    <glyph glyph-name="cid4309" unicode="&#x2f7b;" 
d="M672 653l27 -269h-153l-27 269h153zM197 653l27 -269h-153l-27 269h153zM38 9l27 322h159l-27 -322h-159zM512 9l28 322h159l-27 -322h-160zM38 786h448v-811q0 -20 -7.5 -37t-20.5 -30t-30.5 -20.5t-36.5 -7.5h-294v76h123q12 0 20 8.5t8 19.5v726h-210v76zM512 786h449
v-811q0 -20 -7.5 -37t-20.5 -30t-30.5 -20.5t-36.5 -7.5h-295v76h124q12 0 20 8.5t8 19.5v726h-211v76z" />
    <glyph glyph-name="cid4309" unicode="&#x7fbd;" 
d="M672 653l27 -269h-153l-27 269h153zM197 653l27 -269h-153l-27 269h153zM38 9l27 322h159l-27 -322h-159zM512 9l28 322h159l-27 -322h-160zM38 786h448v-811q0 -20 -7.5 -37t-20.5 -30t-30.5 -20.5t-36.5 -7.5h-294v76h123q12 0 20 8.5t8 19.5v726h-210v76zM512 786h449
v-811q0 -20 -7.5 -37t-20.5 -30t-30.5 -20.5t-36.5 -7.5h-295v76h124q12 0 20 8.5t8 19.5v726h-211v76z" />
    <glyph glyph-name="cid2490" unicode="&#x2f7c;" 
d="M571 823v-135h264v-76h-264v-173l401 183v-92l-218 -99h220v-76h-387l-153 -70v-160l441 202v-92l-441 -201v-82h536v-76h-773v301l-171 -78v92l360 164h-360v76h312v181h-264v76h264v135h233z" />
    <glyph glyph-name="cid2490" unicode="&#x8001;" 
d="M571 823v-135h264v-76h-264v-173l401 183v-92l-218 -99h220v-76h-387l-153 -70v-160l441 202v-92l-441 -201v-82h536v-76h-773v301l-171 -78v92l360 164h-360v76h312v181h-264v76h264v135h233z" />
    <glyph glyph-name="cid1591" unicode="&#x2f7d;" 
d="M707 484v-598h-186v598h-43v-598h-186v598h-42v-605h-199v681h276l48 144h-348v76h946v-76h-362l-48 -144h385v-586q0 -40 -26.5 -67.5t-65.5 -27.5h-134v76h10q7 0 12.5 5.5t5.5 13.5v510h-43z" />
    <glyph glyph-name="cid1591" unicode="&#x800c;" 
d="M707 484v-598h-186v598h-43v-598h-186v598h-42v-605h-199v681h276l48 144h-348v76h946v-76h-362l-48 -144h385v-586q0 -40 -26.5 -67.5t-65.5 -27.5h-134v76h10q7 0 12.5 5.5t5.5 13.5v510h-43z" />
    <glyph glyph-name="cid7115" unicode="&#x2f7e;" 
d="M618 824v-85h326v-76h-326v-124h305v-76h-305v-116h355v-76h-102l102 -392h-223l-102 392h-30v-395h-238v395h-30l-102 -392h-222l101 392h-101v76h354v116h-304v76h304v124h-326v76h326v85h238z" />
    <glyph glyph-name="cid7115" unicode="&#x8012;" 
d="M618 824v-85h326v-76h-326v-124h305v-76h-305v-116h355v-76h-102l102 -392h-223l-102 392h-30v-395h-238v395h-30l-102 -392h-222l101 392h-101v76h354v116h-304v76h304v124h-326v76h326v85h238z" />
    <glyph glyph-name="cid1593" unicode="&#x2f7f;" 
d="M375 102h249v151h-249v-151zM375 328h249v153h-249v-153zM375 557h249v154h-249v-154zM26 787h948v-76h-112v-609h112v-76h-112v-151h-238v151h-598v76h111v609h-111v76z" />
    <glyph glyph-name="cid1593" unicode="&#x8033;" 
d="M375 102h249v151h-249v-151zM375 328h249v153h-249v-153zM375 557h249v154h-249v-154zM26 787h948v-76h-112v-609h112v-76h-112v-151h-238v151h-598v76h111v609h-111v76z" />
    <glyph glyph-name="cid6686" unicode="&#x2f80;" 
d="M86 728h285v93h236v-93h338v-169h29v-76h-29v-67q0 -20 -7.5 -37t-20.5 -30t-30.5 -20.5t-36.5 -7.5h-243v-85h320v-76h-320v-82h366v-76h-366v-123h-236v123h-345v76h345v82h-298v76h298v85h-285v76h285v86h-345v76h345v93h-285v76zM607 652v-93h106v93h-106zM684 397
q12 0 20.5 9t8.5 20v57h-106v-86h77z" />
    <glyph glyph-name="cid6686" unicode="&#x807f;" 
d="M86 728h285v93h236v-93h338v-169h29v-76h-29v-67q0 -20 -7.5 -37t-20.5 -30t-30.5 -20.5t-36.5 -7.5h-243v-85h320v-76h-320v-82h366v-76h-366v-123h-236v123h-345v76h345v82h-298v76h298v85h-285v76h285v86h-345v76h345v93h-285v76zM607 652v-93h106v93h-106zM684 397
q12 0 20.5 9t8.5 20v57h-106v-86h77z" />
    <glyph glyph-name="cid3261" unicode="&#x2f81;" 
d="M269 381l76 237h-76v-237zM564 618l-20 -62h131l56 -175v237h-167zM571 310l-27 -85h131l56 -175v294h-207l-24 74l-24 -74h-207v-294l83 260h219zM629 821l-41 -127h368v-720q0 -20 -7.5 -37t-20.5 -30t-30.5 -20.5t-36.5 -7.5h-244v76h85q12 0 20.5 8t8.5 20v30h-207
l-24 74l-24 -74h-207v-134h-226v815h326l41 127h219z" />
    <glyph glyph-name="cid3261" unicode="&#x8089;" 
d="M269 381l76 237h-76v-237zM564 618l-20 -62h131l56 -175v237h-167zM571 310l-27 -85h131l56 -175v294h-207l-24 74l-24 -74h-207v-294l83 260h219zM629 821l-41 -127h368v-720q0 -20 -7.5 -37t-20.5 -30t-30.5 -20.5t-36.5 -7.5h-244v76h85q12 0 20.5 8t8.5 20v30h-207
l-24 74l-24 -74h-207v-134h-226v815h326l41 127h219z" />
    <glyph glyph-name="cid1249" unicode="&#x2f82;" 
d="M274 -42h179v213h-179v-213zM274 510h179v214h-179v-214zM274 435v-188h365q11 0 19.5 8t8.5 20v160h-393zM691 724v-214h213v-244q0 -20 -7.5 -37t-20.5 -30t-30.5 -20.5t-36.5 -7.5h-118v-213h272v-76h-927v918h927v-76h-272z" />
    <glyph glyph-name="cid1249" unicode="&#x81e3;" 
d="M274 -42h179v213h-179v-213zM274 510h179v214h-179v-214zM274 435v-188h365q11 0 19.5 8t8.5 20v160h-393zM691 724v-214h213v-244q0 -20 -7.5 -37t-20.5 -30t-30.5 -20.5t-36.5 -7.5h-118v-213h272v-76h-927v918h927v-76h-272z" />
    <glyph glyph-name="cid4657" unicode="&#x2f83;" 
d="M67 687h203l59 135h247l-59 -135h415v-694q0 -20 -7.5 -37t-20.5 -29.5t-30.5 -20t-36.5 -7.5h-770v788zM667 -26q11 0 19.5 9t8.5 20v137h-391v-166h363zM304 216h391v164h-391v-164zM304 456h391v156h-391v-156z" />
    <glyph glyph-name="cid4657" unicode="&#x81ea;" 
d="M67 687h203l59 135h247l-59 -135h415v-694q0 -20 -7.5 -37t-20.5 -29.5t-30.5 -20t-36.5 -7.5h-770v788zM667 -26q11 0 19.5 9t8.5 20v137h-391v-166h363zM304 216h391v164h-391v-164zM304 456h391v156h-391v-156z" />
    <glyph glyph-name="cid4544" unicode="&#x2f84;" 
d="M619 365v-148h334v-76h-334v-174h354v-76h-946v76h354v174h-334v76h334v148h-326l186 346h-204v76h926v-76h-471l-147 -270h328q8 0 14.5 3t10.5 11q7 12 0 28l-56 89h247l42 -66q14 -21 13.5 -46t-14.5 -48q-27 -47 -81 -47h-230z" />
    <glyph glyph-name="cid4544" unicode="&#x81f3;" 
d="M619 365v-148h334v-76h-334v-174h354v-76h-946v76h354v174h-334v76h334v148h-326l186 346h-204v76h926v-76h-471l-147 -270h328q8 0 14.5 3t10.5 11q7 12 0 28l-56 89h247l42 -66q14 -21 13.5 -46t-14.5 -48q-27 -47 -81 -47h-230z" />
    <glyph glyph-name="cid2297" unicode="&#x2f85;" 
d="M577 371h125v324h-125v76h363v-782q0 -20 -7.5 -37t-20.5 -29.5t-30.5 -20t-36.5 -7.5h-785v876h363v-76h-126v-324h126v-76h-126v-325h377q12 0 20 8.5t8 20.5v296h-125v76z" />
    <glyph glyph-name="cid2297" unicode="&#x81fc;" 
d="M577 371h125v324h-125v76h363v-782q0 -20 -7.5 -37t-20.5 -29.5t-30.5 -20t-36.5 -7.5h-785v876h363v-76h-126v-324h126v-76h-126v-325h377q12 0 20 8.5t8 20.5v296h-125v76z" />
    <glyph glyph-name="cid3353" unicode="&#x2f86;" 
d="M680 219h-361v-261h333q11 0 19.5 8.5t8.5 20.5v232zM68 806h864v-76h-313v-182h354v-76h-354v-176h298v-319q0 -20 -7.5 -37t-20.5 -30t-30.5 -20.5t-36.5 -7.5h-740v414h299v176h-354v76h354v182h-313v76z" />
    <glyph glyph-name="cid3353" unicode="&#x820c;" 
d="M680 219h-361v-261h333q11 0 19.5 8.5t8.5 20.5v232zM68 806h864v-76h-313v-182h354v-76h-354v-176h298v-319q0 -20 -7.5 -37t-20.5 -30t-30.5 -20.5t-36.5 -7.5h-740v414h299v176h-354v76h354v182h-313v76z" />
    <glyph glyph-name="cid5656" unicode="&#x2f87;" 
d="M181 385l22 -287h-148l-21 287h147zM27 436l51 389h171l-23 -166h245l-98 -714q-2 -15 -10.5 -27.5t-21.5 -20.5t-28.5 -12.5t-31.5 -4.5h-214v76h78q16 0 29 8t15 24l88 595h-61l-19 -147h-170zM505 655h188v170h203v-170h77v-76h-77v-349h77v-76h-77v-278h-203v278
h-211v319h172v-243h39v349h-188v76z" />
    <glyph glyph-name="cid5656" unicode="&#x821b;" 
d="M181 385l22 -287h-148l-21 287h147zM27 436l51 389h171l-23 -166h245l-98 -714q-2 -15 -10.5 -27.5t-21.5 -20.5t-28.5 -12.5t-31.5 -4.5h-214v76h78q16 0 29 8t15 24l88 595h-61l-19 -147h-170zM505 655h188v170h203v-170h77v-76h-77v-349h77v-76h-77v-278h-203v278
h-211v319h172v-243h39v349h-188v76z" />
    <glyph glyph-name="cid4570" unicode="&#x2f88;" 
d="M419 389l-47 201h209l47 -201h-209zM419 1l-47 201h209l47 -201h-209zM342 334h318v301h-318v-301zM27 334h78v377h181l32 111h242l-33 -111h370v-377h76v-76h-76v-283q0 -20 -7.5 -37t-20.5 -29.5t-30.5 -20t-36.5 -7.5h-236v76h65q12 0 20.5 8t8.5 19v274h-318v-377
h-237v377h-78v76z" />
    <glyph glyph-name="cid4570" unicode="&#x821f;" 
d="M419 389l-47 201h209l47 -201h-209zM419 1l-47 201h209l47 -201h-209zM342 334h318v301h-318v-301zM27 334h78v377h181l32 111h242l-33 -111h370v-377h76v-76h-76v-283q0 -20 -7.5 -37t-20.5 -29.5t-30.5 -20t-36.5 -7.5h-236v76h65q12 0 20.5 8t8.5 19v274h-318v-377
h-237v377h-78v76z" />
    <glyph glyph-name="cid7388" unicode="&#x2f89;" 
d="M41 -119v922h892v-363q0 -20 -7.5 -37t-20.5 -30t-30.5 -20.5t-36.5 -7.5h-175l84 -132l31 65h181l-107 -229l107 -168h-270l-283 464h-128v-388h188v-76h-425zM278 727v-115h418v115h-418zM667 421q12 0 20.5 8t8.5 20v87h-418v-115h389z" />
    <glyph glyph-name="cid7388" unicode="&#x826e;" 
d="M41 -119v922h892v-363q0 -20 -7.5 -37t-20.5 -30t-30.5 -20.5t-36.5 -7.5h-175l84 -132l31 65h181l-107 -229l107 -168h-270l-283 464h-128v-388h188v-76h-425zM278 727v-115h418v115h-418zM667 421q12 0 20.5 8t8.5 20v87h-418v-115h389z" />
    <glyph glyph-name="cid3300" unicode="&#x2f8a;" 
d="M315 215h85v194h-85v-194zM713 409h-86v-194h57q12 0 20.5 8.5t8.5 20.5v165zM362 631l-70 -145h255l72 145h-257zM315 -45h658v-76h-886v579h-60l178 367h251l-57 -118h509l-109 -221h142v-252q0 -20 -7.5 -37t-20.5 -30t-30.5 -20.5t-36.5 -7.5h-531v-184z" />
    <glyph glyph-name="cid3300" unicode="&#x8272;" 
d="M315 215h85v194h-85v-194zM713 409h-86v-194h57q12 0 20.5 8.5t8.5 20.5v165zM362 631l-70 -145h255l72 145h-257zM315 -45h658v-76h-886v579h-60l178 367h251l-57 -118h509l-109 -221h142v-252q0 -20 -7.5 -37t-20.5 -30t-30.5 -20.5t-36.5 -7.5h-531v-184z" />
    <glyph glyph-name="cid7152" unicode="&#x2f8c;" 
d="M298 237l122 12v210h238v-187l272 27v-76l-272 -27v-239h306v-76h-544v292l-122 -12v76zM35 -123v725h356v222h237v-61h316v-76h-316v-85h337v-240h-228v164h-464v-649h-238z" />
    <glyph glyph-name="cid7152" unicode="&#x864d;" 
d="M298 237l122 12v210h238v-187l272 27v-76l-272 -27v-239h306v-76h-544v292l-122 -12v76zM35 -123v725h356v222h237v-61h316v-76h-316v-85h337v-240h-228v164h-464v-649h-238z" />
    <glyph glyph-name="cid1291" unicode="&#x2f8d;" 
d="M711 590h-92v-313h63q13 0 21 8.5t8 20.5v284zM288 277h93v313h-93v-313zM939 296q0 -20 -7.5 -37t-20.5 -30t-30.5 -20.5t-36.5 -7.5h-225v-239h89q11 0 20 8.5t9 19.5v122h237v-131q0 -20 -7.5 -37.5t-20.5 -30t-30.5 -20t-36.5 -7.5h-853v76h355v239h-320v465h320v156
h238v-156h320v-370z" />
    <glyph glyph-name="cid1291" unicode="&#x866b;" 
d="M711 590h-92v-313h63q13 0 21 8.5t8 20.5v284zM288 277h93v313h-93v-313zM939 296q0 -20 -7.5 -37t-20.5 -30t-30.5 -20.5t-36.5 -7.5h-225v-239h89q11 0 20 8.5t9 19.5v122h237v-131q0 -20 -7.5 -37.5t-20.5 -30t-30.5 -20t-36.5 -7.5h-853v76h355v239h-320v465h320v156
h238v-156h320v-370z" />
    <glyph glyph-name="cid4051" unicode="&#x2f8e;" 
d="M481 -40h38v658h-38v-658zM702 618v-658h43v658h-43zM254 -40h44v658h-44v-658zM25 -40h35v734h207l33 131h237l-33 -131h436v-734h34v-76h-949v76z" />
    <glyph glyph-name="cid4051" unicode="&#x8840;" 
d="M481 -40h38v658h-38v-658zM702 618v-658h43v658h-43zM254 -40h44v658h-44v-658zM25 -40h35v734h207l33 131h237l-33 -131h436v-734h34v-76h-949v76z" />
    <glyph glyph-name="cid3995" unicode="&#x2f8f;" 
d="M401 808h536v-76h-536v76zM366 493h607v-75h-116v-447q0 -20 -7.5 -37t-20.5 -30t-30.5 -20.5t-36.5 -7.5h-240v76h80q12 0 20 8.5t8 19.5v438h-264v75zM86 -123v429h-60l61 246h-61l75 272h222l-58 -218h58l-53 -218h34v-511h-218z" />
    <glyph glyph-name="cid3995" unicode="&#x884c;" 
d="M401 808h536v-76h-536v76zM366 493h607v-75h-116v-447q0 -20 -7.5 -37t-20.5 -30t-30.5 -20.5t-36.5 -7.5h-240v76h80q12 0 20 8.5t8 19.5v438h-264v75zM86 -123v429h-60l61 246h-61l75 272h222l-58 -218h58l-53 -218h34v-511h-218z" />
    <glyph glyph-name="cid4169" unicode="&#x2f90;" 
d="M745 -91l-243 656h222l38 -101l21 55h189l-116 -305l116 -305h-227zM28 709h351v116h238v-116h360v-76h-500l-68 -193h115v-483h125v-76h-358v221l-40 -114h-228l226 645h-221v76z" />
    <glyph glyph-name="cid4169" unicode="&#x8863;" 
d="M745 -91l-243 656h222l38 -101l21 55h189l-116 -305l116 -305h-227zM28 709h351v116h238v-116h360v-76h-500l-68 -193h115v-483h125v-76h-358v221l-40 -114h-228l226 645h-221v76z" />
    <glyph glyph-name="cid2200" unicode="&#x2f93;" 
d="M287 341h106v126h-106v-126zM630 467v-126h107v126h-107zM287 129h106v136h-106v-136zM630 129h107v136h-107v-136zM393 -119v172h-106v-177h-228v667h526l57 151h-315l-50 -122h-243l105 253h242l-23 -55h557l-88 -227h138v-572q0 -20 -7.5 -37t-20.5 -30t-30.5 -20.5
t-36.5 -7.5h-183v76h21q11 0 20 8t9 20v73h-107v-172h-237z" />
    <glyph glyph-name="cid2200" unicode="&#x89d2;" 
d="M287 341h106v126h-106v-126zM630 467v-126h107v126h-107zM287 129h106v136h-106v-136zM630 129h107v136h-107v-136zM393 -119v172h-106v-177h-228v667h526l57 151h-315l-50 -122h-243l105 253h242l-23 -55h557l-88 -227h138v-572q0 -20 -7.5 -37t-20.5 -30t-30.5 -20.5
t-36.5 -7.5h-183v76h21q11 0 20 8t9 20v73h-107v-172h-237z" />
    <glyph glyph-name="cid4093" unicode="&#x2f94;" 
d="M56 400h888v-76h-888v76zM56 571h888v-76h-888v76zM713 165h-426v-204h397q11 0 20 8t9 20v176zM25 743h356v82h238v-82h355v-76h-949v76zM59 241h882v-261q0 -20 -7.5 -37.5t-20.5 -30t-30.5 -20t-36.5 -7.5h-787v356z" />
    <glyph glyph-name="cid4093" unicode="&#x8a00;" 
d="M56 400h888v-76h-888v76zM56 571h888v-76h-888v76zM713 165h-426v-204h397q11 0 20 8t9 20v176zM25 743h356v82h238v-82h355v-76h-949v76zM59 241h882v-261q0 -20 -7.5 -37.5t-20.5 -30t-30.5 -20t-36.5 -7.5h-787v356z" />
    <glyph glyph-name="cid1825" unicode="&#x2f95;" 
d="M302 248h395l-197 229zM794 819l178 -244h-235l-187 244h244zM450 819l-188 -244h-235l178 244h245zM641 172h-283v-211h254q12 0 20.5 8t8.5 20v183zM382 644h236l327 -366h28v-76h-95v-203q0 -24 -9 -44.5t-24.5 -36t-36 -24.5t-44.5 -9h-642v317h-95v76h28z" />
    <glyph glyph-name="cid1825" unicode="&#x8c37;" 
d="M302 248h395l-197 229zM794 819l178 -244h-235l-187 244h244zM450 819l-188 -244h-235l178 244h245zM641 172h-283v-211h254q12 0 20.5 8t8.5 20v183zM382 644h236l327 -366h28v-76h-95v-203q0 -24 -9 -44.5t-24.5 -36t-36 -24.5t-44.5 -9h-642v317h-95v76h28z" />
    <glyph glyph-name="cid1528" unicode="&#x2f96;" 
d="M27 795h946v-76h-946v76zM695 579h-391v-242h362q12 0 20.5 9t8.5 20v213zM335 197l58 -223h213l59 223h237l-60 -223h131v-76h-947v76h131l-60 223h238zM67 655h865v-280q0 -23 -9 -44t-24.5 -36.5t-36 -24.5t-44.5 -9h-751v394z" />
    <glyph glyph-name="cid1528" unicode="&#x8c46;" 
d="M27 795h946v-76h-946v76zM695 579h-391v-242h362q12 0 20.5 9t8.5 20v213zM335 197l58 -223h213l59 223h237l-60 -223h131v-76h-947v76h131l-60 223h238zM67 655h865v-280q0 -23 -9 -44t-24.5 -36.5t-36 -24.5t-44.5 -9h-751v394z" />
    <glyph glyph-name="cid7445" unicode="&#x2f97;" 
d="M964 623l-68 -231l77 -486h-237l-77 486l67 231h238zM27 780h946v-76h-428l-153 -92h241v-620q0 -24 -9 -44.5t-24.5 -36t-36 -24.5t-44.5 -9h-215v76h53q13 0 21 8t8 20v121l-360 -216v113l360 228v137l-360 -217v114l360 228v46h-121l-239 -144v114l314 198h-313v76z
" />
    <glyph glyph-name="cid7445" unicode="&#x8c55;" 
d="M964 623l-68 -231l77 -486h-237l-77 486l67 231h238zM27 780h946v-76h-428l-153 -92h241v-620q0 -24 -9 -44.5t-24.5 -36t-36 -24.5t-44.5 -9h-215v76h53q13 0 21 8t8 20v121l-360 -216v113l360 228v137l-360 -217v114l360 228v46h-121l-239 -144v114l314 198h-313v76z
" />
    <glyph glyph-name="cid7504" unicode="&#x2f98;" 
d="M294 671l395 154v-84l-395 -154v84zM294 390l33 16l-19 148l162 63l17 -134l32 16l-17 132l163 70l17 -123l23 11v-93l-128 -61h109v-484q0 -32 -22 -54t-54 -22h-157v76h19q15 0 15 13v25l-193 -111v113l193 110v92l-193 -103v113l193 103v53h-70l-123 -59v90z" />
    <glyph glyph-name="cid7504" unicode="&#x8c78;" 
d="M294 671l395 154v-84l-395 -154v84zM294 390l33 16l-19 148l162 63l17 -134l32 16l-17 132l163 70l17 -123l23 11v-93l-128 -61h109v-484q0 -32 -22 -54t-54 -22h-157v76h19q15 0 15 13v25l-193 -111v113l193 110v92l-193 -103v113l193 103v53h-70l-123 -59v90z" />
    <glyph glyph-name="cid1285" unicode="&#x2f9a;" 
d="M215 338l-39 -385h-147l40 385h146zM930 338l40 -385h-147l-39 385h146zM58 706h323v116h238v-116h323v-76h-323v-132h355v-76h-223v-429q0 -24 -9 -44.5t-24.5 -36t-36.5 -24.5t-44 -9h-167v76h39q12 0 20 8.5t8 19.5v439h-63l-55 -543h-214l55 543h-234v76h355v132
h-323v76z" />
    <glyph glyph-name="cid1285" unicode="&#x8d64;" 
d="M215 338l-39 -385h-147l40 385h146zM930 338l40 -385h-147l-39 385h146zM58 706h323v116h238v-116h323v-76h-323v-132h355v-76h-223v-429q0 -24 -9 -44.5t-24.5 -36t-36.5 -24.5t-44 -9h-167v76h39q12 0 20 8.5t8 19.5v439h-63l-55 -543h-214l55 543h-234v76h355v132
h-323v76z" />
    <glyph glyph-name="cid4668" unicode="&#x2f9b;" 
d="M61 706h320v116h238v-116h320v-76h-320v-170h355v-76h-323v-171h286v-76h-286v-182h323v-76h-589l-127 97l-14 -97h-213l65 443h214l-24 -162l128 -103v327h-388v76h355v170h-320v76z" />
    <glyph glyph-name="cid4668" unicode="&#x8d70;" 
d="M61 706h320v116h238v-116h320v-76h-320v-170h355v-76h-323v-171h286v-76h-286v-182h323v-76h-589l-127 97l-14 -97h-213l65 443h214l-24 -162l128 -103v327h-388v76h355v170h-320v76z" />
    <glyph glyph-name="cid4672" unicode="&#x2f9c;" 
d="M720 724h-421v-234h393q12 0 20 8t8 20v206zM80 800h859v-273q0 -24 -9 -44.5t-24.5 -35.5t-36 -24t-44.5 -9h-178v-181h275v-75h-275v-200h326v-76h-597l-131 86l-12 -92h-206l58 438h206l-24 -179l143 -104v383h-330v386z" />
    <glyph glyph-name="cid4672" unicode="&#x8db3;" 
d="M720 724h-421v-234h393q12 0 20 8t8 20v206zM80 800h859v-273q0 -24 -9 -44.5t-24.5 -35.5t-36 -24t-44.5 -9h-178v-181h275v-75h-275v-200h326v-76h-597l-131 86l-12 -92h-206l58 438h206l-24 -179l143 -104v383h-330v386z" />
    <glyph glyph-name="cid3366" unicode="&#x2f9d;" 
d="M323 595h313v79h-313v-79zM323 279h313v81h-313v-81zM323 435h313v84h-313v-84zM27 279h78v471h181l18 74h233l-19 -74h336v-383l119 54v-114l-119 -54v-259q0 -24 -9 -44.5t-24.5 -36t-36 -24.5t-44.5 -9h-307v76h175q11 0 19.5 8t8.5 20v170l-609 -276v114l465 211
h-465v76z" />
    <glyph glyph-name="cid3366" unicode="&#x8eab;" 
d="M323 595h313v79h-313v-79zM323 279h313v81h-313v-81zM323 435h313v84h-313v-84zM27 279h78v471h181l18 74h233l-19 -74h336v-383l119 54v-114l-119 -54v-259q0 -24 -9 -44.5t-24.5 -36t-36 -24.5t-44.5 -9h-307v76h175q11 0 19.5 8t8.5 20v170l-609 -276v114l465 211
h-465v76z" />
    <glyph glyph-name="cid7803" unicode="&#x2f9e;" 
d="M722 344h-104v-90h85q8 0 13.5 5.5t5.5 13.5v71zM277 254h104v90h-104v-90zM618 512v-92h104v92h-104zM277 420h104v92h-104v-92zM40 747h341v77h237v-77h341v-76h-341v-83h332v-315q0 -20 -7.5 -37t-20 -30t-30 -20.5t-37.5 -7.5h-237v-84h355v-76h-355v-140h-237v140
h-355v76h355v84h-332v410h332v83h-341v76z" />
    <glyph glyph-name="cid7803" unicode="&#x8eca;" 
d="M722 344h-104v-90h85q8 0 13.5 5.5t5.5 13.5v71zM277 254h104v90h-104v-90zM618 512v-92h104v92h-104zM277 420h104v92h-104v-92zM40 747h341v77h237v-77h341v-76h-341v-83h332v-315q0 -20 -7.5 -37t-20 -30t-30 -20.5t-37.5 -7.5h-237v-84h355v-76h-355v-140h-237v140
h-355v76h355v84h-332v410h332v83h-341v76z" />
    <glyph glyph-name="cid3980" unicode="&#x2f9f;" 
d="M55 715h326v108h238v-108h326v-76h-890v76zM27 393h149l-66 195h213l67 -195h219l67 195h213l-66 -195h150v-76h-354v-146h336v-76h-336v-218h-238v218h-336v76h336v146h-354v76z" />
    <glyph glyph-name="cid3980" unicode="&#x8f9b;" 
d="M55 715h326v108h238v-108h326v-76h-890v76zM27 393h149l-66 195h213l67 -195h219l67 195h213l-66 -195h150v-76h-354v-146h336v-76h-336v-218h-238v218h-336v76h336v146h-354v76z" />
    <glyph glyph-name="cid1250" unicode="&#x2fa0;" 
d="M359 605h525v-76h-525v76zM934 785v-77h-661v-287h686v-76h-164l41 -117l15 45h108l-68 -204l68 -193h-214l-168 469h-28v-392h95v-77h-313v469h-58v-469h-233v909h894z" />
    <glyph glyph-name="cid1250" unicode="&#x8fb0;" 
d="M359 605h525v-76h-525v76zM934 785v-77h-661v-287h686v-76h-164l41 -117l15 45h108l-68 -204l68 -193h-214l-168 469h-28v-392h95v-77h-313v469h-58v-469h-233v909h894z" />
    <glyph glyph-name="cid4191" unicode="&#x2fa2;" 
d="M612 376v-196h70q16 0 27 11.5t11 26.5v158h-108zM272 180h108v196h-108v-196zM300 583h362q16 0 27 11t11 27v106h-400v-144zM72 507v295h856v-200q0 -20 -7.5 -37t-20 -30t-30 -20.5t-37.5 -7.5h-761zM39 -118v570h914v-253q0 -20 -7.5 -37t-20.5 -30t-30.5 -20.5
t-36.5 -7.5h-586v-146h689v-76h-922z" />
    <glyph glyph-name="cid4191" unicode="&#x9091;" 
d="M612 376v-196h70q16 0 27 11.5t11 26.5v158h-108zM272 180h108v196h-108v-196zM300 583h362q16 0 27 11t11 27v106h-400v-144zM72 507v295h856v-200q0 -20 -7.5 -37t-20 -30t-30 -20.5t-37.5 -7.5h-761zM39 -118v570h914v-253q0 -20 -7.5 -37t-20.5 -30t-30.5 -20.5
t-36.5 -7.5h-586v-146h689v-76h-922z" />
    <glyph glyph-name="cid4276" unicode="&#x2fa3;" 
d="M27 794h946v-76h-268v-102h247v-646q0 -20 -7.5 -37t-20.5 -30t-30.5 -20.5t-36.5 -7.5h-809v741h242v102h-263v76zM257 76h486v53h-233v411h-25v-173l-24 -238h-195l24 238v173h-33v-464zM705 -49q16 0 27 11t11 27v11h-486v-49h448zM743 205v335h-38v-335h38zM485 616
h25v102h-25v-102z" />
    <glyph glyph-name="cid4276" unicode="&#x9149;" 
d="M27 794h946v-76h-268v-102h247v-646q0 -20 -7.5 -37t-20.5 -30t-30.5 -20.5t-36.5 -7.5h-809v741h242v102h-263v76zM257 76h486v53h-233v411h-25v-173l-24 -238h-195l24 238v173h-33v-464zM705 -49q16 0 27 11t11 27v11h-486v-49h448zM743 205v335h-38v-335h38zM485 616
h25v102h-25v-102z" />
    <glyph glyph-name="cid2522" unicode="&#x2fa5;" 
d="M59 171h322v124h-327v503h891v-408q0 -20 -7.5 -37t-20.5 -30t-30.5 -20.5t-36.5 -7.5h-231v-124h321v-62h-321v-145h354v-76h-946v76h354v145h-322v62zM292 371h89v145h-89v-145zM292 578h89v144h-89v-144zM619 722v-144h88v144h-88zM669 371q16 0 27 11.5t11 26.5v107
h-88v-145h50z" />
    <glyph glyph-name="cid2522" unicode="&#x91cc;" 
d="M59 171h322v124h-327v503h891v-408q0 -20 -7.5 -37t-20.5 -30t-30.5 -20.5t-36.5 -7.5h-231v-124h321v-62h-321v-145h354v-76h-946v76h354v145h-322v62zM292 371h89v145h-89v-145zM292 578h89v144h-89v-144zM619 722v-144h88v144h-88zM669 371q16 0 27 11.5t11 26.5v107
h-88v-145h50z" />
    <glyph glyph-name="cid2241" unicode="&#x2fa6;" 
d="M304 481h396l-200 204zM363 823h269l342 -350h-107v-68h-248v-119h305v-76h-305v-241h48l35 170h202l-36 -170h105v-76h-946v76h104l-35 170h202l35 -170h48v241h-305v76h305v119h-248v68h-107z" />
    <glyph glyph-name="cid2241" unicode="&#x91d1;" 
d="M304 481h396l-200 204zM363 823h269l342 -350h-107v-68h-248v-119h305v-76h-305v-241h48l35 170h202l-36 -170h105v-76h-946v76h104l-35 170h202l35 -170h48v241h-305v76h305v119h-248v68h-107z" />
    <glyph glyph-name="cid1714" unicode="&#x2fa9;" 
d="M304 562h319q13 0 21 8.5t8 19.5v67h-348v-95zM304 338v-89h363q11 0 20 8.5t9 20.5v60h-392zM381 -124v133h-356v76h356v88h-309v560h207l24 92h238l-25 -92h369v-152q0 -20 -7.5 -37t-20.5 -29.5t-30.5 -20t-36.5 -7.5h-486v-73h624v-146q0 -20 -7.5 -37t-20 -30
t-30 -20.5t-37.5 -7.5h-214v-88h355v-76h-355v-133h-238z" />
    <glyph glyph-name="cid1714" unicode="&#x961c;" 
d="M304 562h319q13 0 21 8.5t8 19.5v67h-348v-95zM304 338v-89h363q11 0 20 8.5t9 20.5v60h-392zM381 -124v133h-356v76h356v88h-309v560h207l24 92h238l-25 -92h369v-152q0 -20 -7.5 -37t-20.5 -29.5t-30.5 -20t-36.5 -7.5h-486v-73h624v-146q0 -20 -7.5 -37t-20 -30
t-30 -20.5t-37.5 -7.5h-214v-88h355v-76h-355v-133h-238z" />
    <glyph glyph-name="cid2542" unicode="&#x2faa;" 
d="M25 588h361v97h-327v76h327v64h237v-64h308v-173h43v-76h-43v-80q0 -40 -27.5 -67.5t-67.5 -27.5h-213v-366q0 -20 -7.5 -37t-20 -30t-30 -20.5t-37.5 -7.5h-212v76h41q13 0 21 8t8 20v357h-327v76h327v99h-361v76zM917 92l57 -211h-232l-58 211h233zM315 92l-57 -211
h-233l58 211h232zM83 134l-39 158h233l38 -158h-232zM684 134l39 158h232l-38 -158h-233zM680 413q12 0 20 8t8 20v71h-85v-99h57zM623 685v-97h85v97h-85z" />
    <glyph glyph-name="cid2542" unicode="&#x96b6;" 
d="M25 588h361v97h-327v76h327v64h237v-64h308v-173h43v-76h-43v-80q0 -40 -27.5 -67.5t-67.5 -27.5h-213v-366q0 -20 -7.5 -37t-20 -30t-30 -20.5t-37.5 -7.5h-212v76h41q13 0 21 8t8 20v357h-327v76h327v99h-361v76zM917 92l57 -211h-232l-58 211h233zM315 92l-57 -211
h-233l58 211h232zM83 134l-39 158h233l38 -158h-232zM684 134l39 158h232l-38 -158h-233zM680 413q12 0 20 8t8 20v71h-85v-99h57zM623 685v-97h85v97h-85z" />
    <glyph glyph-name="cid7545" unicode="&#x2fab;" 
d="M352 -25h176v148h-176v-148zM352 199h176v151h-176v-151zM352 426h176v158h-176v-158zM114 -124v547h-89l140 402h237l-58 -165h177l-29 156h238l29 -156h212v-76h-206v-158h181v-76h-181v-151h181v-76h-181v-148h209v-76h-622v-23h-238z" />
    <glyph glyph-name="cid7545" unicode="&#x96b9;" 
d="M352 -25h176v148h-176v-148zM352 199h176v151h-176v-151zM352 426h176v158h-176v-158zM114 -124v547h-89l140 402h237l-58 -165h177l-29 156h238l29 -156h212v-76h-206v-158h181v-76h-181v-151h181v-76h-181v-148h209v-76h-622v-23h-238z" />
    <glyph glyph-name="cid4303" unicode="&#x2fac;" 
d="M630 285l-22 223h124l22 -223h-124zM630 13l-22 224h124l22 -224h-124zM266 262l-21 246h124l21 -246h-124zM266 -38l-21 247h124l21 -247h-124zM25 800h949v-76h-377v-73h362v-681q0 -20 -7.5 -37t-20.5 -30t-30.5 -20.5t-36.5 -7.5h-159v76h31q12 0 20 8.5t8 20.5v595
h-167v-700h-195v700h-167v-700h-194v776h361v73h-377v76z" />
    <glyph glyph-name="cid4303" unicode="&#x96e8;" 
d="M630 285l-22 223h124l22 -223h-124zM630 13l-22 224h124l22 -224h-124zM266 262l-21 246h124l21 -246h-124zM266 -38l-21 247h124l21 -247h-124zM25 800h949v-76h-377v-73h362v-681q0 -20 -7.5 -37t-20.5 -30t-30.5 -20.5t-36.5 -7.5h-159v76h31q12 0 20 8.5t8 20.5v595
h-167v-700h-195v700h-167v-700h-194v776h361v73h-377v76z" />
    <glyph glyph-name="cid1636" unicode="&#x2fae;" 
d="M536 -124v949h238v-149h190v-76h-190v-212h181v-76h-181v-212h200v-76h-200v-148h-238zM26 100h200v212h-182v76h182v212h-191v76h191v149h238v-949h-238v148h-200v76z" />
    <glyph glyph-name="cid1636" unicode="&#x975e;" 
d="M536 -124v949h238v-149h190v-76h-190v-212h181v-76h-181v-212h200v-76h-200v-148h-238zM26 100h200v212h-182v76h182v212h-191v76h191v149h238v-949h-238v148h-200v76z" />
    <glyph glyph-name="cid2795" unicode="&#x2faf;" 
d="M467 179h66v130h-66v-130zM467 385h66v140h-66v-140zM467 -44h66v147h-66v-147zM755 525h-51v-569h22q11 0 20 8.5t9 20.5v540zM245 -44h51v569h-51v-569zM25 802h949v-76h-359l-36 -125h374v-626q0 -20 -7.5 -37t-20 -30t-30 -20.5t-37.5 -7.5h-812v721h296l36 125h-353
v76z" />
    <glyph glyph-name="cid2795" unicode="&#x9762;" 
d="M467 179h66v130h-66v-130zM467 385h66v140h-66v-140zM467 -44h66v147h-66v-147zM755 525h-51v-569h22q11 0 20 8.5t9 20.5v540zM245 -44h51v569h-51v-569zM25 802h949v-76h-359l-36 -125h374v-626q0 -20 -7.5 -37t-20 -30t-30 -20.5t-37.5 -7.5h-812v721h296l36 125h-353
v76z" />
    <glyph glyph-name="cid1770" unicode="&#x2fb0;" 
d="M619 509v-55h309v-200q0 -20 -7.5 -37t-20 -30t-30 -20.5t-37.5 -7.5h-214v-65h355v-76h-355v-142h-238v142h-356v76h356v65h-309v295h309v55h-246v133h-110v76h110v107h237v-107h255v107h238v-107h109v-76h-109v-38q0 -20 -7.5 -37.5t-20.5 -30t-30.5 -20t-36.5 -7.5
h-151zM599 585q12 0 20 8t8 20v29h-255v-57h227zM309 235h72v143h-72v-143zM691 378h-72v-143h43q13 0 21 8t8 21v114z" />
    <glyph glyph-name="cid1770" unicode="&#x9769;" 
d="M619 509v-55h309v-200q0 -20 -7.5 -37t-20 -30t-30 -20.5t-37.5 -7.5h-214v-65h355v-76h-355v-142h-238v142h-356v76h356v65h-309v295h309v55h-246v133h-110v76h110v107h237v-107h255v107h238v-107h109v-76h-109v-38q0 -20 -7.5 -37.5t-20.5 -30t-30.5 -20t-36.5 -7.5
h-151zM599 585q12 0 20 8t8 20v29h-255v-57h227zM309 235h72v143h-72v-143zM691 378h-72v-143h43q13 0 21 8t8 21v114z" />
    <glyph glyph-name="cid2289" unicode="&#x2fb2;" 
d="M35 709h187v115h237v-861h82v861h237v-115h186v-76h-186v-178h177v-76h-177v-180h196v-76h-196v-160h196v-76h-949v76h197v160h-196v76h196v180h-178v76h178v178h-187v76z" />
    <glyph glyph-name="cid2289" unicode="&#x97ed;" 
d="M35 709h187v115h237v-861h82v861h237v-115h186v-76h-186v-178h177v-76h-177v-180h196v-76h-196v-160h196v-76h-949v76h197v160h-196v76h196v180h-178v76h178v178h-187v76z" />
    <glyph glyph-name="cid4219" unicode="&#x2fb3;" 
d="M654 -43q12 0 20 8t8 20v87h-364v-115h336zM682 262h-364v-115h364v115zM49 744h332v80h237v-80h333v-76h-902v76zM27 470h137l-42 157h235l44 -157h197l44 157h236l-44 -157h138v-76h-945v76zM900 -24q0 -20 -7.5 -37t-20.5 -30t-30.5 -20.5t-36.5 -7.5h-705v456h800
v-361z" />
    <glyph glyph-name="cid4219" unicode="&#x97f3;" 
d="M654 -43q12 0 20 8t8 20v87h-364v-115h336zM682 262h-364v-115h364v115zM49 744h332v80h237v-80h333v-76h-902v76zM27 470h137l-42 157h235l44 -157h197l44 157h236l-44 -157h138v-76h-945v76zM900 -24q0 -20 -7.5 -37t-20.5 -30t-30.5 -20.5t-36.5 -7.5h-705v456h800
v-361z" />
    <glyph glyph-name="cid7936" unicode="&#x2fb5;" 
d="M568 417v-216h6q8 0 12.5 5.5t4.5 12.5v198h-23zM405 201v216h-23v-216h23zM241 660h492v-76h-152v-95h142v-270q0 -37 -25.5 -63t-61.5 -26h-68v-147h16q7 0 12.5 5t5.5 13v58h126v-58q0 -19 -7 -35.5t-18.5 -28.5t-27.5 -19t-34 -7h-399v72h163v147h-155v359h144v95
h-153v76zM226 -124h-194v918h910v-842h25v-76h-220v842h-521v-842z" />
    <glyph glyph-name="cid7936" unicode="&#x98a8;" 
d="M568 417v-216h6q8 0 12.5 5.5t4.5 12.5v198h-23zM405 201v216h-23v-216h23zM241 660h492v-76h-152v-95h142v-270q0 -37 -25.5 -63t-61.5 -26h-68v-147h16q7 0 12.5 5t5.5 13v58h126v-58q0 -19 -7 -35.5t-18.5 -28.5t-27.5 -19t-34 -7h-399v72h163v147h-155v359h144v95
h-153v76zM226 -124h-194v918h910v-842h25v-76h-220v842h-521v-842z" />
    <glyph glyph-name="cid7924" unicode="&#x2fb6;" 
d="M839 790h134l-29 -128h-134zM839 307h134l-29 -129h-134zM810 634h134l29 -162h-134zM810 151h134l29 -163h-134zM27 796h767v-355h179v-76h-397v355h-549v76zM40 655h264v-76h-31l-11 -256h62v334h209v-334h261v-368h179v-76h-397v368h-43v-370h-209v370h-65l-15 -370
h-204l15 370h-28v76h31l11 256h-29v76z" />
    <glyph glyph-name="cid7924" unicode="&#x98db;" 
d="M839 790h134l-29 -128h-134zM839 307h134l-29 -129h-134zM810 634h134l29 -162h-134zM810 151h134l29 -163h-134zM27 796h767v-355h179v-76h-397v355h-549v76zM40 655h264v-76h-31l-11 -256h62v334h209v-334h261v-368h179v-76h-397v368h-43v-370h-209v370h-65l-15 -370
h-204l15 370h-28v76h31l11 256h-29v76z" />
    <glyph glyph-name="cid3402" unicode="&#x2fb7;" 
d="M617 558v-79h278v-233q0 -20 -7.5 -37t-20 -30t-29.5 -20.5t-36 -7.5h-468v-198h104v-75h-335v601h279v79h235zM295 512h-268v76h68l270 227h271l269 -227h68v-76h-268l-205 171zM695 126l53 -49l38 45h184l-119 -139l115 -105h-280l-264 248h273zM634 227q11 0 19 9
t8 20v24h-327v-53h300zM334 356h327v47h-327v-47z" />
    <glyph glyph-name="cid3402" unicode="&#x98df;" 
d="M617 558v-79h278v-233q0 -20 -7.5 -37t-20 -30t-29.5 -20.5t-36 -7.5h-468v-198h104v-75h-335v601h279v79h235zM295 512h-268v76h68l270 227h271l269 -227h68v-76h-268l-205 171zM695 126l53 -49l38 45h184l-119 -139l115 -105h-280l-264 248h273zM634 227q11 0 19 9
t8 20v24h-327v-53h300zM334 356h327v47h-327v-47z" />
    <glyph glyph-name="cid3438" unicode="&#x2fb8;" 
d="M883 822l-36 -121h124v-76h-394l-41 -107h380v-540q0 -20 -7.5 -37.5t-20 -31t-30 -21.5t-36.5 -8h-738v638h214l42 107h-311v76h123l-35 121h238l35 -121h220l35 121h238zM324 329h354v113h-354v-113zM649 -44q11 0 20 10t9 21v82h-354v-113h325zM324 145h354v108h-354
v-108z" />
    <glyph glyph-name="cid3438" unicode="&#x9996;" 
d="M883 822l-36 -121h124v-76h-394l-41 -107h380v-540q0 -20 -7.5 -37.5t-20 -31t-30 -21.5t-36.5 -8h-738v638h214l42 107h-311v76h123l-35 121h238l35 -121h220l35 121h238zM324 329h354v113h-354v-113zM649 -44q11 0 20 10t9 21v82h-354v-113h325zM324 145h354v108h-354
v-108z" />
    <glyph glyph-name="cid3920" unicode="&#x2fb9;" 
d="M91 -116v402h817v-305q0 -20 -7 -37.5t-20 -30.5t-30 -21t-36 -8h-724zM107 797h786v-76h-274v-94h354v-76h-80l80 -232h-223l-80 232h-51v-232h-238v232h-52l-79 -232h-223l79 232h-79v76h354v94h-274v76zM332 122h338v88h-338v-88zM642 -40q12 0 20 9.5t8 20.5v56h-338
v-86h310z" />
    <glyph glyph-name="cid3920" unicode="&#x9999;" 
d="M91 -116v402h817v-305q0 -20 -7 -37.5t-20 -30.5t-30 -21t-36 -8h-724zM107 797h786v-76h-274v-94h354v-76h-80l80 -232h-223l-80 232h-51v-232h-238v232h-52l-79 -232h-223l79 232h-79v76h354v94h-274v76zM332 122h338v88h-338v-88zM642 -40q12 0 20 9.5t8 20.5v56h-338
v-86h310z" />
    <glyph glyph-name="cid1824" unicode="&#x2fbb;" 
d="M324 583v-69h82v69h-82zM362 233h273v61h-273v-61zM362 92h273v65h-273v-65zM616 514h56v199h-348v-54h292v-145zM265 370h470v68h-470v-68zM537 -45h69q12 0 20.5 9.5t8.5 21.5v30h-273v-137h-240v421h-94v214h70v275h803v-275h71v-214h-94v-323q0 -20 -7.5 -37.5
t-20 -31t-29.5 -21.5t-36 -8h-248v76z" />
    <glyph glyph-name="cid1824" unicode="&#x9aa8;" 
d="M324 583v-69h82v69h-82zM362 233h273v61h-273v-61zM362 92h273v65h-273v-65zM616 514h56v199h-348v-54h292v-145zM265 370h470v68h-470v-68zM537 -45h69q12 0 20.5 9.5t8.5 21.5v30h-273v-137h-240v421h-94v214h70v275h803v-275h71v-214h-94v-323q0 -20 -7.5 -37.5
t-20 -31t-29.5 -21.5t-36 -8h-248v76z" />
    <glyph glyph-name="cid1754" unicode="&#x2fbc;" 
d="M464 55h49q9 0 15 7.5t6 15.5v55h-70v-78zM339 455h291q11 0 19.5 10.5t8.5 21.5v55h-319v-87zM619 821v-74h353v-76h-945v76h354v74h238zM290 -15v219h420v-148q0 -29 -20 -50t-49 -21h-351zM104 379v239h792v-141q0 -20 -7.5 -37.5t-20 -31t-29.5 -21.5t-36 -8h-699z
M649 -45h68q11 0 19 10t8 21v271h-492v-378h-212v454h919v-356q0 -20 -7.5 -37.5t-20 -31t-29.5 -21.5t-36 -8h-217v76z" />
    <glyph glyph-name="cid1754" unicode="&#x9ad8;" 
d="M464 55h49q9 0 15 7.5t6 15.5v55h-70v-78zM339 455h291q11 0 19.5 10.5t8.5 21.5v55h-319v-87zM619 821v-74h353v-76h-945v76h354v74h238zM290 -15v219h420v-148q0 -29 -20 -50t-49 -21h-351zM104 379v239h792v-141q0 -20 -7.5 -37.5t-20 -31t-29.5 -21.5t-36 -8h-699z
M649 -45h68q11 0 19 10t8 21v271h-492v-378h-212v454h919v-356q0 -20 -7.5 -37.5t-20 -31t-29.5 -21.5t-36 -8h-217v76z" />
    <glyph glyph-name="cid7660" unicode="&#x2fbd;" 
d="M739 501h235l-126 -234q-14 -25 -39 -39t-57 -14h-186v76h38q20 0 30 16zM739 822h235l-126 -234q-14 -26 -39 -40.5t-57 -14.5h-186v77h38q11 0 18 4.5t12 11.5zM739 166h235l-126 -236q-14 -25 -39 -39t-57 -14h-186v76h38q20 0 30 16zM525 726h-226v-102h195v-75h-195
v-101h195v-75h-195v-103h223v-76h-229l-32 -237h60q10 0 15.5 7t3.5 15l-20 116h195l26 -146q5 -26 -11.5 -47t-42.5 -21h-456l45 313h-51v76h45v532h455v-76z" />
    <glyph glyph-name="cid7660" unicode="&#x9adf;" 
d="M739 501h235l-126 -234q-14 -25 -39 -39t-57 -14h-186v76h38q20 0 30 16zM739 822h235l-126 -234q-14 -26 -39 -40.5t-57 -14.5h-186v77h38q11 0 18 4.5t12 11.5zM739 166h235l-126 -236q-14 -25 -39 -39t-57 -14h-186v76h38q20 0 30 16zM525 726h-226v-102h195v-75h-195
v-101h195v-75h-195v-103h223v-76h-229l-32 -237h60q10 0 15.5 7t3.5 15l-20 116h195l26 -146q5 -26 -11.5 -47t-42.5 -21h-456l45 313h-51v76h45v532h455v-76z" />
    <glyph glyph-name="cid7888" unicode="&#x2fbe;" 
d="M517 801h214v-76h-49v-60h47v-76h-47v-59h54v-76h-224v76h54v59h-47v76h47v60h-49v76zM269 801h215v-76h-49v-60h46v-76h-46v-59h54v-76h-225v76h54v59h-46v76h46v60h-49v76zM41 823h204v-946h-204v946zM755 823h204v-851q0 -20 -7.5 -37t-20.5 -30t-30.5 -20.5
t-36.5 -7.5h-203v76h65q12 0 20.5 8t8.5 20v842z" />
    <glyph glyph-name="cid7888" unicode="&#x9b25;" 
d="M517 801h214v-76h-49v-60h47v-76h-47v-59h54v-76h-224v76h54v59h-47v76h47v60h-49v76zM269 801h215v-76h-49v-60h46v-76h-46v-59h54v-76h-225v76h54v59h-46v76h46v60h-49v76zM41 823h204v-946h-204v946zM755 823h204v-851q0 -20 -7.5 -37t-20.5 -30t-30.5 -20.5
t-36.5 -7.5h-203v76h65q12 0 20.5 8t8.5 20v842z" />
    <glyph glyph-name="cid5019" unicode="&#x2fbf;" 
d="M375 631l22 -63h-96l-22 63h96zM683 631l24 -63h-96l-24 63h96zM585 375l-91 136l-51 -73h91l21 -63h-101l-18 53l-36 -53h-119l154 224l-150 224h120l90 -136l50 73h-91l-21 63h101l17 -53l37 53h120l-154 -224l149 -224h-118zM51 251h218v-110l648 68v-91l-648 -67v-95
h679v-76h-897v371zM51 804h218v-448h420q11 0 20 8.5t9 19.5v420h218v-429q0 -20 -7.5 -37t-20.5 -30t-30.5 -20.5t-36.5 -7.5h-790v524z" />
    <glyph glyph-name="cid5019" unicode="&#x9b2f;" 
d="M375 631l22 -63h-96l-22 63h96zM683 631l24 -63h-96l-24 63h96zM585 375l-91 136l-51 -73h91l21 -63h-101l-18 53l-36 -53h-119l154 224l-150 224h120l90 -136l50 73h-91l-21 63h101l17 -53l37 53h120l-154 -224l149 -224h-118zM51 251h218v-110l648 68v-91l-648 -67v-95
h679v-76h-897v371zM51 804h218v-448h420q11 0 20 8.5t9 19.5v420h218v-429q0 -20 -7.5 -37t-20.5 -30t-30.5 -20.5t-36.5 -7.5h-790v524z" />
    <glyph glyph-name="cid4704" unicode="&#x2fc0;" 
d="M320 490h320q11 0 19 10t8 21v90h-347v-121zM27 797h946v-76h-946v76zM469 273l13 -113h35l14 113h164l-14 -113h24v-76h-114v-190h-182v190h-114v76h23l-13 113h164zM94 415v272h812v-175q0 -20 -7.5 -37.5t-20 -30.5t-29.5 -21t-36 -8h-719zM52 -121v501h896v-403
q0 -20 -7 -37.5t-20 -31t-30 -21.5t-36 -8h-212v57h58q12 0 20 9.5t8 21.5v337h-461v-425h-216z" />
    <glyph glyph-name="cid4704" unicode="&#x9b32;" 
d="M320 490h320q11 0 19 10t8 21v90h-347v-121zM27 797h946v-76h-946v76zM469 273l13 -113h35l14 113h164l-14 -113h24v-76h-114v-190h-182v190h-114v76h23l-13 113h164zM94 415v272h812v-175q0 -20 -7.5 -37.5t-20 -30.5t-29.5 -21t-36 -8h-719zM52 -121v501h896v-403
q0 -20 -7 -37.5t-20 -31t-30 -21.5t-36 -8h-212v57h58q12 0 20 9.5t8 21.5v337h-461v-425h-216z" />
    <glyph glyph-name="cid1862" unicode="&#x2fc1;" 
d="M671 468h-86v-136h57q13 0 21 8.5t8 19.5v108zM585 680v-136h86v136h-86zM286 544h86v136h-86v-136zM286 332h86v136h-86v-136zM646 -20l16 255h138l-7 -179h12q9 0 14 5q5 6 5 15l-6 79h138l9 -113q1 -12 -2 -23t-12 -20q-15 -19 -43 -19h-262zM621 256v-304h351v-76
h-546v207l-157 -207h-242l300 380h-255v500h109l16 69h228l-16 -69h476v-405q0 -20 -7.5 -37t-20.5 -30t-30.5 -20.5t-36.5 -7.5h-169z" />
    <glyph glyph-name="cid1862" unicode="&#x9b3c;" 
d="M671 468h-86v-136h57q13 0 21 8.5t8 19.5v108zM585 680v-136h86v136h-86zM286 544h86v136h-86v-136zM286 332h86v136h-86v-136zM646 -20l16 255h138l-7 -179h12q9 0 14 5q5 6 5 15l-6 79h138l9 -113q1 -12 -2 -23t-12 -20q-15 -19 -43 -19h-262zM621 256v-304h351v-76
h-546v207l-157 -207h-242l300 380h-255v500h109l16 69h228l-16 -69h476v-405q0 -20 -7.5 -37t-20.5 -30t-30.5 -20.5t-36.5 -7.5h-169z" />
    <glyph glyph-name="cid2656" unicode="&#x2fc5;" 
d="M498 580h43v87h-43v-87zM252 580h48v87h-48v-87zM498 361h43v143h-43v-143zM739 504v-143h26q8 0 13.5 5.5t5.5 13.5v124h-45zM252 361h48v143h-48v-143zM631 -121v381h214v-98l120 22v-76l-120 -22v-131h120v-76h-334zM275 -121v381h214v-107h121v-75h-121v-123h121v-76
h-335zM640 823v-80h325v-76h-226v-87h215v-200q0 -20 -7.5 -37t-20.5 -30t-30.5 -20.5t-36.5 -7.5h-607v-408h-218v866h369v80h237z" />
    <glyph glyph-name="cid2656" unicode="&#x9e7f;" 
d="M498 580h43v87h-43v-87zM252 580h48v87h-48v-87zM498 361h43v143h-43v-143zM739 504v-143h26q8 0 13.5 5.5t5.5 13.5v124h-45zM252 361h48v143h-48v-143zM631 -121v381h214v-98l120 22v-76l-120 -22v-131h120v-76h-334zM275 -121v381h214v-107h121v-75h-121v-123h121v-76
h-335zM640 823v-80h325v-76h-226v-87h215v-200q0 -20 -7.5 -37t-20.5 -30t-30.5 -20.5t-36.5 -7.5h-607v-408h-218v866h369v80h237z" />
    <glyph glyph-name="cid8305" unicode="&#x2fc6;" 
d="M410 174l105 -55l109 55h-214zM456 297l-28 -38h490v-132l-217 -106l272 -143h-350l-102 55l-111 -55h-374l301 152l-54 28l-9 -13h-247l192 252h237zM27 765h354v59h238v-59h354v-76h-354v-194l58 161h163l-25 -68h102l56 -163h-163l-26 77l-28 -77h-71l288 -85v-91
l-354 105v-37h-238v37l-354 -105v91l286 85h-70l-26 76l-28 -76h-162l83 231h163l-25 -68h102l31 -90v191h-354v76z" />
    <glyph glyph-name="cid8305" unicode="&#x9ea5;" 
d="M410 174l105 -55l109 55h-214zM456 297l-28 -38h490v-132l-217 -106l272 -143h-350l-102 55l-111 -55h-374l301 152l-54 28l-9 -13h-247l192 252h237zM27 765h354v59h238v-59h354v-76h-354v-194l58 161h163l-25 -68h102l56 -163h-163l-26 77l-28 -77h-71l288 -85v-91
l-354 105v-37h-238v37l-354 -105v91l286 85h-70l-26 76l-28 -76h-162l83 231h163l-25 -68h102l31 -90v191h-354v76z" />
    <glyph glyph-name="cid2704" unicode="&#x2fc7;" 
d="M701 421l-4 -545h-74l4 545h74zM344 421l-5 -545h-75l5 545h75zM961 421l4 -545h-75l-4 545h75zM603 421l4 -545h-75l-4 545h75zM623 525h93v80h155v-80h94v-57h-94v-592h-155v592h-93v57zM264 525h93v80h157v-80h93v-57h-93v-592h-157v592h-93v57zM427 715v106h236v-106
h302v-76h-713v-763h-218v839h393z" />
    <glyph glyph-name="cid2704" unicode="&#x9ebb;" 
d="M701 421l-4 -545h-74l4 545h74zM344 421l-5 -545h-75l5 545h75zM961 421l4 -545h-75l-4 545h75zM603 421l4 -545h-75l-4 545h75zM623 525h93v80h155v-80h94v-57h-94v-592h-155v592h-93v57zM264 525h93v80h157v-80h93v-57h-93v-592h-157v592h-93v57zM427 715v106h236v-106
h302v-76h-713v-763h-218v839h393z" />
    <glyph glyph-name="cid3465" unicode="&#x2fc9;" 
d="M972 212l-47 -119h-238l49 119h236zM265 212l48 -119h-238l-47 119h237zM736 -123l-49 187h238l47 -187h-236zM28 -123l47 187h238l-48 -187h-237zM620 271v-281q0 -24 -9 -44.5t-24.5 -36t-36.5 -24.5t-44 -9h-190v76h38q12 0 20 8t8 20v291h238zM45 811h911v-76h-341
v-49h359v-76h-64l64 -175h-228l-64 175h-67v-109l320 -189h37v-76h-254l-216 124l-220 -124h-254v76h33l316 187v111h-59l-64 -175h-228l64 175h-64v76h351v49h-332v76z" />
    <glyph glyph-name="cid3465" unicode="&#x9ecd;" 
d="M972 212l-47 -119h-238l49 119h236zM265 212l48 -119h-238l-47 119h237zM736 -123l-49 187h238l47 -187h-236zM28 -123l47 187h238l-48 -187h-237zM620 271v-281q0 -24 -9 -44.5t-24.5 -36t-36.5 -24.5t-44 -9h-190v76h38q12 0 20 8t8 20v291h238zM45 811h911v-76h-341
v-49h359v-76h-64l64 -175h-228l-64 175h-67v-109l320 -189h37v-76h-254l-216 124l-220 -124h-254v76h33l316 187v111h-59l-64 -175h-228l64 175h-64v76h351v49h-332v76z" />
    <glyph glyph-name="cid1937" unicode="&#x2fca;" 
d="M262 691h107l16 -190h-106zM722 501h-107l16 190h107zM514 -124h-199l-34 200h200zM974 -124h-199l-34 200h200zM61 76h200l-33 -200h-199zM745 -124h-199l-33 200h200zM755 732h-155v-259h126q11 0 20 8.5t9 20.5v230zM246 473h155v259h-155v-259zM52 808h897v-297
q0 -24 -9 -44.5t-24.5 -36t-36 -24.5t-44.5 -9h-216v-61h328v-76h-328v-69h355v-76h-948v76h356v69h-329v76h329v61h-330v411z" />
    <glyph glyph-name="cid1937" unicode="&#x9ed1;" 
d="M262 691h107l16 -190h-106zM722 501h-107l16 190h107zM514 -124h-199l-34 200h200zM974 -124h-199l-34 200h200zM61 76h200l-33 -200h-199zM745 -124h-199l-33 200h200zM755 732h-155v-259h126q11 0 20 8.5t9 20.5v230zM246 473h155v259h-155v-259zM52 808h897v-297
q0 -24 -9 -44.5t-24.5 -36t-36 -24.5t-44.5 -9h-216v-61h328v-76h-328v-69h355v-76h-948v76h356v69h-329v76h329v61h-330v411z" />
    <glyph glyph-name="cid6741" unicode="&#x2fcb;" 
d="M747 -25h-106l-24 277h107zM275 252h107l-23 -277h-107zM31 804h183l29 -190h-184zM940 614h-184l29 190h183zM297 476l33 -116h65v146h-369v76h236v241h218v-241h39v241h218v-241h236v-76h-369v-146h55l34 116h227l-34 -116h72v-369q0 -24 -9 -44.5t-24.5 -36t-36 -24.5
t-44.5 -9h-134v76h25q11 0 19.5 8t8.5 20v303h-159v-407h-209v407h-159v-407h-195v483h62l-33 116h227z" />
    <glyph glyph-name="cid6741" unicode="&#x9ef9;" 
d="M747 -25h-106l-24 277h107zM275 252h107l-23 -277h-107zM31 804h183l29 -190h-184zM940 614h-184l29 190h183zM297 476l33 -116h65v146h-369v76h236v241h218v-241h39v241h218v-241h236v-76h-369v-146h55l34 116h227l-34 -116h72v-369q0 -24 -9 -44.5t-24.5 -36t-36 -24.5
t-44.5 -9h-134v76h25q11 0 19.5 8t8.5 20v303h-159v-407h-209v407h-159v-407h-195v483h62l-33 116h227z" />
    <glyph glyph-name="cid1509" unicode="&#x2fcd;" 
d="M462 579h92v51h-92v-51zM554 512h-92v-60h75q17 0 17 16v44zM462 697h92v60h-92v-60zM278 819h460v-364q0 -27 -19.5 -45.5t-47.5 -18.5h-393v428zM50 769h184v-428h246v-465h-194v265h-36l-39 -265h-171l39 265h-45v66h252v68h-236v494zM966 381q0 -46 -27 -76t-82 -30
h-127v-67h233v-332h-180v256h-53v-256h-195v465h158q44 0 66 21.5t22 56.5v350h185v-388z" />
    <glyph glyph-name="cid1509" unicode="&#x9f0e;" 
d="M462 579h92v51h-92v-51zM554 512h-92v-60h75q17 0 17 16v44zM462 697h92v60h-92v-60zM278 819h460v-364q0 -27 -19.5 -45.5t-47.5 -18.5h-393v428zM50 769h184v-428h246v-465h-194v265h-36l-39 -265h-171l39 265h-45v66h252v68h-236v494zM966 381q0 -46 -27 -76t-82 -30
h-127v-67h233v-332h-180v256h-53v-256h-195v465h158q44 0 66 21.5t22 56.5v350h185v-388z" />
    <glyph glyph-name="cid1821" unicode="&#x2fce;" 
d="M323 386h-108v-157h79q12 0 20.5 8.5t8.5 20.5v128zM473 112l-23 -140l49 1v-76l-471 -17v76l57 2l-20 154h161l19 -148l45 2l24 146h159zM28 768h141v57h201v-57h141v-76h-141v-103h120v-76h-441v76h120v103h-141v76zM55 153v309h430v-214q0 -20 -8 -37t-22 -30
t-32 -20.5t-39 -7.5h-329zM537 725h124v100h191v-100h123v-76h-123v-137h123v-125l-134 -245l134 -266h-188l-44 87l-47 -87h-187l143 266l-107 214v34h172l33 -67l61 113h-272v76h122v137h-124v76z" />
    <glyph glyph-name="cid1821" unicode="&#x9f13;" 
d="M323 386h-108v-157h79q12 0 20.5 8.5t8.5 20.5v128zM473 112l-23 -140l49 1v-76l-471 -17v76l57 2l-20 154h161l19 -148l45 2l24 146h159zM28 768h141v57h201v-57h141v-76h-141v-103h120v-76h-441v76h120v103h-141v76zM55 153v309h430v-214q0 -20 -8 -37t-22 -30
t-32 -20.5t-39 -7.5h-329zM537 725h124v100h191v-100h123v-76h-123v-137h123v-125l-134 -245l134 -266h-188l-44 87l-47 -87h-187l143 266l-107 214v34h172l33 -67l61 113h-272v76h122v137h-124v76z" />
    <glyph glyph-name="cid3466" unicode="&#x2fcf;" 
d="M623 -12l-14 160h99l13 -160h-98zM623 211l-14 161h99l13 -161h-98zM278 -17l-14 161h100l13 -161h-99zM278 206l-14 161h100l13 -161h-99zM965 -124h-200l-31 194v320h200v-310zM345 -124h-306v514h216v-440h90v-74zM690 -124h-306v514h216v-440h90v-74zM34 815h418v-76
h-181v-81h181v-76h-181v-82h422q8 0 16 5.5t8 13.5v63h-182v76h182v81h-182v76h418v-296q0 -20 -7.5 -37t-20 -30t-30 -20.5t-37.5 -7.5h-824v391z" />
    <glyph glyph-name="cid3466" unicode="&#x9f20;" 
d="M623 -12l-14 160h99l13 -160h-98zM623 211l-14 161h99l13 -161h-98zM278 -17l-14 161h100l13 -161h-99zM278 206l-14 161h100l13 -161h-99zM965 -124h-200l-31 194v320h200v-310zM345 -124h-306v514h216v-440h90v-74zM690 -124h-306v514h216v-440h90v-74zM34 815h418v-76
h-181v-81h181v-76h-181v-82h422q8 0 16 5.5t8 13.5v63h-182v76h182v81h-182v76h418v-296q0 -20 -7.5 -37t-20 -30t-30 -20.5t-37.5 -7.5h-824v391z" />
    <glyph glyph-name="cid1072" unicode="&#x2fd0;" 
d="M70 787h238l9 37h237l-9 -37h384v-235q0 -23 -9 -44t-24.5 -36.5t-36 -24.5t-44.5 -9h-745v349zM49 403h901v-177q0 -24 -9 -44.5t-24.5 -36t-36 -24.5t-44.5 -9h-787v291zM26 81h947v-71h-115v-134h-237v134h-236l-77 -134h-242l76 134h-116v71zM302 597h395v29h-395
v-29zM302 693h395v27h-395v-27zM668 505q11 0 19 7t10 18h-395v-25h366zM281 178h102v47h-102v-47zM616 337v-46h102v46h-102zM281 291h102v46h-102v-46zM718 225h-102v-47h74q11 0 19.5 8t8.5 21v18z" />
    <glyph glyph-name="cid1072" unicode="&#x9f3b;" 
d="M70 787h238l9 37h237l-9 -37h384v-235q0 -23 -9 -44t-24.5 -36.5t-36 -24.5t-44.5 -9h-745v349zM49 403h901v-177q0 -24 -9 -44.5t-24.5 -36t-36 -24.5t-44.5 -9h-787v291zM26 81h947v-71h-115v-134h-237v134h-236l-77 -134h-242l76 134h-116v71zM302 597h395v29h-395
v-29zM302 693h395v27h-395v-27zM668 505q11 0 19 7t10 18h-395v-25h366zM281 178h102v47h-102v-47zM616 337v-46h102v46h-102zM281 291h102v46h-102v-46zM718 225h-102v-47h74q11 0 19.5 8t8.5 21v18z" />
    <glyph glyph-name="cid8247" unicode="&#x2fd3;" 
d="M201 77h113v74h-113v-74zM201 227h113v78h-113v-78zM34 753h112v71h223v-71h111v-76h-446v76zM465 635l-21 -140h45v-76h-463v76h44l-20 140h166l20 -140h43l20 140h166zM39 371h436v-381q0 -24 -9 -44.5t-24.5 -36t-36 -24.5t-44.5 -9h-92v66h17q11 0 19.5 8.5t8.5 20.5
v30h-113v-125h-162v495zM765 565h-255v258h213v-49h241v-76h-241v-58h246v-165q0 -8 -3 -21.5t-12 -26.5t-24.5 -22.5t-40.5 -9.5h-166v-56h241v-76h-241v-55h241v-76h-241v-57h241v-76h-241v-47h251v-76h-464v595h217q23 -1 30.5 13t7.5 31v50z" />
    <glyph glyph-name="cid8247" unicode="&#x9f8d;" 
d="M201 77h113v74h-113v-74zM201 227h113v78h-113v-78zM34 753h112v71h223v-71h111v-76h-446v76zM465 635l-21 -140h45v-76h-463v76h44l-20 140h166l20 -140h43l20 140h166zM39 371h436v-381q0 -24 -9 -44.5t-24.5 -36t-36 -24.5t-44.5 -9h-92v66h17q11 0 19.5 8.5t8.5 20.5
v30h-113v-125h-162v495zM765 565h-255v258h213v-49h241v-76h-241v-58h246v-165q0 -8 -3 -21.5t-12 -26.5t-24.5 -22.5t-40.5 -9.5h-166v-56h241v-76h-241v-55h241v-76h-241v-57h241v-76h-241v-47h251v-76h-464v595h217q23 -1 30.5 13t7.5 31v50z" />
    <glyph glyph-name="cid4851" unicode="&#x2fd5;" 
d="M514 415h-29v-77h12q17 0 17 19v58zM830 415h-31v-77h13q7 0 12.5 5.5t5.5 13.5v58zM200 415h-31v-77h13q7 0 12.5 5.5t5.5 13.5v58zM473 91h53v84h-53v-84zM697 175v-84h59v84h-59zM243 91h59v84h-59v-84zM355 480h289v-137q0 -29 -21 -49t-50 -20h-218v206zM669 480
h291v-137q0 -29 -21 -49t-50 -20h-220v206zM39 480h291v-137q0 -29 -21 -49t-50 -20h-220v206zM88 583h823v-72h-823v72zM383 820h228l324 -153h37v-66h-245l-226 115l-224 -115h-250v66h38zM44 242h911v-252q0 -24 -9 -44.5t-24.5 -36t-36 -24.5t-44.5 -9h-124v66h15
q12 0 18 8.5t6 20.5v49h-59v-144h-171v144h-53v-144h-171v144h-59v-144h-199v366z" />
    <glyph glyph-name="cid4851" unicode="&#x9fa0;" 
d="M514 415h-29v-77h12q17 0 17 19v58zM830 415h-31v-77h13q7 0 12.5 5.5t5.5 13.5v58zM200 415h-31v-77h13q7 0 12.5 5.5t5.5 13.5v58zM473 91h53v84h-53v-84zM697 175v-84h59v84h-59zM243 91h59v84h-59v-84zM355 480h289v-137q0 -29 -21 -49t-50 -20h-218v206zM669 480
h291v-137q0 -29 -21 -49t-50 -20h-220v206zM39 480h291v-137q0 -29 -21 -49t-50 -20h-220v206zM88 583h823v-72h-823v72zM383 820h228l324 -153h37v-66h-245l-226 115l-224 -115h-250v66h38zM44 242h911v-252q0 -24 -9 -44.5t-24.5 -36t-36 -24.5t-44.5 -9h-124v66h15
q12 0 18 8.5t6 20.5v49h-59v-144h-171v144h-53v-144h-171v144h-59v-144h-199v366z" />
    <glyph glyph-name="cid96" unicode="&#x3000;" 
 />
    <glyph glyph-name="cid97" unicode="&#x3001;" 
d="M85 -96l-41 217h188l41 -217h-188z" />
    <glyph glyph-name="cid98" unicode="&#x3002;" 
d="M53 90q0 21 7.5 39t21 31.5t31.5 21.5t38 8h138q20 0 38 -8t31.5 -21.5t21 -31.5t7.5 -39v-103q0 -42 -28.5 -70.5t-69.5 -28.5h-138q-41 0 -69.5 28.5t-28.5 70.5v103zM270 63q0 17 -12 29t-29 12h-29q-16 0 -27.5 -12t-11.5 -29v-46q0 -15 11.5 -26.5t27.5 -11.5h29
q17 0 29 11.5t12 26.5v46z" />
    <glyph glyph-name="cid104" unicode="&#x3005;" 
d="M83 413l190 417h194l-87 -189h536l-290 -566l132 -134h-211l-342 350h211l80 -83l185 361h-333l-71 -156h-194z" />
    <glyph glyph-name="cid7703" unicode="&#x3007;" 
d="M55 653q0 37 14 70t38.5 57.5t57.5 38.5t70 14h529q37 0 70 -14t57.5 -38.5t38.5 -57.5t14 -70v-535q0 -37 -14 -70t-38.5 -57.5t-57.5 -38.5t-70 -14h-529q-37 0 -70 14t-57.5 38.5t-38.5 57.5t-14 70v535zM361 761q-37 0 -63.5 -26t-26.5 -64v-571q0 -38 26.5 -64
t63.5 -26h277q37 0 63.5 26t26.5 64v571q0 38 -26.5 64t-63.5 26h-277z" />
    <glyph glyph-name="cid115" unicode="&#x3008;" 
d="M559 346l135 475h207l-135 -475l135 -466h-207z" />
    <glyph glyph-name="cid116" unicode="&#x3009;" 
d="M235 -120h-206l135 466l-135 475h206l136 -475z" />
    <glyph glyph-name="cid117" unicode="&#x300a;" 
d="M359 348l135 467h207l-137 -467l137 -466h-207zM618 348l137 467h205l-135 -467l135 -466h-205z" />
    <glyph glyph-name="cid118" unicode="&#x300b;" 
d="M515 -118h-207l137 466l-137 467h207l135 -467zM254 -118h-205l135 466l-135 467h205l137 -467z" />
    <glyph glyph-name="cid119" unicode="&#x300c;" 
d="M586 -117v814q0 59 37 91t96 32h268v-141h-112v-796h-289z" />
    <glyph glyph-name="cid120" unicode="&#x300d;" 
d="M416 822v-814q0 -59 -37 -91t-96 -32h-268v141h112v796h289z" />
    <glyph glyph-name="cid121" unicode="&#x300e;" 
d="M307 -116v787q0 30 11 55.5t30.5 45t45.5 30.5t55 11h528v-236h-183v-693h-487zM520 -41h61v693h183v86h-178q-27 0 -46.5 -19.5t-19.5 -47.5v-712z" />
    <glyph glyph-name="cid122" unicode="&#x300f;" 
d="M694 813v-787q0 -30 -11 -55.5t-30.5 -45t-45.5 -30.5t-55 -11h-528v236h183v693h487zM481 738h-61v-693h-183v-86h178q27 0 46.5 19.5t19.5 47.5v712z" />
    <glyph glyph-name="cid125" unicode="&#x3010;" 
d="M627 822h336l-118 -473l118 -464h-336v937z" />
    <glyph glyph-name="cid126" unicode="&#x3011;" 
d="M370 -115h-336l118 464l-118 473h336v-937z" />
    <glyph glyph-name="cid123" unicode="&#x3016;" 
d="M585 -40h110l-48 389l48 398h-110v-787zM382 822h516l-57 -473l57 -464h-516v937z" />
    <glyph glyph-name="cid124" unicode="&#x3017;" 
d="M345 747h-110l48 -398l-48 -389h110v787zM548 -115h-516l57 464l-57 473h516v-937z" />
    <glyph glyph-name="cid401" unicode="&#x306e;" 
d="M653 752l-103 -815h-350q-28 0 -52.5 10.5t-43 29t-29 43t-10.5 52.5v617q0 28 10.5 52.5t29 43t43 29t52.5 10.5h600q28 0 52.5 -10.5t43 -29t29 -43t10.5 -52.5v-617q0 -28 -10.5 -52.5t-29 -43t-43 -29t-52.5 -10.5h-188v72h62q19 0 32 13t13 32v653q0 18 -13 31.5
t-32 13.5h-21zM281 54q0 -19 13.5 -32t31.5 -13h17l94 743h-111q-18 0 -31.5 -13.5t-13.5 -31.5v-653z" />
    <glyph glyph-name="cid1504" unicode="&#x4e01;" 
d="M26 776h947v-76h-354v-730q0 -20 -7.5 -37.5t-20.5 -30t-30.5 -20t-36.5 -7.5h-301v76h130q11 0 19.5 8t8.5 20v721h-355v76z" />
    <glyph glyph-name="cid3070" unicode="&#x4e03;" 
d="M587 824v-269l387 32v-76l-387 -32v-527h386v-76h-622v584l-325 -26v76l325 26v288h236z" />
    <glyph glyph-name="cid3747" unicode="&#x4e07;" 
d="M26 789h948v-76h-565l-26 -220h539v-522q0 -20 -7.5 -37t-20 -30t-30 -20.5t-37.5 -7.5h-300v76h130q11 0 19.5 8t8.5 20v437h-311l-63 -542h-238l98 838h-145v76z" />
    <glyph glyph-name="cid4458" unicode="&#x4e08;" 
d="M27 684h531v141h232v-141h183v-76h-183v-193l-166 -200l251 -262h98v-76h-300l-175 186l-154 -186h-266l277 339l-296 317h262l158 -166l79 96v145h-531v76z" />
    <glyph glyph-name="cid3288" unicode="&#x4e09;" 
d="M90 385h820v-76h-820v76zM26 -20h947v-76h-947v76zM55 790h890v-76h-890v76z" />
    <glyph glyph-name="cid3336" unicode="&#x4e0a;" 
d="M582 824v-314h345v-76h-345v-472h392v-76h-948v76h318v862h238z" />
    <glyph glyph-name="cid3887" unicode="&#x4e0b;" 
d="M867 546l93 -524h-222l-93 524h222zM26 795h948v-76h-392v-843h-238v843h-318v76z" />
    <glyph glyph-name="cid4696" unicode="&#x4e0c;" 
d="M26 789h948v-76h-129v-837h-238v837h-189l-78 -837h-237l78 837h-155v76z" />
    <glyph glyph-name="cid1154" unicode="&#x4e0d;" 
d="M26 802h948v-76h-429l-46 -115h120v-82h142l213 -525h-232l-123 304v-432h-238v437l-123 -309h-232l288 722h-288v76z" />
    <glyph glyph-name="cid4304" unicode="&#x4e0e;" 
d="M26 181h605v-76h-605v76zM334 824v-145h639v-76h-639v-200h622v-427q0 -20 -7.5 -37t-20.5 -30t-30.5 -20.5t-36.5 -7.5h-349v76h179q11 0 19.5 8.5t8.5 19.5v342h-623v497h238z" />
    <glyph glyph-name="cid4698" unicode="&#x4e10;" 
d="M25 799h949v-76h-340v-182h305v-75h-305v-178h329v-313q0 -20 -7.5 -37t-20.5 -30t-30.5 -20.5t-36.5 -7.5h-430v76h259q11 0 19.5 8.5t8.5 20.5v227h-674v365h213v-289h132v435h-371v76z" />
    <glyph glyph-name="cid1304" unicode="&#x4e11;" 
d="M470 713l-32 -331h231v331h-199zM398 -28h271v334h-238zM907 789v-817h66v-76h-947v76h134l33 334h-111v76h119l32 331h-155v76h829z" />
    <glyph glyph-name="cid4613" unicode="&#x4e13;" 
d="M633 824l-46 -121h354v-75h-383l-58 -155h474v-76h-503l-57 -150h449l-110 -285h138v-76h-783v76h410l80 209h-455l87 226h-204v76h233l60 155h-260v75h289l47 121h238z" />
    <glyph glyph-name="cid3151" unicode="&#x4e14;" 
d="M351 -30h298v187h-298v-187zM351 233h298v204h-298v-204zM351 512h298v206h-298v-206zM887 -30h86v-76h-946v76h86v824h774v-824z" />
    <glyph glyph-name="cid4701" unicode="&#x4e15;" 
d="M26 -37h948v-76h-948v76zM27 799h947v-76h-397l-49 -98h92v-81h144l210 -426h-251l-103 209v-328h-238v328l-103 -209h-252l299 605h-299v76z" />
    <glyph glyph-name="cid3415" unicode="&#x4e16;" 
d="M921 824v-244h52v-75h-52v-355q0 -20 -7.5 -37.5t-20 -30t-30 -20t-36.5 -7.5h-442v450h-73v-553h660v-76h-898v629h-48v75h48v200h238v-200h73v244h223v-244h91v244h222zM670 131q11 0 20 8.5t9 19.5v346h-91v-374h62z" />
    <glyph glyph-name="cid3181" unicode="&#x4e18;" 
d="M350 -31h250v441h-250v-441zM922 800v-76h-572v-238h613v-76h-126v-441h137v-76h-948v76h86v831h810z" />
    <glyph glyph-name="cid1124" unicode="&#x4e19;" 
d="M280 135l67 408h-67v-408zM678 458l42 -303v388h-161l-14 -85h133zM720 26h-185l-29 199l-33 -199h-193v-151h-224v745h304l17 107h-351v75h948v-75h-384l-18 -107h372v-650q0 -20 -7.5 -37t-20.5 -30t-30.5 -20.5t-36.5 -7.5h-232v76h75q12 0 20 9t8 20v46z" />
    <glyph glyph-name="cid4156" unicode="&#x4e1a;" 
d="M58 55l-27 685h163l27 -685h-163zM969 740l-27 -685h-164l28 685h163zM747 825v-857h227v-76h-948v76h227v857h219v-857h56v857h219z" />
    <glyph glyph-name="cid1367" unicode="&#x4e1b;" 
d="M26 -40h948v-76h-948v76zM386 823l-57 -282h114l54 -306l128 588h200l-62 -282h88l122 -520h-204l-60 275l-60 -275h-199l8 37h-134l-41 257l-59 -294h-199l161 802h200z" />
    <glyph glyph-name="cid1514" unicode="&#x4e1c;" 
d="M346 231l-104 -344h-212l104 344h212zM884 231l89 -344h-213l-89 344h213zM442 825l-32 -104h563v-76h-587l-85 -277h91v194h236v-194h314v-76h-314v-319q0 -20 -7.5 -37t-20.5 -30t-30.5 -20.5t-36.5 -7.5h-219v76h49q11 0 20 8.5t9 19.5v310h-342l113 353h-137v76h162
l33 104h221z" />
    <glyph glyph-name="cid3508" unicode="&#x4e1d;" 
d="M26 -30h947v-76h-947v76zM505 29l168 378h-177l196 418h229l-140 -297h175l-188 -423h183v-76h-446zM34 29l169 378h-177l196 418h229l-140 -297h175l-188 -423h183v-76h-447z" />
    <glyph glyph-name="cid4703" unicode="&#x4e1e;" 
d="M65 800h846l-307 -292v-416q0 -20 -7.5 -37t-20 -29.5t-30 -20t-37.5 -7.5h-247v76h98q12 0 20.5 8.5t8.5 19.5v463l183 161h-507v74zM27 -46h946v-76h-946v76zM28 47l101 440h-100v76h324l-120 -516h-205zM767 47l-127 400l97 148h196l-94 -148l132 -400h-204z" />
    <glyph glyph-name="cid1513" unicode="&#x4e22;" 
d="M54 800h892v-76h-327v-166h327v-76h-327v-159h354v-76h-508l-155 -281h362q22 0 32 19q13 17 1 37l-67 122h237l86 -155q17 -35 -1 -67q-20 -32 -57 -32h-872l197 357h-201v76h354v159h-327v76h327v166h-327v76z" />
    <glyph glyph-name="cid2566" unicode="&#x4e24;" 
d="M731 537l22 -255v255h-22zM247 293l28 244h-28v-244zM479 613h48v109h-48v-109zM479 537l20 -239l28 239h-48zM753 39h-104l-21 261l-31 -261h-200l-20 261l-32 -261h-98v-163h-195v737h223v109h-249v75h948v-75h-243v-109h216v-642q0 -20 -7.5 -37t-20 -30t-30 -20.5
t-36.5 -7.5h-204v76h75q11 0 20 9t9 20v58z" />
    <glyph glyph-name="cid4088" unicode="&#x4e25;" 
d="M471 419h57v308h-57v-308zM765 457l29 234h168l-30 -234h-167zM205 691l30 -234h-168l-30 234h168zM26 803h947v-76h-236v-308h236v-76h-691v-467h-237v543h217v308h-236v76z" />
    <glyph glyph-name="cid3294" unicode="&#x4e27;" 
d="M617 825v-85h332v-76h-332v-289h51l45 202h211l-45 -202h95v-75h-256l58 -102l26 70h163l-88 -246l84 -145h-225l-243 423h-177v-347h148v-76h-371v423h-67v75h95l-44 202h211l44 -202h52v289h-332v76h332v85h233z" />
    <glyph glyph-name="cid1777" unicode="&#x4e2a;" 
d="M619 429v-552h-238v552h238zM292 362h-266v76h61l289 372h247l290 -372h61v-76h-266l-208 281z" />
    <glyph glyph-name="cid4071" unicode="&#x4e2b;" 
d="M280 822l157 -342h-236l-159 342h238zM563 480l158 342h237l-158 -342h-237zM619 448v-571h-238v571h238z" />
    <glyph glyph-name="cid5788" unicode="&#x4e2c;" 
d="M761 824v-947h-237v947h237zM434 755l48 -342h-196l-47 342h195zM239 -69l47 442h196l-48 -442h-195z" />
    <glyph glyph-name="cid4559" unicode="&#x4e2d;" 
d="M290 154h91v393h-91v-393zM711 547h-92v-393h63q12 0 20.5 8.5t8.5 20.5v364zM947 173q0 -20 -7.5 -37t-20 -30t-30 -20.5t-37.5 -7.5h-233v-201h-238v201h-328v545h328v201h238v-201h328v-450z" />
    <glyph glyph-name="cid1662" unicode="&#x4e30;" 
d="M619 824v-144h325v-76h-325v-192h274v-76h-274v-191h354v-76h-354v-192h-238v192h-354v76h354v191h-274v76h274v192h-326v76h326v144h238z" />
    <glyph glyph-name="cid1329" unicode="&#x4e32;" 
d="M699 646h-80v-160h52q11 0 19.5 8t8.5 20v132zM301 486h80v160h-80v-160zM281 59h100v185h-100v-185zM720 244h-101v-185h73q11 0 19.5 8.5t8.5 20.5v156zM957 78q0 -20 -7.5 -37t-20.5 -30t-30.5 -20.5t-36.5 -7.5h-243v-106h-238v106h-338v338h338v89h-317v313h317v101
h238v-101h317v-218q0 -20 -7.5 -37t-20.5 -30t-30.5 -20.5t-36.5 -7.5h-222v-89h338v-243z" />
    <glyph glyph-name="cid2594" unicode="&#x4e34;" 
d="M805 260h-43v-299h14q12 0 20.5 9t8.5 20v270zM558 -39h43v299h-43v-299zM843 591l63 -204h-181l-63 204h181zM158 709v-716h-123v716h123zM673 824l-26 -119h317v-76h-333l-52 -242h-185l94 437h185zM365 824v-947h-180v947h180zM962 -20q0 -20 -7.5 -37t-20.5 -30
t-30.5 -20.5t-36.5 -7.5h-466v452h561v-357z" />
    <glyph glyph-name="cid3737" unicode="&#x4e38;" 
d="M902 -48h72v-76h-300v693h-183l-102 -329l178 -79v-105l-206 92l-84 -272h-242l113 367l-122 55v104l150 -67l72 234h-222v76h246l55 178h242l-55 -178h388v-693z" />
    <glyph glyph-name="cid1413" unicode="&#x4e39;" 
d="M588 671l30 -302h-206l-30 302h206zM343 321h314v408h-314v-408zM891 321h83v-76h-83v-275q0 -20 -7.5 -37t-20 -30t-30 -20.5t-37.5 -7.5h-230v76h62q12 0 20.5 9t8.5 20v265h-314v-370h-234v370h-83v76h83v483h782v-483z" />
    <glyph glyph-name="cid3769" unicode="&#x4e3a;" 
d="M243 804l37 -204h-197l-36 204h196zM661 344l41 -273h-192l-40 273h191zM289 561l90 264h237l-88 -264h436v-588q0 -20 -7.5 -37t-20.5 -30t-30.5 -20.5t-36.5 -7.5h-261v76h91q11 0 19.5 8.5t8.5 19.5v503h-224l-203 -609h-242l206 609h-229v76h254z" />
    <glyph glyph-name="cid4598" unicode="&#x4e3b;" 
d="M609 825l19 -143h-247l-19 143h247zM52 655h896v-76h-329v-271h318v-75h-318v-270h355v-76h-948v76h355v270h-318v75h318v271h-329v76z" />
    <glyph glyph-name="cid2529" unicode="&#x4e3d;" 
d="M773 480l20 -385h-96l-21 385h97zM303 480l20 -385h-97l-20 385h97zM26 796h948v-76h-948v76zM952 666v-696q0 -20 -7.5 -37t-20.5 -30t-30.5 -20.5t-36.5 -7.5h-109v76h25q11 0 19 8.5t8 20.5v610h-132v-715h-152v791h436zM483 666v-696q0 -20 -7.5 -37t-20.5 -30
t-30.5 -20.5t-36.5 -7.5h-109v76h23q13 0 21 8.5t8 20.5v610h-132v-715h-152v791h436z" />
    <glyph glyph-name="cid2312" unicode="&#x4e3e;" 
d="M613 443v-141h93l-64 206h-285l-65 -206h93v141h228zM585 822l34 -199h-205l-34 199h205zM697 614l33 208h205l-34 -208h-204zM269 822l33 -208h-205l-33 208h205zM32 96h353v130h-117l-24 -78h-218l111 360h-111v76h947v-76h-112l112 -360h-219l-25 78h-116v-130h354
v-76h-354v-143h-228v143h-353v76z" />
    <glyph glyph-name="cid2862" unicode="&#x4e43;" 
d="M47 804h826l-63 -386h152v-448q0 -20 -7.5 -37t-20.5 -30t-30.5 -20.5t-36.5 -7.5h-334v76h164q11 0 19.5 9t8.5 20v358h-175l65 391h-205l-130 -854h-243l132 854h-122v75z" />
    <glyph glyph-name="cid2290" unicode="&#x4e45;" 
d="M29 407l283 412h244l-108 -156h454l-241 -345l310 -438h-259l-179 253l-177 -253h-266l486 707h-180l-123 -180h-244z" />
    <glyph glyph-name="cid4711" unicode="&#x4e47;" 
d="M61 796h878v-75h-332v-326h367v-76h-367v-365h353v-76h-590v441h-344v76h344v326h-309v75z" />
    <glyph glyph-name="cid2745" unicode="&#x4e48;" 
d="M555 824l-273 -509h-256l274 509h255zM380 -41h334q8 0 14 6q6 8 5 16l-40 197h237l41 -205q7 -34 -15 -63q-23 -27 -59 -27h-801l422 775h246z" />
    <glyph glyph-name="cid4204" unicode="&#x4e49;" 
d="M585 818l41 -312h-211l-42 312h212zM330 818v-348l170 -172l170 172v348h223v-433l-240 -241l265 -268h-304l-114 115l-114 -115h-305l266 268l-240 241v433h223z" />
    <glyph glyph-name="cid4525" unicode="&#x4e4b;" 
d="M588 824v-179h374l-592 -692h598v-75h-924l610 691h-623v76h320v179h237z" />
    <glyph glyph-name="cid3817" unicode="&#x4e4c;" 
d="M33 128h627v-76h-627v76zM610 825l-23 -106h324v-254q0 -20 -7.5 -37t-20 -30t-30 -20.5t-37.5 -7.5h-319v76h149q11 0 20 8t9 20v169h-343v-332h634v-340q0 -20 -7.5 -37t-20 -30t-30 -20.5t-37.5 -7.5h-362v76h191q13 0 21 8t8 20v255h-634v484h250l23 106h242z" />
    <glyph glyph-name="cid4424" unicode="&#x4e4d;" 
d="M431 821l-47 -132h587v-76h-424v-213h424v-76h-424v-203h424v-76h-424v-169h-237v603l-55 -155h-227l176 497h227z" />
    <glyph glyph-name="cid1964" unicode="&#x4e4e;" 
d="M678 358l49 312h204l-50 -312h-203zM272 670l49 -312h-204l-49 312h204zM53 800h893v-76h-328v-430h355v-76h-355v-248q0 -20 -7.5 -37t-20.5 -30t-30.5 -20.5t-36.5 -7.5h-268v76h97q12 0 20 8.5t8 20.5v238h-354v76h354v430h-327v76z" />
    <glyph glyph-name="cid1603" unicode="&#x4e4f;" 
d="M27 805h946v-76h-946v76zM34 544h323v153h247v-153h356l-542 -587h547v-76h-892l560 587h-599v76z" />
    <glyph glyph-name="cid2497" unicode="&#x4e50;" 
d="M748 -115l-50 380h223l50 -380h-223zM302 265l-50 -380h-223l50 380h223zM285 719v-310h106v262h236v-262h339v-76h-339v-358q0 -20 -7.5 -37t-20 -30t-30 -20.5t-36.5 -7.5h-249v76h78q11 0 20 8t9 21v348h-343v462h868v-76h-631z" />
    <glyph glyph-name="cid3032" unicode="&#x4e52;" 
d="M376 98l-89 -222h-241l88 222h242zM331 212h230v270h-230v-270zM26 212h68v588h820v-76h-583v-166h643v-76h-176v-270h176v-76h-948v76z" />
    <glyph glyph-name="cid2963" unicode="&#x4e53;" 
d="M870 98l89 -222h-241l-89 222h241zM331 212h230v270h-230v-270zM26 212h67v588h821v-76h-583v-166h642v-76h-176v-270h176v-76h-947v76z" />
    <glyph glyph-name="cid3140" unicode="&#x4e54;" 
d="M663 327l-81 165h-150l-88 -164h98l-82 -453h-242l51 284h-143l179 333h-179v76h219l84 156h-270v76h882v-76h-384l-84 -156h501v-76h-165l165 -333h-171v-284h-237v452h97z" />
    <glyph glyph-name="cid1837" unicode="&#x4e56;" 
d="M859 370l113 30v-76l-113 -30v-271h113v-76h-299v539h186v-116zM26 94l114 33v191h-114v76h114v92h186v-539h-186v104l-114 -33v76zM47 805h906v-76h-339v-109h359v-76h-359v-669h-228v669h-360v76h360v109h-339v76z" />
    <glyph glyph-name="cid1264" unicode="&#x4e58;" 
d="M826 140l123 -265h-195l-119 265h191zM363 140l-119 -265h-195l123 265h191zM26 477h146v72h167v-375h-167v79l-146 -43v76l146 42v73h-146v76zM827 549v-73l145 27v-76l-145 -27v-150h145v-76h-313v375h168zM80 806h839v-76h-309v-71h363v-76h-363v-708h-222v708h-362
v76h362v71h-308v76z" />
    <glyph glyph-name="cid4725" unicode="&#x4e5c;" 
d="M26 613l123 19v193h237v-156l546 86v-569q0 -20 -7.5 -37.5t-20.5 -30t-30.5 -20t-36.5 -7.5h-328v76h157q12 0 20.5 8t8.5 20v441l-309 -46v-638h588v-76h-825v679l-123 -18v76z" />
    <glyph glyph-name="cid2292" unicode="&#x4e5d;" 
d="M515 824l-52 -194h416v-677h93v-76h-321v677h-208l-180 -677h-236l179 677h-179v76h199l52 194h237z" />
    <glyph glyph-name="cid3089" unicode="&#x4e5e;" 
d="M391 824l-55 -132h633v-76h-664l-46 -114h-233l132 322h233zM47 453h863l-493 -494h557v-76h-933l506 494h-500v76z" />
    <glyph glyph-name="cid4153" unicode="&#x4e5f;" 
d="M328 763v-152l78 12v202h237v-163l318 52v-570q0 -20 -7.5 -37t-20.5 -30t-30.5 -20.5t-36.5 -7.5h-206v76h35q12 0 20 8.5t8 19.5v445l-80 -13v-536h-237v498l-78 -13v-582h644v-76h-881v620l-64 -10v76l64 10v191h237z" />
    <glyph glyph-name="cid3869" unicode="&#x4e60;" 
d="M392 668l116 -271h-221l-116 271h221zM77 -125l204 462h226l-205 -462h-225zM953 -30q0 -20 -7.5 -37t-20.5 -30t-30.5 -20.5t-36.5 -7.5h-330v76h159q11 0 20 9t9 20v742h-670v76h907v-828z" />
    <glyph glyph-name="cid3924" unicode="&#x4e61;" 
d="M973 462l-329 -497q-27 -42 -68 -63t-90 -21h-459v75h309q50 0 78 42l72 106h-359l237 326h-333l280 389h228l-228 -313h109l147 202h237l-378 -528h112l193 282h242z" />
    <glyph glyph-name="cid3456" unicode="&#x4e66;" 
d="M528 640v-284h124v284h-124zM912 815l58 -199h-81v-260h81v-339q0 -20 -7.5 -37.5t-20.5 -30t-30.5 -20t-36.5 -7.5h-229v76h58q12 0 20.5 8t8.5 20v254h-205v-404h-238v404h-260v76h260v284h-213v76h213v108h238v-108h161l-29 99h252z" />
    <glyph glyph-name="cid4726" unicode="&#x4e69;" 
d="M218 313v-356h101q10 0 17 8t7 20v328h-125zM578 825h217v-871h178v-75h-395v946zM376 825v-168h161v-77h-161v-191h154v-413q0 -20 -6.5 -37t-18 -30t-27 -20.5t-33.5 -7.5h-413v508h154v436h190z" />
    <glyph glyph-name="cid2713" unicode="&#x4e70;" 
d="M322 680l61 -174h-219l-62 174h220zM299 476l60 -174h-219l-62 174h221zM29 798h941v-354h-233v278h-708v76zM658 680v-414h315v-76h-218l213 -315h-276l-193 312l-193 -312h-275l212 315h-217v76h404v414h228z" />
    <glyph glyph-name="cid2681" unicode="&#x4e71;" 
d="M305 238h-68v-284h40q12 0 20 8t8 20v256zM559 822h228v-868h187v-75h-415v943zM44 810h454v-76h-118v-160h137v-76h-137v-184h129v-341q0 -20 -7.5 -37t-20 -30t-30 -20.5t-37.5 -7.5h-381v436h129v184h-136v76h136v160h-118v76z" />
    <glyph glyph-name="cid3268" unicode="&#x4e73;" 
d="M548 708l-21 -252h-144l21 252h144zM346 708l21 -252h-144l-21 252h144zM171 708l21 -252h-145l-21 252h145zM26 814h519v-76h-519v76zM33 420h509l-163 -227v-10l170 16v-76l-170 -16v-136q0 -20 -7.5 -37t-20 -30t-30 -20.5t-37.5 -7.5h-175v76h44q11 0 20 8t9 20v110
l-156 -14v76l156 14v60l86 118h-235v76zM589 822h210v-867h173v-75h-383v942z" />
    <glyph glyph-name="cid3113" unicode="&#x4e7e;" 
d="M338 168v-87h133v-76h-133v-127h-184v127h-128v76h128v87h-122v419h122v85h-128v76h128v75h184v-75h133v-76h-133v-85h123v-324q0 -20 -7.5 -37.5t-20.5 -30t-30.5 -20t-36.5 -7.5h-28zM490 469h473v-125l-219 -386h230v-76h-483l281 511h-282v76zM716 825l-23 -127h281
v-76h-295l-20 -111h-179l57 314h179zM266 244q12 0 20.5 8t8.5 20v74h-98v-102h69zM197 511v-89h98v89h-98z" />
    <glyph glyph-name="cid2580" unicode="&#x4e86;" 
d="M34 802h931l-325 -401v-430q0 -20 -7.5 -37t-20.5 -30t-30.5 -20.5t-36.5 -7.5h-319v76h146q12 0 20 8.5t8 20.5v462l233 283h-599v76z" />
    <glyph glyph-name="cid4301" unicode="&#x4e88;" 
d="M357 679l125 -230l172 282h-605v76h912l-233 -373h242v-255h-233v179h-144v-387q0 -20 -7.5 -37t-20 -30t-30 -20.5t-36.5 -7.5h-309v72h136q11 0 20 8t9 20v382h-325v76h219l-134 245h242z" />
    <glyph glyph-name="cid4506" unicode="&#x4e89;" 
d="M705 277h-116v-119h88q11 0 19.5 8t8.5 21v90zM589 471v-118h116v118h-116zM26 353h325v118h-294v76h476l69 149h-256l-54 -117h-252l114 245h252l-27 -57h508l-102 -220h142v-194h46v-76h-46v-100q0 -20 -7.5 -37t-20 -30t-30 -20.5t-37.5 -7.5h-243v-110
q0 -20 -7.5 -37t-20 -30t-30 -20.5t-37.5 -7.5h-313v76h141q12 0 20.5 8t8.5 20v101h-294v76h294v119h-325v76z" />
    <glyph glyph-name="cid3417" unicode="&#x4e8b;" 
d="M615 300v-61h90v61h-90zM705 163h-90v-67h62q11 0 19.5 9t8.5 20v38zM701 581h-86v-86h58q11 0 19.5 9t8.5 20v57zM300 495h85v86h-85v-86zM27 775h358v50h230v-50h359v-76h-359v-42h313v-143q0 -20 -7.5 -37t-20 -30t-30 -20.5t-37.5 -7.5h-218v-43h317v-137h42v-76h-42
v-48q0 -20 -7.5 -37t-20 -30t-30 -20.5t-36.5 -7.5h-223v-48q0 -20 -7.5 -37t-20.5 -30t-30.5 -20.5t-36.5 -7.5h-290v76h127q12 0 20 8t8 20v39h-309v76h309v67h-359v76h359v61h-309v76h309v43h-313v238h313v42h-358v76z" />
    <glyph glyph-name="cid4695" unicode="&#x4e8d;" 
d="M43 799h914v-76h-914v76zM26 476h948v-76h-346v-430q0 -20 -7.5 -37t-20.5 -30t-30.5 -20.5t-36.5 -7.5h-347v76h176q12 0 20.5 9t8.5 20v420h-365v76z" />
    <glyph glyph-name="cid4287" unicode="&#x4e8e;" 
d="M43 799h914v-76h-338v-309h355v-76h-355v-368q0 -20 -7.5 -37t-20.5 -30t-30.5 -20.5t-36.5 -7.5h-320v76h149q12 0 20 9t8 20v358h-355v76h355v309h-338v76z" />
    <glyph glyph-name="cid2436" unicode="&#x4e8f;" 
d="M61 799h878v-76h-878v76zM26 519h947v-76h-574l-69 -187h594v-283q0 -20 -7.5 -37t-20.5 -30t-30.5 -20.5t-36.5 -7.5h-548v76h378q11 0 19.5 8.5t8.5 20.5v197h-633l105 263h-133v76z" />
    <glyph glyph-name="cid4361" unicode="&#x4e91;" 
d="M61 799h878v-76h-878v76zM26 471h948v-76h-518l-138 -432h357q8 0 14 8q7 7 4 15l-63 264h247l65 -272q7 -33 -15 -62q-24 -28 -59 -28h-822l162 507h-182v76z" />
    <glyph glyph-name="cid1978" unicode="&#x4e92;" 
d="M376 499l-44 -302h263l35 302h-254zM37 799h925v-76h-554l-21 -148h481l-68 -611h174v-76h-948v76h542l18 157h-492l82 602h-139v76z" />
    <glyph glyph-name="cid4727" unicode="&#x4e93;" 
d="M58 804h883v-76h-883v76zM26 483h947v-76h-116v-532h-237v532h-218l-100 -532h-242l99 532h-133v76z" />
    <glyph glyph-name="cid3828" unicode="&#x4e94;" 
d="M431 395l-50 -432h268v432h-218zM31 795h938v-76h-501l-29 -249h448v-507h87v-76h-949v76h119l50 432h-141v75h149l29 249h-200v76z" />
    <glyph glyph-name="cid2269" unicode="&#x4e95;" 
d="M390 210h212v323h-183zM839 824v-215h107v-76h-107v-323h135v-76h-135v-253h-237v253h-219l-23 -253h-236l22 253h-120v76h127l28 323h-128v76h135l19 215h238l-19 -215h176v215h237z" />
    <glyph glyph-name="cid4702" unicode="&#x4e98;" 
d="M26 -32h948v-75h-948v75zM314 385h372v193h-372v-193zM686 309h-372v-194h344q11 0 19.5 8.5t8.5 20.5v165zM26 795h948v-76h-948v76zM924 134q0 -20 -7.5 -37t-20.5 -30t-30.5 -20.5t-36.5 -7.5h-753v615h848v-520z" />
    <glyph glyph-name="cid4080" unicode="&#x4e9a;" 
d="M474 -33h52v760h-52v-760zM187 612l39 -550h-157l-39 550h157zM969 612l-38 -550h-158l39 550h157zM36 803h927v-76h-216v-760h227v-76h-949v76h227v760h-216v76z" />
    <glyph glyph-name="cid3956" unicode="&#x4e9b;" 
d="M60 117h879v-76h-879v76zM26 -34h947v-76h-947v76zM777 612l196 77v-85l-196 -76v-256h196v-76h-398v628h202v-212zM450 824v-217h88v-76h-88v-259h88v-76h-511v76h21v462h171v-462h33v552h198z" />
    <glyph glyph-name="cid4723" unicode="&#x4e9f;" 
d="M227 496h-50v-346h23q11 0 19 9t8 20v317zM27 -36h946v-76h-946v76zM372 169q0 -20 -7 -37t-19.5 -30t-29 -20.5t-35.5 -7.5h-244v499h335v-404zM60 801h866l-280 -228h311v-210l-97 -140l108 -158h-135l-42 57l-39 -57h-140l104 158l-89 121v132h126v-94l34 -51l31 46
v121h-191v59l-37 -30v-434q0 -20 -7.5 -37t-20.5 -30t-30.5 -20.5t-36.5 -7.5h-203v57h79q11 0 19.5 8.5t8.5 20.5v500l182 146h-521v71z" />
    <glyph glyph-name="cid3751" unicode="&#x4ea1;" 
d="M618 825v-152h356v-76h-626v-620h584v-75h-198t-212.5 -0.5t-212.5 -0.5h-198v696h-85v76h355v152h237z" />
    <glyph glyph-name="cid2375" unicode="&#x4ea2;" 
d="M619 824v-94h355v-76h-948v76h355v94h238zM870 564v-612h104v-75h-341v611h-269v-611h-236v687h742z" />
    <glyph glyph-name="cid2188" unicode="&#x4ea4;" 
d="M839 642l134 -247h-236l-135 247h237zM397 642l-134 -247h-237l134 247h237zM618 823v-79h355v-75h-947v75h355v79h237zM42 -124l320 282l-234 207h275l96 -85l97 85h275l-234 -207l320 -282h-276l-182 160l-181 -160h-276z" />
    <glyph glyph-name="cid1884" unicode="&#x4ea5;" 
d="M62 -46h135q19 0 31 12l475 451h271l-225 -216l225 -323h-242l-124 186l-154 -148q-38 -38 -97 -38h-295v76zM619 823v-76h355v-76h-420l-247 -231h90l213 196h270l-533 -502q-43 -38 -97 -38h-225v76h64q18 0 32 13l194 179h-288v85l237 222h-239v76h356v76h238z" />
    <glyph glyph-name="cid4199" unicode="&#x4ea6;" 
d="M813 -23l-34 611h161l34 -611h-161zM221 588l-34 -611h-161l33 611h162zM619 823v-93h355v-76h-226v-683q0 -20 -7.5 -37t-20.5 -30t-30.5 -20.5t-36.5 -7.5h-190v76h41q12 0 20 8.5t8 19.5v674h-61l-42 -778h-209l42 778h-236v76h355v93h238z" />
    <glyph glyph-name="cid1217" unicode="&#x4ea7;" 
d="M26 758h355v65h237v-65h355v-76h-947v76zM371 655l34 -167h199l34 167h237l-34 -167h132v-76h-690v-535h-237v611h121l-34 167h238z" />
    <glyph glyph-name="cid1943" unicode="&#x4ea8;" 
d="M690 564h-383v-113h354q12 0 20.5 8t8.5 20v85zM25 759h355v64h237v-64h355v-76h-947v76zM25 331h949l-354 -250v-104q0 -20 -7.5 -37t-20.5 -30t-30.5 -20.5t-36.5 -7.5h-290v76h131q12 0 20.5 8t8.5 20v152l182 117h-552v76zM917 470q0 -20 -7.5 -37t-20.5 -30
t-30 -20.5t-36 -7.5h-744v266h838v-171z" />
    <glyph glyph-name="cid2841" unicode="&#x4ea9;" 
d="M300 270h80v238h-80v-238zM300 -44h80v238h-80v-238zM699 194h-81v-238h52q11 0 20 8t9 20v210zM618 508v-238h81v238h-81zM26 730h355v93h238v-93h354v-76h-947v76zM936 -25q0 -20 -7.5 -37t-20.5 -30t-30.5 -20.5t-36.5 -7.5h-778v704h873v-609z" />
    <glyph glyph-name="cid3930" unicode="&#x4eab;" 
d="M691 564h-383v-99h354q12 0 20.5 8t8.5 21v70zM26 759h355v64h237v-64h355v-76h-947v76zM918 484q0 -20 -7.5 -37t-20.5 -30t-30 -20.5t-36 -7.5h-744v252h838v-157zM72 345h864l-233 -187h270v-76h-353v-105q0 -20 -7.5 -37t-20.5 -30t-30.5 -20.5t-36.5 -7.5h-271v76
h112q12 0 20.5 8t8.5 20v96h-369v76h400l151 116h-505v71z" />
    <glyph glyph-name="cid2264" unicode="&#x4eac;" 
d="M297 212l-62 -315h-209l62 315h209zM911 212l62 -315h-209l-62 315h209zM686 542h-373v-208h345q11 0 19.5 8.5t8.5 19.5v180zM618 823v-83h355v-75h-947v75h354v83h238zM913 353q0 -20 -7.5 -37t-20.5 -30t-30.5 -20.5t-36.5 -7.5h-200v-286q0 -20 -7.5 -37t-20.5 -30
t-30.5 -20.5t-36.5 -7.5h-238v76h68q11 0 19.5 8t8.5 20v277h-296v360h828v-265z" />
    <glyph glyph-name="cid3669" unicode="&#x4ead;" 
d="M712 561h-425v-94h396q12 0 20.5 8.5t8.5 19.5v66zM26 758h355v65h237v-65h355v-76h-947v76zM756 271h-511v-65h-218v141h945v-141h-216v65zM27 171h945v-76h-354v-123q0 -20 -7.5 -37t-20.5 -30t-30 -20.5t-36 -7.5h-258v76h87q11 0 19.5 8t8.5 20v114h-354v76zM940 486
q0 -20 -7.5 -37t-20.5 -30t-30.5 -20.5t-36.5 -7.5h-786v246h881v-151z" />
    <glyph glyph-name="cid2570" unicode="&#x4eae;" 
d="M76 -124v76h39q19 0 27 12.5t8 32.5v185h-123v175h945v-175h-140v-230h97v-76h-325v255h-226v-157q0 -44 -22.5 -71t-61.5 -27h-218zM689 566h-378v-90h350q11 0 19.5 9t8.5 20v61zM241 207h519v74h-519v-74zM26 763h355v60h238v-60h354v-76h-947v76zM902 495
q0 -20 -7.5 -37t-20.5 -30t-30.5 -20.5t-36.5 -7.5h-710v242h805v-147z" />
    <glyph glyph-name="cid3156" unicode="&#x4eb2;" 
d="M35 -109l52 271h216l-52 -271h-216zM748 -109l-51 271h215l53 -271h-217zM41 733h340v91h238v-91h339v-76h-917v76zM26 469h146l-43 159h219l43 -159h218l42 159h219l-44 -159h148v-75h-355v-113h335v-76h-335v-234q0 -20 -7.5 -37t-20.5 -30t-30.5 -20.5t-36.5 -7.5
h-223v76h52q11 0 19.5 8.5t8.5 19.5v225h-335v76h335v113h-355v75z" />
    <glyph glyph-name="cid4869" unicode="&#x4eb3;" 
d="M680 586h-362v-72h334q12 0 20 9t8 20v43zM248 261h502v66h-502v-66zM25 771h355v53h238v-53h355v-76h-948v76zM918 533q0 -20 -7.5 -37t-20.5 -30t-30.5 -20.5t-36.5 -7.5h-743v224h838v-129zM105 239h-80v165h945v-165h-83v-54h-269v-73h356v-76h-356v-78h345v-77h-583
v155h-354v76h354v73h-275v54z" />
    <glyph glyph-name="cid4872" unicode="&#x4eb5;" 
d="M26 771h355v53h237v-53h355v-76h-947v76zM734 212l61 -81l179 63v-76l-134 -47l130 -171h-256l-227 312h247zM321 667v-59h93v-76h-93v-74l93 6v-76l-93 -6v-56q0 -20 -7.5 -37t-20 -30t-30 -20.5t-37.5 -7.5h-154v76h27q11 0 20 8.5t9 20.5v34l-102 -6v76l102 6v86h-102
v76h102v59h193zM25 -69l158 281h219l-49 -88h155v-167h108v-76h-327v125l-41 -75h-223zM723 667l-13 -59h213v-301h51v-76h-245v301h-35l-29 -139l45 -15v-76l-60 20l-19 -91h-195l32 155l-34 12v76l49 -17l16 75h-65v76h81l13 59h195z" />
    <glyph glyph-name="cid4767" unicode="&#x4ebb;" 
d="M657 823l-50 -236h34v-708h-220v500h-79l94 444h221z" />
    <glyph glyph-name="cid4193" unicode="&#x4ebf;" 
d="M365 827l-55 -238h38v-711h-237v503h-85l102 446h237zM421 788h548v-160l-280 -676h284v-75h-567l348 836h-333v75z" />
    <glyph glyph-name="cid3401" unicode="&#x4ec0;" 
d="M365 834l-54 -240h37v-717h-237v507h-84l102 450h236zM410 471h159v358h246v-358h160v-76h-160v-519h-246v519h-159v76z" />
    <glyph glyph-name="cid3237" unicode="&#x4ec1;" 
d="M414 732h527v-75h-527v75zM381 19h592v-76h-592v76zM356 827l-52 -237h34v-711h-228v502h-83l99 446h230z" />
    <glyph glyph-name="cid4770" unicode="&#x4ec2;" 
d="M345 823l-50 -236h34v-708h-219v500h-79l94 444h220zM756 614h-79l-83 -737h-210l82 737h-83v71h91l16 139h211l-16 -139h284v-713q0 -20 -7.5 -37t-20 -30t-30 -20.5t-37.5 -7.5h-167v71h21q12 0 20 8.5t8 20.5v637z" />
    <glyph glyph-name="cid4768" unicode="&#x4ec3;" 
d="M341 823l-50 -236h34v-708h-219v500h-79l94 444h220zM393 789h580v-76h-165v-739q0 -20 -8 -37t-21.5 -30t-32 -20.5t-39.5 -7.5h-211v71h59q12 0 21 8t9 21v734h-192v76z" />
    <glyph glyph-name="cid4732" unicode="&#x4ec4;" 
d="M38 -125v930h923v-76h-687v-854h-236zM780 690l-55 -182l224 -633h-237l-94 282l-86 -282h-232l247 815h233z" />
    <glyph glyph-name="cid2247" unicode="&#x4ec5;" 
d="M370 825l-55 -237h38v-711h-240v502h-86l102 446h241zM617 658l66 -146l86 198h-350v77h547v-134l-168 -393l175 -383h-231l-56 123l-52 -123h-226l163 377l-152 336v68h198z" />
    <glyph glyph-name="cid3052" unicode="&#x4ec6;" 
d="M746 631h172l55 -574h-172zM341 823l-50 -236h34v-708h-219v500h-79l94 444h220zM460 825h232v-949h-232v949z" />
    <glyph glyph-name="cid1301" unicode="&#x4ec7;" 
d="M352 825l-52 -237h35v-709h-227v501h-82l98 445h228zM380 686h69l16 139h229l-16 -139h255v-733h42v-76h-260v733h-45l-81 -733h-229l81 733h-61v76z" />
    <glyph glyph-name="cid4769" unicode="&#x4ec9;" 
d="M340 823l-50 -236h34v-708h-219v500h-79l94 444h220zM402 813h526v-860h45v-76h-263v861h-89v-861h-219v936z" />
    <glyph glyph-name="cid2242" unicode="&#x4eca;" 
d="M620 442v-131h350l-243 -432h-256l205 356h-644v76h350v131h238zM713 389l-208 325l-213 -325h-266l276 431h396l276 -431h-261z" />
    <glyph glyph-name="cid2234" unicode="&#x4ecb;" 
d="M847 376v-494h-238v494h238zM441 376l-112 -494h-246l117 494h241zM698 413l-193 310l-199 -310h-266l261 407h397l261 -407h-261z" />
    <glyph glyph-name="cid3247" unicode="&#x4ecd;" 
d="M355 822l-52 -236h34v-707h-228v499h-83l99 444h230zM389 812h545l-30 -380h68v-459q0 -20 -7.5 -37t-20.5 -30t-31 -20.5t-38 -7.5h-196v76h59q13 0 21.5 8t8.5 20v377h-82l29 377h-44l-57 -858h-214l57 858h-68v76z" />
    <glyph glyph-name="cid1366" unicode="&#x4ece;" 
d="M822 824l-49 -343h114l82 -601h-209l-35 260l-37 -260h-383l-33 239l-33 -239h-209l133 944h209l-49 -343h110l64 -478l116 821h209z" />
    <glyph glyph-name="cid2687" unicode="&#x4ed1;" 
d="M339 366v-163l608 99v-76l-608 -99v-166h632v-76h-869v481h237zM713 399l-208 320l-213 -320h-266l276 421h396l276 -421h-261z" />
    <glyph glyph-name="cid1181" unicode="&#x4ed3;" 
d="M714 434l-208 288l-214 -288h-266l276 388h396l276 -388h-260zM882 407v-250q0 -20 -7.5 -37t-20.5 -30t-30.5 -20.5t-36.5 -7.5h-287v76h116q12 0 20 8.5t8 20.5v164h-288v-373h587v-76h-825v525h764z" />
    <glyph glyph-name="cid4653" unicode="&#x4ed4;" 
d="M341 823l-50 -236h34v-708h-219v500h-79l94 444h220zM433 807h536l-153 -361v-54h157v-76h-157v-344q0 -20 -8.5 -37t-22.5 -29.5t-33 -20t-41 -7.5h-224v75h73q14 0 22.5 8.5t8.5 19.5v335h-197v76h197v63l130 295h-288v57z" />
    <glyph glyph-name="cid3426" unicode="&#x4ed5;" 
d="M341 823l-50 -236h34v-708h-219v501h-79l94 443h220zM398 574h184v251h226v-251h165v-76h-165v-529h142v-76h-529v76h161v529h-184v76z" />
    <glyph glyph-name="cid3568" unicode="&#x4ed6;" 
d="M313 827l-46 -237h31v-712h-200v503h-72l85 446h202zM771 81v66h28v454l-39 -14v-560h-171v500l-42 -14v-557h426v-76h-605v570l-39 -13v109l39 13v178h179v-115l42 15v190h171v-130l204 72v-594q0 -51 -23 -72.5t-69 -21.5h-101z" />
    <glyph glyph-name="cid4461" unicode="&#x4ed7;" 
d="M354 827l-52 -237h35v-711h-228v502h-83l98 446h230zM927 826v-119h47v-76h-52l-151 -377l198 -376h-226l-70 132l-53 -132h-225l150 375l-168 320h226l40 -77l54 135h-302v76h305v119h227z" />
    <glyph glyph-name="cid1713" unicode="&#x4ed8;" 
d="M614 444l24 -328h-186l-25 328h187zM341 823l-50 -236h34v-708h-219v501h-79l94 443h220zM385 637h328v187h225v-187h35v-75h-35v-586q0 -20 -7.5 -37t-20.5 -30t-30.5 -20.5t-36.5 -7.5h-249v76h90q12 0 20.5 8t8.5 20v577h-328v75z" />
    <glyph glyph-name="cid3894" unicode="&#x4ed9;" 
d="M318 824l-46 -237h30v-712h-202v503h-72l86 446h204zM788 700h181v-726q0 -20 -8.5 -37t-23 -30t-34 -20.5t-41.5 -7.5h-516v821h181v-745h39v870h183v-870h6q14 0 23.5 8.5t9.5 19.5v717z" />
    <glyph glyph-name="cid4846" unicode="&#x4edd;" 
d="M61 332h878v-76h-320v-293h353v-76h-944v76h353v293h-320v76zM713 392l-208 325l-214 -325h-265l276 430h396l276 -430h-261z" />
    <glyph glyph-name="cid4774" unicode="&#x4ede;" 
d="M495 564l-45 -410h-95l45 410h95zM345 823l-50 -236h34v-708h-219v500h-79l94 444h220zM758 709h-23l-90 -833h-200l90 833h-145v71h578v-809q0 -20 -8 -37t-21.5 -30t-31.5 -20.5t-39 -7.5h-185v71h46q12 0 20.5 8.5t8.5 20.5v733z" />
    <glyph glyph-name="cid3111" unicode="&#x4edf;" 
d="M359 827l-53 -238h36v-710h-232v502h-84l100 446h233zM434 779l516 28v-76l-139 -8v-319h163v-76h-163v-452h-237v452h-163v76h163v306l-140 -7v76z" />
    <glyph glyph-name="cid4772" unicode="&#x4ee1;" 
d="M670 824l-27 -127h331v-76h-347l-23 -111h-209l66 314h209zM405 468h555v-124l-256 -386h269v-76h-566l330 510h-332v76zM357 827l-52 -237h35v-711h-230v502h-84l99 446h232z" />
    <glyph glyph-name="cid1405" unicode="&#x4ee3;" 
d="M924 796l49 -225h-172l-49 225h172zM339 823l-50 -236h34v-708h-219v500h-79l94 444h220zM378 511h164l-70 312h238l72 -312h193v-76h-176l112 -482h61v-75h-286l-127 557h-181v76z" />
    <glyph glyph-name="cid2615" unicode="&#x4ee4;" 
d="M713 392l-208 325l-214 -325h-265l276 430h396l276 -430h-261zM720 -42h158v-76h-761v76h342l185 285h-615v76h350v141h237v-141h347z" />
    <glyph glyph-name="cid4187" unicode="&#x4ee5;" 
d="M456 731l26 -515h-161l-25 515h160zM262 824v-868h156v-76h-379v944h223zM800 824l-47 -328h128l80 -616h-198l-47 354l-50 -354h-202l133 944h203z" />
    <glyph glyph-name="cid4771" unicode="&#x4ee8;" 
d="M416 371h527v-76h-527v76zM406 769h547v-76h-547v76zM385 -28h589v-76h-589v76zM340 823l-50 -236h34v-708h-219v500h-79l94 444h220z" />
    <glyph glyph-name="cid4174" unicode="&#x4eea;" 
d="M733 827l18 -327h-136l-18 327h136zM339 827l-50 -238h34v-713h-217v504h-78l93 447h218zM962 767v-318l-177 -268l143 -229h46v-76h-214l-86 138l-91 -138h-224v76h51l154 239l-176 282v294h186v-248l99 -159l102 159v248h187z" />
    <glyph glyph-name="cid4773" unicode="&#x4eeb;" 
d="M765 825l-236 -557h-199l235 557h200zM639 -47h119q9 0 16 7q5 6 3 16l-25 169h190l27 -177q2 -18 -1.5 -34t-14.5 -30q-23 -27 -59 -27h-492l293 671h194zM322 824l-47 -236h32v-710h-206v501h-74l88 445h207z" />
    <glyph glyph-name="cid2764" unicode="&#x4eec;" 
d="M566 825l11 -137h-202l-10 137h201zM577 643v-767h-202v767h202zM763 712h-149v71h356v-812q0 -20 -8 -37t-22.5 -30t-33.5 -20.5t-40 -7.5h-179v71h45q13 0 22 8.5t9 20.5v736zM317 825l-47 -237h31v-709h-202v501h-72l86 445h204z" />
    <glyph glyph-name="cid10167" unicode="&#x4eee;" 
d="M323 825l-48 -237h33v-711h-208v502h-74l89 446h208zM554 730v-87h416v-304l-112 -222l112 -240h-176l-28 58l-29 -58h-178l119 241l-105 221v185h165v-149l32 -70l35 70v192h-251v-690h-198v929h617v-76h-419z" />
    <glyph glyph-name="cid4127" unicode="&#x4ef0;" 
d="M576 -29h-251v842h251v-76h-67v-690h67v-76zM294 823l-43 -236h29v-709h-186v501h-66l79 444h187zM972 60q0 -20 -8 -37t-21.5 -30t-32.5 -20.5t-40 -7.5h-91v76h16q14 0 19 8.5t5 20.5v667h-56v-861h-168v937h377v-753z" />
    <glyph glyph-name="cid4568" unicode="&#x4ef2;" 
d="M531 160h38v408h-38v-408zM810 568h-43v-408h13q12 0 21 8.5t9 19.5v380zM335 824l-49 -237h33v-712h-213v503h-76l91 446h214zM569 641v182h198v-182h202v-457q0 -40 -28 -67.5t-69 -27.5h-105v-211h-198v211h-203v552h203z" />
    <glyph glyph-name="cid4776" unicode="&#x4ef3;" 
d="M307 827l-44 -238h30v-712h-196v503h-70l83 447h197zM559 827v-296h89v-76h-89v-499h89v-77h-288v948h199zM874 827v-295l99 47v-76l-99 -47v-500h99v-77h-297v948h198z" />
    <glyph glyph-name="cid4779" unicode="&#x4ef5;" 
d="M354 825l-52 -237h35v-709h-228v501h-83l98 445h230zM623 825l-17 -134h336v-77h-107v-291h138v-76h-138v-371h-226v371h-199v76h199v291h-13l-21 -168h-179l49 379h178z" />
    <glyph glyph-name="cid2161" unicode="&#x4ef6;" 
d="M319 820l-47 -236h32v-707h-205v499h-73l87 444h206zM576 773l-30 -183h56v230h203v-230h149v-76h-149v-320h168v-76h-168v-242h-203v242h-259v76h259v320h-68l-30 -188h-180l71 447h181z" />
    <glyph glyph-name="cid2126" unicode="&#x4ef7;" 
d="M927 374v-498h-210v498h210zM627 374l-43 -498h-212l44 498h211zM672 609l-72 -195h-228l156 404h286l159 -404h-230zM347 827l-51 -238h35v-713h-223v504h-81l96 447h224z" />
    <glyph glyph-name="cid3241" unicode="&#x4efb;" 
d="M376 827l-56 -238h37v-712h-243v503h-88l104 447h246zM452 801l498 19v-76l-119 -5v-322h143v-77h-143v-388h129v-77h-517v77h131v388h-143v77h143v312l-122 -4v76z" />
    <glyph glyph-name="cid1658" unicode="&#x4efd;" 
d="M975 450h-208l-76 377h206zM436 827h206l-76 -377h-208zM325 827l-48 -238h33v-710h-208v502h-75l89 446h209zM376 413h585v-440q0 -20 -7.5 -37.5t-21 -30.5t-31.5 -20.5t-39 -7.5h-201v76h62q13 0 21.5 8t8.5 21v354h-121l-63 -459h-203l64 459h-54v77z" />
    <glyph glyph-name="cid1631" unicode="&#x4eff;" 
d="M340 823l-50 -236h34v-708h-219v500h-79l94 444h220zM370 701h172v124h260v-124h172v-76h-316l-11 -141h318v-514q0 -20 -7.5 -37t-20.5 -29.5t-30.5 -20t-36.5 -7.5h-172v75h20q14 0 24 7.5t10 18.5v437h-111l-45 -538h-223l62 749h-65v76z" />
    <glyph glyph-name="cid3090" unicode="&#x4f01;" 
d="M699 424l-194 304l-200 -304h-274l264 400h408l265 -400h-269zM26 -42h96v382h209v-382h114v460h237v-189h225v-75h-225v-196h292v-76h-948v76z" />
    <glyph glyph-name="cid4782" unicode="&#x4f09;" 
d="M791 826v-99h181v-77h-606v77h181v99h244zM345 828l-51 -238h35v-713h-222v504h-80l95 447h223zM724 501h-121v-624h-220v700h561v-624h28v-76h-248v624z" />
    <glyph glyph-name="cid4168" unicode="&#x4f0a;" 
d="M718 294q11 0 19.5 8t8.5 20v151h-54v-179h26zM746 728h-54v-179h54v179zM342 823l-50 -236h34v-708h-219v500h-79l94 444h220zM402 294h66v179h-97v76h97v179h-66v76h553v-255h17v-76h-17v-160q0 -20 -7.5 -37t-20.5 -30t-30.5 -20.5t-36.5 -7.5h-178l-96 -342h-224
l96 342h-56v76z" />
    <glyph glyph-name="cid3832" unicode="&#x4f0d;" 
d="M650 423l-34 -470h108v470h-74zM321 827l-47 -238h32v-712h-206v503h-74l88 447h207zM349 797h621v-76h-299l-16 -222h288v-546h30v-76h-632v76h66l34 470h-80v76h85l16 222h-113v76z" />
    <glyph glyph-name="cid2098" unicode="&#x4f0e;" 
d="M341 823l-50 -236h34v-708h-219v500h-79l94 444h220zM386 725h170v100h238v-100h179v-76h-179v-137h179v-153l-176 -238l176 -245h-235l-60 84l-62 -84h-243l185 251l-163 229v53h197l85 -120l108 147h-396v76h167v137h-170v76z" />
    <glyph glyph-name="cid1689" unicode="&#x4f0f;" 
d="M939 805l28 -215h-126l-30 215h128zM359 831l-53 -239h36v-715h-232v505h-84l100 449h233zM794 826v-255h180v-76h-157l151 -619h-231l-65 268l-68 -268h-228l156 619h-152v76h169v255h245z" />
    <glyph glyph-name="cid1602" unicode="&#x4f10;" 
d="M934 829l39 -169h-194l-39 169h194zM357 827l-52 -237h35v-712h-230v503h-83l99 446h231zM696 829l57 -242l220 49v-95l-199 -44l52 -223l147 99v-125l-121 -81l50 -213h71v-77h-291l-35 152l-206 -138v124l181 122l-71 311l-131 -29v95l111 24l-66 291h231z" />
    <glyph glyph-name="cid4008" unicode="&#x4f11;" 
d="M368 -122l27 691h138l-26 -691h-139zM946 569l27 -691h-141l-26 691h140zM345 825l-51 -237h35v-711h-222v502h-80l95 446h223zM368 702h190v123h223v-123h192v-76h-192v-748h-223v748h-190v76z" />
    <glyph glyph-name="cid4569" unicode="&#x4f17;" 
d="M714 436l-208 288l-214 -288h-266l276 388h396l276 -388h-260zM816 404l-31 -130h87l101 -397h-204l-40 156l-36 -156h-383l-40 156l-36 -156h-204l122 527h205l-31 -130h87l88 -349l111 479h204z" />
    <glyph glyph-name="cid4266" unicode="&#x4f18;" 
d="M810 632l-30 174h156l31 -174h-157zM358 825l-53 -237h36v-710h-231v502h-84l100 445h232zM745 825v-227h229v-76h-78v-570h77v-76h-286v504l-110 -504h-219l145 646h-129v76h137v227h234z" />
    <glyph glyph-name="cid2052" unicode="&#x4f19;" 
d="M809 345l23 456h141l-23 -456h-141zM410 345l-24 456h142l22 -456h-140zM352 826l-52 -237h36v-710h-227v502h-82l97 445h228zM570 826h219v-461l184 -487h-215l-78 207l-78 -207h-216l184 487v461z" />
    <glyph glyph-name="cid2038" unicode="&#x4f1a;" 
d="M59 408h882v-76h-882v76zM711 468l-207 265l-212 -265h-267l276 356h396l276 -356h-262zM27 245h948v-76h-578l-73 -206h362q15 0 24 13q9 14 1 28l-55 109h233l43 -90q11 -23 10 -47t-15 -46q-28 -43 -80 -43h-792l103 282h-131v76z" />
    <glyph glyph-name="cid4775" unicode="&#x4f1b;" 
d="M742 681l35 -107l35 107h153l-112 -340l112 -340h-153l-35 106l-35 -106h-155l112 340l-112 340h155zM343 823l-50 -236h34v-708h-219v500h-79l94 444h220zM376 815h595v-76h-394v-784h394v-75h-595v935z" />
    <glyph glyph-name="cid3290" unicode="&#x4f1e;" 
d="M278 419l66 -271h-228l-65 271h227zM943 419l-66 -271h-228l66 271h228zM714 468l-209 265l-213 -265h-266l276 356h396l276 -356h-260zM28 97h349v374h237v-374h358v-76h-358v-144h-237v144h-349v76z" />
    <glyph glyph-name="cid3775" unicode="&#x4f1f;" 
d="M351 828l-52 -238h36v-711h-226v503h-82l97 446h227zM729 828v-89h224v-76h-224v-143h207v-76h-207v-142h244v-282q0 -29 -20 -48.5t-47 -19.5h-153v77h21q8 0 13 5.5t5 13.5v177h-63v-347h-220v347h-146v77h146v142h-130v76h130v143h-146v76h146v89h220z" />
    <glyph glyph-name="cid1326" unicode="&#x4f20;" 
d="M362 837l-53 -240h36v-718h-235v507h-84l101 451h235zM839 829l-33 -117h140v-76h-161l-48 -173h237v-77h-258l-33 -119h263l-128 -310h96v-77h-471v77h133l103 234h-252l52 195h-96v77h117l46 173h-135v76h156l31 117h241z" />
    <glyph glyph-name="cid4777" unicode="&#x4f22;" 
d="M341 823l-50 -236h34v-708h-219v500h-79l94 444h220zM393 820h581v-78h-46v-329h46v-73h-46v-367q0 -20 -7.5 -37.5t-20.5 -31t-31 -21t-38 -7.5h-172v73h22q12 0 20.5 8t8.5 21v362h-57l-59 -464h-208l62 464h-50v348h201v-275h111v329h-317v78z" />
    <glyph glyph-name="cid3332" unicode="&#x4f24;" 
d="M364 529l68 296h228l-28 -124h341v-76h-359l-21 -96h-229zM341 823l-50 -236h34v-708h-219v500h-79l94 444h220zM371 426h82l11 83h218l-11 -83h294v-455q0 -20 -7.5 -37t-20 -30t-30 -20.5t-37.5 -7.5h-182v76h32q13 0 21 8t8 20v370h-87l-60 -474h-220l61 474h-72v76z
" />
    <glyph glyph-name="cid4780" unicode="&#x4f25;" 
d="M962 818l-56 -326h-201l56 326h201zM340 823l-50 -236h34v-708h-219v500h-79l94 444h220zM626 820v-379h348v-76h-56l54 -487h-209l-54 487h-83v-412h74v-75h-291v487h-57v76h57v379h217z" />
    <glyph glyph-name="cid2686" unicode="&#x4f26;" 
d="M629 369v-172l336 68v-76l-336 -68v-167h344v-75h-558v490h214zM671 608l-74 -204h-225l160 416h280l159 -416h-224zM341 823l-50 -236h34v-708h-219v500h-79l94 444h220z" />
    <glyph glyph-name="cid4781" unicode="&#x4f27;" 
d="M675 624l-74 -187h-225l159 386h279l160 -386h-224zM340 823l-50 -236h34v-708h-219v500h-79l94 444h220zM618 328v-374h353v-75h-567v525h543v-302q0 -32 -22 -54t-54 -22h-185v76h32q9 0 14 5.5t5 13.5v207h-119z" />
    <glyph glyph-name="cid3776" unicode="&#x4f2a;" 
d="M371 637l-14 178h108l15 -178h-109zM655 58l-18 288h105l18 -288h-105zM319 828l-47 -238h31v-712h-200v503h-72l85 447h203zM343 598h139l45 231h188l-40 -231h293v-626q0 -20 -9 -37.5t-24 -30.5t-35.5 -20.5t-43.5 -7.5h-176v77h62q14 0 23.5 8.5t9.5 20.5v539h-114
l-111 -645h-206l124 645h-125v77z" />
    <glyph glyph-name="cid4783" unicode="&#x4f2b;" 
d="M381 -36h588v-76h-588v76zM382 449v245h181v131h229v-131h181v-245h-200v169h-191v-169h-200zM343 823l-50 -236h34v-708h-219v501h-79l94 443h220z" />
    <glyph glyph-name="cid1141" unicode="&#x4f2f;" 
d="M606 340h151v311h-151v-311zM757 264h-151v-312h128q10 0 16.5 8t6.5 20v284zM343 823l-50 -236h34v-708h-219v500h-79l94 444h220zM396 -124v851h158l26 98h243l-25 -98h170v-756q0 -39 -23.5 -67t-56.5 -28h-492z" />
    <glyph glyph-name="cid1817" unicode="&#x4f30;" 
d="M748 306h-137v-350h109q12 0 20 8t8 20v322zM340 823l-50 -236h34v-708h-219v500h-79l94 444h220zM798 822v-162h176v-76h-176v-203h154v-406q0 -20 -7 -37t-19.5 -30t-29 -20.5t-34.5 -7.5h-455v501h154v203h-182v76h182v162h237z" />
    <glyph glyph-name="cid4791" unicode="&#x4f32;" 
d="M582 586h154q14 0 22.5 8t8.5 20v128h-185v-156zM833 454v-214l142 46v-76l-142 -46v-209h142v-76h-353v575h211zM340 823l-50 -236h34v-708h-219v500h-79l94 444h220zM582 509v-632h-206v943h591v-215q0 -20 -8.5 -37.5t-22.5 -30.5t-33 -20.5t-41 -7.5h-280z" />
    <glyph glyph-name="cid1012" unicode="&#x4f34;" 
d="M517 765l19 -286h-143l-20 286h144zM973 765l-19 -286h-145l21 286h143zM341 823l-50 -236h34v-708h-219v500h-79l94 444h220zM385 408h175v412h227v-412h174v-76h-174v-190h186v-76h-186v-190h-227v190h-187v76h187v190h-175v76z" />
    <glyph glyph-name="cid2607" unicode="&#x4f36;" 
d="M669 659l-99 -246h-205l171 410h268l170 -410h-204zM781 -48h110v-76h-453v76h112l150 292h-315v76h180v80h210v-80h190zM340 823l-50 -236h34v-708h-219v500h-79l94 444h220z" />
    <glyph glyph-name="cid3365" unicode="&#x4f38;" 
d="M758 79v-202h-185v202h-212v622h212v122h185v-122h213v-527q0 -20 -7.5 -37t-20.5 -30t-30.5 -20.5t-36.5 -7.5h-118zM338 825l-50 -237h33v-709h-215v501h-78l92 445h218zM758 625v-199h41v199h-41zM532 426h41v199h-41v-199zM532 155h41v195h-41v-195zM771 155
q12 0 20 9t8 20v166h-41v-195h13z" />
    <glyph glyph-name="cid3514" unicode="&#x4f3a;" 
d="M577 405h-42v-335h23q7 0 13 8.5t6 19.5v307zM393 641h324v-76h-324v76zM719 70q0 -32 -24 -54t-58 -22h-244v486h326v-410zM348 823l-50 -236h34v-708h-220v500h-78l94 444h220zM754 729h-382v72h594v-830q0 -20 -8 -37t-22 -30t-33 -20.5t-40 -7.5h-184v71h43
q14 0 23 8.5t9 20.5v753z" />
    <glyph glyph-name="cid3515" unicode="&#x4f3c;" 
d="M638 729l9 -504h-100l-8 504h99zM517 829v-877h70v-75h-249v952h179zM301 831l-44 -239h30v-713h-193v504h-69l83 448h193zM773 -123h-162l125 952h165l-49 -361h82l41 -591h-146l-21 264z" />
    <glyph glyph-name="cid4792" unicode="&#x4f3d;" 
d="M842 653h-37v-699h17q8 0 14 5.5t6 13.5v680zM281 825l-41 -237h27v-710h-176v502h-63l75 445h178zM971 729v-785q0 -27 -20 -46.5t-49 -19.5h-225v851h294zM506 598h-25l-35 -720h-153l34 720h-33v72h36l8 154h154l-8 -154h174v-706q0 -44 -20.5 -65t-55.5 -21h-121v71
h19q9 0 17.5 6t8.5 17v626z" />
    <glyph glyph-name="cid1481" unicode="&#x4f43;" 
d="M793 305h-41v-348h16q10 0 17.5 8t7.5 20v320zM539 -43h41v348h-41v-348zM752 731v-349h41v349h-41zM539 382h41v349h-41v-349zM336 822l-49 -236h33v-707h-210v500h-76l90 443h212zM966 -24q0 -40 -24.5 -67.5t-58.5 -27.5h-518v926h601v-831z" />
    <glyph glyph-name="cid1420" unicode="&#x4f46;" 
d="M732 384h-127v-265h106q6 0 13.5 8t7.5 21v236zM605 460h127v264h-127v-264zM363 -47h610v-76h-610v76zM340 823l-50 -236h34v-708h-219v500h-79l94 444h220zM945 119q0 -32 -22.5 -54t-53.5 -22h-477v757h553v-681z" />
    <glyph glyph-name="cid3786" unicode="&#x4f4d;" 
d="M399 -46h574v-77h-574v77zM399 722h159v115h256v-115h159v-77h-574v77zM955 577l-34 -571h-201l34 571h201zM619 577l34 -571h-201l-35 571h202zM349 842l-52 -242h36v-721h-226v510h-81l97 453h226z" />
    <glyph glyph-name="cid1454" unicode="&#x4f4e;" 
d="M597 445h120l-27 295h-93v-295zM717 223l29 -347h-91l-30 347h92zM340 823l-50 -236h34v-708h-219v500h-79l94 444h220zM386 817h587v-77h-82l28 -295h54v-77h-47l47 -492h-204l-45 492h-127v-415h40v-77h-251v941z" />
    <glyph glyph-name="cid4606" unicode="&#x4f4f;" 
d="M758 819l43 -145h-237l-43 145h237zM340 823l-50 -236h34v-708h-219v500h-79l94 444h220zM379 643h583v-76h-172v-269h160v-76h-160v-270h183v-76h-605v76h184v270h-161v76h161v269h-173v76z" />
    <glyph glyph-name="cid4689" unicode="&#x4f50;" 
d="M333 825l-49 -237h33v-710h-213v502h-77l91 445h215zM674 823l-23 -134h322v-76h-335l-39 -236h365v-76h-126v-342h135v-76h-619v76h262v342h-30l-41 -247h-209l94 559h-71v76h83l23 134h209z" />
    <glyph glyph-name="cid4280" unicode="&#x4f51;" 
d="M661 334v-377h72q12 0 20.5 8t8.5 20v349h-101zM332 825l-49 -236h33v-710h-213v501h-76l91 445h214zM732 825l-45 -177h286v-76h-306l-41 -162h336v-434q0 -20 -8 -37t-21.5 -30t-31.5 -20.5t-38 -7.5h-403v250h-105l112 441h-114v76h133l45 177h201z" />
    <glyph glyph-name="cid3640" unicode="&#x4f53;" 
d="M486 55h59v585h-16zM756 55h59l-43 585h-16v-585zM314 825l-46 -237h31v-711h-201v502h-72l85 446h203zM756 825v-109h217v-76h-55l55 -745h-146l-6 84h-65v-103h-211v103h-64l-6 -84h-146l53 745h-53v76h216v109h211z" />
    <glyph glyph-name="cid1925" unicode="&#x4f55;" 
d="M499 570v-482h22q24 0 24 25v457h-46zM362 9v640h318v-541q0 -20 -7.5 -38t-20.5 -31.5t-30.5 -21.5t-37.5 -8h-222zM326 825l-47 -236h32v-710h-209v501h-75l89 445h210zM349 807h624v-79h-45v-753q0 -20 -7.5 -37.5t-20.5 -31t-30.5 -21t-37.5 -7.5h-190v79h52
q11 0 19.5 8t8.5 20v743h-373v79z" />
    <glyph glyph-name="cid4790" unicode="&#x4f57;" 
d="M759 643h-173v-151h-216v226h176v102h251v-102h176v-226h-214v151zM664 444v-192l309 69v-76l-309 -69v-223h308v-76h-544v567h236zM341 823l-50 -236h34v-708h-219v500h-79l94 444h220z" />
    <glyph glyph-name="cid4848" unicode="&#x4f58;" 
d="M304 163l-61 -272h-217l60 272h218zM914 163l60 -272h-218l-60 272h218zM67 425h866v-76h-866v76zM26 285h948v-76h-356v-236q0 -20 -7.5 -37t-20.5 -30t-30.5 -20.5t-36.5 -7.5h-203v76h33q11 0 19.5 8t8.5 20v227h-355v76zM713 475l-208 260l-213 -260h-266l276 349
h396l276 -349h-261z" />
    <glyph glyph-name="cid4293" unicode="&#x4f59;" 
d="M303 163l-60 -272h-218l60 272h218zM913 163l61 -272h-218l-61 272h218zM713 475l-209 260l-213 -260h-266l276 349h396l276 -349h-260zM66 430h867v-76h-316v-69h357v-76h-357v-236q0 -20 -7.5 -37t-20 -30t-30 -20.5t-36.5 -7.5h-204v76h33q11 0 19.5 8t8.5 20v227
h-355v76h355v69h-314v76z" />
    <glyph glyph-name="cid4787" unicode="&#x4f5a;" 
d="M342 825l-51 -238h35v-712h-220v503h-80l95 447h221zM820 825v-171h132v-76h-132v-225h155v-77h-142l142 -398h-229l-59 159l-67 -159h-235l169 398h-182v77h210v225h-43l-11 -143h-169l28 361h169l-11 -142h37v171h238z" />
    <glyph glyph-name="cid1677" unicode="&#x4f5b;" 
d="M458 250h19v162h-19v-162zM614 488h30v153h-30v-153zM766 641v-153h9q7 0 14.5 8t7.5 20v125h-31zM614 250h30v162h-30v-162zM281 829l-41 -238h27v-711h-176v503h-63l75 446h178zM437 717v108h177v-108h30v108h170v-108h143v-210q0 -20 -8 -37t-20 -30t-26.5 -20.5
t-26.5 -7.5h-70v-162h166v-267q0 -28 -20 -47t-49 -19h-98v76h12q20 0 20 19v162h-41v-297h-152v297h-47l-90 -297h-177l98 297h-124v314h133v153h-138v76h138z" />
    <glyph glyph-name="cid4692" unicode="&#x4f5c;" 
d="M341 823l-50 -236h34v-708h-219v500h-79l94 444h220zM619 824l-21 -133h376v-76h-172v-201h157v-76h-157v-199h157v-76h-157v-186h-219v712l-32 -206h-200l68 441h200z" />
    <glyph glyph-name="cid4788" unicode="&#x4f5d;" 
d="M527 421v-337h23q13 0 22.5 8t9.5 21v308h-55zM377 8v489h355v-394q0 -20 -8.5 -37t-23.5 -30t-34.5 -20.5t-41.5 -7.5h-247zM340 825l-50 -236h34v-710h-218v501h-78l93 445h219zM641 825l-29 -106h360v-745q0 -20 -8.5 -37t-23 -30t-34 -20.5t-41.5 -7.5h-229v76h96
q13 0 22 8t9 20v660h-171l-29 -109h-203l78 291h203z" />
    <glyph glyph-name="cid4784" unicode="&#x4f5e;" 
d="M711 219v103h-92v-103l46 -37zM388 796h554v-75h-554v75zM357 584h616v-75h-616v75zM332 825l-49 -236h33v-710h-213v501h-77l91 445h215zM665 -63l-70 -57h-236v76h27l127 103l-114 93v170h-42v76h42v71h220v-71h354v-76h-42v-170l-115 -93l128 -103h26v-76h-235z" />
    <glyph glyph-name="cid4789" unicode="&#x4f5f;" 
d="M637 666l-9 -23l59 -69l83 92h-133zM387 38l584 -71v-90l-584 71v90zM387 199l584 -71v-91l-584 73v89zM340 823l-50 -236h34v-708h-219v500h-79l94 444h220zM383 236l178 197l-94 108h-99l110 284h222l-34 -87h287v-150l-146 -156l166 -196h-239l-54 61l-57 -61h-240z
" />
    <glyph glyph-name="cid2886" unicode="&#x4f60;" 
d="M945 388l28 -459h-144l-29 459h145zM509 388l-30 -459h-144l28 459h146zM748 479v-508q0 -20 -8.5 -37t-23 -30t-33.5 -20.5t-41 -7.5h-142v76h19q13 0 22 8t9 20v499h198zM600 825l-17 -88h390l-46 -244h-203l32 168h-187l-31 -168h-203l61 332h204zM326 825l-48 -237
h33v-709h-209v501h-75l89 445h210z" />
    <glyph glyph-name="cid4251" unicode="&#x4f63;" 
d="M744 743v-203h55v203h-55zM513 540h55v203h-55v-203zM744 233h55v231h-55v-231zM513 233h55v231h-55v-231zM309 823l-45 -236h31v-707h-196v499h-70l83 444h197zM799 157h-55v-281h-176v281h-55v-281h-170v939h627v-843q0 -20 -7.5 -37t-20.5 -30.5t-30.5 -21t-36.5 -7.5
h-112v72h8q11 0 19.5 8t8.5 21v180z" />
    <glyph glyph-name="cid4778" unicode="&#x4f64;" 
d="M720 414l16 -338h-94l-16 338h94zM340 823l-50 -236h34v-708h-219v500h-79l94 444h220zM377 803h596v-76h-363v-132h336v-640h27v-76h-222v640h-141v-564h91v-76h-292v848h-32v76z" />
    <glyph glyph-name="cid4849" unicode="&#x4f65;" 
d="M59 441h879v-76h-879v76zM582 321l42 -320h-218l-43 320h219zM298 321l42 -320h-218l-43 320h219zM923 321l-43 -320h-219l43 320h219zM28 -37h947v-76h-947v76zM712 476l-208 264l-214 -264h-265l275 348h397l275 -348h-260z" />
    <glyph glyph-name="cid4785" unicode="&#x4f67;" 
d="M911 289l43 -322h-151l-43 322h151zM340 823l-50 -236h34v-708h-219v500h-79l94 444h220zM373 440h122v383h228v-145h232v-76h-232v-162h250v-76h-250v-487h-228v487h-122v76z" />
    <glyph glyph-name="cid2982" unicode="&#x4f69;" 
d="M680 462v-461h23v461h-23zM246 823l-35 -236h24v-707h-153v499h-56l66 444h154zM802 1q0 -23 -17 -40t-40 -17h-65v-68h-142v586h-22v-518h-100v570h122v86h-117v66h376v-66h-117v-86h122v-513zM267 -124v921h681v-845h25v-76h-153v850h-425v-850h-128z" />
    <glyph glyph-name="cid2491" unicode="&#x4f6c;" 
d="M347 824l-51 -236h35v-709h-223v501h-81l96 444h224zM415 701h127v124h226v-124h103v-76h-103v-104l205 160v-127l-146 -111h146v-76h-245l-105 -80h86v-100l262 55v-93l-262 -56v-142h264v-75h-491v303l-95 -72v117l183 143h-189v76h161v182h-127v76z" />
    <glyph glyph-name="cid4121" unicode="&#x4f6f;" 
d="M341 823l-50 -236h34v-708h-219v500h-79l94 444h220zM394 657h78l-36 168h213l37 -168h23l37 168h214l-37 -168h50v-76h-171v-188h159v-76h-159v-188h171v-76h-171v-177h-237v177h-171v76h171v188h-159v76h159v188h-171v76z" />
    <glyph glyph-name="cid998" unicode="&#x4f70;" 
d="M763 200h-165v-248h143q8 0 15 8t7 20v220zM598 276h165v248h-165v-248zM340 823l-50 -236h34v-708h-219v500h-79l94 444h220zM387 809h587v-75h-163l-31 -134h186v-629q0 -20 -7 -37t-18 -30t-24 -20.5t-25 -7.5h-497v724h152l32 134h-192v75z" />
    <glyph glyph-name="cid2116" unicode="&#x4f73;" 
d="M409 692h152v131h236v-131h152v-76h-152v-160h178v-76h-592v76h178v160h-152v76zM410 196h151v141h236v-141h151v-75h-151v-169h176v-76h-588v76h176v169h-151v75zM341 823l-50 -236h34v-708h-219v500h-79l94 444h220z" />
    <glyph glyph-name="cid4794" unicode="&#x4f74;" 
d="M615 551h115v178h-115v-178zM615 36h115v178h-115v-178zM615 290h115v185h-115v-185zM341 823l-50 -236h34v-708h-219v500h-79l94 444h220zM377 805h590v-76h-33v-693h41v-76h-41v-84h-204v84h-360v76h41v693h-34v76z" />
    <glyph glyph-name="cid4793" unicode="&#x4f76;" 
d="M736 236h-125v-284h98q11 0 19 8t8 20v256zM372 717h185v106h233v-106h185v-76h-185v-176h169v-76h-571v76h169v176h-185v76zM340 823l-50 -236h34v-708h-219v500h-79l94 444h220zM944 -29q0 -20 -7 -37t-19 -30t-28 -20.5t-34 -7.5h-454v436h542v-341z" />
    <glyph glyph-name="cid4800" unicode="&#x4f7b;" 
d="M973 781l-26 -313h-85l25 313h86zM417 781l26 -313h-86l-26 313h86zM887 101l-25 329h85l26 -329h-86zM331 101l26 329h86l-26 -329h-86zM633 826v-510l-48 -440h-177l52 440v510h173zM845 826v-872h128v-76h-300v948h172zM315 829l-47 -238h32v-712h-201v503h-72l85 447
h203z" />
    <glyph glyph-name="cid4802" unicode="&#x4f7c;" 
d="M645 632l-72 -239h-206l71 239h207zM903 632l72 -239h-208l-71 239h207zM799 823v-82h176v-76h-608v76h174v82h258zM958 352l-169 -226l186 -250h-236l-69 92l-68 -92h-235l185 249l-170 227h239l49 -67l50 67h238zM341 823l-50 -236h34v-708h-219v500h-79l94 444h220z
" />
    <glyph glyph-name="cid4799" unicode="&#x4f7e;" 
d="M565 106h179v90h-179v-90zM565 272h179v91h-179v-91zM650 823l-90 -341h-203l89 341h204zM883 823l89 -341h-204l-89 341h204zM337 824l-50 -237h33v-712h-215v503h-78l92 446h218zM935 -29q0 -20 -7.5 -37t-20.5 -30t-30.5 -20.5t-36.5 -7.5h-169v76h45q12 0 20 8.5
t8 19.5v50h-179v-154h-191v563h561v-468z" />
    <glyph glyph-name="cid3408" unicode="&#x4f7f;" 
d="M805 483h-43v-184h15q12 0 20 8t8 20v156zM512 299h47v184h-47v-184zM321 825l-47 -237h32v-712h-206v503h-74l88 446h207zM970 318q0 -20 -7.5 -37.5t-20 -30t-29 -20t-35.5 -7.5h-136l-96 -173l236 -106h91v-66h-187l-190 81l-45 -81h-209l85 153l-81 35v119l133 -60
l54 98h-187v337h213v79h-213v76h213v110h203v-110h211v-76h-211v-79h208v-242z" />
    <glyph glyph-name="cid4797" unicode="&#x4f83;" 
d="M740 721h-179v-203h151q11 0 19.5 8.5t8.5 20.5v174zM720 380v-502h-160v502h160zM526 380l-19 -502h-162l19 502h162zM924 -46h49v-76h-211v502h162v-426zM944 537q0 -20 -7.5 -37t-20.5 -30t-30.5 -20.5t-36.5 -7.5h-487v356h582v-261zM326 825l-48 -237h33v-712h-210
v503h-75l89 446h211z" />
    <glyph glyph-name="cid4533" unicode="&#x4f84;" 
d="M341 823l-50 -236h34v-708h-219v500h-79l94 444h220zM942 618l28 -156q4 -19 -2.5 -36.5t-19.5 -30.5t-30.5 -20.5t-35.5 -7.5h-94v-160h167v-76h-167v-179h186v-76h-601v76h177v179h-158v76h158v160h-154l57 365h-80v76h601v-76h-311l-43 -289h128q11 0 20 8.5t7 20.5
l-29 146h196z" />
    <glyph glyph-name="cid1283" unicode="&#x4f88;" 
d="M357 132l94 206h192l-31 -67h361l-138 -328q-12 -30 -42.5 -48t-69.5 -18h-322v76h198q40 0 56 31h-166l-62 130h192l48 -101l76 182h-166l-28 -63h-192zM352 617l94 206h192l-30 -65h365l-141 -340q-13 -29 -43 -46.5t-70 -17.5h-321v75h198q20 0 34.5 9t21.5 24l1 4
h-164l-62 128h192l47 -98l77 186h-169l-29 -65h-193zM328 826l-48 -237h33v-710h-211v502h-75l90 445h211z" />
    <glyph glyph-name="cid4796" unicode="&#x4f89;" 
d="M404 423h540v-76h-540v76zM376 289h598v-76h-319l-22 -77h327v-166q0 -20 -8 -37t-21.5 -29.5t-31.5 -20t-39 -7.5h-230v75h76q12 0 21 8.5t9 19.5v82h-347l48 152h-61v76zM376 733h111l38 90h238l-38 -90h248v-76h-81l81 -193h-238l-61 145l-60 -145h-238l80 193h-80v76
zM341 823l-50 -236h34v-708h-219v500h-79l94 444h220z" />
    <glyph glyph-name="cid2536" unicode="&#x4f8b;" 
d="M465 314l14 -88l41 326h-48l-30 -238h23zM794 720v-706h-104v706h104zM970 823v-852q0 -20 -7 -37t-18.5 -30t-27 -20.5t-33.5 -7.5h-135v71h45q11 0 18.5 9t7.5 20v847h150zM278 829l-40 -238h26v-711h-174v503h-63l75 446h176zM312 817h359v-76h-175l-14 -115h196
l-87 -690q-4 -28 -24 -44t-44 -16h-194v76h85q12 0 21 8t13 22l9 71h-71l-38 234h-47l57 454h-46v76z" />
    <glyph glyph-name="cid3427" unicode="&#x4f8d;" 
d="M579 175l38 -243h-178l-39 243h179zM331 826l-49 -237h33v-710h-212v502h-76l91 445h213zM782 820v-126h176v-76h-176v-147h191v-76h-47v-98h35v-76h-35v-248q0 -20 -7.5 -37t-20.5 -30t-30.5 -20.5t-37.5 -7.5h-187v76h36q11 0 19.5 8.5t8.5 19.5v239h-327v76h327v98
h-334v76h191v147h-177v76h177v126h218z" />
    <glyph glyph-name="cid4798" unicode="&#x4f8f;" 
d="M328 826l-48 -238h33v-709h-211v502h-76l90 445h212zM774 823v-152h176v-76h-176v-197h199v-76h-33l32 -446h-159l-32 446h-7v-446h-203v446h-8l-40 -446h-159l41 446h-43v76h209v197h-49l-10 -134h-157l25 334h158l-10 -124h43v152h203z" />
    <glyph glyph-name="cid4795" unicode="&#x4f91;" 
d="M642 147h131v107h-131v-107zM642 330h131v117h-131v-117zM322 826l-47 -237h32v-710h-206v502h-74l88 445h207zM365 729h110l29 97h210l-29 -97h287v-77h-310l-38 -129h343v-528q0 -24 -9.5 -45t-26.5 -36.5t-39.5 -24.5t-47.5 -9h-120v76h18q13 0 22 8.5t9 20.5v86h-131
v-191h-195v402h-106l111 370h-87v77z" />
    <glyph glyph-name="cid4804" unicode="&#x4f94;" 
d="M463 826h219l-57 -222h113q11 0 14.5 6t1.5 14l-37 122h214l40 -126q3 -17 -0.5 -33.5t-16.5 -30.5q-25 -28 -65 -28h-502zM340 823l-50 -236h34v-708h-219v500h-79l94 444h220zM565 465l-11 -95h36v119h222v-119h143v-77h-143v-165h161v-75h-161v-177h-222v177h-214v75
h214v165h-44l-12 -106h-158l30 278h159z" />
    <glyph glyph-name="cid1520" unicode="&#x4f97;" 
d="M671 443h-39v-370h20q8 0 13.5 4.5t5.5 12.5v353zM518 650h269v-68h-269v68zM527 503h250v-422q0 -29 -21.5 -49t-53.5 -20h-175v491zM303 822l-43 -236h29v-707h-191v500h-68l81 443h192zM336 810h633v-835q0 -96 -104 -96h-128v77h38q13 0 22.5 8.5t9.5 19.5v749h-310
v-854h-161v931z" />
    <glyph glyph-name="cid1794" unicode="&#x4f9b;" 
d="M649 260h56v315h-56v-315zM769 -121l-51 265h204l51 -265h-204zM390 -121l50 265h204l-50 -265h-204zM341 823l-50 -236h34v-708h-219v500h-79l94 444h220zM401 651h40v170h208v-170h56v170h209v-170h39v-76h-39v-315h59v-76h-592v76h60v315h-40v76z" />
    <glyph glyph-name="cid4167" unicode="&#x4f9d;" 
d="M973 -34h-193l-84 600h193l17 -123l66 52v-113l-52 -41zM349 829l-52 -238h36v-712h-226v503h-81l97 447h226zM389 716h172v113h241v-113h170v-77h-281l-59 -264h49v-424h83v-75h-294v217h-105l119 546h-95v77z" />
    <glyph glyph-name="cid3885" unicode="&#x4fa0;" 
d="M422 375l-17 244h129l16 -244h-128zM818 375l16 244h130l-18 -244h-128zM352 826l-52 -237h35v-710h-227v502h-82l98 445h228zM410 728h156v92h235v-92h158v-75h-158v-311h172v-76h-145l138 -388h-234l-48 135l-48 -135h-234l137 388h-143v76h170v311h-156v75z" />
    <glyph glyph-name="cid2665" unicode="&#x4fa3;" 
d="M749 733h-146v-259h117q11 0 20 8.5t9 20.5v230zM765 258h-178v-297h149q12 0 20.5 8.5t8.5 19.5v269zM341 823l-50 -236h34v-708h-219v500h-79l94 444h220zM404 809h544v-297q0 -23 -9 -44t-24.5 -36.5t-36 -24.5t-44.5 -9h-430v411zM388 334h576v-335q0 -24 -9 -44.5
t-24.5 -36t-36 -24.5t-44.5 -9h-462v449z" />
    <glyph glyph-name="cid2197" unicode="&#x4fa5;" 
d="M387 717l106 7l-53 99h236l46 -83l251 17v-76l-211 -15l66 -119l145 37v-81l-105 -27l52 -94h53v-76h-253l-63 116l-270 -68v80l231 59l-85 158l-146 -10v76zM387 278h586v-76h-65v-251h65v-76h-285v327h-25l-61 -327h-219l62 327h-58v76zM341 823l-50 -237h34v-707h-219
v500h-79l94 444h220z" />
    <glyph glyph-name="cid4493" unicode="&#x4fa6;" 
d="M768 154l26 -35v409h-246v-408l25 34v305h195v-305zM333 823l-49 -236h33v-709h-215v501h-77l92 444h216zM366 -123l175 235h-164v492h185v221h217v-67h193v-75h-193v-79h186v-492h-166l177 -235h-214l-91 119l-91 -119h-214z" />
    <glyph glyph-name="cid1191" unicode="&#x4fa7;" 
d="M558 237l20 -58v553h-168v-553l20 58v460h128v-460zM817 788v-808h-110v808h110zM969 825v-871q0 -32 -23 -54.5t-57 -22.5h-99v66h29q8 0 14 6t6 14v862h130zM285 825l-42 -237h29v-710h-183v502h-64l78 445h182zM306 795h375v-624h-100l101 -294h-139l-49 140l-49 -140
h-141l103 294h-101v624z" />
    <glyph glyph-name="cid3141" unicode="&#x4fa8;" 
d="M730 -124v363h221v-363h-221zM389 -124l40 363h222l-41 -363h-221zM409 810h545v-76h-176l-50 -137h247v-76h-78l78 -250h-221l-68 212l-76 -212h-221l90 250h-90v76h118l50 137h-148v76zM352 826l-52 -238h35v-712h-227v503h-82l98 447h228z" />
    <glyph glyph-name="cid2424" unicode="&#x4fa9;" 
d="M417 406h505v-77h-505v77zM548 826h241l183 -370h-220l-83 166l-79 -166h-225zM366 249h606v-76h-291l-52 -216h102q11 0 16 7q6 9 3 18l-40 143h209l49 -169q4 -14 2.5 -27t-10.5 -24q-18 -24 -49 -24h-528l78 292h-95v76zM341 823l-50 -236h34v-708h-219v501h-79
l94 443h220z" />
    <glyph glyph-name="cid4801" unicode="&#x4faa;" 
d="M575 667l87 -75l86 75h-173zM566 -123h-198l50 410h198zM721 287h199v-410h-199v410zM771 820v-77h200v-76h-59v-57l-136 -117l195 -168h-228l-81 69l-81 -69h-229l195 168l-136 117v57h-59v76h200v77h219zM325 823l-48 -236h33v-708h-208v500h-74l89 444h208z" />
    <glyph glyph-name="cid4803" unicode="&#x4fac;" 
d="M532 576l31 86h-31v-86zM702 440h165l26 -138l80 87v-147l-57 -62l55 -287h-170zM340 823l-50 -236h34v-708h-219v500h-79l94 444h220zM373 738h217l31 85h181l-31 -85h200v-211h-159v135h-69l-120 -331h54v-379h55v-76h-230v160h-166l178 491h-141v211z" />
    <glyph glyph-name="cid3833" unicode="&#x4fae;" 
d="M722 151l22 -160h-127l-22 160h127zM722 466l22 -163h-127l-22 163h127zM770 191h-201v-233h169q14 0 23 8t9 20v205zM569 267h201v236h-201v-236zM649 823l-19 -70h343v-76h-364l-22 -82h-225l63 228h224zM333 823l-49 -236h33v-708h-214v500h-77l92 444h215zM362 267
h24v312h567v-312h20v-76h-20v-233q0 -32 -24 -54t-58 -22h-485v309h-24v76z" />
    <glyph glyph-name="cid1957" unicode="&#x4faf;" 
d="M356 597h345v120h-296v76h491v-196h77v-75h-617v75zM326 825l-48 -236h33v-710h-210v501h-75l89 445h211zM547 494l-14 -72h421v-75h-188v-143h204v-76h-134l134 -245h-209l-97 174l-98 -174h-210l137 245h-137v76h206v143h-43l-16 -88h-163l43 235h164z" />
    <glyph glyph-name="cid3155" unicode="&#x4fb5;" 
d="M358 427h615v-125h-189v49h-237v-49h-189v125zM393 673h375v61h-395v76h588v-281q0 -28 -22 -47.5t-52 -19.5h-514v76h364q13 0 22 8t9 21v30h-375v76zM371 270h583v-127l-172 -133l191 -134h-249l-61 43l-55 -43h-250l177 133l-168 120v40h189l99 -70l126 95h-410v76z
M340 823l-50 -236h34v-708h-219v500h-79l94 444h220z" />
    <glyph glyph-name="cid1100" unicode="&#x4fbf;" 
d="M802 383h-46v-125h16q13 0 21.5 8.5t8.5 19.5v97zM530 459h46v125h-46v-125zM530 258h46v125h-46v-125zM756 584v-125h46v125h-46zM329 822l-48 -236h33v-707h-212v499h-76l90 444h213zM352 813h619v-76h-215v-77h205v-412q0 -27 -20 -46.5t-48 -19.5h-159l-79 -132
l273 -98h45v-76h-137l-235 82l-49 -82h-190l78 138l-66 23v114l120 -43l42 74h-165v478h205v77h-224v76z" />
    <glyph glyph-name="cid1372" unicode="&#x4fc3;" 
d="M759 739h-154v-287h126q12 0 20 8.5t8 19.5v259zM340 823l-50 -236h34v-708h-219v500h-79l94 444h220zM406 815h553v-344q0 -20 -7.5 -37.5t-20.5 -30t-30.5 -20t-36.5 -7.5h-63v-155h156v-76h-156v-193h172v-76h-371l-65 62l-5 -62h-161l33 426h162l-15 -188l51 -46v308
h-196v439z" />
    <glyph glyph-name="cid1580" unicode="&#x4fc4;" 
d="M953 796l22 -199h-88l-24 199h90zM309 825l-45 -237h30v-711h-197v502h-71l85 446h198zM839 825l32 -294h104v-76h-95l21 -196l74 69v-118l-62 -58l22 -198h40v-76h-210l-14 123l-114 -106v119l102 95l-38 346h-108v-170l69 16v-91l-69 -16v-221q0 -20 -8 -37t-22.5 -30
t-33.5 -20.5t-41 -7.5h-144v76h28q13 0 22 8t9 20v169l-77 -17v91l77 17v213h-77v76h77v210h-66v76h307v-76h-51v-210h99l-32 294h179z" />
    <glyph glyph-name="cid4808" unicode="&#x4fc5;" 
d="M941 819l20 -124h-154l-19 124h153zM509 534l17 -271h-154l-17 271h154zM957 534l-17 -271h-154l17 271h154zM820 -122l-34 330h154l33 -330h-153zM338 -122l34 330h154l-34 -330h-154zM319 826l-47 -238h32v-709h-205v502h-73l87 445h206zM338 662h222v164h202v-164h211
v-76h-211v-616q0 -20 -8 -37t-21.5 -29.5t-31.5 -20t-39 -7.5h-146v75h14q13 0 21.5 8t8.5 21v606h-222v76z" />
    <glyph glyph-name="cid2350" unicode="&#x4fca;" 
d="M616 223l-13 -24l58 -51l85 75h-130zM644 544l-78 -172h-205l78 172h205zM894 544l78 -172h-205l-78 172h205zM365 577l83 254h205l-58 -177h146q9 0 13 8t2 18l-33 102h204l38 -128q3 -11 3 -24.5t-5 -25t-15.5 -19.5t-27.5 -8h-555zM683 350l-27 -50h302v-111
l-173 -150l187 -163h-235l-70 62l-71 -62h-241l190 168l-85 75h-104l122 231h205zM322 831l-47 -239h32v-713h-206v504h-74l88 448h207z" />
    <glyph glyph-name="cid4850" unicode="&#x4fce;" 
d="M652 232h92v194h-92v-194zM652 -46h92v201h-92v-201zM652 503h92v214h-92v-214zM274 328l-26 -153h116l54 -298h-171l-26 142l-24 -142h-171l77 451h171zM288 817l-26 -153h116l55 -298h-171l-27 143l-24 -143h-171l77 451h171zM423 -46h32v836h486v-836h32v-76h-550v76z
" />
    <glyph glyph-name="cid3147" unicode="&#x4fcf;" 
d="M598 350h170v122h-170v-122zM598 151h170v124h-170v-124zM972 798l-16 -215h-154l17 215h153zM547 798l16 -215h-153l-18 215h155zM345 823l-50 -236h34v-708h-219v500h-79l94 444h220zM392 548h191v277h200v-277h189v-558q0 -24 -9.5 -45t-26 -36t-39 -24t-47.5 -9h-157
v76h39q12 0 24 8t12 20v95h-170v-199h-206v672z" />
    <glyph glyph-name="cid2537" unicode="&#x4fd0;" 
d="M280 -125l16 611h91l-17 -611h-90zM581 -125l-18 611h91l18 -611h-91zM807 755v-746h-113v746h113zM967 824v-854q0 -20 -7.5 -37t-20 -30t-30 -20.5t-36.5 -7.5h-99v76h32q11 0 19 8t8 20v845h134zM269 822l-38 -236h26v-707h-166v499h-59l70 444h167zM400 -125v654
h-120v76h120v138h-94v76h346v-76h-103v-138h123v-76h-123v-654h-149z" />
    <glyph glyph-name="cid4812" unicode="&#x4fd1;" 
d="M522 362h53v126h-53v-126zM747 488v-126h53v126h-53zM522 149h53v136h-53v-136zM747 149h53v136h-53v-136zM321 825l-47 -237h32v-709h-206v501h-74l88 445h207zM844 564h123v-574q0 -24 -9.5 -45t-26 -36t-38.5 -24t-47 -9h-79v76h3q13 0 21.5 8t8.5 20v93h-53v-197
h-172v197h-53v-197h-167v688h110l-75 125h203l58 -96l73 143h-373v76h619z" />
    <glyph glyph-name="cid3532" unicode="&#x4fd7;" 
d="M733 204h-100v-241h70q12 0 21 8t9 20v213zM418 281h530v-281q0 -24 -9.5 -45t-26.5 -36t-39.5 -24t-47.5 -9h-407v395zM872 826l103 -288h-94l94 -228h-196l-95 227l-97 -227h-196l93 228h-108l103 288h186l-69 -190h158l-68 190h186zM349 834l-51 -240h35v-715h-221
v506h-80l95 449h222z" />
    <glyph glyph-name="cid1690" unicode="&#x4fd8;" 
d="M973 703l-23 -249h-157l22 249h158zM753 703l23 -249h-158l-23 249h158zM561 703l23 -249h-158l-23 249h158zM394 809h575v-76h-575v76zM411 422h555l-162 -229v-13h170v-75h-170v-134q0 -20 -7.5 -37t-20.5 -30t-30.5 -20.5t-36.5 -7.5h-213v76h72q12 0 20.5 8t8.5 20
v125h-222v75h222v36l96 130h-282v76zM341 823l-50 -236h34v-708h-219v500h-79l94 444h220z" />
    <glyph glyph-name="cid4809" unicode="&#x4fda;" 
d="M966 395q0 -40 -27.5 -67.5t-67.5 -27.5h-115v-121h195v-76h-195v-144h217v-76h-614v76h217v144h-195v76h195v121h-210v515h600v-420zM321 825l-47 -236h32v-710h-205v501h-74l88 445h206zM531 595h45v145h-45v-145zM576 376v143h-45v-143h45zM756 740v-145h44v145h-44z
M772 376q12 0 20 8t8 20v115h-44v-143h16z" />
    <glyph glyph-name="cid4811" unicode="&#x4fdc;" 
d="M798 530h-51v-94h19q13 0 22.5 8.5t9.5 19.5v66zM747 700v-94h51v94h-51zM529 606h52v94h-52v-94zM529 436h52v94h-52v-94zM356 324h617v-76h-297l-21 -76h292v-201q0 -20 -8.5 -37t-22.5 -30t-34 -20.5t-42 -7.5h-253v76h92q14 0 23.5 8t9.5 20v117h-312l44 151h-88v76z
M316 825l-47 -237h31v-709h-201v501h-72l86 445h203zM362 776h219v49h166v-49h218v-321q0 -20 -8.5 -37.5t-23 -30t-34.5 -20t-42 -7.5h-495v416z" />
    <glyph glyph-name="cid1036" unicode="&#x4fdd;" 
d="M734 740h-166v-212h137q11 0 20 8t9 20v184zM322 825l-47 -236h32v-710h-206v501h-74l88 445h207zM940 547q0 -20 -7.5 -37.5t-20 -30t-29 -20t-35.5 -7.5h-96v-71h221v-76h-41l41 -427h-166l-40 427h-15v-427h-199v427h-15l-40 -427h-165l40 427h-40v76h220v71h-187v365
h574v-270z" />
    <glyph glyph-name="cid4294" unicode="&#x4fde;" 
d="M223 110h127v92h-127v-92zM223 278h127v92h-127v-92zM375 584h246l-121 116zM734 423v-407h-168v407h168zM948 451v-478q0 -20 -7.5 -37t-20 -30t-30 -20.5t-37.5 -7.5h-252v76h137q13 0 21 8.5t8 19.5v469h181zM27 552h45l284 272h286l285 -272h45v-76h-237l-34 32h-408
l-34 -32h-232v76zM531 -27q0 -20 -7.5 -37t-20 -30t-30 -20.5t-37.5 -7.5h-150v76h35q13 0 21 8.5t8 19.5v52h-127v-156h-182v568h490v-473z" />
    <glyph glyph-name="cid4813" unicode="&#x4fdf;" 
d="M388 553l91 270h206l-61 -194h115q10 0 13 8q5 9 2 18l-34 108h207l39 -134q9 -27 -5 -52q-14 -24 -37 -24h-536zM333 829l-49 -238h33v-712h-214v503h-77l92 447h215zM402 -124l143 249h-172v76h214v169h-32l-16 -95h-177l41 250h178l-14 -79h382v-76h-144v-169h168v-76
h-123l123 -249h-219l-60 121l-69 -121h-223z" />
    <glyph glyph-name="cid3984" unicode="&#x4fe1;" 
d="M731 193h-112v-236h81q13 0 22 8t9 20v208zM391 575h568v-76h-568v76zM391 408h568v-76h-568v76zM377 742h171v81h256v-81h170v-76h-597v76zM396 269h558v-274q0 -24 -10 -45t-27.5 -36t-40.5 -24t-50 -9h-430v388zM341 823l-50 -236h34v-708h-219v500h-79l94 444h220z
" />
    <glyph glyph-name="cid4810" unicode="&#x4fe3;" 
d="M745 743h-131v-199h102q12 0 20.5 8.5t8.5 19.5v171zM406 820h547v-257q0 -20 -8 -37t-21.5 -30t-31.5 -20.5t-38 -7.5h-448v352zM341 823l-50 -236h34v-708h-219v500h-79l94 444h220zM404 419h542v-77h-163v-127h190v-77h-142l142 -262h-217l-76 140l-76 -140h-218
l141 262h-141v77h190v127h-172v77z" />
    <glyph glyph-name="cid4805" unicode="&#x4fe6;" 
d="M319 825l-47 -237h32v-709h-205v501h-73l87 445h206zM750 177h-162l-10 -57h76l10 -175h-119l-12 -67h-200l90 482h-76v76h90l16 87h-78v76h92l16 85h-124v76h139l12 65h200l-12 -65h263v-76h-278l-16 -85h279v-76h-293l-16 -87h336v-76h-351l-20 -107h148v70h201v-70h22
v-76h-22v-206q0 -20 -8 -37t-21.5 -30t-31.5 -20.5t-39 -7.5h-173v76h41q14 0 22.5 8t8.5 20v197z" />
    <glyph glyph-name="cid4806" unicode="&#x4fe8;" 
d="M655 417h23v319h-23v-319zM969 701l-17 -246h-106l16 246h107zM470 701l17 -246h-108l-17 246h108zM322 825l-47 -237h32v-709h-207v501h-74l88 445h208zM362 812h603v-76h-133v-319h141v-76h-423v-465h-192v541h143v319h-139v76z" />
    <glyph glyph-name="cid2546" unicode="&#x4fe9;" 
d="M636 573h21l11 155h-21zM483 108l26 385h-26v-385zM632 360l9 -142l20 275h-54l-10 -133h35zM805 360l17 -216v349h-59l-9 -133h51zM309 825l-46 -237h32v-710h-198v502h-70l84 445h198zM971 -24q0 -20 -7.5 -38t-20.5 -31.5t-30.5 -21.5t-36.5 -8h-119v80h37
q11 0 19.5 8t8.5 21v19h-69l-13 164l-12 -164h-102l4 54h-42l-6 83l-10 -137h-89v-128h-149v696h143l10 155h-155v79h641v-79h-147l-11 -155h156v-597z" />
    <glyph glyph-name="cid4807" unicode="&#x4fea;" 
d="M489 514v-472h-52v472h52zM829 514v-472h-54v472h54zM300 810h673v-76h-673v76zM285 825l-42 -237h29v-710h-181v502h-65l77 445h182zM753 605v-729h-109v805h315v-739q0 -28 -20 -47t-49 -19h-80v76h22q8 0 13.5 5.5t5.5 13.5v634h-98zM414 605v-729h-109v805h316v-739
q0 -28 -21 -47t-50 -19h-79v76h22q8 0 14 5.5t6 13.5v634h-99z" />
    <glyph glyph-name="cid2150" unicode="&#x4fed;" 
d="M407 404h530v-75h-530v75zM542 278l23 -288h-152l-22 288h151zM953 278l-22 -288h-152l22 288h152zM736 278l22 -288h-153l-21 288h152zM373 -46h599v-76h-599v76zM525 817h293l155 -375h-204l-97 230l-98 -230h-202zM342 825l-51 -236h35v-710h-220v501h-80l95 445h221z
" />
    <glyph glyph-name="cid4009" unicode="&#x4fee;" 
d="M663 681l-19 -45l60 -46l71 55v36h-112zM435 -32l538 47v-92l-538 -46v91zM435 111l538 46v-91l-538 -47v92zM435 248l538 47v-92l-538 -46v91zM414 646v-682h-134v682h134zM270 825l-39 -237h26v-709h-170v501h-61l72 445h172zM793 337l-88 67l-87 -67h-187v76h44
l108 84l-62 47h-88l116 280h176l-28 -63h254v-168l-125 -96l110 -84h34v-76h-177z" />
    <glyph glyph-name="cid1700" unicode="&#x4fef;" 
d="M782 329l17 -258h-79l-17 258h79zM713 499h98v160h144v-160h18v-77h-18v-452q0 -20 -7.5 -37t-20.5 -29.5t-30 -20t-36 -7.5h-110v70h32q12 0 20 9t8 20v447h-98v77zM314 825l-46 -237h31v-712h-200v503h-72l85 446h202zM718 659l-57 -242h28v-541h-139v457h-40v-457
h-172v894h260v55h227v-55h148v-77h-463v-288l60 254h148z" />
    <glyph glyph-name="cid2322" unicode="&#x4ff1;" 
d="M594 653h143v82h-143v-82zM594 165h143v83h-143v-83zM594 489h143v88h-143v-88zM594 324h143v89h-143v-89zM778 -124l-64 180h197l62 -180h-195zM357 -124l62 180h198l-64 -180h-196zM326 825l-48 -237h33v-709h-210v501h-75l89 445h211zM357 165h40v646h537v-646h39v-77
h-616v77z" />
    <glyph glyph-name="cid4817" unicode="&#x4ff3;" 
d="M318 825l-47 -238h31v-711h-202v503h-73l86 446h205zM975 24h-97v-149h-194v950h194v-146h97v-76h-97v-213h97v-76h-97v-214h97v-76zM339 390h96v213h-96v76h96v146h195v-950h-195v149h-96v76h96v214h-96v76z" />
    <glyph glyph-name="cid4814" unicode="&#x4ff8;" 
d="M401 196h154v46h237v-46h155v-76h-155v-70h181v-75h-181v-99h-237v99h-181v75h181v70h-154v76zM346 826l-51 -238h35v-709h-223v502h-80l96 445h223zM386 770h176l19 50h216l-19 -50h183v-75h-211l-26 -69h216v-76h-244l-26 -70h304v-75h-52l52 -142h-216l-54 142h-62
l-53 -142h-216l53 142h-53v75h81l26 70h-73v76h101l26 69h-148v75z" />
    <glyph glyph-name="cid958" unicode="&#x4ffa;" 
d="M802 198h-46v-102h14q13 0 22.5 9t9.5 20v73zM756 373v-100h46v100h-46zM534 273h47v100h-47v-100zM534 96h47v102h-47v-102zM362 734h109l40 83h211l-39 -83h291v-76h-74l74 -155h-210l-74 155h-43l-73 -155h-212l73 155h-73v76zM341 823l-50 -236h34v-708h-219v500h-79
l94 444h220zM371 449h210v44h175v-44h210v-315q0 -23 -7.5 -43.5t-22 -36t-35 -24.5t-47.5 -9h-98v-65h218v-75h-393v140h-210v428z" />
    <glyph glyph-name="cid4822" unicode="&#x4ffe;" 
d="M537 540h44v134h-44v-134zM537 331h44v134h-44v-134zM800 465h-48v-134h17q12 0 21.5 8t9.5 21v105zM752 674v-134h48v134h-48zM326 825l-48 -237h33v-709h-211v501h-75l90 445h211zM365 750h117l36 75h219l-37 -75h266v-419q0 -32 -24.5 -53.5t-58.5 -21.5h-199
l-79 -143h67v83h186v-83h117v-76h-117v-161h-186v161h-316v76h68l79 143h-138v494z" />
    <glyph glyph-name="cid4824" unicode="&#x500c;" 
d="M753 468h-161v-143h132q11 0 20 9t9 20v114zM592 102v-150h146q13 0 21 8t8 20v122h-175zM769 657h-203v-88h-205v165h193v91h226v-91h193v-165h-204v88zM340 823l-50 -236h34v-708h-219v500h-79l94 444h220zM955 344q0 -20 -7.5 -37t-20.5 -30t-30.5 -20.5t-36.5 -7.5
h-268v-70h377v-208q0 -20 -7.5 -37t-20 -30t-30 -20.5t-36.5 -7.5h-484v668h564v-200z" />
    <glyph glyph-name="cid1055" unicode="&#x500d;" 
d="M737 215h-114v-263h84q12 0 21 8t9 20v235zM397 733h155v90h254v-90h156v-76h-565v76zM386 419h53l-27 189h208l27 -189h65l28 189h207l-28 -189h53v-76h-586v76zM410 291h539v-301q0 -24 -9.5 -44.5t-26 -36t-38.5 -24.5t-47 -9h-418v415zM352 826l-52 -238h36v-709
h-227v502h-82l97 445h228z" />
    <glyph glyph-name="cid4819" unicode="&#x500f;" 
d="M667 679l55 -54l59 54h-114zM926 296l20 -88h-132l-20 88h132zM422 675v-682h-130v682h130zM445 189h126l59 135h168l-58 -135h233v-76h-95l95 -236h-171l-95 236l-101 -236h-171l103 236h-93v76zM281 825l-41 -237h27v-711h-177v502h-64l76 446h179zM798 336l-83 82
l-88 -82h-183v76h44l121 110l-21 22h-151l113 279h173l-28 -64h258v-120l-126 -117l112 -110h33v-76h-174z" />
    <glyph glyph-name="cid1434" unicode="&#x5012;" 
d="M801 680v-625h-123v625h123zM737 -47h61q12 0 20.5 8t8.5 20v841h142v-850q0 -20 -7.5 -37t-20.5 -30t-30.5 -20.5t-36.5 -7.5h-137v76zM262 825l-38 -237h26v-709h-165v501h-59l70 445h166zM545 378v-166h91v-76h-91v-176h98v-76h-361v76h98v176h-90v76h90v166h-101
l60 342h-59v76h365v-76h-167l-45 -266h56q11 0 17 7q3 7 1 17l-17 135h130l25 -160q2 -14 1.5 -27t-8.5 -25q-17 -23 -46 -23h-47z" />
    <glyph glyph-name="cid2338" unicode="&#x5014;" 
d="M747 606q12 0 20.5 8.5t8.5 20.5v108h-241v-137h212zM311 822l-45 -236h30v-710h-197v501h-71l84 445h199zM680 275h21v215h130v-215h1q19 0 19 19v150h120v-179q0 -27 -19.5 -46.5t-48.5 -19.5h-72v-244h1q19 0 19 19v174h120v-203q0 -28 -19.5 -47t-48.5 -19h-342v269
h119v-193h21v244h-140v245h119v-169zM351 819h610v-194q0 -20 -7.5 -37t-20.5 -30t-31 -20.5t-38 -7.5h-329v-654h-184v943z" />
    <glyph glyph-name="cid3611" unicode="&#x5018;" 
d="M678 345h-37v-310h23q14 0 14 11v299zM968 805l-23 -242h-160l24 242h159zM509 805l24 -242h-159l-25 242h160zM538 406h242v-385q0 -19 -15 -32.5t-37 -13.5h-190v431zM315 826l-47 -238h32v-711h-201v503h-72l85 446h203zM972 -29q0 -39 -27 -67t-73 -28h-106v61h9
q14 0 23.5 8t9.5 20v492h-299v-581h-163v657h205v290h216v-290h205v-562z" />
    <glyph glyph-name="cid1961" unicode="&#x5019;" 
d="M417 671v-705h-117v705h117zM444 609h296v124h-270v76h462v-200h41v-76h-529v76zM291 825l-43 -236h29v-710h-185v501h-66l79 445h186zM632 501l-12 -66h339v-75h-143v-157h157v-76h-129l130 -249h-179l-70 134l-74 -134h-192l139 249h-159v76h194v157h-27l-21 -117h-154
l46 258h155z" />
    <glyph glyph-name="cid4183" unicode="&#x501a;" 
d="M575 237h-40v-183h19q9 0 15 5.5t6 13.5v164zM385 313h340v-269q0 -28 -21 -47t-51 -19h-268v335zM368 721h103l44 104h213l-44 -104h286v-76h-71l71 -171h-212l-72 171h-33l-71 -171h-214l71 171h-71v76zM368 441h606v-76h-26v-394q0 -20 -8 -37t-22 -30t-33 -20.5
t-41 -7.5h-188v76h75q13 0 22 8t9 20v385h-394v76zM340 823l-50 -236h34v-708h-219v500h-79l94 444h220z" />
    <glyph glyph-name="cid4823" unicode="&#x501c;" 
d="M674 256h-41v-239h20q8 0 14.5 5.5t6.5 13.5v220zM535 636h44v66h148v-66h44v-75h-44v-118h54v-76h-256v76h54v118h-44v75zM530 307h245v-266q0 -27 -21.5 -46t-51.5 -19h-172v331zM302 825l-44 -237h30v-709h-193v501h-69l82 445h194zM336 815h634v-825q0 -24 -9 -44.5
t-24 -36t-35.5 -24.5t-44.5 -9h-120v76h36q11 0 19 8t8 20v759h-294v-863h-170v939z" />
    <glyph glyph-name="cid2233" unicode="&#x501f;" 
d="M632 468h73v160h-73v-160zM726 79h-116v-122h86q12 0 21 8t9 20v94zM610 155h116v122h-116v-122zM337 825l-50 -236h33v-710h-217v501h-78l93 445h219zM371 704h46v121h215v-121h73v121h213v-121h47v-76h-47v-160h57v-76h-614v76h56v160h-46v76zM392 -119v472h553v-377
q0 -20 -8 -37t-22 -30t-33 -20.5t-40 -7.5h-450z" />
    <glyph glyph-name="cid1232" unicode="&#x5021;" 
d="M587 640h169v85h-169v-85zM756 564h-169v-87h136q13 0 23 8.5t10 20.5v58zM763 80h-184v-123h152q14 0 23 8t9 20v95zM579 156h184v124h-184v-124zM326 825l-47 -236h32v-710h-208v501h-75l89 445h209zM382 402v399h579v-305q0 -19 -8.5 -36t-23.5 -30t-34.5 -20.5
t-41.5 -7.5h-471zM368 -119v475h605v-380q0 -20 -8.5 -37t-22.5 -30t-33.5 -20.5t-41.5 -7.5h-499z" />
    <glyph glyph-name="cid4825" unicode="&#x5025;" 
d="M391 343l62 201h198l-62 -201h-198zM775 343l-62 201h198l62 -201h-198zM391 751h163v69h257v-69h162v-168h-200v93h-181v-93h-201v168zM423 299h519v-76h-143v-269h173v-76h-580v76h174v269h-143v76zM340 823l-50 -236h34v-708h-219v500h-79l94 444h220z" />
    <glyph glyph-name="cid2330" unicode="&#x5026;" 
d="M794 685l20 120h159l-21 -120h-158zM936 88q0 -20 -8.5 -37t-22.5 -30t-33.5 -20.5t-41.5 -7.5h-172v76h40q13 0 22 8.5t9 19.5v85h-121v-230h367v-76h-573v382h534v-170zM331 831l-49 -239h33v-715h-212v505h-76l91 449h213zM384 649h136l16 36h-154l-20 120h159
l19 -113l58 131h211l-77 -174h222v-76h-256l-33 -75h310v-76h-59l59 -131h-211l-60 131h-72l-58 -131h-212l58 131h-58v76h91l34 75h-103v76z" />
    <glyph glyph-name="cid4826" unicode="&#x5028;" 
d="M808 144h-72v-189h42q12 0 21 8t9 20v161zM748 605q12 0 20.5 8t8.5 20v107h-225v-135h196zM863 500v-94h108v-75h-108v-111h98v-275q0 -28 -20 -47t-49 -19h-310v341h92v111h-102v75h102v94h189zM331 825l-49 -237h33v-709h-213v501h-76l91 445h214zM359 816h612v-192
q0 -20 -8 -37.5t-21.5 -30t-31.5 -20t-39 -7.5h-319v-652h-193v939z" />
    <glyph glyph-name="cid4815" unicode="&#x5029;" 
d="M616 218h127v56h-127v-56zM616 85h127v57h-127v-57zM395 753h168v70h233v-70h169v-76h-169v-67h140v-75h-140v-66h177v-76h-587v76h177v66h-139v75h139v67h-168v76zM352 826l-53 -238h36v-709h-227v502h-82l98 445h228zM415 -124v474h529v-379q0 -20 -8 -37.5t-22 -30
t-32.5 -20t-39.5 -7.5h-162v76h33q13 0 21.5 8t8.5 20v29h-127v-133h-201z" />
    <glyph glyph-name="cid2882" unicode="&#x502a;" 
d="M343 820l-51 -235h35v-706h-221v498h-80l95 443h222zM386 813h265v-76h-71v-160h71v-76h-71v-160h157q14 0 22.5 8.5t8.5 20.5v131h-70v76h70v160h-70v76h265v-462q0 -17 -6.5 -32.5t-18 -27t-26.5 -18.5t-33 -8v-313h94v-76h-294v389h-30l-64 -389h-199l64 389h-64v548z
" />
    <glyph glyph-name="cid4818" unicode="&#x502c;" 
d="M752 361h-142v-94h111q13 0 22 9t9 20v65zM610 437h142v95h-142v-95zM351 825l-52 -236h36v-710h-227v501h-82l97 445h228zM566 -124v140h-177v76h177v99h-166v417h166v219h231v-66h178v-76h-178v-77h166v-303q0 -23 -9.5 -44t-26.5 -36.5t-39.5 -24.5t-48.5 -9h-42v-99
h176v-76h-176v-140h-231z" />
    <glyph glyph-name="cid4821" unicode="&#x502d;" 
d="M737 145v65h-120v-65l59 -36zM812 352l-25 225h161l25 -225h-161zM369 352l24 225h163l-25 -225h-162zM567 352v255h-198v76h198v56h-182v76h571v-76h-181v-56h198v-76h-198v-255h-208zM828 16l105 -64h40v-75h-222l-79 48l-81 -48h-222v75h41l110 65l-109 66v127h-42v76
h42v46h206v-46h356v-76h-30v-127zM343 825l-51 -237h35v-712h-221v503h-80l95 446h222z" />
    <glyph glyph-name="cid4820" unicode="&#x502e;" 
d="M789 550h-44v-113h11q14 0 23.5 8.5t9.5 20.5v84zM745 739v-113h44v113h-44zM522 437h44v113h-44v-113zM522 626h44v113h-44v-113zM324 825l-48 -237h33v-709h-208v501h-75l89 445h209zM745 361v-55h228v-76h-36l36 -353h-179l-36 353h-13v-353h-179v353h-15l-35 -353
h-178l34 353h-34v76h228v55h-218v454h614v-359q0 -20 -8.5 -37t-23.5 -30t-35 -20.5t-43 -7.5h-107z" />
    <glyph glyph-name="cid4431" unicode="&#x503a;" 
d="M758 120l28 -32v210h-249v-213l31 35v140h190v-140zM359 765h185v62h236v-62h184v-75h-184v-60h167v-77h-167v-59h191v-76h-619v76h192v59h-167v77h167v60h-185v75zM339 827l-50 -238h33v-710h-217v502h-78l93 446h219zM352 -123l154 173h-133v323h576v-323h-129
l155 -173h-223l-89 97l-87 -97h-224z" />
    <glyph glyph-name="cid4532" unicode="&#x503c;" 
d="M608 276h129v81h-129v-81zM608 117h129v84h-129v-84zM608 432h129v86h-129v-86zM608 -46h129v87h-129v-87zM339 827l-51 -237h34v-711h-220v502h-79l94 446h222zM376 754h172v73h250v-73h170v-75h-170v-85h139v-640h41v-75h-611v75h41v640h140v85h-172v75z" />
    <glyph glyph-name="cid3168" unicode="&#x503e;" 
d="M434 772v-286h47v-76h-47v-405h54v-76h-201v843h147zM808 504v-363l159 -264h-178l-57 90l-57 -90h-178l156 258v369h155zM269 825l-39 -237h26v-709h-169v501h-60l72 445h170zM485 802h488v-76h-170l-22 -103h180v-513h-129v436h-207v-436h-128v513h128l22 103h-162v76z
" />
    <glyph glyph-name="cid4828" unicode="&#x5043;" 
d="M786 207v35h-59v-35l29 -21zM705 565h109v50h-109v-50zM814 489h-109v-52h79q12 0 21 9t9 20v23zM542 317h32v20h153v-20h239v-75h-27v-89l-68 -46l67 -46h33v-71h-147l-65 42l-64 -42h-153v71h32l68 47l-68 45v89h-32v75zM553 691h413v-254q0 -30 -23.5 -52.5
t-56.5 -22.5h-333v329zM303 825l-44 -236h30v-710h-194v501h-69l83 445h194zM328 810h645v-76h-459v-779h459v-74h-645v929z" />
    <glyph glyph-name="cid2124" unicode="&#x5047;" 
d="M461 512h10q13 0 21.5 8.5t8.5 19.5v197h-40v-225zM661 813h307v-286q0 -32 -24.5 -54t-58.5 -22h-224v76h129q8 0 14.5 5t6.5 13v192h-150v76zM770 298l22 -47l40 83h-192v75h329v-118l-96 -206l101 -209h-147l-26 55l-26 -55h-163l108 225l-78 165v32h128zM285 821
l-42 -236h29v-707h-181v499h-65l77 444h182zM641 813v-283q0 -19 -8 -36t-21.5 -30t-31.5 -20.5t-39 -7.5h-50v-121h127v-76h-127v-153h127v-76h-127v-134h-180v937h330z" />
    <glyph glyph-name="cid4830" unicode="&#x5048;" 
d="M744 230l50 -158v221h-78l-20 -63h48zM756 581h-164v-79h131q14 0 23.5 8t9.5 20v51zM592 657h164v79h-164v-79zM331 820l-48 -235h33v-706h-211v498h-76l90 443h212zM382 811h583v-271q0 -23 -9 -43.5t-25.5 -36t-39 -24.5t-49.5 -9h-460v384zM339 212l76 194h170
l-16 -39h402v-379q0 -24 -10 -44.5t-27.5 -35.5t-41 -23.5t-50.5 -8.5h-105v74h24q14 0 23.5 8.5t9.5 19.5v57h-114l-23 72l-23 -72h-106v-44h190v-75h-349v274h159v-95l62 198h-50l-31 -81h-170z" />
    <glyph glyph-name="cid4816" unicode="&#x504c;" 
d="M781 170h-139v-214h109q12 0 21 8.5t9 19.5v186zM375 732h51v95h208v-95h82v95h207v-95h50v-76h-50v-96h-207v96h-82v-96h-208v96h-51v76zM340 823l-50 -236h34v-708h-219v501h-79l94 443h220zM375 436h112l32 91h209l-32 -91h277v-76h-303l-39 -114h337v-252
q0 -24 -9.5 -44.5t-26 -35.5t-38 -24t-46.5 -9h-395v224h-80l88 255h-86v76z" />
    <glyph glyph-name="cid4831" unicode="&#x504e;" 
d="M795 560h-51v-98h20q14 0 22.5 8t8.5 21v69zM744 733v-98h51v98h-51zM528 635h52v98h-52v-98zM528 462h52v98h-52v-98zM314 825l-47 -237h32v-709h-201v501h-72l85 445h203zM348 340h623v-76h-128l36 -110l94 71v-111l-65 -49l61 -189h-201l-126 388h-38v-312h57v-76
h-265v388h-48v76zM365 810h595v-348q0 -32 -25 -54.5t-60 -22.5h-510v425z" />
    <glyph glyph-name="cid3018" unicode="&#x504f;" 
d="M838 348v-160h17v160h-17zM645 188h17v160h-17v-160zM739 188h21v160h-21v-160zM767 556q11 0 19 8.5t8 20.5v121h-292v-150h265zM303 825l-44 -237h30v-709h-194v501h-69l83 445h194zM527 -124v548h447v-548h-119v236h-17v-236h-78v236h-21v-236h-77v236h-17v-236h-118z
M328 782h203v43h241v-43h202v-207q0 -20 -7.5 -37t-21 -30t-31 -20.5t-36.5 -7.5h-376v-604h-174v906z" />
    <glyph glyph-name="cid4829" unicode="&#x5055;" 
d="M761 81h-175v-125h144q14 0 22.5 8.5t8.5 19.5v97zM586 157h175v125h-175v-125zM376 825h213v-117h66v-76h-66v-120h66v-75h-279v388zM682 825h214v-99l77 11v-76l-77 -11v-138h77v-75h-291v388zM342 825l-51 -236h35v-710h-220v501h-80l95 445h221zM380 -119v478h90
l18 52h214l-18 -52h283v-384q0 -20 -8 -37t-22 -29.5t-33 -20t-41 -7.5h-483z" />
    <glyph glyph-name="cid4691" unicode="&#x505a;" 
d="M484 234h-58v-281h30q12 0 20 8t8 20v253zM267 825l-39 -237h26v-711h-168v502h-60l72 446h169zM813 823l-15 -144h175v-57h-17v-236l-84 -222l96 -288h-133l-34 101l-38 -101h-133l108 289l-99 299h134l36 -110l13 34v234h-30l-12 -124h-134l34 325h133zM543 824l2 -208
h79v-76h-78l3 -229h77v-339q0 -20 -7 -37t-19.5 -30t-29.5 -20.5t-36 -7.5h-251v434h91l-3 229h-87v76h86l-3 208h176z" />
    <glyph glyph-name="cid3668" unicode="&#x505c;" 
d="M761 573h-193v-77h162q14 0 22.5 9t8.5 20v48zM357 771h182v56h252v-56h182v-76h-616v76zM359 383h611v-138h-210v62h-191v-62h-210v138zM363 193h602v-75h-177v-148q0 -20 -8.5 -37t-23 -29.5t-33.5 -20t-41 -7.5h-201v75h25q12 0 21.5 8.5t9.5 20.5v138h-174v75z
M379 650h571v-135q0 -20 -8 -37t-22 -30t-33 -20.5t-41 -7.5h-467v230zM333 827l-49 -238h33v-710h-214v502h-77l92 446h215z" />
    <glyph glyph-name="cid2162" unicode="&#x5065;" 
d="M557 760h90v60h149v-60h161v-157h16v-75h-16v-65q0 -20 -8 -37t-22 -30t-32 -20.5t-39 -7.5h-60v-79h150v-76h-150v-63h168v-75h-168v-95h-149v95h-117v75h117v63h-100v76h100v79h-90v76h90v84h-108v75h108v83h-90v74zM485 416h57l-53 -342l133 -122h351v-76h-429l-75 68
l-10 -68h-159l31 194l-29 27v151l50 -47l20 122h-57l54 404h-58v76h228zM277 825l-40 -237h26v-711h-174v502h-63l75 446h176zM796 686v-83h41v83h-41zM808 444q13 0 21 8t8 21v55h-41v-84h12z" />
    </font>
</defs>
</svg>
