<?xml version="1.0" standalone="no"?><!DOCTYPE svg PUBLIC "-//W3C//DTD SVG 1.1//EN" "http://www.w3.org/Graphics/SVG/1.1/DTD/svg11.dtd" ><svg xmlns="http://www.w3.org/2000/svg"><metadata></metadata><defs><font id="1.000;WYUE;MFLiHei_Noncommercial-Regular" horiz-adv-x="1134"><font-face font-family="MF LiHei (Noncommercial) Regular" font-weight="400" font-stretch="normal" units-per-em="1000" panose-1="0 0 0 0 0 0 0 0 0 0" ascent="880" descent="-120" x-height="0" bbox="12 -402 1095 930" underline-thickness="50" underline-position="-75" unicode-range="U+0025-ff1f" /><missing-glyph horiz-adv-x="1000" d="M263 12 l215 368 l-215 368 l0 -736 ZM714 -25 l-214 368 l-215 -368 l429 0 ZM736 12 l0 736 l-214 -368 l214 -368 ZM714 785 l-429 0 l215 -368 l214 368 ZM230 830 l540 0 l0 -900 l-540 0 l0 900 Z" /><glyph glyph-name="percent" unicode="%" d="M513 178 q0 38 26 64 q26 26 63 26 l225 0 q38 0 64 -26 q26 -26 26 -64 l0 -189 q0 -37 -26 -63.5 q-26 -26.5 -64 -26.5 l-225 0 q-37 0 -63 26.5 q-26 26.5 -26 63.5 l0 189 ZM764 177 q0 15 -10.5 25.5 q-10.5 10.5 -25.5 10.5 l-27 0 q-15 0 -25.5 -10.5 q-10.5 -10.5 -10.5 -25.5 l0 -182 q0 -15 10.5 -25.5 q10.5 -10.5 25.5 -10.5 l27 0 q15 0 25.5 10.5 q10.5 10.5 10.5 25.5 l0 182 ZM86 -105 l582 901 l211 0 l-581 -901 l-212 0 ZM38 681 q0 38 26 64 q26 26 64 26 l224 0 q37 0 63.5 -26 q26.5 -26 26.5 -64 l0 -189 q0 -37 -26.5 -63.5 q-26.5 -26.5 -63.5 -26.5 l-224 0 q-38 0 -64 26.5 q-26 26.5 -26 63.5 l0 189 ZM290 680 q0 15 -10.5 25.5 q-10.5 10.5 -25.5 10.5 l-28 0 q-15 0 -25.5 -10.5 q-10.5 -10.5 -10.5 -25.5 l0 -182 q0 -15 10.5 -25.5 q10.5 -10.5 25.5 -10.5 l28 0 q15 0 25.5 10.5 q10.5 10.5 10.5 25.5 l0 182 Z" /><glyph glyph-name="ampersand" unicode="&amp;" d="M454 492 l0 185 q0 15 -11 25.5 q-11 10.5 -25 10.5 l-87 0 q-15 0 -25.5 -10.5 q-10.5 -10.5 -10.5 -25.5 l0 -185 l72 -45 l87 45 ZM352 272 l-92 -50 l0 -210 q0 -15 10.5 -25.5 q10.5 -10.5 25.5 -10.5 l181 0 l63 178 l-188 118 ZM832 357 l-51 -171 l123 -77 l0 -184 l-170 106 l-41 -136 l-559 0 q-37 0 -63 26 q-26 26 -26 64 l0 291 l163 87 l-129 80 l0 261 q0 37 26.5 63.5 q26.5 26.5 63.5 26.5 l411 0 q37 0 63.5 -26.5 q26.5 -26.5 26.5 -63.5 l0 -261 l-160 -86 l83 -52 l19 52 l220 0 Z" /><glyph glyph-name="quotesingle" unicode="&#39;" d="M247 709 l0 -235 l-203 0 l0 235 l203 0 Z" /><glyph glyph-name="parenleft" unicode="(" d="M94 -107 q-27 103 -41.5 209 q-14.5 106 -14.5 217 q0 242 69 472 l212 0 q-37 -112 -56.5 -229.5 q-19.5 -117.5 -19.5 -242.5 q0 -217 62 -426 l-211 0 Z" /><glyph glyph-name="parenright" unicode=")" d="M49 -107 q62 209 62 426 q0 125 -19.5 242.5 q-19.5 117.5 -57.5 229.5 l213 0 q34 -115 51.5 -233 q17.5 -118 17.5 -239 q0 -111 -14.5 -217 q-14.5 -106 -42.5 -209 l-210 0 Z" /><glyph glyph-name="comma" unicode="," d="M296 189 l-54 -275 l-213 0 l55 275 l212 0 Z" /><glyph glyph-name="hyphen" unicode="-" d="M49 365 l351 0 l0 -72 l-351 0 l0 72 Z" /><glyph glyph-name="period" unicode="." d="M85 -80 l-58 278 l204 0 l59 -278 l-205 0 Z" /><glyph glyph-name="slash" unicode="/" d="M441 794 l-198 -895 l-225 0 l198 895 l225 0 Z" /><glyph glyph-name="zero" unicode="0" d="M278 721 l0 -759 l235 0 q38 0 64.5 26.5 q26.5 26.5 26.5 64.5 l0 668 l-326 0 ZM831 794 l0 -722 q0 -38 -14.5 -71.5 q-14.5 -33.5 -39 -58 q-24.5 -24.5 -58 -39 q-33.5 -14.5 -70.5 -14.5 l-599 0 l0 905 l781 0 Z" /><glyph glyph-name="one" unicode="1" d="M488 -115 l-457 0 l0 73 l114 0 l0 764 l-96 0 l0 73 l323 0 l0 -837 l116 0 l0 -73 Z" /><glyph glyph-name="two" unicode="2" d="M34 797 l715 0 l0 -306 q0 -40 -13.5 -73.5 q-13.5 -33.5 -37.5 -57.5 q-24 -24 -57.5 -37.5 q-33.5 -13.5 -74.5 -13.5 l-303 0 l0 -350 l486 0 l0 -73 l-715 0 l0 496 l386 0 q18 0 36 7.5 q18 7.5 32 22 q14 14.5 23 34.5 q9 20 9 45 l0 232 l-486 0 l0 74 Z" /><glyph glyph-name="three" unicode="3" d="M749 393 l0 -327 q0 -38 -14.5 -71 q-14.5 -33 -39 -58 q-24.5 -25 -58 -39.5 q-33.5 -14.5 -71.5 -14.5 l-551 0 l0 73 l416 0 q38 0 64.5 26.5 q26.5 26.5 26.5 64.5 l0 272 l-508 0 l0 74 l381 0 q31 0 55 12 q24 12 40 31 q16 19 24 41.5 q8 22.5 8 42.5 l0 202 l-508 0 l0 73 l735 0 l0 -256 q0 -45 -15.5 -81.5 q-15.5 -36.5 -41.5 -64.5 l57 0 Z" /><glyph glyph-name="four" unicode="4" d="M863 106 l-157 0 l0 -223 l-229 0 l0 223 l-451 0 l102 688 l229 0 l-91 -616 l211 0 l0 617 l229 0 l0 -617 l157 0 l0 -72 Z" /><glyph glyph-name="five" unicode="5" d="M785 722 l-522 0 l0 -341 l522 0 l0 -313 q0 -38 -14.5 -71 q-14.5 -33 -39 -58 q-24.5 -25 -58 -39.5 q-33.5 -14.5 -70.5 -14.5 l-569 0 l0 73 l431 0 q38 0 65 26.5 q27 26.5 27 64.5 l0 259 l-523 0 l0 488 l751 0 l0 -74 Z" /><glyph glyph-name="six" unicode="6" d="M481 -40 q19 0 35.5 7 q16.5 7 29 19.5 q12.5 12.5 19.5 29 q7 16.5 7 35.5 l0 307 l-294 0 l0 -398 l203 0 ZM801 722 l-523 0 l0 -291 l523 0 l0 -361 q0 -38 -14.5 -71.5 q-14.5 -33.5 -39 -58 q-24.5 -24.5 -58 -39 q-33.5 -14.5 -71.5 -14.5 l-568 0 l0 909 l751 0 l0 -74 Z" /><glyph glyph-name="seven" unicode="7" d="M467 722 l-455 0 l0 74 l701 0 l-291 -908 l-228 0 l273 834 Z" /><glyph glyph-name="eight" unicode="8" d="M285 722 l0 -327 l216 0 q38 0 60 21.5 q22 21.5 22 59.5 l0 246 l-298 0 ZM358 321 q-38 0 -64.5 -21.5 q-26.5 -21.5 -26.5 -59.5 l0 -280 l252 0 q38 0 60.5 22 q22.5 22 22.5 60 l0 279 l-244 0 ZM67 796 l735 0 l0 -256 q0 -54 -27.5 -99 q-27.5 -45 -72.5 -70 l118 0 l0 -301 q0 -38 -14.5 -71.5 q-14.5 -33.5 -39 -58 q-24.5 -24.5 -58 -39 q-33.5 -14.5 -70.5 -14.5 l-590 0 l0 307 q0 51 25.5 91.5 q25.5 40.5 67.5 63.5 l-74 0 l0 447 Z" /><glyph glyph-name="nine" unicode="9" d="M35 -113 l0 73 l435 0 q38 0 65 26.5 q27 26.5 27 64.5 l0 234 l-527 0 l0 510 l754 0 l0 -725 q0 -38 -14 -71.5 q-14 -33.5 -39 -58 q-25 -24.5 -58 -39 q-33 -14.5 -71 -14.5 l-572 0 ZM264 722 l0 -364 l298 0 l0 364 l-298 0 Z" /><glyph glyph-name="colon" unicode=":" d="M231 219 l0 -208 l-196 0 l0 208 l196 0 ZM231 623 l0 -208 l-196 0 l0 208 l196 0 Z" /><glyph glyph-name="at" unicode="@" d="M521 162 l0 323 q0 11 -8 19 q-8 8 -19 8 l-18 0 q-11 0 -19 -8 q-8 -8 -8 -19 l0 -296 q0 -11 8 -19 q8 -8 19 -8 l45 0 ZM247 36 q0 -26 18 -44.5 q18 -18.5 45 -18.5 l612 0 l0 -72 l-738 0 q-28 0 -52.5 10.5 q-24.5 10.5 -43 29 q-18.5 18.5 -29 43 q-10.5 24.5 -10.5 52.5 l0 607 q0 28 10.5 52.5 q10.5 24.5 29 43 q18.5 18.5 43 29 q24.5 10.5 52.5 10.5 l603 0 q28 0 52.5 -10.5 q24.5 -10.5 43 -29 q18.5 -18.5 29 -43 q10.5 -24.5 10.5 -52.5 l0 -418 q0 -28 -10.5 -52.5 q-10.5 -24.5 -29 -43 q-18.5 -18.5 -43 -29 q-24.5 -10.5 -52.5 -10.5 l-410 0 q-37 0 -63.5 26 q-26.5 26 -26.5 64 l0 314 q0 38 26.5 64 q26.5 26 63.5 26 l216 0 q38 0 64 -26 q26 -26 26 -64 l0 -331 l14 0 q27 0 27 26 l0 454 q0 26 -18 44.5 q-18 18.5 -45 18.5 l-351 0 q-27 0 -45 -18.5 q-18 -18.5 -18 -44.5 l0 -607 Z" /><glyph glyph-name="A" unicode="a" d="M370 256 l218 0 l-110 342 l-108 -342 ZM615 797 l318 -910 l-227 0 l-95 296 l-265 0 l-93 -296 l-229 0 l319 910 l272 0 Z" /><glyph glyph-name="B" unicode="b" d="M498 392 q30 1 52.5 14 q22.5 13 37.5 31.5 q15 18.5 22.5 40 q7.5 21.5 7.5 41.5 l0 204 l-340 0 l0 -331 l220 0 ZM527 -44 q19 0 35.5 7 q16.5 7 29 19.5 q12.5 12.5 19.5 29 q7 16.5 7 35.5 l0 271 l-340 0 l0 -362 l249 0 ZM845 797 l0 -259 q0 -45 -15.5 -82 q-15.5 -37 -41.5 -64 l57 0 l0 -326 q0 -38 -14.5 -71 q-14.5 -33 -39 -58 q-24.5 -25 -58 -39.5 q-33.5 -14.5 -70.5 -14.5 l-613 0 l0 914 l795 0 Z" /><glyph glyph-name="D" unicode="d" d="M675 794 q37 0 70.5 -14.5 q33.5 -14.5 58 -39.5 q24.5 -25 39 -58 q14.5 -33 14.5 -70 l0 -538 q0 -37 -14.5 -70 q-14.5 -33 -39 -58 q-24.5 -25 -58 -39.5 q-33.5 -14.5 -70.5 -14.5 l-625 0 l0 902 l625 0 ZM278 -34 l261 0 q38 0 64.5 26.5 q26.5 26.5 26.5 64.5 l0 573 q0 38 -26.5 64.5 q-26.5 26.5 -64.5 26.5 l-261 0 l0 -755 Z" /><glyph glyph-name="E" unicode="e" d="M779 725 l-501 0 l0 -334 l483 0 l0 -73 l-483 0 l0 -362 l501 0 l0 -72 l-501 0 l0 -1 l-228 0 l0 915 l729 0 l0 -73 Z" /><glyph glyph-name="G" unicode="g" d="M907 70 q0 -38 -14 -71.5 q-14 -33.5 -39 -58 q-25 -24.5 -58 -39 q-33 -14.5 -71 -14.5 l-679 0 l0 911 l861 0 l0 -73 l-633 0 l0 -765 l316 0 q38 0 64 26.5 q26 26.5 26 64.5 l0 267 l-289 0 l0 73 l516 0 l0 -321 Z" /><glyph glyph-name="I" unicode="i" d="M465 724 l-101 0 l0 -764 l101 0 l0 -73 l-432 0 l0 73 l103 0 l0 764 l-103 0 l0 74 l432 0 l0 -74 Z" /><glyph glyph-name="L" unicode="l" d="M278 795 l0 -835 l345 0 l0 -73 l-573 0 l0 908 l228 0 Z" /><glyph glyph-name="M" unicode="m" d="M470 795 l96 -500 l98 500 l283 0 l148 -907 l-210 0 l-97 593 l-124 -577 l-194 0 l-125 579 l-96 -595 l-210 0 l148 907 l283 0 Z" /><glyph glyph-name="N" unicode="n" d="M324 793 l280 -591 l0 591 l223 0 l0 -909 l-266 0 l-288 597 l0 -597 l-223 0 l0 910 l223 0 l0 -1 l51 0 Z" /><glyph glyph-name="O" unicode="o" d="M858 72 q0 -38 -14.5 -71.5 q-14.5 -33.5 -39 -58 q-24.5 -24.5 -58 -39 q-33.5 -14.5 -70.5 -14.5 l-626 0 l0 729 q0 37 14.5 70.5 q14.5 33.5 39 58.5 q24.5 25 57.5 39.5 q33 14.5 71 14.5 l626 0 l0 -729 ZM540 -38 q38 0 64.5 26.5 q26.5 26.5 26.5 64.5 l0 674 l-262 0 q-19 0 -35.5 -7 q-16.5 -7 -29 -19.5 q-12.5 -12.5 -19.5 -29 q-7 -16.5 -7 -35.5 l0 -674 l262 0 Z" /><glyph glyph-name="S" unicode="s" d="M838 724 l-487 0 q-38 0 -64.5 -26.5 q-26.5 -26.5 -26.5 -64.5 l0 -241 l578 0 l0 -324 q0 -38 -14.5 -71 q-14.5 -33 -39 -58 q-24.5 -25 -58 -39.5 q-33.5 -14.5 -70.5 -14.5 l-624 0 l0 73 l486 0 q38 0 65 26.5 q27 26.5 27 64.5 l0 269 l-578 0 l0 297 q0 37 14.5 70.5 q14.5 33.5 39 58.5 q24.5 25 58 39.5 q33.5 14.5 71.5 14.5 l623 0 l0 -74 Z" /><glyph glyph-name="T" unicode="t" d="M759 724 l-258 0 l0 -839 l-229 0 l0 839 l-257 0 l0 74 l744 0 l0 -74 Z" /><glyph glyph-name="bracketleft" unicode="[" d="M274 722 l0 -751 l152 0 l0 -72 l-377 0 l0 895 l377 0 l0 -72 l-152 0 Z" /><glyph glyph-name="bracketright" unicode="]" d="M23 722 l0 72 l377 0 l0 -895 l-377 0 l0 72 l152 0 l0 751 l-152 0 Z" /><glyph glyph-name="a" unicode="a" d="M272 -44 l155 0 q38 0 64.5 26.5 q26.5 26.5 26.5 64.5 l0 127 l-246 0 l0 -218 ZM745 66 q0 -38 -14.5 -71 q-14.5 -33 -39.5 -58 q-25 -25 -58 -39.5 q-33 -14.5 -70 -14.5 l-518 0 l0 364 l471 0 l0 152 l-471 0 l0 73 l700 0 l0 -406 Z" /><glyph glyph-name="c" unicode="c" d="M278 -44 l404 0 l0 -73 l-632 0 l0 592 l632 0 l0 -72 l-404 0 l0 -447 Z" /><glyph glyph-name="d" unicode="d" d="M543 795 l228 0 l0 -729 q0 -38 -14.5 -71 q-14.5 -33 -39 -58 q-24.5 -25 -58 -39.5 q-33.5 -14.5 -70.5 -14.5 l-570 0 l0 597 l524 0 l0 315 ZM452 -44 q38 0 64.5 26.5 q26.5 26.5 26.5 64.5 l0 361 l-297 0 l0 -452 l206 0 Z" /><glyph glyph-name="e" unicode="e" d="M278 179 l212 0 q38 0 64.5 26.5 q26.5 26.5 26.5 64.5 l0 133 l-303 0 l0 -224 ZM278 107 l0 -151 l531 0 l0 -73 l-759 0 l0 592 l759 0 l0 -232 q0 -28 -10.5 -53 q-10.5 -25 -29.5 -43.5 q-19 -18.5 -44 -29 q-25 -10.5 -53 -10.5 l-394 0 Z" /><glyph glyph-name="g" unicode="g" d="M36 -399 l0 73 l435 0 q38 0 65 26.5 q27 26.5 27 64.5 l0 142 l-527 0 l0 568 l754 0 l0 -692 q0 -38 -14 -71 q-14 -33 -39 -58 q-25 -25 -58 -39 q-33 -14 -71 -14 l-572 0 ZM265 403 l0 -423 l298 0 l0 423 l-298 0 Z" /><glyph glyph-name="i" unicode="i" d="M277 742 l0 -199 l-228 0 l0 199 l228 0 ZM278 474 l0 -591 l-228 0 l0 591 l228 0 Z" /><glyph glyph-name="k" unicode="k" d="M736 475 l-243 -290 l262 -300 l-236 0 l-241 278 l0 -278 l-228 0 l0 906 l228 0 l0 -582 l223 266 l235 0 Z" /><glyph glyph-name="l" unicode="l" d="M278 791 l0 -906 l-228 0 l0 906 l228 0 Z" /><glyph glyph-name="m" unicode="m" d="M608 410 l0 -525 l-228 0 l0 525 l-102 0 l0 -525 l-228 0 l0 597 l887 0 l0 -597 l-227 0 l0 525 l-102 0 Z" /><glyph glyph-name="n" unicode="n" d="M278 410 l0 -525 l-228 0 l0 597 l724 0 l0 -597 l-228 0 l0 525 l-268 0 Z" /><glyph glyph-name="o" unicode="o" d="M48 482 l735 0 l0 -410 q0 -38 -14.5 -71.5 q-14.5 -33.5 -39 -58 q-24.5 -24.5 -58 -39 q-33.5 -14.5 -70.5 -14.5 l-553 0 l0 593 ZM276 410 l0 -448 l188 0 q38 0 64.5 26.5 q26.5 26.5 26.5 64.5 l0 357 l-279 0 Z" /><glyph glyph-name="p" unicode="p" d="M278 -402 l-228 0 l0 880 l807 0 l0 -387 q0 -38 -14.5 -71 q-14.5 -33 -39 -58 q-24.5 -25 -58 -39 q-33.5 -14 -70.5 -14 l-397 0 l0 -311 ZM278 -19 l261 0 q19 0 35.5 7 q16.5 7 29 19.5 q12.5 12.5 19.5 29.5 q7 17 7 36 l0 333 l-352 0 l0 -425 Z" /><glyph glyph-name="q" unicode="q" d="M554 -101 l-518 0 l0 578 l745 0 l0 -878 l-227 0 l0 300 ZM554 405 l-289 0 l0 -433 l289 0 l0 433 Z" /><glyph glyph-name="r" unicode="r" d="M50 -115 l0 590 l228 0 l0 -130 l242 139 l0 -110 l-242 -139 l0 -350 l-228 0 Z" /><glyph glyph-name="s" unicode="s" d="M756 406 l-396 0 q-20 0 -36.5 -8 q-16.5 -8 -28.5 -21 q-12 -13 -19 -30.5 q-7 -17.5 -7 -35.5 l0 -92 l487 0 l0 -197 q0 -29 -11 -53.5 q-11 -24.5 -29.5 -43.5 q-18.5 -19 -44 -29.5 q-25.5 -10.5 -53.5 -10.5 l-577 0 l0 73 l395 0 q19 0 35.5 7 q16.5 7 29 19.5 q12.5 12.5 19.5 29 q7 16.5 7 35.5 l0 97 l-486 0 l0 157 q0 37 10 69 q10 32 31 55.5 q21 23.5 53.5 37 q32.5 13.5 77.5 13.5 l543 0 l0 -72 Z" /><glyph glyph-name="t" unicode="t" d="M394 690 l0 -209 l170 0 l0 -72 l-170 0 l0 -451 l170 0 l0 -73 l-398 0 l0 524 l-151 0 l0 72 l151 0 l0 209 l228 0 Z" /><glyph glyph-name="u" unicode="u" d="M784 474 l0 -589 l-228 0 l0 30 q-17 -14 -40.5 -22 q-23.5 -8 -55.5 -8 l-411 0 l0 589 l228 0 l0 -516 l143 0 q46 0 78.5 16 q32.5 16 57.5 50 l0 450 l228 0 Z" /><glyph glyph-name="v" unicode="v" d="M784 474 l-256 -589 l-248 0 l-256 589 l229 0 l151 -351 l152 351 l228 0 Z" /><glyph glyph-name="braceleft" unicode="{" d="M241 5 q-3 -13 9 -28 q10 -11 26 -11 l21 0 l0 -72 l-174 0 q-31 0 -54 23 q-21 24 -18 56 l30 294 q3 35 -44 37 l0 72 q47 2 44 37 l-30 294 q-3 30 18 56 q24 24 54 24 l174 0 l0 -72 l-21 0 q-16 0 -26 -12 q-12 -13 -9 -28 l28 -263 q3 -33 -13 -51.5 q-16 -18.5 -45 -20.5 q29 -2 45 -21 q16 -19 13 -51 l-28 -263 Z" /><glyph glyph-name="braceright" unicode="}" d="M63 268 q-4 32 12.5 51 q16.5 19 45.5 21 q-29 2 -45.5 20.5 q-16.5 18.5 -12.5 51.5 l28 263 q3 15 -9 28 q-11 12 -26 12 l-21 0 l0 72 l174 0 q30 0 54 -24 q21 -26 18 -56 l-30 -294 q-3 -35 44 -37 l0 -72 q-47 -2 -44 -37 l30 -294 q3 -32 -18 -56 q-23 -23 -54 -23 l-174 0 l0 72 l21 0 q16 0 26 11 q12 15 9 28 l-28 263 Z" /><glyph glyph-name="cid97" unicode="&#x3001;" d="M85 -96 l-41 217 l188 0 l41 -217 l-188 0 Z" /><glyph glyph-name="cid98" unicode="&#x3002;" d="M53 90 q0 21 7.5 39 q7.5 18 21 31.5 q13.5 13.5 31.5 21.5 q18 8 38 8 l138 0 q20 0 38 -8 q18 -8 31.5 -21.5 q13.5 -13.5 21 -31.5 q7.5 -18 7.5 -39 l0 -103 q0 -42 -28.5 -70.5 q-28.5 -28.5 -69.5 -28.5 l-138 0 q-41 0 -69.5 28.5 q-28.5 28.5 -28.5 70.5 l0 103 ZM270 63 q0 17 -12 29 q-12 12 -29 12 l-29 0 q-16 0 -27.5 -12 q-11.5 -12 -11.5 -29 l0 -46 q0 -15 11.5 -26.5 q11.5 -11.5 27.5 -11.5 l29 0 q17 0 29 11.5 q12 11.5 12 26.5 l0 46 Z" /><glyph glyph-name="emdash" unicode="&#x2014;" d="M307 364 l369 0 l0 -76 l-369 0 l0 76 Z" /><glyph glyph-name="quotedblleft" unicode="&#x201c;" d="M913 930 l-90 -260 l-207 0 l90 260 l207 0 ZM643 930 l-90 -260 l-207 0 l90 260 l207 0 Z" /><glyph glyph-name="quotedblright" unicode="&#x201d;" d="M653 930 l-90 -260 l-207 0 l90 260 l207 0 ZM383 930 l-90 -260 l-207 0 l90 260 l207 0 Z" /><glyph glyph-name="cid262" unicode="&#xff01;" d="M372 119 l0 -234 l-225 0 l0 234 l225 0 ZM371 187 l-223 0 l-19 636 l261 0 l-19 -636 Z" /><glyph glyph-name="cid269" unicode="&#xff08;" d="M675 -121 q-59 215 -59 447 q0 127 18 250.5 q18 123.5 54 244.5 l223 0 q-38 -117 -59 -240.5 q-21 -123.5 -21 -254.5 q0 -229 65 -447 l-221 0 Z" /><glyph glyph-name="cid270" unicode="&#xff09;" d="M37 -121 q65 218 65 447 q0 131 -21 254.5 q-21 123.5 -59 240.5 l223 0 q36 -121 54 -244.5 q18 -123.5 18 -250.5 q0 -232 -59 -447 l-221 0 Z" /><glyph glyph-name="cid273" unicode="&#xff0c;" d="M277 149 l-48 -244 l-188 0 l47 244 l189 0 Z" /><glyph glyph-name="cid287" unicode="&#xff1a;" d="M261 229 l0 -208 l-196 0 l0 208 l196 0 ZM261 633 l0 -208 l-196 0 l0 208 l196 0 Z" /><glyph glyph-name="cid292" unicode="&#xff1f;" d="M267 -115 l0 197 l255 0 l0 -197 l-255 0 ZM402 749 q-27 0 -48 -11 q-21 -11 -35.5 -30 q-14.5 -19 -22 -43 q-7.5 -24 -7.5 -51 l0 -139 l-236 0 l0 208 q0 64 36 102.5 q36 38.5 100 38.5 l586 0 l0 -379 l-252 -304 l-264 0 l280 346 l0 262 l-137 0 Z" /><glyph glyph-name="cid957" unicode="&#x5b89;" d="M649 256 l0 94 l-304 0 l0 -94 l152 -76 l152 76 ZM28 727 l352 0 l0 95 l238 0 l0 -95 l352 0 l0 -198 l-233 0 l0 122 l-476 0 l0 -141 l-233 0 l0 217 ZM497 -19 l-197 -100 l-274 0 l0 90 l52 0 l220 110 l-184 93 l0 176 l-88 0 l0 76 l88 0 l0 61 l231 0 l0 -61 l628 0 l0 -76 l-93 0 l0 -176 l-184 -93 l220 -110 l52 0 l0 -90 l-273 0 l-198 100 Z" /><glyph glyph-name="cid961" unicode="&#x5cb8;" d="M346 345 l581 0 l0 -76 l-174 0 l0 -127 l200 0 l0 -76 l-200 0 l0 -188 l-233 0 l0 188 l-201 0 l0 76 l201 0 l0 127 l-174 0 l0 76 ZM44 470 l912 0 l0 -76 l-679 0 l0 -516 l-233 0 l0 592 ZM44 797 l233 0 l0 -205 l103 0 l0 232 l233 0 l0 -232 l66 0 q15 0 26 17 q11 17 11 33 l0 155 l232 0 l0 -186 q0 -20 -7.5 -37 q-7.5 -17 -20 -30 q-12.5 -13 -30 -20.5 q-17.5 -7.5 -37.5 -7.5 l-809 0 l0 281 Z" /><glyph glyph-name="cid963" unicode="&#x6848;" d="M616 472 l0 22 l-233 0 l0 -22 l116 -37 l117 37 ZM731 620 l0 61 l-466 0 l0 -61 l-235 0 l0 136 l350 0 l0 66 l238 0 l0 -66 l351 0 l0 -136 l-238 0 ZM621 234 l0 -56 l352 0 l0 -76 l-69 0 l69 -223 l-217 0 l-69 223 l-66 0 l0 -223 l-238 0 l0 223 l-62 0 l-72 -223 l-223 0 l72 223 l-72 0 l0 76 l357 0 l0 56 l238 0 ZM26 570 l104 0 l0 35 l253 0 l0 -35 l590 0 l0 -76 l-104 0 l0 -81 l-150 -48 l174 -55 l80 0 l0 -62 l-325 0 l-149 47 l-147 -47 l-325 0 l0 62 l80 0 l173 55 l-150 48 l0 81 l-104 0 l0 76 Z" /><glyph glyph-name="cid982" unicode="&#x2f0b;&#x516b;" d="M462 817 l-185 -940 l-237 0 l184 940 l238 0 ZM780 817 l180 -940 l-237 0 l-180 940 l237 0 Z" /><glyph glyph-name="cid985" unicode="&#x62d4;" d="M720 353 l37 -70 l63 118 l-184 0 l-10 -48 l94 0 ZM927 812 l22 -148 l-179 0 l-22 148 l179 0 ZM294 828 l0 -186 l63 0 l0 -77 l-63 0 l0 -280 l63 15 l0 -76 l-63 -15 l0 -236 q0 -20 -9 -37.5 q-9 -17.5 -24.5 -30.5 q-15.5 -13 -36 -20.5 q-20.5 -7.5 -44.5 -7.5 l-147 0 l0 77 l20 0 q14 0 24.5 8 q10.5 8 10.5 20 l0 180 l-61 -14 l0 77 l61 14 l0 326 l-61 0 l0 77 l61 0 l0 186 l206 0 ZM380 639 l111 0 l37 189 l190 0 l-37 -189 l291 0 l0 -76 l-305 0 l-17 -86 l314 0 l0 -170 l-114 -202 l119 -226 l-180 0 l-33 60 l-34 -60 l-181 0 l121 227 l-62 112 l-47 -245 l-190 0 l114 590 l-97 0 l0 76 Z" /><glyph glyph-name="cid996" unicode="&#x767e;" d="M689 200 l-379 0 l0 -237 l351 0 q12 0 20 8.5 q8 8.5 8 20.5 l0 208 ZM310 276 l379 0 l0 237 l-379 0 l0 -237 ZM26 808 l948 0 l0 -75 l-376 0 l-56 -144 l385 0 l0 -588 q0 -24 -9 -44.5 q-9 -20.5 -24.5 -36 q-15.5 -15.5 -36.5 -24.5 q-21 -9 -44 -9 l-741 0 l0 702 l232 0 l56 144 l-334 0 l0 75 Z" /><glyph glyph-name="cid1014" unicode="&#x534a;" d="M53 781 l211 0 l39 -266 l-211 0 l-39 266 ZM735 781 l211 0 l-38 -266 l-211 0 l38 266 ZM51 433 l330 0 l0 391 l238 0 l0 -391 l330 0 l0 -76 l-330 0 l0 -157 l355 0 l0 -76 l-355 0 l0 -246 l-238 0 l0 246 l-355 0 l0 76 l355 0 l0 157 l-330 0 l0 76 Z" /><glyph glyph-name="cid1015" unicode="&#x529e;" d="M834 -27 l-10 560 l138 0 l9 -560 l-137 0 ZM234 533 l-67 -560 l-138 0 l67 560 l138 0 ZM66 685 l225 0 l15 137 l200 0 l-15 -137 l295 0 l0 -691 q0 -24 -9 -44.5 q-9 -20.5 -24 -36 q-15 -15.5 -35.5 -24.5 q-20.5 -9 -44.5 -9 l-190 0 l0 76 l71 0 q11 0 20 8 q9 8 9 20 l0 625 l-101 0 l-79 -729 l-199 0 l79 729 l-217 0 l0 76 Z" /><glyph glyph-name="cid1018" unicode="&#x5e2e;" d="M42 752 l114 0 l0 71 l198 0 l0 -71 l124 0 l0 -76 l-124 0 l0 -52 l113 0 l0 -76 l-113 0 l0 -53 l136 0 l0 -76 l-156 0 l-91 -154 l-211 0 l91 154 l-92 0 l0 76 l125 0 l0 53 l-102 0 l0 76 l102 0 l0 52 l-114 0 l0 76 ZM968 801 l-34 -220 l34 0 l-40 -262 l-179 0 l32 220 l-32 0 l28 187 l-65 0 l0 -461 l-102 0 l0 -35 l322 0 l0 -195 q0 -20 -7.5 -37.5 q-7.5 -17.5 -20.5 -30 q-13 -12.5 -30.5 -20 q-17.5 -7.5 -36.5 -7.5 l-170 0 l0 76 l23 0 q11 0 19.5 8 q8.5 8 8.5 20 l0 110 l-108 0 l0 -278 l-218 0 l0 278 l-108 0 l0 -214 l-213 0 l0 290 l321 0 l0 77 l125 0 l0 494 l451 0 Z" /><glyph glyph-name="cid1036" unicode="&#x4fdd;" d="M734 740 l-166 0 l0 -212 l137 0 q11 0 20 8 q9 8 9 20 l0 184 ZM322 825 l-47 -236 l32 0 l0 -710 l-206 0 l0 501 l-74 0 l88 445 l207 0 ZM940 547 q0 -20 -7.5 -37.5 q-7.5 -17.5 -20 -30 q-12.5 -12.5 -29 -20 q-16.5 -7.5 -35.5 -7.5 l-96 0 l0 -71 l221 0 l0 -76 l-41 0 l41 -427 l-166 0 l-40 427 l-15 0 l0 -427 l-199 0 l0 427 l-15 0 l-40 -427 l-165 0 l40 427 l-40 0 l0 76 l220 0 l0 71 l-187 0 l0 365 l574 0 l0 -270 Z" /><glyph glyph-name="cid1041" unicode="&#x62a5;" d="M707 305 l66 -106 l59 131 l-219 0 l0 -25 l94 0 ZM300 827 l0 -186 l65 0 l0 -77 l-65 0 l0 -279 l65 15 l0 -77 l-65 -15 l0 -235 q0 -20 -9.5 -37.5 q-9.5 -17.5 -25 -30.5 q-15.5 -13 -37 -20.5 q-21.5 -7.5 -45.5 -7.5 l-151 0 l0 76 l21 0 q14 0 25 8.5 q11 8.5 11 20.5 l0 180 l-63 -14 l0 76 l63 14 l0 326 l-63 0 l0 77 l63 0 l0 186 l211 0 ZM970 296 l-109 -239 l112 -180 l-148 0 l-27 44 l-20 -44 l-151 0 l83 184 l-97 158 l0 -342 l-211 0 l0 932 l565 0 l0 -274 q0 -20 -8 -37 q-8 -17 -21.5 -30.5 q-13.5 -13.5 -31.5 -21 q-18 -7.5 -39 -7.5 l-170 0 l0 77 l35 0 q13 0 22 8.5 q9 8.5 9 20.5 l0 186 l-150 0 l0 -324 l357 0 l0 -111 Z" /><glyph glyph-name="cid1050" unicode="&#x5317;" d="M26 102 l185 56 l0 382 l-185 0 l0 76 l185 0 l0 206 l227 0 l0 -946 l-227 0 l0 201 l-185 -56 l0 81 ZM780 822 l0 -231 l193 58 l0 -81 l-193 -58 l0 -553 l193 0 l0 -76 l-420 0 l0 941 l227 0 Z" /><glyph glyph-name="cid1051" unicode="&#x8f88;" d="M59 638 l179 0 l0 62 l-198 0 l0 76 l198 0 l0 48 l220 0 l0 -447 l-220 0 l0 47 l-211 0 l0 76 l211 0 l0 62 l-179 0 l0 76 ZM973 424 l-211 0 l0 -47 l-221 0 l0 447 l221 0 l0 -48 l198 0 l0 -76 l-198 0 l0 -62 l179 0 l0 -76 l-179 0 l0 -62 l211 0 l0 -76 ZM406 308 l556 0 l0 -76 l-589 0 l-36 -86 l59 0 l0 57 l237 0 l0 -57 l303 0 l0 -76 l-303 0 l0 -45 l340 0 l0 -76 l-340 0 l0 -69 l-237 0 l0 69 l-369 0 l0 76 l369 0 l0 45 l-331 0 l70 162 l-97 0 l0 76 l130 0 l18 40 l237 0 l-17 -40 Z" /><glyph glyph-name="cid1057" unicode="&#x5907;" d="M62 -115 l0 426 l883 0 l0 -332 q0 -40 -27.5 -67 q-27.5 -27 -66.5 -27 l-789 0 ZM499 424 l-186 -80 l-286 0 l0 79 l57 0 l211 89 l-138 60 l-128 0 l100 251 l214 0 l-17 -42 l612 0 l0 -167 l-235 -101 l212 -90 l57 0 l0 -79 l-286 0 l-187 80 ZM296 705 l-7 -16 l210 -90 l248 106 l-451 0 ZM298 135 l86 0 l0 100 l-86 0 l0 -100 ZM298 -40 l86 0 l0 99 l-86 0 l0 -99 ZM622 235 l0 -100 l84 0 l0 100 l-84 0 ZM678 -40 q12 0 20 8.5 q8 8.5 8 19.5 l0 71 l-84 0 l0 -99 l56 0 Z" /><glyph glyph-name="cid1063" unicode="&#x672c;" d="M281 80 l96 0 l0 468 l-36 0 l-60 -468 ZM620 80 l100 0 l-59 468 l-41 0 l0 -468 ZM620 822 l0 -198 l353 0 l0 -76 l-84 0 l80 -641 l-227 0 l-13 97 l-109 0 l0 -126 l-243 0 l0 126 l-105 0 l-12 -97 l-227 0 l80 641 l-87 0 l0 76 l351 0 l0 198 l243 0 Z" /><glyph glyph-name="cid1073" unicode="&#x2f50;&#x6bd4;" d="M281 818 l0 -277 l184 0 l0 -76 l-184 0 l0 -505 l184 0 l0 -76 l-421 0 l0 934 l237 0 ZM771 818 l0 -287 l185 61 l0 -82 l-185 -61 l0 -489 l185 0 l0 -76 l-422 0 l0 934 l237 0 Z" /><glyph glyph-name="cid1089" unicode="&#x5fc5;" d="M720 825 l25 -312 l-202 0 l-25 312 l202 0 ZM244 614 l-30 -447 l-181 0 l29 447 l182 0 ZM937 340 l36 -423 l-194 0 l-36 423 l194 0 ZM498 722 l0 -388 l473 318 l0 -138 l-473 -318 l0 -243 l251 0 l0 -75 l-482 0 l0 163 l-241 -161 l0 138 l241 161 l0 543 l231 0 Z" /><glyph glyph-name="cid1096" unicode="&#x8fb9;" d="M307 822 l14 -176 l-237 0 l-14 176 l237 0 ZM26 593 l328 0 l-76 -281 l77 0 l-64 -354 l683 0 l0 -76 l-929 0 l64 320 l-74 0 l74 308 l-83 0 l0 83 ZM699 821 l-21 -174 l287 0 l0 -555 q0 -40 -27.5 -67.5 q-27.5 -27.5 -67.5 -27.5 l-205 0 l0 76 l44 0 q11 0 19.5 8.5 q8.5 8.5 8.5 19.5 l0 469 l-69 0 l-69 -573 l-227 0 l69 573 l-69 0 l0 77 l78 0 l21 174 l228 0 Z" /><glyph glyph-name="cid1107" unicode="&#x6807;" d="M450 801 l499 0 l0 -77 l-499 0 l0 77 ZM27 -123 l12 694 l85 0 l-14 -694 l-83 0 ZM400 571 l13 -694 l-85 0 l-12 694 l84 0 ZM838 -109 l-25 462 l133 0 l26 -462 l-134 0 ZM427 -109 l26 462 l134 0 l-25 -462 l-135 0 ZM427 519 l545 0 l0 -77 l-179 0 l0 -470 q0 -40 -26 -68 q-26 -28 -63 -28 l-131 0 l0 77 l7 0 q11 0 18.5 8 q7.5 8 7.5 20 l0 461 l-179 0 l0 77 ZM27 706 l107 0 l0 122 l171 0 l0 -122 l108 0 l0 -77 l-108 0 l0 -752 l-171 0 l0 752 l-107 0 l0 77 Z" /><glyph glyph-name="cid1110" unicode="&#x8868;" d="M62 761 l319 0 l0 64 l238 0 l0 -64 l319 0 l0 -76 l-319 0 l0 -90 l284 0 l0 -75 l-284 0 l0 -91 l355 0 l0 -75 l-219 0 l62 -131 l157 79 l0 -135 l-105 -52 l105 -220 l-232 0 l-220 459 l-49 0 l-50 -91 l112 0 l0 -306 l111 0 l0 -76 l-328 0 l0 192 l-56 -101 l-237 0 l210 382 l-210 0 l0 75 l356 0 l0 91 l-284 0 l0 75 l284 0 l0 90 l-319 0 l0 76 Z" /><glyph glyph-name="cid1113" unicode="&#x522b;" d="M344 730 l-110 0 l0 -232 l84 0 q11 0 18.5 9 q7.5 9 7.5 20 l0 203 ZM575 19 l0 720 l168 0 l0 -720 l-168 0 ZM780 825 l187 0 l0 -855 q0 -20 -7.5 -37 q-7.5 -17 -20 -29.5 q-12.5 -12.5 -30 -20 q-17.5 -7.5 -37.5 -7.5 l-183 0 l0 75 l63 0 q12 0 20 8.5 q8 8.5 8 20.5 l0 845 ZM537 517 q0 -20 -7 -37 q-7 -17 -19 -30 q-12 -13 -28.5 -20.5 q-16.5 -7.5 -35.5 -7.5 l-405 0 l0 384 l495 0 l0 -289 ZM338 241 l-63 0 l-46 -364 l-197 0 l46 364 l-46 0 l0 76 l55 0 l10 77 l198 0 l-10 -77 l248 0 l0 -345 q0 -20 -7.5 -37 q-7.5 -17 -20 -30 q-12.5 -13 -29.5 -20.5 q-17 -7.5 -36 -7.5 l-170 0 l0 76 l39 0 q12 0 20.5 8 q8.5 8 8.5 20 l0 260 Z" /><glyph glyph-name="cid1119" unicode="&#x5bbe;" d="M340 168 l249 0 l0 166 l-249 0 l0 -166 ZM49 -123 l99 184 l223 0 l-95 -184 l-227 0 ZM852 61 l94 -184 l-222 0 l-100 184 l228 0 ZM244 574 l515 0 l0 89 l-515 0 l0 -89 ZM27 739 l354 0 l0 84 l237 0 l0 -84 l355 0 l0 -184 l-99 0 l0 -57 l-534 0 l0 -88 l615 0 l0 -76 l-142 0 l0 -166 l156 0 l0 -76 l-943 0 l0 76 l91 0 l0 387 l-90 0 l0 184 Z" /><glyph glyph-name="cid1129" unicode="&#x5e76;" d="M893 821 l-41 -157 l-241 0 l40 157 l242 0 ZM349 821 l40 -157 l-242 0 l-40 157 l242 0 ZM402 254 l200 0 l0 303 l-200 0 l0 -303 ZM45 633 l910 0 l0 -76 l-116 0 l0 -303 l134 0 l0 -76 l-134 0 l0 -302 l-237 0 l0 302 l-205 0 l-76 -302 l-237 0 l76 302 l-133 0 l0 76 l138 0 l0 303 l-120 0 l0 76 Z" /><glyph glyph-name="cid1135" unicode="&#x6ce2;" d="M511 414 l50 0 l0 243 l-50 0 l0 -243 ZM511 191 l0 -289 l100 162 l-100 127 ZM631 299 l69 -90 l80 130 l-269 0 l0 -40 l120 0 ZM227 574 l48 -207 l-194 0 l-47 207 l193 0 ZM227 822 l46 -207 l-194 0 l-45 207 l193 0 ZM275 320 l-48 -443 l-193 0 l47 443 l194 0 ZM315 733 l246 0 l0 94 l203 0 l0 -94 l206 0 l0 -255 l-165 0 l0 179 l-41 0 l0 -243 l191 0 l0 -112 l-148 -232 l151 -194 l-198 0 l-43 54 l-34 -54 l-368 0 l0 857 Z" /><glyph glyph-name="cid1154" unicode="&#x4e0d;" d="M26 802 l948 0 l0 -76 l-429 0 l-46 -115 l120 0 l0 -82 l142 0 l213 -525 l-232 0 l-123 304 l0 -432 l-238 0 l0 437 l-123 -309 l-232 0 l288 722 l-288 0 l0 76 Z" /><glyph glyph-name="cid1156" unicode="&#x6b65;" d="M97 309 l223 0 l-39 -285 l-224 0 l40 285 ZM386 351 l232 0 l0 -314 l-232 0 l0 314 ZM26 -39 l605 0 q22 0 28 22 l76 317 l231 0 l-70 -325 q-8 -40 -39 -65 q-31 -25 -72 -25 l-759 0 l0 76 ZM26 472 l66 0 l0 250 l238 0 l0 -250 l104 0 l0 350 l238 0 l0 -132 l237 0 l0 -76 l-237 0 l0 -142 l301 0 l0 -76 l-947 0 l0 76 Z" /><glyph glyph-name="cid1158" unicode="&#x90e8;" d="M352 219 l-106 0 l0 -263 l79 0 q11 0 19 8 q8 8 8 20 l0 235 ZM37 735 l145 0 l0 90 l235 0 l0 -90 l144 0 l0 -75 l-524 0 l0 75 ZM27 422 l49 0 l-25 189 l192 0 l26 -189 l60 0 l27 189 l192 0 l-26 -189 l49 0 l0 -76 l-544 0 l0 76 ZM49 294 l501 0 l0 -300 q0 -24 -9 -44.5 q-9 -20.5 -24.5 -36 q-15.5 -15.5 -36 -24.5 q-20.5 -9 -43.5 -9 l-388 0 l0 414 ZM972 809 l-21 -397 l15 0 l-23 -449 l-158 0 l22 427 l-15 0 l18 343 l-50 0 l0 -857 l-164 0 l0 933 l376 0 Z" /><glyph glyph-name="cid1164" unicode="&#x624d;" d="M813 824 l0 -177 l158 0 l0 -76 l-158 0 l0 -596 q0 -19 -7.5 -36 q-7.5 -17 -20 -30 q-12.5 -13 -30 -20.5 q-17.5 -7.5 -37.5 -7.5 l-239 0 l0 75 l69 0 q13 0 21 8.5 q8 8.5 8 19.5 l0 587 l-111 0 l-160 -685 l-227 0 l160 685 l-211 0 l0 76 l549 0 l0 177 l236 0 Z" /><glyph glyph-name="cid1165" unicode="&#x8d22;" d="M328 220 l17 -39 l0 523 l-181 0 l0 -531 l21 47 l0 437 l143 0 l0 -437 ZM937 825 l0 -129 l35 0 l0 -76 l-35 0 l0 -649 q0 -20 -7 -37 q-7 -17 -18.5 -30 q-11.5 -13 -27.5 -20.5 q-16 -7.5 -34 -7.5 l-127 0 l0 76 l9 0 q11 0 18.5 8 q7.5 8 7.5 20 l0 640 l-29 0 l-70 -744 l-163 0 l71 744 l-51 0 l0 76 l242 0 l0 129 l179 0 ZM32 780 l446 0 l0 -646 l-113 0 l113 -259 l-162 0 l-60 147 l-63 -147 l-165 0 l118 259 l-114 0 l0 646 Z" /><glyph glyph-name="cid1168" unicode="&#x91c7;" d="M271 683 l46 -251 l-232 0 l-46 251 l232 0 ZM683 432 l46 251 l232 0 l-46 -251 l-232 0 ZM593 683 l46 -251 l-232 0 l-46 251 l232 0 ZM30 806 l940 0 l0 -76 l-940 0 l0 76 ZM27 344 l354 0 l0 68 l238 0 l0 -68 l354 0 l0 -76 l-82 0 l82 -392 l-228 0 l-82 392 l-44 0 l0 -392 l-238 0 l0 392 l-45 0 l-81 -392 l-228 0 l81 392 l-81 0 l0 76 Z" /><glyph glyph-name="cid1169" unicode="&#x5f69;" d="M235 440 l-14 263 l156 0 l16 -263 l-158 0 ZM417 440 l16 263 l156 0 l-14 -263 l-158 0 ZM46 440 l-14 263 l157 0 l14 -263 l-157 0 ZM26 813 l566 0 l0 -76 l-566 0 l0 76 ZM26 -124 l23 382 l151 0 l-22 -382 l-152 0 ZM441 -124 l-20 382 l152 0 l19 -382 l-151 0 ZM764 499 l210 0 l-113 -234 q-12 -25 -34.5 -39 q-22.5 -14 -51.5 -14 l-165 0 l0 76 l34 0 q18 0 26 16 l94 195 ZM764 819 l210 0 l-113 -234 q-12 -26 -34.5 -40 q-22.5 -14 -51.5 -14 l-165 0 l0 76 l34 0 q9 0 15.5 4.5 q6.5 4.5 10.5 11.5 l94 196 ZM764 164 l210 0 l-113 -235 q-12 -25 -34.5 -39 q-22.5 -14 -51.5 -14 l-165 0 l0 76 l34 0 q18 0 26 16 l94 196 ZM26 372 l186 0 l0 46 l195 0 l0 -46 l185 0 l0 -77 l-185 0 l0 -419 l-195 0 l0 419 l-186 0 l0 77 Z" /><glyph glyph-name="cid1184" unicode="&#x64cd;" d="M542 467 l-70 0 l0 -89 l41 0 q12 0 20.5 8 q8.5 8 8.5 20 l0 61 ZM862 467 l-70 0 l0 -89 l41 0 q13 0 21 8 q8 8 8 20 l0 61 ZM740 741 l-146 0 l0 -99 l117 0 q13 0 21 8.5 q8 8.5 8 20.5 l0 70 ZM679 301 l0 242 l296 0 l0 -175 q0 -29 -19 -48 q-19 -19 -47 -19 l-230 0 ZM358 301 l0 242 l297 0 l0 -175 q0 -29 -19.5 -48 q-19.5 -19 -46.5 -19 l-231 0 ZM392 566 l0 250 l550 0 l0 -154 q0 -20 -7.5 -37.5 q-7.5 -17.5 -20.5 -30.5 q-13 -13 -30.5 -20.5 q-17.5 -7.5 -36.5 -7.5 l-455 0 ZM359 226 l209 0 l0 56 l197 0 l0 -56 l209 0 l0 -76 l-29 0 l29 -274 l-164 0 l-30 274 l-15 0 l0 -274 l-197 0 l0 274 l-15 0 l-29 -274 l-165 0 l29 274 l-29 0 l0 76 ZM280 827 l0 -186 l59 0 l0 -77 l-59 0 l0 -279 l59 15 l0 -77 l-59 -14 l0 -236 q0 -20 -8.5 -37.5 q-8.5 -17.5 -23.5 -30.5 q-15 -13 -35 -20.5 q-20 -7.5 -42 -7.5 l-139 0 l0 76 l20 0 q13 0 22.5 8.5 q9.5 8.5 9.5 20.5 l0 179 l-57 -13 l0 76 l57 14 l0 326 l-57 0 l0 77 l57 0 l0 186 l196 0 Z" /><glyph glyph-name="cid1189" unicode="&#x5395;" d="M674 649 l115 0 l0 -678 l-115 0 l0 678 ZM815 677 l140 0 l0 -740 q0 -23 -17 -40 q-17 -17 -40 -17 l-153 0 l0 57 l47 0 q23 0 23 23 l0 717 ZM265 677 l384 0 l0 -561 l-102 0 l0 499 l-180 0 l0 -499 l-102 0 l0 561 ZM388 569 l139 0 l0 -427 l137 -267 l-155 0 l-52 102 l-51 -102 l-156 0 l138 267 l0 427 ZM37 798 l926 0 l0 -76 l-726 0 l0 -847 l-200 0 l0 923 Z" /><glyph glyph-name="cid1222" unicode="&#x573a;" d="M300 825 l0 -194 l65 0 l0 -74 l-65 0 l0 -559 l65 9 l0 -76 l-335 -47 l0 76 l65 9 l0 588 l-65 0 l0 74 l65 0 l0 194 l205 0 ZM706 495 l264 0 l0 -524 q0 -20 -7.5 -37 q-7.5 -17 -20.5 -30 q-13 -13 -30.5 -20.5 q-17.5 -7.5 -36.5 -7.5 l-142 0 l0 76 l24 0 q12 0 20.5 8 q8.5 8 8.5 20 l0 439 l-10 0 l-75 -543 l-142 0 l75 543 l-25 0 l-75 -543 l-142 0 l75 543 l-63 0 l246 322 l-244 0 l0 76 l541 0 l-241 -322 Z" /><glyph glyph-name="cid1224" unicode="&#x5e38;" d="M262 527 l476 0 l0 59 l-476 0 l0 -59 ZM341 451 l0 -111 l280 0 q16 0 27 11.5 q11 11.5 11 26.5 l0 73 l-318 0 ZM712 126 l-93 0 l0 -250 l-238 0 l0 250 l-94 0 l0 -210 l-224 0 l0 286 l318 0 l0 62 l-261 0 l0 207 l-91 0 l0 186 l60 0 l-40 133 l232 0 l41 -133 l61 0 l0 167 l233 0 l0 -167 l61 0 l41 133 l233 0 l-41 -133 l60 0 l0 -186 l-90 0 l0 -112 q0 -20 -7.5 -37 q-7.5 -17 -20.5 -30 q-13 -13 -30.5 -20.5 q-17.5 -7.5 -36.5 -7.5 l-166 0 l0 -62 l318 0 l0 -191 q0 -20 -7.5 -37 q-7.5 -17 -20.5 -30 q-13 -13 -30.5 -20.5 q-17.5 -7.5 -36.5 -7.5 l-181 0 l0 76 l23 0 q11 0 19.5 8 q8.5 8 8.5 20 l0 106 Z" /><glyph glyph-name="cid1225" unicode="&#x957f;" d="M895 816 l-150 -354 l-228 0 l150 354 l228 0 ZM417 408 l556 0 l0 -76 l-192 0 l192 -454 l-237 0 l-192 454 l-127 0 l0 -378 l141 0 l0 -76 l-378 0 l0 454 l-153 0 l0 76 l153 0 l0 413 l237 0 l0 -413 Z" /><glyph glyph-name="cid1230" unicode="&#x7545;" d="M332 79 l0 -202 l-141 0 l0 202 l-160 0 l0 623 l160 0 l0 123 l141 0 l0 -123 l161 0 l0 -527 q0 -39 -21 -67.5 q-21 -28.5 -51 -28.5 l-89 0 ZM752 492 l215 0 l0 -522 q0 -19 -6 -36 q-6 -17 -16.5 -30 q-10.5 -13 -24.5 -20.5 q-14 -7.5 -30 -7.5 l-116 0 l0 76 l19 0 q10 0 17 7.5 q7 7.5 7 20.5 l0 437 l-7 0 l-62 -541 l-117 0 l62 541 l-20 0 l-63 -541 l-117 0 l63 541 l-52 0 l201 319 l-199 0 l0 76 l443 0 l-197 -320 ZM332 626 l0 -199 l31 0 l0 199 l-31 0 ZM161 427 l30 0 l0 199 l-30 0 l0 -199 ZM341 156 q10 0 16 9 q6 9 6 20 l0 166 l-31 0 l0 -195 l9 0 ZM161 156 l30 0 l0 195 l-30 0 l0 -195 Z" /><glyph glyph-name="cid1233" unicode="&#x8d85;" d="M778 282 l-116 0 l0 -219 l88 0 q11 0 19.5 8 q8.5 8 8.5 21 l0 190 ZM477 802 l487 0 l0 -291 q0 -24 -9 -44.5 q-9 -20.5 -24.5 -36 q-15.5 -15.5 -36.5 -24.5 q-21 -9 -44 -9 l-130 0 l0 76 l21 0 q11 0 19.5 8.5 q8.5 8.5 8.5 19.5 l0 225 l-56 0 l-33 -329 l-193 0 l33 329 l-43 0 l0 76 ZM477 358 l487 0 l0 -257 q0 -24 -9 -44.5 q-9 -20.5 -24.5 -36 q-15.5 -15.5 -36.5 -24.5 q-21 -9 -44 -9 l-373 0 l0 371 ZM39 687 l89 0 l0 135 l218 0 l0 -135 l88 0 l0 -76 l-88 0 l0 -165 l99 0 l0 -76 l-58 0 l0 -147 l54 0 l0 -76 l-54 0 l0 -154 l66 -35 l520 0 l0 -76 l-621 0 l-195 88 l-3 -92 l-127 0 l12 416 l128 0 l-6 -184 l30 -15 l0 275 l-162 0 l0 76 l99 0 l0 165 l-89 0 l0 76 Z" /><glyph glyph-name="cid1242" unicode="&#x8f66;" d="M430 686 l534 0 l0 -76 l-558 0 l-85 -275 l103 0 l0 204 l237 0 l0 -204 l294 0 l0 -76 l-294 0 l0 -140 l313 0 l0 -76 l-313 0 l0 -166 l-237 0 l0 166 l-398 0 l0 76 l398 0 l0 140 l-365 0 l103 351 l-126 0 l0 76 l149 0 l40 135 l247 0 l-42 -135 Z" /><glyph glyph-name="cid1262" unicode="&#x6210;" d="M929 814 l36 -124 l-207 0 l-34 124 l205 0 ZM743 585 l46 -175 l26 47 l153 0 l0 -76 l-40 0 l-86 -169 l69 -261 l57 0 l0 -76 l-257 0 l-14 55 l-28 -55 l-168 0 l141 262 l-117 448 l-282 0 l0 -154 l276 0 l0 -458 q0 -20 -7.5 -37 q-7.5 -17 -20.5 -30 q-13 -13 -30.5 -20.5 q-17.5 -7.5 -36.5 -7.5 l-146 0 l0 76 l16 0 q11 0 19.5 8.5 q8.5 8.5 8.5 19.5 l0 373 l-79 0 l0 -477 l-211 0 l0 782 l474 0 l-43 165 l217 0 l43 -165 l245 0 l0 -75 l-225 0 Z" /><glyph glyph-name="cid1264" unicode="&#x4e58;" d="M826 140 l123 -265 l-195 0 l-119 265 l191 0 ZM363 140 l-119 -265 l-195 0 l123 265 l191 0 ZM26 477 l146 0 l0 72 l167 0 l0 -375 l-167 0 l0 79 l-146 -43 l0 76 l146 42 l0 73 l-146 0 l0 76 ZM827 549 l0 -73 l145 27 l0 -76 l-145 -27 l0 -150 l145 0 l0 -76 l-313 0 l0 375 l168 0 ZM80 806 l839 0 l0 -76 l-309 0 l0 -71 l363 0 l0 -76 l-363 0 l0 -708 l-222 0 l0 708 l-362 0 l0 76 l362 0 l0 71 l-308 0 l0 76 Z" /><glyph glyph-name="cid1265" unicode="&#x7a0b;" d="M774 730 l-122 0 l0 -185 l98 0 q10 0 17 9 q7 9 7 21 l0 155 ZM420 500 l10 -622 l-86 0 l-11 622 l87 0 ZM124 500 l-11 -622 l-86 0 l10 622 l87 0 ZM961 565 q0 -40 -22.5 -68.5 q-22.5 -28.5 -54.5 -28.5 l-418 0 l0 339 l495 0 l0 -242 ZM462 418 l503 0 l0 -77 l-151 0 l0 -152 l140 0 l0 -78 l-140 0 l0 -152 l160 0 l0 -78 l-522 0 l0 78 l161 0 l0 152 l-141 0 l0 78 l141 0 l0 152 l-151 0 l0 77 ZM32 808 l393 0 l0 -76 l-110 0 l0 -92 l115 0 l0 -76 l-115 0 l0 -686 l-172 0 l0 686 l-116 0 l0 76 l116 0 l0 92 l-111 0 l0 76 Z" /><glyph glyph-name="cid1275" unicode="&#x6301;" d="M586 178 l37 -246 l-174 0 l-38 246 l175 0 ZM301 827 l0 -186 l65 0 l0 -77 l-65 0 l0 -279 l65 15 l0 -77 l-65 -15 l0 -235 q0 -20 -9.5 -37.5 q-9.5 -17.5 -25 -30.5 q-15.5 -13 -37 -20.5 q-21.5 -7.5 -45.5 -7.5 l-150 0 l0 76 l20 0 q14 0 25 8.5 q11 8.5 11 20.5 l0 180 l-62 -14 l0 76 l62 14 l0 326 l-62 0 l0 77 l62 0 l0 186 l211 0 ZM785 828 l0 -127 l172 0 l0 -76 l-172 0 l0 -149 l187 0 l0 -77 l-46 0 l0 -98 l34 0 l0 -77 l-34 0 l0 -250 q0 -20 -7.5 -37.5 q-7.5 -17.5 -20 -30.5 q-12.5 -13 -30 -20.5 q-17.5 -7.5 -36.5 -7.5 l-183 0 l0 77 l35 0 q11 0 19.5 8.5 q8.5 8.5 8.5 19.5 l0 241 l-320 0 l0 77 l320 0 l0 98 l-329 0 l0 77 l188 0 l0 149 l-173 0 l0 76 l173 0 l0 127 l214 0 Z" /><glyph glyph-name="cid1277" unicode="&#x6c60;" d="M221 828 l44 -208 l-190 0 l-45 208 l191 0 ZM221 578 l46 -208 l-191 0 l-46 208 l191 0 ZM267 323 l-46 -446 l-191 0 l46 446 l191 0 ZM760 82 l0 66 l31 0 l0 454 l-41 -14 l0 -560 l-182 0 l0 501 l-45 -15 l0 -557 l452 0 l0 -76 l-642 0 l0 571 l-42 -14 l0 109 l42 14 l0 177 l190 0 l0 -115 l45 15 l0 190 l182 0 l0 -130 l216 72 l0 -594 q0 -51 -24.5 -72.5 q-24.5 -21.5 -72.5 -21.5 l-109 0 Z" /><glyph glyph-name="cid1289" unicode="&#x5145;" d="M25 729 l355 0 l0 95 l238 0 l0 -95 l356 0 l0 -76 l-553 0 l-92 -278 l353 0 q15 0 24 12 q9 12 4 26 l-49 145 l233 0 l45 -135 q7 -23 3 -45 q-4 -22 -16.5 -39.5 q-12.5 -17.5 -32.5 -28.5 q-20 -11 -44 -11 l-38 0 l0 -347 l158 0 l0 -76 l-396 0 l0 423 l-139 0 l-149 -423 l-237 0 l149 423 l-142 0 l127 354 l-157 0 l0 76 Z" /><glyph glyph-name="cid1292" unicode="&#x5d07;" d="M288 82 l-43 -198 l-209 0 l44 198 l208 0 ZM755 -116 l-44 198 l209 0 l44 -198 l-209 0 ZM76 320 l848 0 l0 -76 l-848 0 l0 76 ZM616 564 l0 -59 l349 0 l0 -149 l-232 0 l0 78 l-466 0 l0 -78 l-233 0 l0 149 l349 0 l0 59 l233 0 ZM27 185 l946 0 l0 -76 l-358 0 l0 -156 q0 -32 -21.5 -54 q-21.5 -22 -53.5 -22 l-221 0 l0 76 l45 0 q19 0 19 19 l0 137 l-356 0 l0 76 ZM53 799 l232 0 l0 -134 l98 0 l0 159 l233 0 l0 -159 l61 0 q16 0 27 11.5 q11 11.5 11 26.5 l0 96 l232 0 l0 -115 q0 -20 -7.5 -37 q-7.5 -17 -20 -30 q-12.5 -13 -30 -20.5 q-17.5 -7.5 -37.5 -7.5 l-799 0 l0 210 Z" /><glyph glyph-name="cid1307" unicode="&#x51fa;" d="M271 771 l0 -314 l110 0 l0 366 l237 0 l0 -366 l81 0 q13 0 21 8.5 q8 8.5 8 19.5 l0 286 l218 0 l0 -295 q0 -40 -27.5 -67.5 q-27.5 -27.5 -67.5 -27.5 l-233 0 l0 -414 l99 0 q11 0 19.5 8 q8.5 8 8.5 20 l0 299 l218 0 l0 -308 q0 -20 -7.5 -37.5 q-7.5 -17.5 -20.5 -30 q-13 -12.5 -30.5 -20 q-17.5 -7.5 -36.5 -7.5 l-832 0 l0 403 l218 0 l0 -327 l127 0 l0 414 l-328 0 l0 390 l218 0 Z" /><glyph glyph-name="cid1314" unicode="&#x9664;" d="M565 185 l-23 -293 l-119 0 l23 293 l119 0 ZM953 185 l22 -293 l-123 0 l-23 293 l124 0 ZM621 535 l-196 0 l155 290 l237 0 l157 -290 l-195 0 l-80 143 l-78 -143 ZM455 505 l489 0 l0 -76 l-139 0 l0 -135 l170 0 l0 -76 l-170 0 l0 -246 q0 -20 -7.5 -37.5 q-7.5 -17.5 -21 -30.5 q-13.5 -13 -31 -20.5 q-17.5 -7.5 -37.5 -7.5 l-148 0 l0 71 l11 0 q13 0 20 7.5 q7 7.5 7 19.5 l0 244 l-175 0 l0 76 l175 0 l0 135 l-143 0 l0 76 ZM206 747 l0 -871 l-171 0 l0 949 l386 0 q-2 -22 -5 -62 q-3 -40 -6.5 -88 q-3.5 -48 -7.5 -99 q-4 -51 -7 -95 l21 0 q-2 -30 -4 -71.5 q-2 -41.5 -4.5 -87.5 q-2.5 -46 -5 -94 q-2.5 -48 -5 -91 q-2.5 -43 -4.5 -78 q-2 -35 -3 -55 l-163 0 l19 392 l-22 0 l24 351 l-42 0 Z" /><glyph glyph-name="cid1320" unicode="&#x89e6;" d="M311 137 l28 0 l0 129 l-28 0 l0 -129 ZM162 137 l29 0 l0 129 l-29 0 l0 -129 ZM311 480 l0 -138 l28 0 l0 138 l-28 0 ZM162 342 l29 0 l0 138 l-29 0 l0 -138 ZM640 274 l21 0 l0 338 l-21 0 l0 -338 ZM833 612 l-22 0 l0 -338 q9 0 15.5 8.5 q6.5 8.5 6.5 20.5 l0 309 ZM971 293 q0 -20 -6 -37.5 q-6 -17.5 -16.5 -30 q-10.5 -12.5 -25 -20 q-14.5 -7.5 -30.5 -7.5 l-82 0 l0 -242 q9 0 16 8.5 q7 8.5 7 19.5 l0 97 l138 0 l0 -106 q0 -20 -6 -37.5 q-6 -17.5 -16.5 -30.5 q-10.5 -13 -25 -20.5 q-14.5 -7.5 -30.5 -7.5 l-393 0 l0 77 l160 0 l0 242 l-159 0 l0 490 l159 0 l0 139 l150 0 l0 -139 l160 0 l0 -395 ZM339 61 l-28 0 l0 -184 l-120 0 l0 184 l-29 0 l0 -184 l-129 0 l0 674 l217 0 l31 124 l-57 0 l-20 -86 l-176 0 l54 234 l176 0 l-17 -72 l220 0 l-50 -200 l59 0 l0 -608 q0 -27 -20 -46.5 q-20 -19.5 -47 -19.5 l-82 0 l0 71 l1 0 q8 0 12.5 5 q4.5 5 4.5 12 l0 96 Z" /><glyph glyph-name="cid1321" unicode="&#x5904;" d="M291 628 l-27 -98 l44 -65 l60 163 l-77 0 ZM947 714 l24 -557 l-119 0 l-23 557 l118 0 ZM803 823 l0 -766 l-176 0 l0 766 l176 0 ZM28 -23 l102 0 l91 250 l-109 161 l-84 0 l121 435 l197 0 l-34 -119 l292 0 l-155 -446 l193 -281 l330 0 l0 -92 l-520 0 l-87 129 l-45 -129 l-292 0 l0 92 Z" /><glyph glyph-name="cid1324" unicode="&#x7a7f;" d="M848 587 l110 -163 l-238 0 l-110 163 l238 0 ZM386 587 l-110 -163 l-238 0 l110 163 l238 0 ZM28 607 l0 160 l351 0 l0 55 l238 0 l0 -55 l351 0 l0 -160 l-237 0 l0 84 l-466 0 l0 -84 l-237 0 ZM32 -120 l177 239 l-178 0 l19 170 l240 0 l-11 -94 l336 0 l0 127 l-584 0 l0 76 l926 0 l0 -76 l-105 0 l0 -127 l119 0 l0 -76 l-119 0 l0 -145 q0 -20 -7.5 -37 q-7.5 -17 -20 -29.5 q-12.5 -12.5 -30 -20 q-17.5 -7.5 -37.5 -7.5 l-235 0 l0 76 l64 0 q13 0 21 8 q8 8 8 19 l0 136 l-127 0 l-177 -239 l-279 0 Z" /><glyph glyph-name="cid1326" unicode="&#x4f20;" d="M362 837 l-53 -240 l36 0 l0 -718 l-235 0 l0 507 l-84 0 l101 451 l235 0 ZM839 829 l-33 -117 l140 0 l0 -76 l-161 0 l-48 -173 l237 0 l0 -77 l-258 0 l-33 -119 l263 0 l-128 -310 l96 0 l0 -77 l-471 0 l0 77 l133 0 l103 234 l-252 0 l52 195 l-96 0 l0 77 l117 0 l46 173 l-135 0 l0 76 l156 0 l31 117 l241 0 Z" /><glyph glyph-name="cid1331" unicode="&#x7a97;" d="M462 191 l17 -14 l54 56 l-73 0 l-29 -42 l31 0 ZM857 596 l110 -128 l-247 0 l-110 128 l247 0 ZM392 596 l-111 -128 l-248 0 l110 128 l249 0 ZM541 -28 l-32 28 l-26 -28 l-202 0 l117 121 l-76 65 l-57 0 l0 -200 l437 0 q12 0 20.5 8 q8.5 8 8.5 20 l0 374 l-466 0 l0 -152 l92 131 l177 0 l-27 -39 l200 0 l0 -92 l-118 -124 l135 -112 l-183 0 ZM30 619 l0 147 l351 0 l0 56 l238 0 l0 -56 l351 0 l0 -147 l-237 0 l0 72 l-466 0 l0 -72 l-237 0 ZM62 436 l252 0 l47 78 l238 0 l-44 -78 l383 0 l0 -459 q0 -20 -7.5 -37.5 q-7.5 -17.5 -20.5 -30 q-13 -12.5 -30.5 -20 q-17.5 -7.5 -36.5 -7.5 l-781 0 l0 554 Z" /><glyph glyph-name="cid1335" unicode="&#x521b;" d="M599 21 l0 718 l159 0 l0 -718 l-159 0 ZM301 624 l-67 -188 l-205 0 l145 387 l256 0 l145 -387 l-204 0 l-70 188 ZM794 825 l177 0 l0 -853 q0 -20 -7 -37 q-7 -17 -19.5 -29.5 q-12.5 -12.5 -29 -20 q-16.5 -7.5 -34.5 -7.5 l-174 0 l0 75 l59 0 q11 0 19.5 8.5 q8.5 8.5 8.5 19.5 l0 844 ZM257 327 l0 -375 l316 0 l0 -75 l-514 0 l0 526 l482 0 l0 -303 q0 -32 -21.5 -54 q-21.5 -22 -52.5 -22 l-169 0 l0 76 l30 0 q8 0 13.5 6 q5.5 6 5.5 14 l0 207 l-90 0 Z" /><glyph glyph-name="cid1341" unicode="&#x6625;" d="M636 824 l-45 -83 l346 0 l0 -76 l-387 0 l-43 -79 l420 0 l0 -76 l-462 0 l-35 -65 l543 0 l0 -76 l-104 0 l104 -191 l-108 0 l0 -200 q0 -20 -7.5 -37 q-7.5 -17 -20 -30 q-12.5 -13 -29.5 -20.5 q-17 -7.5 -36 -7.5 l-638 0 l0 295 l-104 0 l103 191 l-107 0 l0 76 l148 0 l35 65 l-139 0 l0 76 l181 0 l43 79 l-232 0 l0 76 l273 0 l45 83 l256 0 ZM329 257 l345 0 l-61 112 l-224 0 l-60 -112 ZM370 108 l256 0 l0 73 l-256 0 l0 -73 ZM598 -41 q12 0 20 8 q8 8 8 20 l0 45 l-256 0 l0 -73 l228 0 Z" /><glyph glyph-name="cid1361" unicode="&#x6b21;" d="M268 792 l44 -355 l-225 0 l-46 355 l227 0 ZM30 -121 l57 511 l225 0 l-56 -511 l-226 0 ZM656 826 l-12 -74 l326 0 l-34 -250 l-234 0 l24 173 l-95 0 l-28 -173 l-239 0 l52 324 l240 0 ZM663 34 l-66 -157 l-233 0 l174 389 l0 221 l249 0 l0 -221 l178 -389 l-233 0 l-69 157 Z" /><glyph glyph-name="cid1392" unicode="&#x9519;" d="M654 468 l68 0 l0 160 l-68 0 l0 -160 ZM741 79 l-107 0 l0 -122 l80 0 q11 0 19 8 q8 8 8 20 l0 94 ZM634 155 l107 0 l0 122 l-107 0 l0 -122 ZM284 825 l-19 -89 l113 0 l0 -75 l-129 0 l-22 -108 l-201 0 l57 272 l201 0 ZM31 513 l335 0 l0 -76 l-61 0 l0 -176 l71 0 l0 -76 l-71 0 l0 -232 l59 0 l0 -76 l-270 0 l0 308 l-67 0 l0 76 l67 0 l0 176 l-63 0 l0 76 ZM410 704 l43 0 l0 121 l201 0 l0 -121 l68 0 l0 121 l200 0 l0 -121 l43 0 l0 -76 l-43 0 l0 -160 l52 0 l0 -76 l-574 0 l0 76 l53 0 l0 160 l-43 0 l0 76 ZM430 -119 l0 472 l516 0 l0 -377 q0 -20 -7.5 -37.5 q-7.5 -17.5 -20.5 -30 q-13 -12.5 -30.5 -20 q-17.5 -7.5 -36.5 -7.5 l-421 0 Z" /><glyph glyph-name="cid1394" unicode="&#x8fbe;" d="M307 823 l14 -176 l-237 0 l-14 176 l237 0 ZM26 594 l328 0 l-76 -282 l77 0 l-64 -354 l683 0 l0 -76 l-929 0 l64 320 l-74 0 l74 308 l-83 0 l0 84 ZM766 823 l-44 -222 l245 0 l0 -76 l-97 0 l97 -509 l-237 0 l-60 317 l-62 -317 l-237 0 l99 509 l-94 0 l0 76 l109 0 l43 222 l238 0 Z" /><glyph glyph-name="cid1395" unicode="&#x7b54;" d="M282 258 l430 0 l-214 169 l-216 -169 ZM335 75 l0 -113 l307 0 q12 0 20 8 q8 8 8 20 l0 85 l-335 0 ZM28 537 l53 282 l200 0 l-10 -50 l232 0 l0 -76 l-39 0 l26 -156 l-191 0 l-27 156 l-15 0 l-30 -156 l-199 0 ZM496 537 l53 282 l200 0 l-10 -50 l232 0 l0 -76 l-37 0 l24 -156 l-191 0 l-25 156 l-17 0 l-29 -156 l-200 0 ZM99 151 l807 0 l0 -170 q0 -20 -7.5 -37.5 q-7.5 -17.5 -20 -30 q-12.5 -12.5 -30 -20 q-17.5 -7.5 -36.5 -7.5 l-713 0 l0 265 ZM101 237 l-73 0 l0 76 l36 0 l255 203 l357 0 l255 -203 l36 0 l0 -76 l-63 0 l0 -54 l-803 0 l0 54 Z" /><glyph glyph-name="cid1398" unicode="&#x2f24;&#x5927;" d="M618 820 l0 -266 l354 0 l0 -75 l-326 0 l290 -520 l36 0 l0 -76 l-246 0 l-227 407 l-226 -407 l-246 0 l0 76 l36 0 l289 520 l-325 0 l0 75 l353 0 l0 266 l238 0 Z" /><glyph glyph-name="cid1405" unicode="&#x4ee3;" d="M924 796 l49 -225 l-172 0 l-49 225 l172 0 ZM339 823 l-50 -236 l34 0 l0 -708 l-219 0 l0 500 l-79 0 l94 444 l220 0 ZM378 511 l164 0 l-70 312 l238 0 l72 -312 l193 0 l0 -76 l-176 0 l112 -482 l61 0 l0 -75 l-286 0 l-127 557 l-181 0 l0 76 Z" /><glyph glyph-name="cid1414" unicode="&#x5355;" d="M699 399 l-80 0 l0 -145 l52 0 q11 0 19.5 8.5 q8.5 8.5 8.5 20.5 l0 116 ZM619 621 l0 -146 l80 0 l0 146 l-80 0 ZM300 254 l81 0 l0 145 l-81 0 l0 -145 ZM300 475 l81 0 l0 146 l-81 0 l0 -146 ZM834 697 l93 0 l0 -405 q0 -24 -9 -44.5 q-9 -20.5 -24.5 -36 q-15.5 -15.5 -36 -24.5 q-20.5 -9 -44.5 -9 l-194 0 l0 -73 l355 0 l0 -76 l-355 0 l0 -151 l-238 0 l0 151 l-355 0 l0 76 l355 0 l0 73 l-308 0 l0 519 l93 0 l-39 126 l237 0 l39 -126 l194 0 l39 126 l237 0 l-39 -126 Z" /><glyph glyph-name="cid1417" unicode="&#x80c6;" d="M197 252 l63 0 l0 206 l-63 0 l0 -206 ZM197 534 l63 0 l0 207 l-63 0 l0 -207 ZM756 390 l-95 0 l0 -268 l75 0 q6 0 13 8 q7 8 7 20 l0 240 ZM661 466 l95 0 l0 267 l-95 0 l0 -267 ZM444 -46 l527 0 l0 -77 l-527 0 l0 77 ZM260 176 l-63 0 l0 -300 l-168 0 l0 936 l403 0 l0 -842 q0 -20 -7 -37 q-7 -17 -19.5 -29.5 q-12.5 -12.5 -29 -20 q-16.5 -7.5 -35.5 -7.5 l-120 0 l0 71 l11 0 q11 0 19.5 8 q8.5 8 8.5 19 l0 202 ZM944 122 q0 -32 -22 -54.5 q-22 -22.5 -52 -22.5 l-399 0 l0 764 l473 0 l0 -687 Z" /><glyph glyph-name="cid1420" unicode="&#x4f46;" d="M732 384 l-127 0 l0 -265 l106 0 q6 0 13.5 8 q7.5 8 7.5 21 l0 236 ZM605 460 l127 0 l0 264 l-127 0 l0 -264 ZM363 -47 l610 0 l0 -76 l-610 0 l0 76 ZM340 823 l-50 -236 l34 0 l0 -708 l-219 0 l0 500 l-79 0 l94 444 l220 0 ZM945 119 q0 -32 -22.5 -54 q-22.5 -22 -53.5 -22 l-477 0 l0 757 l553 0 l0 -681 Z" /><glyph glyph-name="cid1430" unicode="&#x6863;" d="M972 811 l-12 -334 l-126 0 l13 334 l125 0 ZM596 811 l12 -334 l-126 0 l-12 334 l126 0 ZM27 -124 l13 695 l90 0 l-13 -695 l-90 0 ZM426 571 l13 -695 l-90 0 l-13 695 l90 0 ZM27 706 l115 0 l0 122 l182 0 l0 -122 l115 0 l0 -78 l-115 0 l0 -752 l-182 0 l0 752 l-115 0 l0 78 ZM492 202 l278 0 l0 164 l-302 0 l0 77 l163 0 l0 385 l181 0 l0 -385 l150 0 l0 -462 q0 -41 -25.5 -68.5 q-25.5 -27.5 -63.5 -27.5 l-405 0 l0 77 l275 0 q11 0 19 8 q8 8 8 20 l0 136 l-278 0 l0 76 Z" /><glyph glyph-name="cid1437" unicode="&#x5bfc;" d="M184 -61 l-60 205 l222 0 l60 -205 l-222 0 ZM301 590 l351 0 q16 0 27 11 q11 11 11 27 l0 98 l-389 0 l0 -136 ZM25 266 l606 0 l0 69 l238 0 l0 -69 l105 0 l0 -76 l-105 0 l0 -217 q0 -20 -7.5 -37 q-7.5 -17 -20.5 -30 q-13 -13 -30.5 -20.5 q-17.5 -7.5 -36.5 -7.5 l-262 0 l0 76 l81 0 q16 0 27 11 q11 11 11 27 l0 198 l-606 0 l0 76 ZM301 435 l669 0 l0 -76 l-905 0 l0 443 l862 0 l0 -193 q0 -39 -23.5 -67 q-23.5 -28 -62.5 -28 l-540 0 l0 -79 Z" /><glyph glyph-name="cid1441" unicode="&#x9053;" d="M714 70 q12 0 20 8.5 q8 8.5 8 19.5 l0 55 l-143 0 l0 -83 l115 0 ZM599 393 l143 0 l0 87 l-143 0 l0 -87 ZM599 229 l143 0 l0 88 l-143 0 l0 -88 ZM307 822 l14 -176 l-237 0 l-14 176 l237 0 ZM26 593 l328 0 l-76 -282 l77 0 l-64 -354 l683 0 l0 -76 l-929 0 l64 320 l-74 0 l74 308 l-83 0 l0 84 ZM614 822 l18 -112 l77 0 l18 112 l207 0 l-18 -112 l57 0 l0 -76 l-232 0 l-20 -78 l235 0 l0 -462 q0 -20 -7.5 -37.5 q-7.5 -17.5 -20.5 -30 q-13 -12.5 -30.5 -20 q-17.5 -7.5 -36.5 -7.5 l-476 0 l0 557 l137 0 l20 78 l-175 0 l0 76 l57 0 l-17 112 l207 0 Z" /><glyph glyph-name="cid1444" unicode="&#x5f97;" d="M773 594 l-213 0 l0 -69 l183 0 q13 0 21.5 8 q8.5 8 8.5 20 l0 41 ZM560 670 l213 0 l0 70 l-213 0 l0 -70 ZM607 -24 l-179 0 l-35 171 l179 0 l35 -171 ZM363 402 l601 0 l0 -77 l-48 0 l0 -68 l57 0 l0 -75 l-57 0 l0 -212 q0 -20 -8 -37 q-8 -17 -21.5 -30 q-13.5 -13 -31.5 -20.5 q-18 -7.5 -39 -7.5 l-234 0 l0 76 l84 0 q13 0 22 8.5 q9 8.5 9 20.5 l0 202 l-349 0 l0 75 l349 0 l0 68 l-334 0 l0 77 ZM87 -123 l0 430 l-60 0 l61 247 l-61 0 l74 273 l221 0 l-58 -220 l58 0 l-52 -217 l33 0 l0 -513 l-216 0 ZM365 449 l0 367 l602 0 l0 -272 q0 -20 -7.5 -37 q-7.5 -17 -21 -30 q-13.5 -13 -31.5 -20.5 q-18 -7.5 -39 -7.5 l-503 0 Z" /><glyph glyph-name="cid1445" unicode="&#x7684;" d="M266 232 l-59 0 l0 -275 l32 0 q11 0 19 8 q8 8 8 19 l0 248 ZM207 308 l59 0 l0 291 l-59 0 l0 -291 ZM653 438 l51 -353 l-182 0 l-50 353 l181 0 ZM689 825 l-11 -69 l296 0 l0 -763 q0 -23 -9 -43.5 q-9 -20.5 -25 -36 q-16 -15.5 -37.5 -24.5 q-21.5 -9 -45.5 -9 l-193 0 l0 76 l85 0 q13 0 21.5 8 q8.5 8 8.5 19 l0 697 l-113 0 l-29 -181 l-180 0 l51 326 l181 0 ZM36 675 l61 0 l32 150 l187 0 l-32 -150 l154 0 l0 -718 q0 -32 -24.5 -54 q-24.5 -22 -56.5 -22 l-321 0 l0 794 Z" /><glyph glyph-name="cid1447" unicode="&#x706f;" d="M432 752 l0 -427 l-83 0 l0 427 l83 0 ZM113 752 l0 -427 l-84 0 l0 427 l84 0 ZM327 825 l0 -504 l110 -444 l-172 0 l-33 134 l-35 -134 l-173 0 l113 444 l0 504 l190 0 ZM453 807 l520 0 l0 -78 l-144 0 l0 -753 q0 -20 -8 -37.5 q-8 -17.5 -21.5 -31 q-13.5 -13.5 -31.5 -21 q-18 -7.5 -39 -7.5 l-204 0 l0 73 l59 0 q12 0 21 8 q9 8 9 20 l0 749 l-161 0 l0 78 Z" /><glyph glyph-name="cid1449" unicode="&#x7b49;" d="M369 58 l53 -139 l-237 0 l-53 139 l237 0 ZM28 537 l53 282 l199 0 l-10 -50 l233 0 l0 -76 l-40 0 l27 -156 l-192 0 l-26 156 l-16 0 l-30 -156 l-198 0 ZM496 537 l53 282 l199 0 l-10 -50 l233 0 l0 -76 l-38 0 l25 -156 l-192 0 l-24 156 l-18 0 l-29 -156 l-199 0 ZM619 512 l0 -49 l323 0 l0 -75 l-323 0 l0 -68 l355 0 l0 -75 l-122 0 l0 -72 l105 0 l0 -76 l-105 0 l0 -126 q0 -40 -27.5 -67.5 q-27.5 -27.5 -67.5 -27.5 l-239 0 l0 76 l72 0 q11 0 20 8 q9 8 9 20 l0 117 l-572 0 l0 76 l572 0 l0 72 l-594 0 l0 75 l356 0 l0 68 l-324 0 l0 75 l324 0 l0 49 l238 0 Z" /><glyph glyph-name="cid1465" unicode="&#x5730;" d="M274 828 l0 -195 l60 0 l0 -75 l-60 0 l0 -562 l60 9 l0 -76 l-306 -47 l0 76 l60 9 l0 591 l-60 0 l0 75 l60 0 l0 195 l186 0 ZM775 82 l0 66 l28 0 l0 454 l-37 -14 l0 -560 l-167 0 l0 500 l-41 -14 l0 -557 l414 0 l0 -76 l-588 0 l0 570 l-37 -13 l0 109 l37 13 l0 178 l174 0 l0 -115 l41 15 l0 190 l167 0 l0 -129 l197 71 l0 -594 q0 -51 -22 -72.5 q-22 -21.5 -67 -21.5 l-99 0 Z" /><glyph glyph-name="cid1467" unicode="&#x7b2c;" d="M631 413 l0 -72 l56 0 q11 0 20 8.5 q9 8.5 9 20.5 l0 43 l-85 0 ZM288 194 l106 0 l0 71 l-106 0 l0 -71 ZM28 526 l56 299 l199 0 l-12 -62 l232 0 l0 -76 l-41 0 l28 -161 l-192 0 l-27 161 l-15 0 l-30 -161 l-198 0 ZM496 526 l56 299 l200 0 l-12 -62 l231 0 l0 -76 l-39 0 l26 -161 l-192 0 l-25 161 l-16 0 l-30 -161 l-199 0 ZM40 -124 l118 242 l-89 0 l0 223 l325 0 l0 72 l-340 0 l0 76 l891 0 l0 -129 q0 -20 -7.5 -37 q-7.5 -17 -20.5 -30 q-13 -13 -30.5 -20.5 q-17.5 -7.5 -36.5 -7.5 l-219 0 l0 -71 l340 0 l0 -222 q0 -20 -7.5 -37 q-7.5 -17 -20.5 -30 q-13 -13 -30.5 -20.5 q-17.5 -7.5 -36.5 -7.5 l-204 0 l0 76 l45 0 q11 0 19.5 8 q8.5 8 8.5 20 l0 137 l-114 0 l0 -242 l-237 0 l0 239 l-116 -239 l-238 0 Z" /><glyph glyph-name="cid1470" unicode="&#x9012;" d="M509 304 l37 0 l0 143 l-37 0 l0 -143 ZM731 645 l0 -122 l31 0 q8 0 13.5 5.5 q5.5 5.5 5.5 13.5 l0 103 l-50 0 ZM264 822 l19 -153 l-199 0 l-19 153 l199 0 ZM26 627 l280 0 l-66 -310 l68 0 l-61 -360 l727 0 l0 -76 l-939 0 l59 325 l-63 0 l59 336 l-64 0 l0 85 ZM571 822 l24 -101 l86 0 l24 101 l203 0 l-23 -101 l78 0 l0 -179 q0 -20 -7.5 -37 q-7.5 -17 -20.5 -30 q-13 -13 -30.5 -20.5 q-17.5 -7.5 -36.5 -7.5 l-137 0 l0 -143 l232 0 l0 -179 q0 -20 -7.5 -37 q-7.5 -17 -20.5 -30 q-13 -13 -30.5 -20.5 q-17.5 -7.5 -36.5 -7.5 l-116 0 l0 76 l10 0 q11 0 20 8.5 q9 8.5 9 19.5 l0 94 l-60 0 l0 -236 l-185 0 l0 236 l-17 0 l-34 -236 l-176 0 l34 236 l-25 0 l0 295 l218 0 l0 122 l-218 0 l0 76 l62 0 l-22 101 l203 0 Z" /><glyph glyph-name="cid1476" unicode="&#x70b9;" d="M311 -121 l-30 253 l203 0 l30 -253 l-203 0 ZM768 -121 l-30 253 l203 0 l30 -253 l-203 0 ZM29 -121 l29 253 l204 0 l-31 -253 l-202 0 ZM541 -121 l-31 253 l204 0 l30 -253 l-203 0 ZM694 473 l-389 0 l0 -212 l361 0 q11 0 19.5 8.5 q8.5 8.5 8.5 19.5 l0 184 ZM619 825 l0 -88 l352 0 l0 -76 l-352 0 l0 -112 l312 0 l0 -269 q0 -20 -7.5 -37 q-7.5 -17 -20 -30 q-12.5 -13 -30 -20.5 q-17.5 -7.5 -37.5 -7.5 l-767 0 l0 364 l312 0 l0 276 l238 0 Z" /><glyph glyph-name="cid1480" unicode="&#x7535;" d="M679 370 l-84 0 l0 -173 l55 0 q12 0 20.5 8.5 q8.5 8.5 8.5 20.5 l0 144 ZM595 618 l0 -172 l84 0 l0 172 l-84 0 ZM277 446 l84 0 l0 172 l-84 0 l0 -172 ZM277 197 l84 0 l0 173 l-84 0 l0 -173 ZM49 694 l312 0 l0 131 l234 0 l0 -131 l313 0 l0 -478 q0 -20 -7.5 -37 q-7.5 -17 -20.5 -30 q-13 -13 -30.5 -20.5 q-17.5 -7.5 -36.5 -7.5 l-218 0 l0 -163 l356 0 l0 -76 l-590 0 l0 239 l-312 0 l0 573 Z" /><glyph glyph-name="cid1509" unicode="&#x2fcd;&#x9f0e;" d="M462 579 l92 0 l0 51 l-92 0 l0 -51 ZM554 512 l-92 0 l0 -60 l75 0 q17 0 17 16 l0 44 ZM462 697 l92 0 l0 60 l-92 0 l0 -60 ZM278 819 l460 0 l0 -364 q0 -27 -19.5 -45.5 q-19.5 -18.5 -47.5 -18.5 l-393 0 l0 428 ZM50 769 l184 0 l0 -428 l246 0 l0 -465 l-194 0 l0 265 l-36 0 l-39 -265 l-171 0 l39 265 l-45 0 l0 66 l252 0 l0 68 l-236 0 l0 494 ZM966 381 q0 -46 -27 -76 q-27 -30 -82 -30 l-127 0 l0 -67 l233 0 l0 -332 l-180 0 l0 256 l-53 0 l0 -256 l-195 0 l0 465 l158 0 q44 0 66 21.5 q22 21.5 22 56.5 l0 350 l185 0 l0 -388 Z" /><glyph glyph-name="cid1518" unicode="&#x52a8;" d="M46 781 l417 0 l0 -76 l-417 0 l0 76 ZM26 511 l457 0 l0 -76 l-217 0 l-39 -482 l37 0 q12 0 20.5 8.5 q8.5 8.5 7.5 19.5 l-23 315 l180 0 l23 -324 q1 -20 -6 -37 q-7 -17 -19.5 -30 q-12.5 -13 -30.5 -20.5 q-18 -7.5 -37 -7.5 l-346 0 l44 558 l-51 0 l0 76 ZM775 614 l-42 0 l-39 -737 l-201 0 l39 737 l-40 0 l0 71 l44 0 l8 139 l201 0 l-8 -139 l237 0 l0 -713 q0 -20 -7.5 -37 q-7.5 -17 -20.5 -30 q-13 -13 -30.5 -20.5 q-17.5 -7.5 -36.5 -7.5 l-154 0 l0 71 l21 0 q12 0 20.5 8.5 q8.5 8.5 8.5 20.5 l0 637 Z" /><glyph glyph-name="cid1519" unicode="&#x680b;" d="M953 262 l20 -369 l-119 0 l-20 369 l119 0 ZM630 262 l-36 -369 l-126 0 l37 369 l125 0 ZM420 571 l13 -694 l-88 0 l-13 694 l88 0 ZM27 -123 l13 694 l89 0 l-14 -694 l-88 0 ZM27 706 l113 0 l0 122 l180 0 l0 -122 l113 0 l0 -77 l-113 0 l0 -752 l-180 0 l0 752 l-113 0 l0 77 ZM457 747 l68 0 l12 81 l154 0 l-12 -81 l294 0 l0 -77 l-304 0 l-39 -284 l38 0 l0 205 l148 0 l0 -205 l147 0 l0 -76 l-147 0 l0 -339 q0 -20 -6.5 -37 q-6.5 -17 -18 -30 q-11.5 -13 -26.5 -20.5 q-15 -7.5 -32 -7.5 l-117 0 l0 76 l13 0 q11 0 18.5 8.5 q7.5 8.5 7.5 20.5 l0 329 l-191 0 l50 360 l-57 0 l0 77 Z" /><glyph glyph-name="cid1526" unicode="&#x2f43;&#x6597;" d="M334 781 l178 -260 l-249 0 l-178 260 l249 0 ZM331 473 l181 -263 l-249 0 l-181 263 l249 0 ZM26 166 l541 0 l0 658 l237 0 l0 -658 l170 0 l0 -76 l-170 0 l0 -214 l-237 0 l0 214 l-541 0 l0 76 Z" /><glyph glyph-name="cid1531" unicode="&#x90fd;" d="M357 825 l0 -116 l122 0 l0 -75 l-122 0 l0 -134 l233 198 l0 -122 l-103 -85 l103 0 l0 -76 l-194 0 l-115 -95 l304 0 l0 -344 q0 -20 -8.5 -37.5 q-8.5 -17.5 -22.5 -30 q-14 -12.5 -31.5 -20 q-17.5 -7.5 -35.5 -7.5 l-390 0 l0 286 l-69 -57 l0 112 l228 193 l-228 0 l0 76 l141 0 l0 143 l-133 0 l0 75 l133 0 l0 116 l188 0 ZM971 813 l-20 -398 l14 0 l-20 -452 l-148 0 l21 430 l-14 0 l17 344 l-46 0 l0 -861 l-152 0 l0 937 l348 0 ZM266 244 l0 -106 l148 0 l0 106 l-148 0 ZM396 -43 q12 0 15 8 q3 8 3 20 l0 77 l-148 0 l0 -105 l130 0 Z" /><glyph glyph-name="cid1535" unicode="&#x72ec;" d="M566 273 l27 0 l0 337 l-27 0 l0 -337 ZM803 610 l-28 0 l0 -337 q11 0 19.5 8.5 q8.5 8.5 8.5 20.5 l0 308 ZM27 173 l133 103 l0 182 l-18 48 l-115 -91 l0 104 l86 67 l-86 239 l203 0 l45 -112 l93 73 l0 -103 l-61 -48 l42 -102 l0 -558 q0 -20 -7.5 -37.5 q-7.5 -17.5 -21 -30 q-13.5 -12.5 -31.5 -20 q-18 -7.5 -38 -7.5 l-162 0 l0 77 l41 0 q14 0 22 8.5 q8 8.5 8 19.5 l0 187 l-133 -103 l0 104 ZM971 292 q0 -20 -7.5 -37 q-7.5 -17 -20.5 -30 q-13 -13 -30.5 -20.5 q-17.5 -7.5 -36.5 -7.5 l-101 0 l0 -242 q12 0 20.5 8.5 q8.5 8.5 8.5 19.5 l0 98 l168 0 l0 -107 q0 -20 -7.5 -37 q-7.5 -17 -20 -30 q-12.5 -13 -30 -20.5 q-17.5 -7.5 -37.5 -7.5 l-482 0 l0 76 l198 0 l0 242 l-197 0 l0 489 l197 0 l0 139 l182 0 l0 -139 l196 0 l0 -394 Z" /><glyph glyph-name="cid1543" unicode="&#x5ea6;" d="M680 825 l0 -95 l288 0 l0 -76 l-709 0 l0 -776 l-227 0 l0 852 l411 0 l0 95 l237 0 ZM291 -43 l61 0 l95 61 l-151 87 l0 49 l255 0 l58 -32 l95 61 l-409 0 l0 76 l651 0 l0 -135 l-157 -102 l119 -65 l60 0 l0 -76 l-281 0 l-61 35 l-53 -35 l-282 0 l0 76 ZM283 539 l44 0 l0 72 l222 0 l0 -72 l153 0 l0 72 l223 0 l0 -72 l43 0 l0 -76 l-43 0 l0 -85 q0 -32 -22 -54 q-22 -22 -53 -22 l-523 0 l0 161 l-44 0 l0 76 ZM674 378 q11 0 19.5 8 q8.5 8 8.5 20 l0 57 l-153 0 l0 -85 l125 0 Z" /><glyph glyph-name="cid1547" unicode="&#x77ed;" d="M756 569 l-74 0 l0 -225 l55 0 q8 0 13.5 5.5 q5.5 5.5 5.5 13.5 l0 206 ZM475 790 l499 0 l0 -76 l-499 0 l0 76 ZM707 -42 l36 0 l46 258 l172 0 l-47 -258 l60 0 l0 -76 l-499 0 l0 76 l60 0 l-46 258 l172 0 l46 -258 ZM488 645 l461 0 l0 -301 q0 -31 -22 -53.5 q-22 -22.5 -54 -22.5 l-385 0 l0 377 ZM197 825 l-12 -123 l251 0 l0 -76 l-69 0 l0 -283 l87 0 l0 -76 l-74 0 l65 -390 l-153 0 l-35 206 l-53 -206 l-154 0 l103 390 l-119 0 l0 76 l152 0 l0 283 l-8 0 l-15 -163 l-138 0 l33 362 l139 0 Z" /><glyph glyph-name="cid1548" unicode="&#x953b;" d="M246 825 l-16 -89 l97 0 l0 -75 l-110 0 l-19 -108 l-172 0 l48 272 l172 0 ZM759 732 l0 -290 l-145 0 l0 366 l336 0 l0 -290 l24 0 l0 -76 l-170 0 l0 290 l-45 0 ZM30 513 l287 0 l0 -76 l-53 0 l0 -176 l61 0 l0 -76 l-61 0 l0 -232 l51 0 l0 -76 l-231 0 l0 308 l-57 0 l0 76 l57 0 l0 176 l-54 0 l0 76 ZM865 88 l109 -211 l-158 0 l-29 58 l-30 -58 l-163 0 l112 218 l-92 183 l0 38 l135 0 l35 -69 l48 94 l-218 0 l0 75 l354 0 l0 -129 l-103 -199 ZM316 116 l42 0 l0 693 l228 0 l0 -76 l-54 0 l0 -138 l54 0 l0 -76 l-54 0 l0 -170 l54 0 l0 -75 l-54 0 l0 -158 l51 0 l0 -76 l-51 0 l0 -163 l-174 0 l0 163 l-42 0 l0 76 Z" /><glyph glyph-name="cid1549" unicode="&#x6bb5;" d="M689 739 l0 -298 l-197 0 l0 374 l448 0 l0 -297 l33 0 l0 -77 l-229 0 l0 298 l-55 0 ZM830 84 l143 -208 l-214 0 l-39 56 l-40 -56 l-210 0 l146 206 l-118 170 l0 59 l176 0 l51 -75 l72 102 l-305 0 l0 76 l466 0 l0 -152 l-128 -178 ZM26 114 l62 0 l0 699 l378 0 l0 -76 l-168 0 l0 -146 l151 0 l0 -76 l-151 0 l0 -169 l151 0 l0 -76 l-151 0 l0 -156 l167 0 l0 -76 l-167 0 l0 -160 l-210 0 l0 160 l-62 0 l0 76 Z" /><glyph glyph-name="cid1554" unicode="&#x961f;" d="M456 -124 l135 946 l210 0 l-43 -302 l116 0 l95 -644 l-210 0 l-47 322 l-46 -322 l-210 0 ZM228 727 l0 -851 l-196 0 l0 927 l441 0 q-2 -21 -5 -60.5 q-3 -39.5 -7.5 -86.5 q-4.5 -47 -9 -96.5 q-4.5 -49.5 -8.5 -92.5 l25 0 q-2 -29 -4.5 -69.5 q-2.5 -40.5 -5.5 -86 q-3 -45.5 -6 -92 q-3 -46.5 -5.5 -89 q-2.5 -42.5 -5 -76.5 q-2.5 -34 -3.5 -54 l-187 0 l24 384 l-27 0 l27 343 l-47 0 Z" /><glyph glyph-name="cid1567" unicode="&#x591a;" d="M446 822 l-53 -76 l576 0 l-217 -333 q-17 -26 -42.5 -37.5 q-25.5 -11.5 -55.5 -11.5 l-568 0 l0 75 l415 0 q14 0 23 11 l136 222 l-318 0 l-34 -48 l87 0 l90 -152 l-238 0 l-55 94 l-161 0 l177 256 l238 0 ZM446 345 l-53 -77 l576 0 l-217 -340 q-17 -26 -42.5 -37.5 q-25.5 -11.5 -55.5 -11.5 l-568 0 l0 76 l415 0 q14 0 23 11 l136 226 l-319 0 l-33 -49 l87 0 l90 -155 l-238 0 l-55 96 l-161 0 l177 261 l238 0 Z" /><glyph glyph-name="cid1597" unicode="&#x2f06;&#x4e8c;" d="M91 742 l817 0 l0 -76 l-817 0 l0 76 ZM25 27 l949 0 l0 -75 l-949 0 l0 75 Z" /><glyph glyph-name="cid1599" unicode="&#x53d1;" d="M539 359 l106 -116 l104 116 l-210 0 ZM700 797 l204 0 l45 -177 l-204 0 l-45 177 ZM511 500 l-25 -65 l477 0 l0 -138 l-182 -204 l195 -214 l-272 0 l-58 63 l-56 -63 l-271 0 l190 213 l-107 118 l-124 -331 l-243 0 l233 621 l-243 0 l114 293 l204 0 l-81 -217 l34 0 l94 249 l243 0 l-94 -249 l431 0 l0 -76 l-459 0 Z" /><glyph glyph-name="cid1602" unicode="&#x4f10;" d="M934 829 l39 -169 l-194 0 l-39 169 l194 0 ZM357 827 l-52 -237 l35 0 l0 -712 l-230 0 l0 503 l-83 0 l99 446 l231 0 ZM696 829 l57 -242 l220 49 l0 -95 l-199 -44 l52 -223 l147 99 l0 -125 l-121 -81 l50 -213 l71 0 l0 -77 l-291 0 l-35 152 l-206 -138 l0 124 l181 122 l-71 311 l-131 -29 l0 95 l111 24 l-66 291 l231 0 Z" /><glyph glyph-name="cid1605" unicode="&#x6cd5;" d="M243 578 l51 -208 l-209 0 l-51 208 l209 0 ZM243 827 l49 -208 l-210 0 l-48 208 l209 0 ZM294 322 l-51 -445 l-209 0 l51 445 l209 0 ZM338 703 l192 0 l0 120 l229 0 l0 -120 l201 0 l0 -76 l-201 0 l0 -210 l214 0 l0 -76 l-336 0 l-90 -383 l188 0 q9 0 15 9 q6 11 5 22 l-31 205 l213 0 l32 -188 q4 -23 0 -45.5 q-4 -22.5 -17 -40.5 q-24 -38 -61 -38 l-574 0 l108 459 l-101 0 l0 76 l206 0 l0 210 l-192 0 l0 76 Z" /><glyph glyph-name="cid1614" unicode="&#x7e41;" d="M252 430 l-11 55 l74 0 l11 -55 l-74 0 ZM252 567 l-11 56 l74 0 l11 -56 l-74 0 ZM340 494 l-114 0 l0 -75 l99 0 q15 0 15 16 l0 59 ZM693 716 l-12 -49 l63 -64 l43 47 l0 66 l-94 0 ZM226 556 l114 0 l0 76 l-114 0 l0 -76 ZM971 -119 l-228 0 l-48 153 l227 0 l49 -153 ZM76 34 l228 0 l-49 -153 l-228 0 l49 153 ZM754 386 l-38 -40 l-184 0 l0 66 l37 0 l79 86 l-74 77 l-66 0 l58 247 l154 0 l-12 -45 l265 0 l0 -61 l-22 0 l0 -124 l-97 -102 l76 -78 l37 0 l0 -66 l-174 0 l-39 40 ZM31 556 l40 0 l0 114 l-45 0 l29 152 l137 0 l-6 -28 l339 0 l0 -62 l-352 0 l-7 -35 l330 0 l0 -141 l37 0 l0 -62 l-37 0 l0 -64 q0 -32 -22 -53.5 q-22 -21.5 -53 -21.5 l-350 0 l0 139 l-40 0 l0 62 ZM756 295 l-219 -152 l200 0 l-62 65 l221 0 l43 -45 q12 -13 15 -29.5 q3 -16.5 -5 -32.5 q-6 -17 -20 -25.5 q-14 -8.5 -32 -8.5 l-258 0 l0 -75 q0 -24 -9 -44.5 q-9 -20.5 -24.5 -36 q-15.5 -15.5 -36.5 -24.5 q-21 -9 -44 -9 l-190 0 l0 65 l33 0 q12 0 20 9 q8 9 8 20 l0 95 l-284 0 l178 115 l-259 0 l194 153 l220 0 l-96 -77 l59 0 l58 37 l290 0 Z" /><glyph glyph-name="cid1626" unicode="&#x2f45;&#x65b9;" d="M619 820 l0 -144 l355 0 l0 -76 l-544 0 l-33 -174 l532 0 l0 -453 q0 -40 -27 -67.5 q-27 -27.5 -67 -27.5 l-327 0 l0 76 l156 0 q12 0 20.5 8 q8.5 8 8.5 20 l0 368 l-311 0 l-89 -474 l-240 0 l136 724 l-163 0 l0 76 l355 0 l0 144 l238 0 Z" /><glyph glyph-name="cid1628" unicode="&#x623f;" d="M260 560 l451 0 q11 0 19.5 8 q8.5 8 8.5 20 l0 79 l-479 0 l0 -107 ZM289 355 l220 0 l0 90 l234 0 l0 -90 l221 0 l0 -76 l-389 0 l-11 -76 l382 0 l0 -232 q0 -20 -7.5 -37 q-7.5 -17 -20.5 -30 q-13 -13 -30.5 -20.5 q-17.5 -7.5 -36.5 -7.5 l-218 0 l0 76 l70 0 q11 0 20 8.5 q9 8.5 9 19.5 l0 147 l-178 0 l-35 -251 l-215 0 l56 403 l-71 0 l0 76 ZM260 484 l0 -608 l-224 0 l0 868 l340 0 l0 78 l237 0 l0 -78 l334 0 l0 -165 q0 -20 -7.5 -37 q-7.5 -17 -20 -30 q-12.5 -13 -30 -20.5 q-17.5 -7.5 -37.5 -7.5 l-592 0 Z" /><glyph glyph-name="cid1629" unicode="&#x9632;" d="M209 734 l0 -858 l-178 0 l0 934 l403 0 q-2 -21 -5 -60.5 q-3 -39.5 -7 -87 q-4 -47.5 -8.5 -97.5 q-4.5 -50 -7.5 -93 l23 0 q-2 -30 -4.5 -70.5 q-2.5 -40.5 -5 -86 q-2.5 -45.5 -5.5 -93 q-3 -47.5 -5.5 -90 q-2.5 -42.5 -4.5 -77 q-2 -34.5 -3 -54.5 l-171 0 l22 387 l-24 0 l25 346 l-44 0 ZM443 703 l132 0 l0 124 l253 0 l0 -124 l147 0 l0 -76 l-261 0 l-11 -142 l264 0 l0 -515 q0 -20 -7.5 -37 q-7.5 -17 -20 -29.5 q-12.5 -12.5 -30 -20 q-17.5 -7.5 -36.5 -7.5 l-166 0 l0 75 l19 0 q14 0 23.5 7.5 q9.5 7.5 9.5 18.5 l0 438 l-62 0 l-44 -539 l-217 0 l61 751 l-54 0 l0 76 Z" /><glyph glyph-name="cid1651" unicode="&#x5206;" d="M434 825 l-162 -387 l-246 0 l161 387 l247 0 ZM811 825 l162 -387 l-247 0 l-162 387 l247 0 ZM45 395 l875 0 l0 -400 q0 -24 -9 -44.5 q-9 -20.5 -24.5 -36 q-15.5 -15.5 -36 -24.5 q-20.5 -9 -44.5 -9 l-251 0 l0 76 l99 0 q12 0 20 8 q8 8 8 20 l0 334 l-274 0 l-110 -438 l-237 0 l111 438 l-127 0 l0 76 Z" /><glyph glyph-name="cid1657" unicode="&#x594b;" d="M58 -101 l0 433 l884 0 l0 -338 q0 -20 -7.5 -37 q-7.5 -17 -20.5 -30 q-13 -13 -30 -20.5 q-17 -7.5 -36 -7.5 l-790 0 ZM27 750 l344 0 l0 72 l258 0 l0 -72 l344 0 l0 -76 l-280 0 l248 -234 l32 0 l0 -75 l-258 0 l-215 197 l-212 -197 l-261 0 l0 75 l34 0 l246 234 l-280 0 l0 76 ZM285 148 l96 0 l0 108 l-96 0 l0 -108 ZM619 256 l0 -108 l93 0 l0 108 l-93 0 ZM285 -25 l96 0 l0 97 l-96 0 l0 -97 ZM684 -25 q11 0 19.5 8.5 q8.5 8.5 8.5 20.5 l0 68 l-93 0 l0 -97 l65 0 Z" /><glyph glyph-name="cid1662" unicode="&#x4e30;" d="M619 824 l0 -144 l325 0 l0 -76 l-325 0 l0 -192 l274 0 l0 -76 l-274 0 l0 -191 l354 0 l0 -76 l-354 0 l0 -192 l-238 0 l0 192 l-354 0 l0 76 l354 0 l0 191 l-274 0 l0 76 l274 0 l0 192 l-326 0 l0 76 l326 0 l0 144 l238 0 Z" /><glyph glyph-name="cid1668" unicode="&#x98ce;" d="M448 648 l32 -89 l33 89 l193 0 l0 71 l-450 0 l0 -71 l192 0 ZM256 640 l0 -692 l127 346 l-127 346 ZM706 -54 l0 696 l-128 -348 l128 -348 ZM37 -125 l0 920 l887 0 l0 -844 l39 0 l0 -76 l-257 0 l0 65 l-193 0 l-33 88 l-32 -88 l-192 0 l0 -65 l-219 0 Z" /><glyph glyph-name="cid1679" unicode="&#x592b;" d="M618 824 l0 -137 l305 0 l0 -76 l-305 0 l0 -223 l353 0 l0 -76 l-293 0 l252 -357 l41 0 l0 -76 l-262 0 l-210 300 l-206 -300 l-265 0 l0 76 l44 0 l252 357 l-296 0 l0 76 l353 0 l0 223 l-305 0 l0 76 l305 0 l0 137 l237 0 Z" /><glyph glyph-name="cid1682" unicode="&#x5b75;" d="M177 173 l-30 0 l0 460 l30 0 l0 -460 ZM447 173 l-31 0 l0 460 l31 0 l0 -460 ZM954 697 l-18 -184 l-99 0 l16 184 l101 0 ZM597 513 l-16 184 l99 0 l18 -184 l-101 0 ZM721 513 l-16 184 l99 0 l18 -184 l-101 0 ZM577 808 l392 0 l0 -77 l-392 0 l0 77 ZM929 481 l-77 -209 l117 0 l0 -76 l-124 0 l0 -222 q0 -20 -7.5 -37 q-7.5 -17 -20.5 -30.5 q-13 -13.5 -30.5 -21 q-17.5 -7.5 -36.5 -7.5 l-116 0 l0 58 l44 0 q12 0 20 8.5 q8 8.5 8 20.5 l0 231 l-129 0 l0 76 l138 0 l57 151 l-172 0 l0 58 l329 0 ZM284 805 l0 -58 l-151 0 l0 -636 l57 0 l0 614 l94 0 l0 -670 l-104 -177 l-120 0 l104 176 l-133 0 l0 751 l253 0 ZM561 805 l0 -760 q0 -24 -17 -41 q-17 -17 -40 -17 l-85 0 l0 58 l21 0 q19 0 19 19 l0 683 l-51 0 l0 -869 l-106 0 l0 927 l259 0 Z" /><glyph glyph-name="cid1700" unicode="&#x4fef;" d="M782 329 l17 -258 l-79 0 l-17 258 l79 0 ZM713 499 l98 0 l0 160 l144 0 l0 -160 l18 0 l0 -77 l-18 0 l0 -452 q0 -20 -7.5 -37 q-7.5 -17 -20.5 -29.5 q-13 -12.5 -30 -20 q-17 -7.5 -36 -7.5 l-110 0 l0 70 l32 0 q12 0 20 9 q8 9 8 20 l0 447 l-98 0 l0 77 ZM314 825 l-46 -237 l31 0 l0 -712 l-200 0 l0 503 l-72 0 l85 446 l202 0 ZM718 659 l-57 -242 l28 0 l0 -541 l-139 0 l0 457 l-40 0 l0 -457 l-172 0 l0 894 l260 0 l0 55 l227 0 l0 -55 l148 0 l0 -77 l-463 0 l0 -288 l60 254 l148 0 Z" /><glyph glyph-name="cid1717" unicode="&#x8d1f;" d="M383 385 l234 0 l0 -198 l84 -64 l0 316 l-402 0 l0 -316 l84 64 l0 198 ZM445 822 l-36 -70 l501 0 l-121 -237 l136 0 l0 -440 l-161 0 l152 -115 l56 0 l0 -81 l-265 0 l-207 154 l-208 -154 l-264 0 l0 81 l55 0 l152 115 l-160 0 l0 440 l472 0 l83 161 l-260 0 l-60 -116 l-247 0 l135 262 l247 0 Z" /><glyph glyph-name="cid1718" unicode="&#x5bcc;" d="M49 -116 l0 332 l902 0 l0 -237 q0 -39 -23 -67 q-23 -28 -62 -28 l-817 0 ZM77 250 l0 241 l845 0 l0 -146 q0 -39 -23 -67 q-23 -28 -62 -28 l-760 0 ZM32 769 l349 0 l0 56 l238 0 l0 -56 l349 0 l0 -146 l-232 0 l0 70 l-473 0 l0 -70 l-231 0 l0 146 ZM78 599 l844 0 l0 -76 l-844 0 l0 76 ZM296 326 l370 0 q16 0 27 11.5 q11 11.5 11 26.5 l0 51 l-408 0 l0 -89 ZM609 141 l0 -53 l124 0 l0 53 l-124 0 ZM267 88 l124 0 l0 53 l-124 0 l0 -53 ZM267 -40 l124 0 l0 52 l-124 0 l0 -52 ZM695 -40 q16 0 27 11 q11 11 11 27 l0 14 l-124 0 l0 -52 l86 0 Z" /><glyph glyph-name="cid1726" unicode="&#x8be5;" d="M294 827 l0 -197 l-220 0 l0 197 l220 0 ZM970 338 l-116 -164 l121 -298 l-185 0 l-54 132 l-94 -132 l-209 0 l329 462 l208 0 ZM26 582 l268 0 l0 -629 l37 0 l0 -76 l-257 0 l0 628 l-48 0 l0 77 ZM800 827 l0 -71 l170 0 l0 -77 l-300 0 l-145 -219 l70 0 l107 154 l206 0 l-360 -516 l-205 0 l199 286 l-197 0 l0 106 l122 189 l-124 0 l0 77 l199 0 l0 71 l258 0 Z" /><glyph glyph-name="cid1732" unicode="&#x2f32;&#x5e72;" d="M50 810 l900 0 l0 -76 l-331 0 l0 -350 l354 0 l0 -76 l-354 0 l0 -432 l-238 0 l0 432 l-354 0 l0 76 l354 0 l0 350 l-331 0 l0 76 Z" /><glyph glyph-name="cid1754" unicode="&#x2fbc;&#x9ad8;" d="M464 55 l49 0 q9 0 15 7.5 q6 7.5 6 15.5 l0 55 l-70 0 l0 -78 ZM339 455 l291 0 q11 0 19.5 10.5 q8.5 10.5 8.5 21.5 l0 55 l-319 0 l0 -87 ZM619 821 l0 -74 l353 0 l0 -76 l-945 0 l0 76 l354 0 l0 74 l238 0 ZM290 -15 l0 219 l420 0 l0 -148 q0 -29 -20 -50 q-20 -21 -49 -21 l-351 0 ZM104 379 l0 239 l792 0 l0 -141 q0 -20 -7.5 -37.5 q-7.5 -17.5 -20 -31 q-12.5 -13.5 -29.5 -21.5 q-17 -8 -36 -8 l-699 0 ZM649 -45 l68 0 q11 0 19 10 q8 10 8 21 l0 271 l-492 0 l0 -378 l-212 0 l0 454 l919 0 l0 -356 q0 -20 -7.5 -37.5 q-7.5 -17.5 -20 -31 q-12.5 -13.5 -29.5 -21.5 q-17 -8 -36 -8 l-217 0 l0 76 Z" /><glyph glyph-name="cid1772" unicode="&#x683c;" d="M671 677 l-8 -23 l61 -78 l85 101 l-138 0 ZM783 158 l-120 0 l0 -204 l93 0 q11 0 19 8 q8 8 8 21 l0 175 ZM27 -123 l13 694 l91 0 l-13 -694 l-91 0 ZM432 571 l13 -694 l-91 0 l-14 694 l92 0 ZM480 235 l485 0 l0 -242 q0 -24 -8 -45 q-8 -21 -22.5 -36.5 q-14.5 -15.5 -33.5 -24.5 q-19 -9 -41 -9 l-380 0 l0 357 ZM27 706 l117 0 l0 122 l185 0 l0 -122 l116 0 l0 -77 l-116 0 l0 -752 l-185 0 l0 752 l-117 0 l0 77 ZM728 828 l-28 -75 l255 0 l0 -138 l-135 -159 l152 -192 l-197 0 l-58 72 l-61 -72 l-195 0 l161 191 l-75 95 l-87 0 l94 278 l174 0 Z" /><glyph glyph-name="cid1777" unicode="&#x4e2a;" d="M619 429 l0 -552 l-238 0 l0 552 l238 0 ZM292 362 l-266 0 l0 76 l61 0 l289 372 l247 0 l290 -372 l61 0 l0 -76 l-266 0 l-208 281 l-208 -281 Z" /><glyph glyph-name="cid1778" unicode="&#x5404;" d="M316 669 l-8 -20 l193 -90 l235 110 l-420 0 ZM710 170 l-404 0 l0 -205 l375 0 q13 0 21 8 q8 8 8 20 l0 177 ZM78 246 l860 0 l0 -243 q0 -24 -9 -44.5 q-9 -20.5 -24.5 -36 q-15.5 -15.5 -36 -24.5 q-20.5 -9 -44.5 -9 l-746 0 l0 357 ZM31 360 l47 0 l218 102 l-68 33 l-200 0 l123 326 l223 0 l-30 -79 l603 0 l0 -165 l-241 -115 l219 -102 l47 0 l0 -72 l-309 0 l-162 77 l-162 -77 l-308 0 l0 72 Z" /><glyph glyph-name="cid1783" unicode="&#x66f4;" d="M611 212 l-139 -157 l355 -100 l146 0 l0 -76 l-232 0 l-343 93 l-82 -93 l-290 0 l0 76 l82 0 l69 76 l-146 40 l0 109 l222 -63 l86 95 l-275 0 l0 428 l318 0 l0 75 l-356 0 l0 76 l947 0 l0 -76 l-349 0 l0 -75 l313 0 l0 -333 q0 -20 -7.5 -37 q-7.5 -17 -20 -30 q-12.5 -13 -29.5 -20.5 q-17 -7.5 -36 -7.5 l-233 0 ZM300 464 l82 0 l0 100 l-82 0 l0 -100 ZM300 288 l82 0 l0 100 l-82 0 l0 -100 ZM624 564 l0 -100 l75 0 l0 100 l-75 0 ZM670 288 q12 0 20.5 8.5 q8.5 8.5 8.5 20.5 l0 71 l-75 0 l0 -100 l46 0 Z" /><glyph glyph-name="cid1789" unicode="&#x2f2f;&#x5de5;" d="M79 748 l842 0 l0 -76 l-302 0 l0 -708 l354 0 l0 -76 l-946 0 l0 76 l354 0 l0 708 l-302 0 l0 76 Z" /><glyph glyph-name="cid1790" unicode="&#x653b;" d="M34 779 l374 0 l0 -76 l-73 0 l0 -700 l73 11 l0 -76 l-383 -58 l0 76 l82 13 l0 734 l-73 0 l0 76 ZM708 828 l-20 -125 l285 0 l0 -66 l-21 0 l0 -277 l-132 -217 l154 -268 l-245 0 l-35 61 l-37 -61 l-246 0 l163 267 l-127 219 l0 115 l229 0 l0 -81 l25 -44 l27 44 l0 232 l-52 0 l-20 -124 l-223 0 l54 325 l221 0 Z" /><glyph glyph-name="cid1794" unicode="&#x4f9b;" d="M649 260 l56 0 l0 315 l-56 0 l0 -315 ZM769 -121 l-51 265 l204 0 l51 -265 l-204 0 ZM390 -121 l50 265 l204 0 l-50 -265 l-204 0 ZM341 823 l-50 -236 l34 0 l0 -708 l-219 0 l0 500 l-79 0 l94 444 l220 0 ZM401 651 l40 0 l0 170 l208 0 l0 -170 l56 0 l0 170 l209 0 l0 -170 l39 0 l0 -76 l-39 0 l0 -315 l59 0 l0 -76 l-592 0 l0 76 l60 0 l0 315 l-40 0 l0 76 Z" /><glyph glyph-name="cid1796" unicode="&#x516c;" d="M770 820 l203 -508 l-237 0 l-204 508 l238 0 ZM466 820 l-151 -377 l194 0 l-170 -485 l361 0 q16 0 24 13.5 q8 13.5 2 27.5 l-79 213 l233 0 l67 -194 q9 -25 6.5 -49 q-2.5 -24 -14.5 -43.5 q-12 -19.5 -31.5 -31.5 q-19.5 -12 -45.5 -12 l-797 0 l165 430 l-204 0 l203 508 l237 0 Z" /><glyph glyph-name="cid1841" unicode="&#x5173;" d="M895 823 l-53 -176 l112 0 l0 -76 l-323 0 l0 -232 l343 0 l0 -76 l-273 0 l273 -382 l-274 0 l-201 281 l-199 -281 l-274 0 l271 382 l-271 0 l0 76 l345 0 l0 232 l-326 0 l0 76 l112 0 l-53 176 l237 0 l54 -176 l209 0 l54 176 l237 0 Z" /><glyph glyph-name="cid1845" unicode="&#x7ba1;" d="M86 -121 l0 443 l813 0 l0 -125 q0 -32 -21.5 -54 q-21.5 -22 -53.5 -22 l-521 0 l0 -42 l651 0 l0 -124 q0 -32 -22 -54 q-22 -22 -54 -22 l-792 0 ZM267 359 l-237 0 l0 155 l351 0 l0 45 l238 0 l0 -45 l351 0 l0 -155 l-237 0 l0 77 l-466 0 l0 -77 ZM497 578 l50 244 l201 0 l-8 -41 l232 0 l0 -76 l-39 0 l22 -127 l-193 0 l-22 127 l-16 0 l-25 -127 l-202 0 ZM28 577 l48 245 l201 0 l-8 -41 l232 0 l0 -76 l-40 0 l23 -127 l-193 0 l-23 127 l-15 0 l-25 -128 l-200 0 ZM728 -45 q8 0 13.5 5.5 q5.5 5.5 5.5 13.5 l0 29 l-444 0 l0 -48 l425 0 ZM673 197 q8 0 13.5 5.5 q5.5 5.5 5.5 13.5 l0 30 l-389 0 l0 -49 l370 0 Z" /><glyph glyph-name="cid1846" unicode="&#x9986;" d="M780 468 l-140 0 l0 -143 l116 0 q10 0 17 9 q7 9 7 20 l0 114 ZM640 102 l0 -150 l128 0 q11 0 18 8 q7 8 7 20 l0 122 l-153 0 ZM794 657 l-177 0 l0 -88 l-181 0 l0 165 l170 0 l0 91 l199 0 l0 -91 l169 0 l0 -165 l-180 0 l0 88 ZM26 452 l64 373 l153 0 l-19 -110 l195 0 l-36 -263 l-152 0 l31 187 l-52 0 l-32 -187 l-152 0 ZM116 -122 l0 536 l187 0 l0 -460 l60 0 l0 -76 l-247 0 ZM958 344 q0 -20 -6.5 -37 q-6.5 -17 -18 -30 q-11.5 -13 -26.5 -20.5 q-15 -7.5 -32 -7.5 l-235 0 l0 -70 l331 0 l0 -208 q0 -20 -6.5 -37 q-6.5 -17 -18 -30 q-11.5 -13 -26.5 -20.5 q-15 -7.5 -32 -7.5 l-426 0 l0 668 l496 0 l0 -200 Z" /><glyph glyph-name="cid1851" unicode="&#x5149;" d="M279 774 l39 -296 l-213 0 l-39 296 l213 0 ZM932 774 l-43 -296 l-213 0 l43 296 l213 0 ZM618 824 l0 -423 l354 0 l0 -76 l-167 0 l0 -368 l168 0 l0 -75 l-405 0 l0 443 l-146 0 l-142 -448 l-237 0 l143 448 l-160 0 l0 76 l354 0 l0 423 l238 0 Z" /><glyph glyph-name="cid1865" unicode="&#x6842;" d="M26 -123 l13 694 l92 0 l-14 -694 l-91 0 ZM433 571 l13 -694 l-91 0 l-15 694 l93 0 ZM483 692 l114 0 l0 131 l236 0 l0 -131 l114 0 l0 -76 l-114 0 l0 -160 l140 0 l0 -76 l-516 0 l0 76 l140 0 l0 160 l-114 0 l0 76 ZM484 196 l113 0 l0 141 l236 0 l0 -141 l113 0 l0 -75 l-113 0 l0 -169 l138 0 l0 -76 l-512 0 l0 76 l138 0 l0 169 l-113 0 l0 75 ZM26 706 l117 0 l0 122 l186 0 l0 -122 l117 0 l0 -77 l-117 0 l0 -752 l-186 0 l0 752 l-117 0 l0 77 Z" /><glyph glyph-name="cid1875" unicode="&#x56fd;" d="M727 292 l12 -149 l-113 0 l-12 149 l113 0 ZM262 651 l475 0 l0 -75 l-144 0 l0 -158 l132 0 l0 -76 l-132 0 l0 -240 l154 0 l0 -76 l-495 0 l0 76 l144 0 l0 240 l-122 0 l0 76 l122 0 l0 158 l-134 0 l0 75 ZM224 721 l0 -754 l529 0 q9 0 15.5 6 q6.5 6 6.5 16 l0 732 l-551 0 ZM38 790 l923 0 l0 -818 q0 -31 -22 -53 q-22 -22 -53 -22 l-848 0 l0 893 Z" /><glyph glyph-name="cid1878" unicode="&#x8fc7;" d="M307 823 l14 -176 l-237 0 l-14 176 l237 0 ZM596 525 l29 -353 l-199 0 l-30 353 l200 0 ZM26 594 l328 0 l-76 -282 l77 0 l-64 -354 l683 0 l0 -76 l-929 0 l64 320 l-74 0 l74 308 l-83 0 l0 84 ZM379 704 l296 0 l0 119 l238 0 l0 -119 l61 0 l0 -76 l-61 0 l0 -532 q0 -20 -7.5 -37 q-7.5 -17 -20 -30 q-12.5 -13 -30 -20.5 q-17.5 -7.5 -36.5 -7.5 l-246 0 l0 76 l73 0 q11 0 20 9 q9 9 9 20 l0 522 l-296 0 l0 76 Z" /><glyph glyph-name="cid1882" unicode="&#x6d77;" d="M707 153 l22 -162 l-150 0 l-22 162 l150 0 ZM707 468 l22 -163 l-150 0 l-22 163 l150 0 ZM228 822 l45 -207 l-194 0 l-45 207 l194 0 ZM228 574 l47 -207 l-194 0 l-47 207 l194 0 ZM765 193 l-244 0 l0 -235 l213 0 q13 0 22 8 q9 8 9 20 l0 207 ZM521 269 l244 0 l0 236 l-244 0 l0 -236 ZM574 827 l-20 -70 l420 0 l0 -76 l-441 0 l-22 -82 l-203 0 l65 228 l201 0 ZM275 320 l-47 -443 l-194 0 l47 443 l194 0 ZM308 269 l25 0 l0 312 l620 0 l0 -312 l21 0 l0 -76 l-21 0 l0 -235 q0 -32 -24 -54 q-24 -22 -59 -22 l-537 0 l0 311 l-25 0 l0 76 Z" /><glyph glyph-name="cid1914" unicode="&#x597d;" d="M257 632 l-32 -392 l19 -29 l23 36 l36 385 l-46 0 ZM491 804 l479 0 l-125 -361 l0 -54 l129 0 l0 -76 l-129 0 l0 -344 q0 -20 -8 -37 q-8 -17 -22 -29.5 q-14 -12.5 -32.5 -20 q-18.5 -7.5 -39.5 -7.5 l-201 0 l0 75 l63 0 q14 0 22.5 8.5 q8.5 8.5 8.5 20.5 l0 334 l-146 0 l0 76 l146 0 l0 64 l109 294 l-254 0 l0 57 ZM27 709 l54 0 l10 119 l183 0 l-10 -119 l208 0 l-39 -496 l-96 -144 l125 -192 l-192 0 l-30 47 l-31 -47 l-183 0 l123 188 l-107 167 l33 400 l-48 0 l0 77 Z" /><glyph glyph-name="cid1916" unicode="&#x53f7;" d="M699 722 l-388 0 l0 -174 l360 0 q11 0 19.5 8.5 q8.5 8.5 8.5 20.5 l0 145 ZM26 402 l948 0 l0 -76 l-621 0 l-24 -116 l598 0 l0 -231 q0 -20 -7.5 -37 q-7.5 -17 -20 -30 q-12.5 -13 -30 -20.5 q-17.5 -7.5 -37.5 -7.5 l-671 0 l0 76 l494 0 q11 0 19.5 8.5 q8.5 8.5 8.5 20.5 l0 145 l-602 0 l35 192 l-90 0 l0 76 ZM73 798 l864 0 l0 -212 q0 -24 -9 -44.5 q-9 -20.5 -24.5 -36 q-15.5 -15.5 -36 -24.5 q-20.5 -9 -44.5 -9 l-750 0 l0 326 Z" /><glyph glyph-name="cid1924" unicode="&#x548c;" d="M718 708 l0 -755 l53 0 q10 0 17 8.5 q7 8.5 7 19.5 l0 727 l-77 0 ZM495 501 l12 -625 l-101 0 l-12 625 l101 0 ZM148 501 l-14 -625 l-101 0 l12 625 l103 0 ZM39 809 l463 0 l0 -76 l-130 0 l0 -92 l135 0 l0 -76 l-135 0 l0 -689 l-204 0 l0 689 l-135 0 l0 76 l135 0 l0 92 l-129 0 l0 76 ZM547 -123 l0 906 l420 0 l0 -811 q0 -20 -6.5 -37 q-6.5 -17 -18 -30 q-11.5 -13 -27 -20.5 q-15.5 -7.5 -32.5 -7.5 l-336 0 Z" /><glyph glyph-name="cid1926" unicode="&#x5408;" d="M64 398 l873 0 l0 -76 l-873 0 l0 76 ZM704 182 l-407 0 l0 -220 l379 0 q11 0 19.5 8 q8.5 8 8.5 20 l0 192 ZM374 821 l257 0 l315 -295 l26 0 l0 -76 l-240 0 l-230 228 l-239 -228 l-235 0 l0 76 l32 0 l314 295 ZM69 258 l862 0 l0 -258 q0 -24 -9 -44.5 q-9 -20.5 -24 -36 q-15 -15.5 -35.5 -24.5 q-20.5 -9 -44.5 -9 l-749 0 l0 372 Z" /><glyph glyph-name="cid1934" unicode="&#x9e64;" d="M181 605 l21 51 l-21 0 l0 -51 ZM246 125 l79 0 l0 76 l-79 0 l0 -76 ZM246 277 l79 0 l0 79 l-79 0 l0 -79 ZM246 -30 l79 0 l0 79 l-79 0 l0 -79 ZM797 621 l14 -153 l-71 0 l-13 153 l70 0 ZM572 139 l226 0 l0 -76 l-226 0 l0 76 ZM804 825 l-17 -79 l180 0 l0 -299 q0 -39 -23 -67 q-23 -28 -56 -28 l-116 0 l0 76 l25 0 q11 0 17.5 8 q6.5 8 6.5 20 l0 214 l-107 0 l0 -354 l261 0 l0 -345 q0 -39 -23.5 -67 q-23.5 -28 -56.5 -28 l-171 0 l0 76 l77 0 q10 0 17 8 q7 8 7 20 l0 260 l-237 0 l0 506 l61 0 l17 79 l138 0 ZM41 733 l194 0 l40 92 l156 0 l-41 -92 l159 0 l0 -172 l-140 0 l0 95 l-53 0 l-98 -224 l64 0 l-14 94 l143 0 l16 -94 l83 0 l0 -76 l-81 0 l0 -79 l81 0 l0 -76 l-81 0 l0 -76 l81 0 l0 -76 l-81 0 l0 -79 l81 0 l0 -76 l-304 0 l0 -18 l-143 0 l0 372 l-75 0 l134 313 l-121 0 l0 172 Z" /><glyph glyph-name="cid1955" unicode="&#x7ea2;" d="M26 -43 l330 24 l0 -76 l-330 -24 l0 76 ZM355 822 l-73 -294 l83 0 l-85 -411 l73 0 l0 -76 l-316 0 l79 333 l-83 0 l110 448 l212 0 ZM421 807 l534 0 l0 -76 l-148 0 l0 -774 l166 0 l0 -76 l-571 0 l0 76 l167 0 l0 774 l-148 0 l0 76 Z" /><glyph glyph-name="cid1962" unicode="&#x540e;" d="M703 341 l-128 0 l0 -385 l100 0 q11 0 19.5 8 q8.5 8 8.5 21 l0 356 ZM37 800 l878 0 l0 -76 l-639 0 l0 -133 l687 0 l0 -76 l-687 0 l0 -639 l-239 0 l0 924 ZM334 417 l607 0 l0 -423 q0 -24 -9 -44.5 q-9 -20.5 -24.5 -36 q-15.5 -15.5 -36.5 -24.5 q-21 -9 -44 -9 l-493 0 l0 537 Z" /><glyph glyph-name="cid1978" unicode="&#x4e92;" d="M376 499 l-44 -302 l263 0 l35 302 l-254 0 ZM37 799 l925 0 l0 -76 l-554 0 l-21 -148 l481 0 l-68 -611 l174 0 l0 -76 l-948 0 l0 76 l542 0 l18 157 l-492 0 l82 602 l-139 0 l0 76 Z" /><glyph glyph-name="cid1981" unicode="&#x82b1;" d="M130 -124 l0 319 l-103 0 l144 305 l233 0 l-85 -179 l44 0 l0 -445 l-233 0 ZM27 714 l135 0 l0 110 l237 0 l0 -110 l202 0 l0 110 l236 0 l0 -110 l135 0 l0 -76 l-135 0 l0 -97 l-236 0 l0 97 l-202 0 l0 -97 l-237 0 l0 97 l-135 0 l0 76 ZM802 297 l170 43 l0 -81 l-170 -43 l0 -259 l170 0 l0 -76 l-407 0 l0 275 l-154 -38 l0 81 l154 38 l0 263 l237 0 l0 -203 Z" /><glyph glyph-name="cid1983" unicode="&#x534e;" d="M148 824 l236 0 l-73 -186 l37 0 l0 -359 l-227 0 l0 242 l-95 0 l122 303 ZM26 174 l355 0 l0 83 l238 0 l0 -83 l355 0 l0 -76 l-355 0 l0 -220 l-238 0 l0 220 l-355 0 l0 76 ZM413 531 l144 47 l0 246 l227 0 l0 -170 l190 63 l0 -83 l-190 -63 l0 -207 l190 0 l0 -76 l-417 0 l0 208 l-144 -47 l0 82 Z" /><glyph glyph-name="cid1986" unicode="&#x753b;" d="M243 14 l0 628 l513 0 l0 -553 q0 -32 -22 -53.5 q-22 -21.5 -54 -21.5 l-437 0 ZM214 -40 l542 0 q12 0 20 9.5 q8 9.5 8 21.5 l0 559 l180 0 l0 -569 q0 -20 -7.5 -37.5 q-7.5 -17.5 -20.5 -30.5 q-13 -13 -30 -21 q-17 -8 -36 -8 l-834 0 l0 666 l178 0 l0 -590 ZM27 777 l946 0 l0 -76 l-946 0 l0 76 ZM573 567 l0 -202 l30 0 l0 202 l-30 0 ZM584 89 q8 0 13.5 5.5 q5.5 5.5 5.5 13.5 l0 182 l-30 0 l0 -201 l11 0 ZM398 365 l28 0 l0 202 l-28 0 l0 -202 ZM398 89 l28 0 l0 201 l-28 0 l0 -201 Z" /><glyph glyph-name="cid1988" unicode="&#x5316;" d="M390 827 l-68 -237 l51 0 l0 -711 l-233 0 l0 502 l-113 0 l129 446 l234 0 ZM431 335 l142 86 l0 405 l237 0 l0 -260 l149 91 l0 -140 l-149 -91 l0 -472 l151 0 l0 -75 l-388 0 l0 403 l-142 -86 l0 139 Z" /><glyph glyph-name="cid1989" unicode="&#x8bdd;" d="M299 827 l0 -197 l-224 0 l0 197 l224 0 ZM758 238 l-182 0 l0 -284 l154 0 q12 0 20 8 q8 8 8 20 l0 256 ZM25 582 l274 0 l0 -629 l39 0 l0 -76 l-263 0 l0 628 l-50 0 l0 77 ZM383 810 l568 0 l0 -76 l-175 0 l0 -160 l194 0 l0 -76 l-194 0 l0 -184 l187 0 l0 -341 q0 -20 -7.5 -37 q-7.5 -17 -20.5 -30 q-13 -13 -30.5 -20.5 q-17.5 -7.5 -36.5 -7.5 l-496 0 l0 436 l186 0 l0 184 l-193 0 l0 76 l193 0 l0 160 l-175 0 l0 76 Z" /><glyph glyph-name="cid2038" unicode="&#x4f1a;" d="M59 408 l882 0 l0 -76 l-882 0 l0 76 ZM711 468 l-207 265 l-212 -265 l-267 0 l276 356 l396 0 l276 -356 l-262 0 ZM27 245 l948 0 l0 -76 l-578 0 l-73 -206 l362 0 q15 0 24 13 q9 14 1 28 l-55 109 l233 0 l43 -90 q11 -23 10 -47 q-1 -24 -15 -46 q-28 -43 -80 -43 l-792 0 l103 282 l-131 0 l0 76 Z" /><glyph glyph-name="cid2040" unicode="&#x6c47;" d="M240 815 l49 -205 l-210 0 l-49 205 l210 0 ZM291 317 l-51 -440 l-210 0 l51 440 l210 0 ZM240 569 l51 -206 l-210 0 l-51 206 l210 0 ZM365 812 l605 0 l0 -76 l-386 0 l0 -783 l382 0 l0 -76 l-601 0 l0 935 Z" /><glyph glyph-name="cid2043" unicode="&#x7ed8;" d="M27 -41 l343 23 l0 -76 l-343 -23 l0 76 ZM445 405 l482 0 l0 -76 l-482 0 l0 76 ZM570 825 l229 0 l176 -370 l-211 0 l-79 166 l-75 -166 l-214 0 l174 370 ZM396 249 l579 0 l0 -76 l-279 0 l-49 -216 l97 0 q11 0 15 7 q6 9 3 18 l-38 143 l201 0 l46 -169 q4 -14 2.5 -27 q-1.5 -13 -9.5 -24 q-18 -24 -47 -24 l-504 0 l73 292 l-90 0 l0 76 ZM369 825 l-76 -294 l86 0 l-88 -412 l76 0 l0 -76 l-328 0 l82 334 l-87 0 l115 448 l220 0 Z" /><glyph glyph-name="cid2051" unicode="&#x6d3b;" d="M227 822 l46 -207 l-194 0 l-45 207 l193 0 ZM227 574 l48 -207 l-194 0 l-47 207 l193 0 ZM749 238 l-211 0 l0 -284 l182 0 q13 0 21 8 q8 8 8 20 l0 256 ZM275 320 l-48 -443 l-193 0 l47 443 l194 0 ZM336 810 l615 0 l0 -76 l-203 0 l0 -178 l222 0 l0 -76 l-222 0 l0 -166 l205 0 l0 -341 q0 -20 -7.5 -37 q-7.5 -17 -20.5 -30 q-13 -13 -30.5 -20.5 q-17.5 -7.5 -36.5 -7.5 l-524 0 l0 436 l196 0 l0 166 l-212 0 l0 76 l212 0 l0 178 l-194 0 l0 76 Z" /><glyph glyph-name="cid2054" unicode="&#x83b7;" d="M831 401 l-10 142 l124 0 l9 -142 l-123 0 ZM26 748 l128 0 l0 74 l238 0 l0 -74 l216 0 l0 74 l238 0 l0 -74 l127 0 l0 -76 l-127 0 l0 -74 l-238 0 l0 74 l-216 0 l0 -74 l-238 0 l0 74 l-128 0 l0 76 ZM26 77 l129 88 l0 106 l-11 26 l-118 -80 l0 103 l84 57 l-76 183 l241 0 l23 -55 l83 57 l0 -103 l-49 -34 l44 -103 l0 -351 q0 -20 -7.5 -37 q-7.5 -17 -20.5 -30 q-13 -13 -30.5 -20.5 q-17.5 -7.5 -36.5 -7.5 l-196 0 l0 63 l42 0 q12 0 20 8 q8 8 8 20 l0 94 l-129 -87 l0 103 ZM397 378 l158 0 l0 177 l238 0 l0 -177 l180 0 l0 -76 l-157 0 l138 -426 l-214 0 l-67 195 l-67 -195 l-213 0 l138 426 l-134 0 l0 76 Z" /><glyph glyph-name="cid2056" unicode="&#x60d1;" d="M341 516 l-108 0 l0 -115 l80 0 q12 0 20 8.5 q8 8.5 8 20.5 l0 86 ZM941 817 l32 -84 l-182 0 l-33 84 l183 0 ZM718 181 l19 -187 l-199 0 l-19 187 l199 0 ZM27 290 l520 0 l0 -76 l-520 0 l0 76 ZM943 143 l30 -260 l-188 0 l-30 260 l188 0 ZM238 151 l-22 -261 l-189 0 l22 261 l189 0 ZM491 164 l0 -203 l263 0 l0 -82 l-492 0 l0 285 l229 0 ZM530 592 l0 -172 q0 -20 -7.5 -37 q-7.5 -17 -20 -30 q-12.5 -13 -30 -20.5 q-17.5 -7.5 -37.5 -7.5 l-390 0 l0 267 l485 0 ZM712 822 l43 -114 l218 0 l0 -76 l-189 0 l57 -150 l132 87 l0 -118 l-96 -63 l46 -119 l50 0 l0 -76 l-254 0 l-28 73 l-110 -73 l0 119 l75 49 l-102 271 l-527 0 l0 76 l499 0 l-43 114 l229 0 Z" /><glyph glyph-name="cid2060" unicode="&#x51fb;" d="M55 696 l326 0 l0 127 l238 0 l0 -127 l327 0 l0 -76 l-327 0 l0 -183 l355 0 l0 -76 l-355 0 l0 -394 l84 0 q11 0 20 8 q9 8 9 20 l0 271 l217 0 l0 -280 q0 -40 -27.5 -67.5 q-27.5 -27.5 -67.5 -27.5 l-802 0 l0 375 l217 0 l0 -299 l112 0 l0 394 l-355 0 l0 76 l355 0 l0 183 l-326 0 l0 76 Z" /><glyph glyph-name="cid2062" unicode="&#x57fa;" d="M374 352 l253 0 l0 61 l-253 0 l0 -61 ZM374 489 l253 0 l0 62 l-253 0 l0 -62 ZM374 627 l253 0 l0 63 l-253 0 l0 -63 ZM628 205 l0 -85 l319 0 l0 -76 l-319 0 l0 -73 l341 0 l0 -76 l-938 0 l0 76 l341 0 l0 73 l-319 0 l0 76 l319 0 l0 85 l256 0 ZM883 825 l0 -59 l64 0 l0 -76 l-64 0 l0 -338 l89 0 l0 -76 l-53 0 l52 -134 l-245 0 l-52 134 l-348 0 l-52 -134 l-244 0 l51 134 l-53 0 l0 76 l89 0 l0 338 l-64 0 l0 76 l64 0 l0 59 l257 0 l0 -59 l253 0 l0 59 l256 0 Z" /><glyph glyph-name="cid2063" unicode="&#x673a;" d="M26 -121 l13 711 l93 0 l-14 -711 l-92 0 ZM436 590 l15 -711 l-94 0 l-13 711 l92 0 ZM26 705 l119 0 l0 123 l187 0 l0 -123 l119 0 l0 -77 l-119 0 l0 -749 l-187 0 l0 749 l-119 0 l0 77 ZM474 812 l457 0 l0 -859 l42 0 l0 -76 l-246 0 l0 860 l-49 0 l0 -860 l-204 0 l0 935 Z" /><glyph glyph-name="cid2070" unicode="&#x8ff9;" d="M264 822 l19 -176 l-199 0 l-19 176 l199 0 ZM438 535 l-24 -422 l-107 0 l24 422 l107 0 ZM960 535 l14 -422 l-108 0 l-15 422 l109 0 ZM26 608 l280 0 l-66 -315 l68 0 l-56 -336 l722 0 l0 -76 l-939 0 l59 301 l-63 0 l59 341 l-64 0 l0 85 ZM762 822 l0 -116 l212 0 l0 -75 l-140 0 l0 -539 q0 -40 -27 -67.5 q-27 -27.5 -66 -27.5 l-118 0 l0 76 l11 0 q12 0 20 8.5 q8 8.5 8 19.5 l0 530 l-25 0 l-36 -634 l-172 0 l36 634 l-130 0 l0 75 l212 0 l0 116 l215 0 Z" /><glyph glyph-name="cid2078" unicode="&#x6781;" d="M675 729 l-29 -298 l89 -150 l51 155 l-100 0 l65 293 l-76 0 ZM27 -123 l12 694 l85 0 l-13 -694 l-84 0 ZM402 571 l13 -694 l-85 0 l-12 694 l84 0 ZM27 706 l107 0 l0 122 l172 0 l0 -122 l109 0 l0 -77 l-109 0 l0 -752 l-172 0 l0 752 l-107 0 l0 77 ZM448 804 l485 0 l-64 -293 l106 0 l-134 -409 l132 -224 l-168 0 l-24 41 l-13 -41 l-164 0 l71 219 l-52 89 l-30 -308 l-163 0 l81 851 l-63 0 l0 75 Z" /><glyph glyph-name="cid2080" unicode="&#x8f91;" d="M653 19 l109 0 l0 71 l-109 0 l0 -71 ZM653 324 l109 0 l0 77 l-109 0 l0 -77 ZM653 165 l109 0 l0 83 l-109 0 l0 -83 ZM634 593 l125 0 q11 0 18 7.5 q7 7.5 7 18.5 l0 107 l-150 0 l0 -133 ZM948 609 q0 -38 -23.5 -64.5 q-23.5 -26.5 -56.5 -26.5 l-402 0 l0 284 l482 0 l0 -193 ZM243 722 l183 0 l0 -77 l-194 0 l-41 -288 l31 0 l0 188 l122 0 l0 -188 l82 0 l0 -77 l-82 0 l0 -122 l78 7 l0 -81 l-78 -7 l0 -201 l-173 0 l0 185 l-143 -12 l0 81 l143 12 l0 138 l-145 0 l50 365 l-48 0 l0 77 l59 0 l15 105 l156 0 l-15 -105 ZM440 477 l534 0 l0 -76 l-33 0 l0 -382 l33 0 l0 -76 l-33 0 l0 -64 l-179 0 l0 64 l-322 0 l0 76 l34 0 l0 382 l-34 0 l0 76 Z" /><glyph glyph-name="cid2082" unicode="&#x96c6;" d="M337 305 l159 0 l0 59 l-159 0 l0 -59 ZM337 440 l159 0 l0 68 l-159 0 l0 -68 ZM337 584 l159 0 l0 73 l-159 0 l0 -73 ZM55 152 l344 0 l0 49 l238 0 l0 -49 l330 0 l0 -76 l-53 0 l53 -200 l-237 0 l-54 200 l-39 0 l0 -200 l-238 0 l0 200 l-38 0 l-54 -200 l-237 0 l53 200 l-68 0 l0 76 ZM100 198 l0 298 l-73 0 l114 329 l233 0 l-32 -92 l140 0 l-21 87 l241 0 l22 -87 l248 0 l0 -76 l-238 0 l0 -73 l220 0 l0 -76 l-220 0 l0 -68 l220 0 l0 -76 l-220 0 l0 -59 l234 0 l0 -76 l-631 0 l0 -31 l-237 0 Z" /><glyph glyph-name="cid2083" unicode="&#x53ca;" d="M422 716 l-48 -253 l196 -195 l87 137 l-180 0 l179 311 l-234 0 ZM62 791 l884 0 l-179 -309 l203 0 l-240 -373 l233 -231 l-285 0 l-59 58 l-37 -58 l-262 0 l137 214 l-130 126 l-65 -340 l-233 0 l155 838 l-122 0 l0 75 Z" /><glyph glyph-name="cid2089" unicode="&#x7ea7;" d="M26 -41 l307 23 l0 -76 l-307 -23 l0 76 ZM641 738 l-33 -300 l99 -153 l56 156 l-110 0 l71 297 l-83 0 ZM332 825 l-68 -294 l77 0 l-79 -412 l68 0 l0 -76 l-294 0 l74 334 l-78 0 l102 448 l198 0 ZM388 814 l539 0 l-72 -297 l118 0 l-148 -413 l146 -225 l-187 0 l-26 40 l-14 -40 l-182 0 l79 220 l-59 90 l-33 -310 l-181 0 l91 859 l-71 0 l0 76 Z" /><glyph glyph-name="cid2093" unicode="&#x2f30;&#x5df1;" d="M58 772 l839 0 l0 -356 q0 -20 -7.5 -37 q-7.5 -17 -20.5 -30 q-13 -13 -30.5 -20.5 q-17.5 -7.5 -36.5 -7.5 l-506 0 l0 -356 l645 0 l0 -76 l-883 0 l0 508 l564 0 q15 0 26.5 11.5 q11.5 11.5 11.5 26.5 l0 262 l-602 0 l0 75 Z" /><glyph glyph-name="cid2095" unicode="&#x6280;" d="M316 827 l0 -186 l67 0 l0 -77 l-67 0 l0 -279 l67 15 l0 -77 l-67 -14 l0 -236 q0 -20 -10 -37.5 q-10 -17.5 -26.5 -30.5 q-16.5 -13 -39.5 -20.5 q-23 -7.5 -48 -7.5 l-158 0 l0 76 l22 0 q15 0 26 8.5 q11 8.5 11 20.5 l0 179 l-65 -13 l0 76 l65 14 l0 326 l-65 0 l0 77 l65 0 l0 186 l223 0 ZM409 727 l158 0 l0 100 l246 0 l0 -100 l159 0 l0 -76 l-159 0 l0 -138 l159 0 l0 -125 l-172 -246 l172 -266 l-242 0 l-56 87 l-61 -87 l-240 0 l184 267 l-138 214 l0 34 l221 0 l42 -66 l78 112 l-348 0 l0 76 l155 0 l0 138 l-158 0 l0 76 Z" /><glyph glyph-name="cid2102" unicode="&#x6d4e;" d="M549 673 l93 -75 l93 75 l-186 0 ZM235 578 l51 -208 l-209 0 l-50 208 l208 0 ZM235 828 l49 -208 l-209 0 l-48 208 l208 0 ZM538 -123 l-213 0 l54 413 l213 0 l-54 -413 ZM706 290 l214 0 l0 -413 l-214 0 l0 413 ZM286 323 l-51 -446 l-208 0 l50 446 l209 0 ZM759 827 l0 -77 l216 0 l0 -77 l-63 0 l0 -58 l-147 -118 l210 -169 l-245 0 l-88 70 l-88 -70 l-246 0 l210 170 l-146 117 l0 58 l-64 0 l0 77 l216 0 l0 77 l235 0 Z" /><glyph glyph-name="cid2105" unicode="&#x8ba1;" d="M305 822 l0 -196 l-205 0 l0 196 l205 0 ZM26 578 l279 0 l0 -625 l64 0 l0 -76 l-269 0 l0 625 l-74 0 l0 76 ZM356 468 l200 0 l0 356 l222 0 l0 -356 l194 0 l0 -76 l-194 0 l0 -516 l-222 0 l0 516 l-200 0 l0 76 Z" /><glyph glyph-name="cid2106" unicode="&#x8bb0;" d="M25 582 l273 0 l0 -629 l38 0 l0 -76 l-262 0 l0 628 l-49 0 l0 77 ZM298 827 l0 -197 l-224 0 l0 197 l224 0 ZM396 813 l563 0 l0 -385 q0 -20 -8 -37.5 q-8 -17.5 -22 -30.5 q-14 -13 -33 -20.5 q-19 -7.5 -41 -7.5 l-216 0 l0 -379 l335 0 l0 -77 l-578 0 l0 533 l290 0 q12 0 21.5 8 q9.5 8 9.5 20 l0 299 l-321 0 l0 77 Z" /><glyph glyph-name="cid2109" unicode="&#x9645;" d="M442 806 l509 0 l0 -76 l-509 0 l0 76 ZM837 -109 l-25 464 l137 0 l26 -464 l-138 0 ZM420 -109 l26 464 l138 0 l-27 -464 l-137 0 ZM420 522 l555 0 l0 -77 l-183 0 l0 -474 q0 -20 -7 -37 q-7 -17 -19.5 -30.5 q-12.5 -13.5 -29 -21 q-16.5 -7.5 -34.5 -7.5 l-133 0 l0 77 l6 0 q11 0 19.5 8.5 q8.5 8.5 8.5 21.5 l0 463 l-183 0 l0 77 ZM200 730 l0 -855 l-169 0 l0 931 l379 0 q-2 -21 -5 -60.5 q-3 -39.5 -6.5 -86.5 q-3.5 -47 -7.5 -97 q-4 -50 -7 -93 l21 0 q-2 -29 -4 -70 q-2 -41 -4.5 -86 q-2.5 -45 -5 -92 q-2.5 -47 -5 -89 q-2.5 -42 -4.5 -76.5 q-2 -34.5 -3 -54.5 l-160 0 l20 385 l-22 0 l23 344 l-40 0 Z" /><glyph glyph-name="cid2112" unicode="&#x7eaa;" d="M26 -41 l346 23 l0 -76 l-346 -23 l0 76 ZM371 825 l-76 -294 l86 0 l-89 -412 l76 0 l0 -76 l-330 0 l83 334 l-88 0 l115 448 l223 0 ZM440 805 l520 0 l0 -382 q0 -20 -7.5 -37 q-7.5 -17 -20 -30 q-12.5 -13 -30 -20.5 q-17.5 -7.5 -37.5 -7.5 l-201 0 l0 -376 l310 0 l0 -76 l-534 0 l0 528 l268 0 q11 0 20 8.5 q9 8.5 9 20.5 l0 296 l-297 0 l0 76 Z" /><glyph glyph-name="cid2117" unicode="&#x5bb6;" d="M767 -102 l-113 362 l45 156 l206 0 l-47 -156 l113 -362 l-204 0 ZM27 748 l354 0 l0 76 l238 0 l0 -76 l353 0 l0 -156 l-233 0 l0 80 l-479 0 l0 -80 l-233 0 l0 156 ZM30 171 l367 163 l-72 40 l-295 -135 l0 108 l294 131 l-278 0 l0 76 l908 0 l0 -76 l-401 0 l-34 -16 l104 -54 l0 -435 q0 -19 -7.5 -36 q-7.5 -17 -20.5 -30 q-13 -13 -30.5 -20.5 q-17.5 -7.5 -36.5 -7.5 l-235 0 l0 76 l83 0 q11 0 19.5 8 q8.5 8 8.5 19 l0 75 l-374 -171 l0 108 l374 166 l0 74 l-374 -171 l0 108 Z" /><glyph glyph-name="cid2118" unicode="&#x52a0;" d="M712 718 l0 -762 l55 0 q11 0 18.5 8.5 q7.5 8.5 7.5 19.5 l0 734 l-81 0 ZM299 615 l-40 0 l-38 -736 l-193 0 l37 736 l-38 0 l0 71 l42 0 l7 139 l194 0 l-8 -139 l229 0 l0 -712 q0 -20 -7 -37 q-7 -17 -19.5 -30 q-12.5 -13 -29.5 -20.5 q-17 -7.5 -36 -7.5 l-148 0 l0 71 l20 0 q12 0 20 8 q8 8 8 21 l0 636 ZM534 -120 l0 914 l438 0 l0 -819 q0 -20 -7 -37 q-7 -17 -19 -30 q-12 -13 -28 -20.5 q-16 -7.5 -34 -7.5 l-350 0 Z" /><glyph glyph-name="cid2124" unicode="&#x5047;" d="M461 512 l10 0 q13 0 21.5 8.5 q8.5 8.5 8.5 19.5 l0 197 l-40 0 l0 -225 ZM661 813 l307 0 l0 -286 q0 -32 -24.5 -54 q-24.5 -22 -58.5 -22 l-224 0 l0 76 l129 0 q8 0 14.5 5 q6.5 5 6.5 13 l0 192 l-150 0 l0 76 ZM770 298 l22 -47 l40 83 l-192 0 l0 75 l329 0 l0 -118 l-96 -206 l101 -209 l-147 0 l-26 55 l-26 -55 l-163 0 l108 225 l-78 165 l0 32 l128 0 ZM285 821 l-42 -236 l29 0 l0 -707 l-181 0 l0 499 l-65 0 l77 444 l182 0 ZM641 813 l0 -283 q0 -19 -8 -36 q-8 -17 -21.5 -30 q-13.5 -13 -31.5 -20.5 q-18 -7.5 -39 -7.5 l-50 0 l0 -121 l127 0 l0 -76 l-127 0 l0 -153 l127 0 l0 -76 l-127 0 l0 -134 l-180 0 l0 937 l330 0 Z" /><glyph glyph-name="cid2126" unicode="&#x4ef7;" d="M927 374 l0 -498 l-210 0 l0 498 l210 0 ZM627 374 l-43 -498 l-212 0 l44 498 l211 0 ZM672 609 l-72 -195 l-228 0 l156 404 l286 0 l159 -404 l-230 0 l-71 195 ZM347 827 l-51 -238 l35 0 l0 -713 l-223 0 l0 504 l-81 0 l96 447 l224 0 Z" /><glyph glyph-name="cid2132" unicode="&#x575a;" d="M35 325 l0 474 l173 0 l0 -474 l-173 0 ZM240 298 l0 519 l193 0 l0 -519 l-193 0 ZM446 299 l138 174 l-124 142 l0 63 l161 0 l68 -74 l99 124 l-331 0 l0 75 l506 0 l0 -134 l-151 -198 l160 -172 l-235 0 l-30 34 l-26 -34 l-235 0 ZM618 261 l0 -85 l310 0 l0 -76 l-310 0 l0 -136 l348 0 l0 -76 l-939 0 l0 76 l349 0 l0 136 l-310 0 l0 76 l310 0 l0 85 l242 0 Z" /><glyph glyph-name="cid2135" unicode="&#x95f4;" d="M296 16 l0 574 l427 0 l0 -479 q0 -20 -7.5 -37 q-7.5 -17 -20.5 -30 q-13 -13 -30.5 -20.5 q-17.5 -7.5 -36.5 -7.5 l-332 0 ZM723 -46 q16 0 26.5 11 q10.5 11 10.5 27 l0 701 l-452 0 l0 76 l657 0 l0 -796 q0 -20 -7.5 -37 q-7.5 -17 -20.5 -30 q-13 -13 -30.5 -20.5 q-17.5 -7.5 -36.5 -7.5 l-178 0 l0 76 l31 0 ZM53 -122 l0 689 l205 0 l0 -689 l-205 0 ZM53 634 l-19 185 l205 0 l19 -185 l-205 0 ZM471 341 l76 0 l0 188 l-76 0 l0 -188 ZM519 78 q28 0 28 29 l0 158 l-76 0 l0 -187 l48 0 Z" /><glyph glyph-name="cid2149" unicode="&#x7b80;" d="M555 127 l-110 0 l0 -100 l82 0 q11 0 19.5 8.5 q8.5 8.5 8.5 20.5 l0 71 ZM445 203 l110 0 l0 99 l-110 0 l0 -99 ZM43 408 l-14 123 l204 0 l13 -123 l-203 0 ZM31 556 l50 266 l199 0 l-10 -51 l233 0 l0 -76 l-40 0 l24 -139 l-192 0 l-23 139 l-16 0 l-26 -139 l-199 0 ZM499 556 l50 266 l199 0 l-10 -51 l233 0 l0 -76 l-38 0 l22 -139 l-192 0 l-21 139 l-18 0 l-25 -139 l-200 0 ZM39 -119 l0 494 l204 0 l0 -494 l-204 0 ZM286 511 l677 0 l0 -516 q0 -24 -9 -44.5 q-9 -20.5 -24.5 -36 q-15.5 -15.5 -36.5 -24.5 q-21 -9 -44 -9 l-163 0 l0 76 l44 0 q11 0 19.5 8.5 q8.5 8.5 8.5 19.5 l0 450 l-472 0 l0 76 ZM284 378 l432 0 l0 -351 q0 -32 -22 -54 q-22 -22 -53 -22 l-357 0 l0 427 Z" /><glyph glyph-name="cid2158" unicode="&#x89c1;" d="M617 672 l0 -445 l82 0 l0 498 l-398 0 l0 -536 l78 92 l0 391 l238 0 ZM706 160 l0 -209 l261 0 l0 -76 l-497 0 l0 175 l-148 -175 l-289 0 l245 288 l-214 0 l0 638 l872 0 l0 -641 l-230 0 Z" /><glyph glyph-name="cid2161" unicode="&#x4ef6;" d="M319 820 l-47 -236 l32 0 l0 -707 l-205 0 l0 499 l-73 0 l87 444 l206 0 ZM576 773 l-30 -183 l56 0 l0 230 l203 0 l0 -230 l149 0 l0 -76 l-149 0 l0 -320 l168 0 l0 -76 l-168 0 l0 -242 l-203 0 l0 242 l-259 0 l0 76 l259 0 l0 320 l-68 0 l-30 -188 l-180 0 l71 447 l181 0 Z" /><glyph glyph-name="cid2162" unicode="&#x5065;" d="M557 760 l90 0 l0 60 l149 0 l0 -60 l161 0 l0 -157 l16 0 l0 -75 l-16 0 l0 -65 q0 -20 -8 -37 q-8 -17 -22 -30 q-14 -13 -32 -20.5 q-18 -7.5 -39 -7.5 l-60 0 l0 -79 l150 0 l0 -76 l-150 0 l0 -63 l168 0 l0 -75 l-168 0 l0 -95 l-149 0 l0 95 l-117 0 l0 75 l117 0 l0 63 l-100 0 l0 76 l100 0 l0 79 l-90 0 l0 76 l90 0 l0 84 l-108 0 l0 75 l108 0 l0 83 l-90 0 l0 74 ZM485 416 l57 0 l-53 -342 l133 -122 l351 0 l0 -76 l-429 0 l-75 68 l-10 -68 l-159 0 l31 194 l-29 27 l0 151 l50 -47 l20 122 l-57 0 l54 404 l-58 0 l0 76 l228 0 l-54 -387 ZM277 825 l-40 -237 l26 0 l0 -711 l-174 0 l0 502 l-63 0 l75 446 l176 0 ZM796 686 l0 -83 l41 0 l0 83 l-41 0 ZM808 444 q13 0 21 8 q8 8 8 21 l0 55 l-41 0 l0 -84 l12 0 Z" /><glyph glyph-name="cid2169" unicode="&#x5efa;" d="M352 611 l175 0 l0 92 l-148 0 l0 75 l148 0 l0 47 l214 0 l0 -47 l205 0 l0 -167 l28 0 l0 -76 l-28 0 l0 -72 q0 -20 -7.5 -37 q-7.5 -17 -20 -30 q-12.5 -13 -30 -20.5 q-17.5 -7.5 -37.5 -7.5 l-110 0 l0 -74 l195 0 l0 -76 l-195 0 l0 -67 l203 0 l0 -76 l-203 0 l0 -83 l-214 0 l0 83 l-171 0 l0 76 l171 0 l0 67 l-164 0 l0 76 l164 0 l0 74 l-148 0 l0 76 l148 0 l0 91 l-175 0 l0 76 ZM26 811 l321 0 l-89 -375 l97 0 l-73 -320 l219 -156 l473 0 l0 -76 l-608 0 l-118 84 l-20 -88 l-200 0 l47 210 l-45 32 l0 174 l79 -56 l26 119 l-102 0 l89 376 l-96 0 l0 76 ZM741 703 l0 -92 l56 0 l0 92 l-56 0 ZM769 444 q12 0 20 8.5 q8 8.5 8 20.5 l0 62 l-56 0 l0 -91 l28 0 Z" /><glyph glyph-name="cid2188" unicode="&#x4ea4;" d="M839 642 l134 -247 l-236 0 l-135 247 l237 0 ZM397 642 l-134 -247 l-237 0 l134 247 l237 0 ZM618 823 l0 -79 l355 0 l0 -75 l-947 0 l0 75 l355 0 l0 79 l237 0 ZM42 -124 l320 282 l-234 207 l275 0 l96 -85 l97 85 l275 0 l-234 -207 l320 -282 l-276 0 l-182 160 l-181 -160 l-276 0 Z" /><glyph glyph-name="cid2196" unicode="&#x77eb;" d="M762 -124 l0 366 l192 0 l0 -366 l-192 0 ZM467 -124 l35 366 l192 0 l-35 -366 l-192 0 ZM484 816 l473 0 l0 -76 l-153 0 l-43 -138 l213 0 l0 -77 l-67 0 l67 -251 l-192 0 l-57 210 l-66 -210 l-192 0 l78 251 l-78 0 l0 77 l102 0 l43 138 l-128 0 l0 76 ZM192 825 l-11 -123 l245 0 l0 -76 l-69 0 l0 -283 l86 0 l0 -76 l-74 0 l64 -390 l-149 0 l-33 205 l-52 -205 l-150 0 l100 390 l-115 0 l0 76 l148 0 l0 283 l-8 0 l-14 -163 l-135 0 l32 362 l135 0 Z" /><glyph glyph-name="cid2205" unicode="&#x6559;" d="M359 827 l0 -99 l115 0 l0 -77 l-115 0 l0 -102 l159 127 l0 -101 l-105 -83 l105 0 l0 -77 l-202 0 l-80 -64 l284 0 l-133 -195 l0 -6 l150 23 l0 -76 l-150 -23 l0 -102 q0 -20 -7 -37 q-7 -17 -19.5 -30 q-12.5 -13 -30 -20.5 q-17.5 -7.5 -37.5 -7.5 l-200 0 l0 57 l73 0 q12 0 17.5 8.5 q5.5 8.5 5.5 19.5 l0 83 l-163 -24 l0 76 l163 24 l0 47 l93 126 l-118 0 l-136 -108 l0 100 l162 129 l-164 0 l0 77 l135 0 l0 159 l-113 0 l0 77 l113 0 l0 99 l198 0 ZM760 827 l-16 -125 l229 0 l0 -66 l-16 0 l0 -276 l-107 -217 l124 -268 l-198 0 l-28 61 l-30 -61 l-198 0 l131 267 l-102 219 l0 114 l185 0 l0 -80 l20 -43 l21 43 l0 231 l-41 0 l-16 -124 l-179 0 l42 325 l179 0 Z" /><glyph glyph-name="cid2211" unicode="&#x63ed;" d="M751 237 l47 -156 l0 219 l-74 0 l-19 -63 l46 0 ZM762 593 l-157 0 l0 -80 l126 0 q14 0 22.5 8.5 q8.5 8.5 8.5 20.5 l0 51 ZM605 670 l157 0 l0 80 l-157 0 l0 -80 ZM290 828 l0 -186 l62 0 l0 -77 l-62 0 l0 -280 l62 15 l0 -76 l-62 -15 l0 -236 q0 -20 -9 -37.5 q-9 -17.5 -24 -30.5 q-15 -13 -35 -20.5 q-20 -7.5 -43 -7.5 l-143 0 l0 77 l20 0 q13 0 23.5 8 q10.5 8 10.5 20 l0 180 l-59 -14 l0 77 l59 14 l0 326 l-59 0 l0 77 l59 0 l0 186 l200 0 ZM404 827 l560 0 l0 -276 q0 -23 -9 -44 q-9 -21 -25 -36.5 q-16 -15.5 -38 -24.5 q-22 -9 -47 -9 l-441 0 l0 390 ZM362 219 l73 197 l164 0 l-15 -40 l384 0 l0 -386 q0 -24 -10 -45 q-10 -21 -26.5 -36 q-16.5 -15 -39 -24 q-22.5 -9 -47.5 -9 l-101 0 l0 76 l23 0 q14 0 22.5 8.5 q8.5 8.5 8.5 20.5 l0 57 l-108 0 l-23 74 l-22 -74 l-102 0 l0 -45 l183 0 l0 -77 l-334 0 l0 279 l151 0 l0 -97 l60 202 l-48 0 l-30 -81 l-163 0 Z" /><glyph glyph-name="cid2212" unicode="&#x63a5;" d="M742 212 l0 76 l-128 0 l0 -76 l64 -52 l64 52 ZM792 827 l0 -75 l176 0 l0 -76 l-578 0 l0 76 l175 0 l0 75 l227 0 ZM612 644 l22 -121 l89 0 l22 121 l200 0 l-23 -121 l53 0 l0 -76 l-592 0 l0 76 l52 0 l-21 121 l198 0 ZM295 828 l0 -186 l63 0 l0 -77 l-63 0 l0 -280 l63 15 l0 -76 l-63 -15 l0 -236 q0 -20 -9 -37.5 q-9 -17.5 -25 -30.5 q-16 -13 -36.5 -20.5 q-20.5 -7.5 -44.5 -7.5 l-146 0 l0 77 l21 0 q14 0 24 8 q10 8 10 20 l0 180 l-61 -14 l0 77 l61 14 l0 326 l-61 0 l0 77 l61 0 l0 186 l206 0 ZM424 134 l0 154 l-41 0 l0 76 l41 0 l0 51 l190 0 l0 -51 l361 0 l0 -76 l-41 0 l0 -154 l-114 -87 l118 -94 l37 0 l0 -76 l-217 0 l-80 62 l-80 -62 l-215 0 l0 76 l37 0 l117 94 l-113 87 Z" /><glyph glyph-name="cid2215" unicode="&#x8857;" d="M685 795 l280 0 l0 -76 l-280 0 l0 76 ZM337 723 l48 0 l0 102 l208 0 l0 -102 l49 0 l0 -76 l-49 0 l0 -184 l62 0 l0 -76 l-331 0 l0 76 l61 0 l0 184 l-48 0 l0 76 ZM337 221 l48 0 l0 125 l208 0 l0 -125 l49 0 l0 -76 l-49 0 l0 -188 l62 0 l0 -76 l-331 0 l0 76 l61 0 l0 188 l-48 0 l0 76 ZM676 520 l297 0 l0 -76 l-28 0 l0 -470 q0 -20 -7.5 -37 q-7.5 -17 -20 -30 q-12.5 -13 -30 -20.5 q-17.5 -7.5 -37.5 -7.5 l-174 0 l0 76 l32 0 q12 0 20.5 8.5 q8.5 8.5 8.5 19.5 l0 461 l-61 0 l0 76 ZM84 -123 l0 429 l-58 0 l59 247 l-59 0 l72 272 l215 0 l-56 -218 l56 0 l-51 -218 l33 0 l0 -512 l-211 0 Z" /><glyph glyph-name="cid2221" unicode="&#x6770;" d="M773 -122 l-29 289 l196 0 l27 -289 l-194 0 ZM30 -122 l32 289 l196 0 l-34 -289 l-194 0 ZM309 -122 l-28 289 l195 0 l28 -289 l-195 0 ZM542 -122 l-28 289 l195 0 l28 -289 l-195 0 ZM618 823 l0 -121 l355 0 l0 -76 l-83 0 l83 -409 l-233 0 l-82 409 l-40 0 l0 -405 l-238 0 l0 405 l-39 0 l-82 -409 l-233 0 l82 409 l-82 0 l0 76 l354 0 l0 121 l238 0 Z" /><glyph glyph-name="cid2226" unicode="&#x7ed3;" d="M725 238 l-86 0 l0 -286 l58 0 q12 0 20 8 q8 8 8 21 l0 257 ZM25 -41 l330 23 l0 -76 l-330 -23 l0 76 ZM389 721 l168 0 l0 106 l250 0 l0 -106 l167 0 l0 -77 l-167 0 l0 -177 l150 0 l0 -76 l-550 0 l0 76 l150 0 l0 177 l-168 0 l0 77 ZM354 824 l-73 -294 l83 0 l-85 -411 l73 0 l0 -76 l-316 0 l79 333 l-83 0 l110 448 l212 0 ZM941 -29 q0 -20 -7.5 -37 q-7.5 -17 -20 -30 q-12.5 -13 -30 -20.5 q-17.5 -7.5 -36.5 -7.5 l-425 0 l0 438 l519 0 l0 -343 Z" /><glyph glyph-name="cid2227" unicode="&#x89e3;" d="M315 138 l28 0 l0 128 l-28 0 l0 -128 ZM163 138 l29 0 l0 128 l-29 0 l0 -128 ZM315 481 l0 -139 l28 0 l0 139 l-28 0 ZM163 342 l29 0 l0 139 l-29 0 l0 -139 ZM507 423 l45 287 l-59 0 l0 76 l466 0 l0 -268 q0 -20 -7.5 -37 q-7.5 -17 -20 -30 q-12.5 -13 -30 -20.5 q-17.5 -7.5 -37.5 -7.5 l-132 0 l0 76 l23 0 q12 0 20 8.5 q8 8.5 8 20.5 l0 182 l-70 0 l-44 -287 l-162 0 ZM493 142 l35 237 l120 0 l-11 -75 l45 0 l0 92 l176 0 l0 -92 l102 0 l0 -76 l-102 0 l0 -144 l115 0 l0 -76 l-115 0 l0 -132 l-176 0 l0 132 l-179 0 l0 76 l179 0 l0 144 l-57 0 l-12 -86 l-120 0 ZM343 61 l-28 0 l0 -184 l-123 0 l0 184 l-29 0 l0 -184 l-132 0 l0 675 l221 0 l32 125 l-59 0 l-20 -86 l-179 0 l55 234 l180 0 l-18 -72 l225 0 l-50 -201 l58 0 l0 -609 q0 -27 -20 -46.5 q-20 -19.5 -47 -19.5 l-84 0 l0 71 l1 0 q8 0 12.5 5 q4.5 5 4.5 12 l0 96 Z" /></font>
</defs>
</svg>
